G75*
%MOIN*%
%OFA0B0*%
%FSLAX25Y25*%
%IPPOS*%
%LPD*%
%AMOC8*
5,1,8,0,0,1.08239X$1,22.5*
%
%ADD10C,0.00300*%
%ADD11C,0.00200*%
%ADD12C,0.00100*%
%ADD13C,0.00800*%
%ADD14C,0.00600*%
%ADD15C,0.02828*%
%ADD16C,0.00250*%
%ADD17C,0.00984*%
%ADD18C,0.01000*%
%ADD19R,0.02187X0.00312*%
%ADD20R,0.03437X0.00312*%
%ADD21R,0.04375X0.00312*%
%ADD22R,0.04687X0.00312*%
%ADD23R,0.05000X0.00312*%
%ADD24R,0.05312X0.00312*%
%ADD25R,0.01562X0.00312*%
%ADD26R,0.00937X0.00312*%
%ADD27R,0.01250X0.00312*%
%ADD28R,0.00625X0.00312*%
%ADD29R,0.00937X0.00312*%
%ADD30R,0.00937X0.00312*%
%ADD31R,0.01250X0.00312*%
%ADD32R,0.01250X0.00312*%
%ADD33R,0.07811X0.00312*%
%ADD34R,0.08749X0.00312*%
%ADD35R,0.09374X0.00312*%
%ADD36R,0.09686X0.00312*%
%ADD37R,0.09686X0.00312*%
%ADD38R,0.09686X0.00312*%
%ADD39R,0.04062X0.00312*%
%ADD40R,0.03750X0.00312*%
%ADD41R,0.02812X0.00312*%
%ADD42R,0.02187X0.00312*%
%ADD43R,0.01875X0.00312*%
%ADD44R,0.01562X0.00312*%
%ADD45R,0.01562X0.00312*%
%ADD46R,0.01250X0.00312*%
%ADD47R,0.03750X0.00312*%
%ADD48R,0.06250X0.00312*%
%ADD49R,0.07187X0.00312*%
%ADD50R,0.05624X0.00312*%
%ADD51R,0.04062X0.00312*%
%ADD52R,0.00937X0.00312*%
%ADD53R,0.02812X0.00312*%
%ADD54R,0.00937X0.00312*%
%ADD55R,0.00625X0.00312*%
%ADD56R,0.02812X0.00312*%
%ADD57R,0.04687X0.00312*%
%ADD58R,0.03437X0.00312*%
%ADD59R,0.01250X0.00312*%
%ADD60R,0.03750X0.00312*%
%ADD61R,0.03437X0.00312*%
%ADD62R,0.02187X0.00312*%
D10*
X0011310Y0036083D02*
X0010693Y0036700D01*
X0013162Y0039169D01*
X0013162Y0036700D01*
X0012545Y0036083D01*
X0011310Y0036083D01*
X0010693Y0036700D02*
X0010693Y0039169D01*
X0011310Y0039786D01*
X0012545Y0039786D01*
X0013162Y0039169D01*
X0010927Y0041700D02*
X0010927Y0044169D01*
X0009693Y0042935D02*
X0012162Y0042935D01*
X0012162Y0053935D02*
X0009693Y0053935D01*
X0137693Y0039169D02*
X0137693Y0038552D01*
X0138310Y0037935D01*
X0139545Y0037935D01*
X0140162Y0037317D01*
X0140162Y0036700D01*
X0139545Y0036083D01*
X0138310Y0036083D01*
X0137693Y0036700D01*
X0137693Y0037317D01*
X0138310Y0037935D01*
X0139545Y0037935D02*
X0140162Y0038552D01*
X0140162Y0039169D01*
X0139545Y0039786D01*
X0138310Y0039786D01*
X0137693Y0039169D01*
X0201774Y0068733D02*
X0204950Y0068411D01*
X0205291Y0067344D01*
X0205804Y0066347D01*
X0203787Y0063873D01*
X0205483Y0062177D01*
X0207957Y0064194D01*
X0208953Y0063681D01*
X0210366Y0067091D01*
X0209834Y0067376D01*
X0209368Y0067758D01*
X0208985Y0068224D01*
X0208701Y0068756D01*
X0208526Y0069333D01*
X0208467Y0069933D01*
X0208532Y0070561D01*
X0208724Y0071163D01*
X0209034Y0071713D01*
X0209451Y0072188D01*
X0209955Y0072568D01*
X0210527Y0072836D01*
X0211141Y0072983D01*
X0211773Y0073000D01*
X0212394Y0072889D01*
X0212980Y0072653D01*
X0213505Y0072302D01*
X0213948Y0071851D01*
X0214289Y0071319D01*
X0214514Y0070729D01*
X0214614Y0070106D01*
X0214585Y0069475D01*
X0214427Y0068863D01*
X0214148Y0068297D01*
X0213758Y0067799D01*
X0213276Y0067392D01*
X0212720Y0067091D01*
X0214133Y0063681D01*
X0215129Y0064194D01*
X0217603Y0062177D01*
X0219299Y0063873D01*
X0217282Y0066347D01*
X0217795Y0067344D01*
X0218136Y0068411D01*
X0221312Y0068733D01*
X0221312Y0071133D01*
X0218136Y0071455D01*
X0217795Y0072523D01*
X0217282Y0073519D01*
X0219299Y0075993D01*
X0217603Y0077689D01*
X0215129Y0075672D01*
X0214133Y0076185D01*
X0213065Y0076526D01*
X0212743Y0079702D01*
X0210343Y0079702D01*
X0210021Y0076526D01*
X0208954Y0076185D01*
X0207957Y0075672D01*
X0205483Y0077689D01*
X0203787Y0075993D01*
X0205804Y0073519D01*
X0205291Y0072523D01*
X0204950Y0071455D01*
X0201774Y0071133D01*
X0201774Y0068733D01*
X0201774Y0068859D02*
X0208670Y0068859D01*
X0208579Y0069157D02*
X0201774Y0069157D01*
X0201774Y0069456D02*
X0208514Y0069456D01*
X0208485Y0069754D02*
X0201774Y0069754D01*
X0201774Y0070053D02*
X0208479Y0070053D01*
X0208510Y0070351D02*
X0201774Y0070351D01*
X0201774Y0070650D02*
X0208560Y0070650D01*
X0208655Y0070948D02*
X0201774Y0070948D01*
X0202900Y0071247D02*
X0208771Y0071247D01*
X0208940Y0071545D02*
X0204979Y0071545D01*
X0205074Y0071844D02*
X0209149Y0071844D01*
X0209411Y0072143D02*
X0205170Y0072143D01*
X0205265Y0072441D02*
X0209787Y0072441D01*
X0210321Y0072740D02*
X0205403Y0072740D01*
X0205557Y0073038D02*
X0217529Y0073038D01*
X0217376Y0073337D02*
X0205711Y0073337D01*
X0205710Y0073635D02*
X0217376Y0073635D01*
X0217620Y0073934D02*
X0205466Y0073934D01*
X0205223Y0074232D02*
X0217863Y0074232D01*
X0218107Y0074531D02*
X0204980Y0074531D01*
X0204736Y0074829D02*
X0218350Y0074829D01*
X0218593Y0075128D02*
X0204493Y0075128D01*
X0204249Y0075426D02*
X0218837Y0075426D01*
X0219080Y0075725D02*
X0215194Y0075725D01*
X0215026Y0075725D02*
X0208060Y0075725D01*
X0207892Y0075725D02*
X0204006Y0075725D01*
X0203817Y0076023D02*
X0207526Y0076023D01*
X0207160Y0076322D02*
X0204116Y0076322D01*
X0204414Y0076620D02*
X0206794Y0076620D01*
X0206428Y0076919D02*
X0204713Y0076919D01*
X0205011Y0077217D02*
X0206062Y0077217D01*
X0205696Y0077516D02*
X0205310Y0077516D01*
X0208640Y0076023D02*
X0214446Y0076023D01*
X0213705Y0076322D02*
X0209381Y0076322D01*
X0210031Y0076620D02*
X0213056Y0076620D01*
X0213025Y0076919D02*
X0210061Y0076919D01*
X0210091Y0077217D02*
X0212995Y0077217D01*
X0212965Y0077516D02*
X0210121Y0077516D01*
X0210152Y0077814D02*
X0212934Y0077814D01*
X0212904Y0078113D02*
X0210182Y0078113D01*
X0210212Y0078411D02*
X0212874Y0078411D01*
X0212843Y0078710D02*
X0210243Y0078710D01*
X0210273Y0079008D02*
X0212813Y0079008D01*
X0212783Y0079307D02*
X0210303Y0079307D01*
X0210334Y0079605D02*
X0212753Y0079605D01*
X0215560Y0076023D02*
X0219269Y0076023D01*
X0218970Y0076322D02*
X0215926Y0076322D01*
X0216292Y0076620D02*
X0218672Y0076620D01*
X0218373Y0076919D02*
X0216658Y0076919D01*
X0217024Y0077217D02*
X0218075Y0077217D01*
X0217776Y0077516D02*
X0217390Y0077516D01*
X0217683Y0072740D02*
X0212765Y0072740D01*
X0213297Y0072441D02*
X0217821Y0072441D01*
X0217916Y0072143D02*
X0213662Y0072143D01*
X0213952Y0071844D02*
X0218012Y0071844D01*
X0218107Y0071545D02*
X0214144Y0071545D01*
X0214316Y0071247D02*
X0220186Y0071247D01*
X0221312Y0070948D02*
X0214430Y0070948D01*
X0214527Y0070650D02*
X0221312Y0070650D01*
X0221312Y0070351D02*
X0214575Y0070351D01*
X0214612Y0070053D02*
X0221312Y0070053D01*
X0221312Y0069754D02*
X0214598Y0069754D01*
X0214580Y0069456D02*
X0221312Y0069456D01*
X0221312Y0069157D02*
X0214503Y0069157D01*
X0214425Y0068859D02*
X0221312Y0068859D01*
X0219608Y0068560D02*
X0214278Y0068560D01*
X0214120Y0068262D02*
X0218089Y0068262D01*
X0217993Y0067963D02*
X0213887Y0067963D01*
X0213599Y0067665D02*
X0217898Y0067665D01*
X0217802Y0067366D02*
X0213229Y0067366D01*
X0212730Y0067068D02*
X0217653Y0067068D01*
X0217499Y0066769D02*
X0212854Y0066769D01*
X0212977Y0066471D02*
X0217345Y0066471D01*
X0217424Y0066172D02*
X0213101Y0066172D01*
X0213225Y0065874D02*
X0217668Y0065874D01*
X0217911Y0065575D02*
X0213348Y0065575D01*
X0213472Y0065277D02*
X0218155Y0065277D01*
X0218398Y0064978D02*
X0213596Y0064978D01*
X0213719Y0064680D02*
X0218641Y0064680D01*
X0218885Y0064381D02*
X0213843Y0064381D01*
X0213966Y0064083D02*
X0214912Y0064083D01*
X0215266Y0064083D02*
X0219128Y0064083D01*
X0219210Y0063784D02*
X0215632Y0063784D01*
X0215998Y0063486D02*
X0218911Y0063486D01*
X0218613Y0063187D02*
X0216364Y0063187D01*
X0216730Y0062889D02*
X0218314Y0062889D01*
X0218016Y0062590D02*
X0217096Y0062590D01*
X0217463Y0062292D02*
X0217717Y0062292D01*
X0214333Y0063784D02*
X0214090Y0063784D01*
X0209738Y0065575D02*
X0205175Y0065575D01*
X0204932Y0065277D02*
X0209614Y0065277D01*
X0209491Y0064978D02*
X0204688Y0064978D01*
X0204445Y0064680D02*
X0209367Y0064680D01*
X0209243Y0064381D02*
X0204201Y0064381D01*
X0203958Y0064083D02*
X0207820Y0064083D01*
X0208174Y0064083D02*
X0209120Y0064083D01*
X0208996Y0063784D02*
X0208753Y0063784D01*
X0207454Y0063784D02*
X0203876Y0063784D01*
X0204175Y0063486D02*
X0207088Y0063486D01*
X0206722Y0063187D02*
X0204473Y0063187D01*
X0204772Y0062889D02*
X0206356Y0062889D01*
X0205990Y0062590D02*
X0205070Y0062590D01*
X0205369Y0062292D02*
X0205624Y0062292D01*
X0205418Y0065874D02*
X0209862Y0065874D01*
X0209985Y0066172D02*
X0205662Y0066172D01*
X0205741Y0066471D02*
X0210109Y0066471D01*
X0210233Y0066769D02*
X0205587Y0066769D01*
X0205433Y0067068D02*
X0210356Y0067068D01*
X0209851Y0067366D02*
X0205284Y0067366D01*
X0205189Y0067665D02*
X0209482Y0067665D01*
X0209199Y0067963D02*
X0205093Y0067963D01*
X0204997Y0068262D02*
X0208965Y0068262D01*
X0208806Y0068560D02*
X0203479Y0068560D01*
X0219693Y0053935D02*
X0222162Y0053935D01*
X0220927Y0044169D02*
X0220927Y0041700D01*
X0219693Y0042935D02*
X0222162Y0042935D01*
X0222162Y0183935D02*
X0219693Y0183935D01*
X0220927Y0193700D02*
X0220927Y0196169D01*
X0219693Y0194935D02*
X0222162Y0194935D01*
X0220228Y0198083D02*
X0220228Y0201786D01*
X0218376Y0199935D01*
X0220845Y0199935D01*
X0217162Y0200552D02*
X0217162Y0201169D01*
X0216545Y0201786D01*
X0215310Y0201786D01*
X0214693Y0201169D01*
X0217162Y0200552D02*
X0214693Y0198083D01*
X0217162Y0198083D01*
X0100845Y0191786D02*
X0099611Y0191169D01*
X0098376Y0189935D01*
X0100228Y0189935D01*
X0100845Y0189317D01*
X0100845Y0188700D01*
X0100228Y0188083D01*
X0098993Y0188083D01*
X0098376Y0188700D01*
X0098376Y0189935D01*
X0097162Y0188083D02*
X0094693Y0188083D01*
X0095927Y0188083D02*
X0095927Y0191786D01*
X0094693Y0190552D01*
X0012162Y0194935D02*
X0009693Y0194935D01*
X0010927Y0196169D02*
X0010927Y0193700D01*
X0009693Y0183935D02*
X0012162Y0183935D01*
D11*
X0013051Y0174343D02*
X0015183Y0174343D01*
X0015609Y0173917D01*
X0015609Y0173490D01*
X0014756Y0173064D02*
X0014756Y0174343D01*
X0014756Y0173064D02*
X0014330Y0172638D01*
X0013051Y0172638D01*
X0013477Y0171805D02*
X0013051Y0171379D01*
X0013051Y0170100D01*
X0012198Y0170100D02*
X0014756Y0170100D01*
X0014756Y0171379D01*
X0014330Y0171805D01*
X0013477Y0171805D01*
X0013051Y0166730D02*
X0013051Y0165451D01*
X0013477Y0165025D01*
X0014330Y0165025D01*
X0014756Y0165451D01*
X0014756Y0166730D01*
X0012198Y0166730D01*
X0013477Y0164193D02*
X0013051Y0163766D01*
X0013051Y0162914D01*
X0013477Y0162487D01*
X0014330Y0162487D01*
X0014756Y0162914D01*
X0014756Y0163766D01*
X0013903Y0164193D02*
X0013903Y0162487D01*
X0013051Y0161652D02*
X0013051Y0161225D01*
X0013903Y0160373D01*
X0013903Y0159540D02*
X0013903Y0157835D01*
X0013477Y0157835D02*
X0013051Y0158261D01*
X0013051Y0159114D01*
X0013477Y0159540D01*
X0013903Y0159540D01*
X0014756Y0159114D02*
X0014756Y0158261D01*
X0014330Y0157835D01*
X0013477Y0157835D01*
X0013051Y0157003D02*
X0014330Y0157003D01*
X0014756Y0156576D01*
X0014330Y0156150D01*
X0014756Y0155724D01*
X0014330Y0155297D01*
X0013051Y0155297D01*
X0013477Y0154465D02*
X0013051Y0154039D01*
X0013051Y0153186D01*
X0013477Y0152760D01*
X0014330Y0152760D01*
X0014756Y0153186D01*
X0014756Y0154039D01*
X0014330Y0154465D01*
X0013477Y0154465D01*
X0013477Y0151928D02*
X0012624Y0151928D01*
X0012198Y0151501D01*
X0012198Y0150222D01*
X0014756Y0150222D01*
X0013903Y0150222D02*
X0013903Y0151501D01*
X0013477Y0151928D01*
X0013051Y0160373D02*
X0014756Y0160373D01*
X0013903Y0164193D02*
X0013477Y0164193D01*
X0013220Y0199033D02*
X0012853Y0199400D01*
X0013220Y0199033D02*
X0013954Y0199033D01*
X0014321Y0199400D01*
X0014321Y0199767D01*
X0013954Y0200134D01*
X0013587Y0200134D01*
X0013954Y0200134D02*
X0014321Y0200501D01*
X0014321Y0200868D01*
X0013954Y0201235D01*
X0013220Y0201235D01*
X0012853Y0200868D01*
X0012111Y0200868D02*
X0011744Y0201235D01*
X0011010Y0201235D01*
X0010643Y0200868D01*
X0012111Y0200868D02*
X0012111Y0200501D01*
X0010643Y0199033D01*
X0012111Y0199033D01*
X0139643Y0200400D02*
X0140010Y0200033D01*
X0140744Y0200033D01*
X0141111Y0200400D01*
X0141111Y0200767D01*
X0140744Y0201134D01*
X0140377Y0201134D01*
X0140744Y0201134D02*
X0141111Y0201501D01*
X0141111Y0201868D01*
X0140744Y0202235D01*
X0140010Y0202235D01*
X0139643Y0201868D01*
X0141853Y0201501D02*
X0142587Y0202235D01*
X0142587Y0200033D01*
X0141853Y0200033D02*
X0143321Y0200033D01*
X0211643Y0143235D02*
X0212744Y0143235D01*
X0213111Y0142868D01*
X0213111Y0142134D01*
X0212744Y0141767D01*
X0211643Y0141767D01*
X0211643Y0141033D02*
X0211643Y0143235D01*
X0212377Y0141767D02*
X0213111Y0141033D01*
X0213853Y0141033D02*
X0215321Y0141033D01*
X0216063Y0141400D02*
X0216430Y0141033D01*
X0217164Y0141033D01*
X0217531Y0141400D01*
X0217531Y0141767D01*
X0217164Y0142134D01*
X0216430Y0142134D01*
X0216063Y0142501D01*
X0216063Y0142868D01*
X0216430Y0143235D01*
X0217164Y0143235D01*
X0217531Y0142868D01*
X0218273Y0143235D02*
X0218273Y0141033D01*
X0219741Y0141033D01*
X0219007Y0142134D02*
X0218273Y0142134D01*
X0218273Y0143235D02*
X0219741Y0143235D01*
X0220483Y0143235D02*
X0221951Y0143235D01*
X0221217Y0143235D02*
X0221217Y0141033D01*
X0215321Y0143235D02*
X0213853Y0143235D01*
X0213853Y0141033D01*
X0213853Y0142134D02*
X0214587Y0142134D01*
X0173794Y0135868D02*
X0173794Y0135134D01*
X0173427Y0134767D01*
X0172326Y0134767D01*
X0172326Y0134033D02*
X0172326Y0136235D01*
X0173427Y0136235D01*
X0173794Y0135868D01*
X0171584Y0135868D02*
X0171217Y0136235D01*
X0170483Y0136235D01*
X0170116Y0135868D01*
X0170116Y0135501D01*
X0170483Y0135134D01*
X0171217Y0135134D01*
X0171584Y0134767D01*
X0171584Y0134400D01*
X0171217Y0134033D01*
X0170483Y0134033D01*
X0170116Y0134400D01*
X0169377Y0134033D02*
X0168643Y0134033D01*
X0169010Y0134033D02*
X0169010Y0136235D01*
X0168643Y0136235D02*
X0169377Y0136235D01*
X0203010Y0089235D02*
X0202643Y0088868D01*
X0202643Y0088501D01*
X0203010Y0088134D01*
X0203744Y0088134D01*
X0204111Y0087767D01*
X0204111Y0087400D01*
X0203744Y0087033D01*
X0203010Y0087033D01*
X0202643Y0087400D01*
X0203010Y0089235D02*
X0203744Y0089235D01*
X0204111Y0088868D01*
X0204853Y0089235D02*
X0206321Y0089235D01*
X0205587Y0089235D02*
X0205587Y0087033D01*
X0207063Y0087033D02*
X0207063Y0088501D01*
X0207797Y0089235D01*
X0208531Y0088501D01*
X0208531Y0087033D01*
X0208531Y0088134D02*
X0207063Y0088134D01*
X0209273Y0089235D02*
X0210741Y0089235D01*
X0210007Y0089235D02*
X0210007Y0087033D01*
X0211483Y0087400D02*
X0211483Y0089235D01*
X0212951Y0089235D02*
X0212951Y0087400D01*
X0212584Y0087033D01*
X0211850Y0087033D01*
X0211483Y0087400D01*
X0213692Y0087400D02*
X0214059Y0087033D01*
X0214793Y0087033D01*
X0215160Y0087400D01*
X0215160Y0087767D01*
X0214793Y0088134D01*
X0214059Y0088134D01*
X0213692Y0088501D01*
X0213692Y0088868D01*
X0214059Y0089235D01*
X0214793Y0089235D01*
X0215160Y0088868D01*
X0218377Y0039235D02*
X0218377Y0037033D01*
X0217643Y0037033D02*
X0219111Y0037033D01*
X0219853Y0037400D02*
X0220220Y0037033D01*
X0220954Y0037033D01*
X0221321Y0037400D01*
X0221321Y0038134D01*
X0220954Y0038501D01*
X0220587Y0038501D01*
X0219853Y0038134D01*
X0219853Y0039235D01*
X0221321Y0039235D01*
X0218377Y0039235D02*
X0217643Y0038501D01*
X0097111Y0049868D02*
X0095643Y0048400D01*
X0095643Y0048033D01*
X0095643Y0050235D02*
X0097111Y0050235D01*
X0097111Y0049868D01*
X0086321Y0088033D02*
X0084853Y0090235D01*
X0084111Y0090235D02*
X0082643Y0090235D01*
X0083377Y0090235D02*
X0083377Y0088033D01*
X0084853Y0088033D02*
X0086321Y0090235D01*
X0070321Y0090235D02*
X0068853Y0088033D01*
X0068111Y0088033D02*
X0067377Y0088767D01*
X0067744Y0088767D02*
X0066643Y0088767D01*
X0066643Y0088033D02*
X0066643Y0090235D01*
X0067744Y0090235D01*
X0068111Y0089868D01*
X0068111Y0089134D01*
X0067744Y0088767D01*
X0068853Y0090235D02*
X0070321Y0088033D01*
D12*
X0094593Y0133983D02*
X0094593Y0134984D01*
X0095093Y0135484D01*
X0095594Y0134984D01*
X0095594Y0133983D01*
X0096066Y0133983D02*
X0096817Y0133983D01*
X0097067Y0134233D01*
X0097067Y0135234D01*
X0096817Y0135484D01*
X0096066Y0135484D01*
X0096066Y0133983D01*
X0095594Y0134734D02*
X0094593Y0134734D01*
X0097540Y0135234D02*
X0097540Y0134233D01*
X0097790Y0133983D01*
X0098290Y0133983D01*
X0098540Y0134233D01*
X0099013Y0133983D02*
X0100014Y0134984D01*
X0100014Y0135234D01*
X0099763Y0135484D01*
X0099263Y0135484D01*
X0099013Y0135234D01*
X0098540Y0135234D02*
X0098290Y0135484D01*
X0097790Y0135484D01*
X0097540Y0135234D01*
X0099013Y0133983D02*
X0100014Y0133983D01*
X0089763Y0147983D02*
X0089263Y0147983D01*
X0089013Y0148233D01*
X0088540Y0148233D02*
X0088290Y0147983D01*
X0087790Y0147983D01*
X0087540Y0148233D01*
X0087540Y0149234D01*
X0087790Y0149484D01*
X0088290Y0149484D01*
X0088540Y0149234D01*
X0089013Y0149234D02*
X0089263Y0149484D01*
X0089763Y0149484D01*
X0090014Y0149234D01*
X0090014Y0148984D01*
X0089763Y0148734D01*
X0090014Y0148483D01*
X0090014Y0148233D01*
X0089763Y0147983D01*
X0089763Y0148734D02*
X0089513Y0148734D01*
X0087067Y0148233D02*
X0087067Y0149234D01*
X0086817Y0149484D01*
X0086066Y0149484D01*
X0086066Y0147983D01*
X0086817Y0147983D01*
X0087067Y0148233D01*
X0085594Y0147983D02*
X0085594Y0148984D01*
X0085093Y0149484D01*
X0084593Y0148984D01*
X0084593Y0147983D01*
X0084593Y0148734D02*
X0085594Y0148734D01*
X0079540Y0148734D02*
X0078540Y0148734D01*
X0078540Y0148984D02*
X0079040Y0149484D01*
X0079540Y0148984D01*
X0079540Y0147983D01*
X0078540Y0147983D02*
X0078540Y0148984D01*
X0078067Y0149234D02*
X0077817Y0149484D01*
X0077066Y0149484D01*
X0077066Y0147983D01*
X0077817Y0147983D01*
X0078067Y0148233D01*
X0078067Y0149234D01*
X0076594Y0149234D02*
X0076344Y0149484D01*
X0075843Y0149484D01*
X0075593Y0149234D01*
X0075593Y0148984D01*
X0075843Y0148734D01*
X0076344Y0148734D01*
X0076594Y0148483D01*
X0076594Y0148233D01*
X0076344Y0147983D01*
X0075843Y0147983D01*
X0075593Y0148233D01*
X0069540Y0147983D02*
X0068540Y0147983D01*
X0068540Y0149484D01*
X0068067Y0149234D02*
X0067817Y0149484D01*
X0067317Y0149484D01*
X0067066Y0149234D01*
X0067066Y0148233D01*
X0067317Y0147983D01*
X0067817Y0147983D01*
X0068067Y0148233D01*
X0066594Y0148233D02*
X0066344Y0147983D01*
X0065843Y0147983D01*
X0065593Y0148233D01*
X0065843Y0148734D02*
X0066344Y0148734D01*
X0066594Y0148483D01*
X0066594Y0148233D01*
X0065843Y0148734D02*
X0065593Y0148984D01*
X0065593Y0149234D01*
X0065843Y0149484D01*
X0066344Y0149484D01*
X0066594Y0149234D01*
X0059523Y0149234D02*
X0059523Y0148233D01*
X0059272Y0147983D01*
X0058772Y0147983D01*
X0058522Y0148233D01*
X0059523Y0149234D01*
X0059272Y0149484D01*
X0058772Y0149484D01*
X0058522Y0149234D01*
X0058522Y0148233D01*
X0057549Y0147983D02*
X0057549Y0149484D01*
X0058049Y0149484D02*
X0057048Y0149484D01*
X0056576Y0149484D02*
X0056576Y0147983D01*
X0055575Y0149484D01*
X0055575Y0147983D01*
X0055093Y0147983D02*
X0054593Y0147983D01*
X0054843Y0147983D02*
X0054843Y0149484D01*
X0054593Y0149484D02*
X0055093Y0149484D01*
X0049540Y0149484D02*
X0049540Y0148483D01*
X0049040Y0147983D01*
X0048540Y0148483D01*
X0048540Y0149484D01*
X0048067Y0149484D02*
X0047066Y0149484D01*
X0047066Y0148734D01*
X0047567Y0148984D01*
X0047817Y0148984D01*
X0048067Y0148734D01*
X0048067Y0148233D01*
X0047817Y0147983D01*
X0047317Y0147983D01*
X0047066Y0148233D01*
X0046594Y0148734D02*
X0045593Y0148734D01*
X0046093Y0149234D02*
X0046093Y0148233D01*
X0034540Y0148233D02*
X0034540Y0149234D01*
X0034290Y0149484D01*
X0033540Y0149484D01*
X0033540Y0147983D01*
X0034290Y0147983D01*
X0034540Y0148233D01*
X0033067Y0147983D02*
X0033067Y0149484D01*
X0032066Y0149484D02*
X0032066Y0147983D01*
X0031594Y0148233D02*
X0031594Y0148734D01*
X0031093Y0148734D01*
X0030593Y0149234D02*
X0030593Y0148233D01*
X0030843Y0147983D01*
X0031344Y0147983D01*
X0031594Y0148233D01*
X0031594Y0149234D02*
X0031344Y0149484D01*
X0030843Y0149484D01*
X0030593Y0149234D01*
X0032066Y0149484D02*
X0033067Y0147983D01*
X0019049Y0147983D02*
X0019049Y0149484D01*
X0018048Y0149484D02*
X0018048Y0147983D01*
X0017567Y0147983D02*
X0017066Y0147983D01*
X0017317Y0147983D02*
X0017317Y0149484D01*
X0017567Y0149484D02*
X0017066Y0149484D01*
X0016594Y0149484D02*
X0016594Y0148483D01*
X0016093Y0147983D01*
X0015593Y0148483D01*
X0015593Y0149484D01*
X0018048Y0149484D02*
X0019049Y0147983D01*
X0170992Y0130680D02*
X0170992Y0129930D01*
X0172493Y0129930D01*
X0172493Y0130680D01*
X0172243Y0130930D01*
X0171242Y0130930D01*
X0170992Y0130680D01*
X0170992Y0129457D02*
X0172493Y0129457D01*
X0170992Y0128456D01*
X0172493Y0128456D01*
X0172243Y0127984D02*
X0171742Y0127984D01*
X0171742Y0127483D01*
X0171242Y0126983D02*
X0172243Y0126983D01*
X0172493Y0127233D01*
X0172493Y0127734D01*
X0172243Y0127984D01*
X0171242Y0127984D02*
X0170992Y0127734D01*
X0170992Y0127233D01*
X0171242Y0126983D01*
D13*
X0147342Y0132732D02*
X0147342Y0105134D01*
X0121141Y0105134D01*
X0119744Y0106531D01*
X0119744Y0132732D01*
X0147342Y0132732D01*
X0155258Y0155133D02*
X0155260Y0155180D01*
X0155266Y0155227D01*
X0155276Y0155274D01*
X0155289Y0155319D01*
X0155307Y0155363D01*
X0155328Y0155405D01*
X0155352Y0155446D01*
X0155380Y0155484D01*
X0155411Y0155520D01*
X0155445Y0155553D01*
X0155481Y0155583D01*
X0155520Y0155610D01*
X0155561Y0155634D01*
X0155604Y0155654D01*
X0155648Y0155670D01*
X0155694Y0155683D01*
X0155740Y0155692D01*
X0155788Y0155697D01*
X0155835Y0155698D01*
X0155882Y0155695D01*
X0155929Y0155688D01*
X0155975Y0155677D01*
X0156020Y0155663D01*
X0156064Y0155644D01*
X0156105Y0155622D01*
X0156145Y0155597D01*
X0156183Y0155568D01*
X0156218Y0155537D01*
X0156251Y0155502D01*
X0156280Y0155465D01*
X0156306Y0155426D01*
X0156329Y0155384D01*
X0156348Y0155341D01*
X0156364Y0155296D01*
X0156376Y0155250D01*
X0156384Y0155204D01*
X0156388Y0155157D01*
X0156388Y0155109D01*
X0156384Y0155062D01*
X0156376Y0155016D01*
X0156364Y0154970D01*
X0156348Y0154925D01*
X0156329Y0154882D01*
X0156306Y0154840D01*
X0156280Y0154801D01*
X0156251Y0154764D01*
X0156218Y0154729D01*
X0156183Y0154698D01*
X0156145Y0154669D01*
X0156106Y0154644D01*
X0156064Y0154622D01*
X0156020Y0154603D01*
X0155975Y0154589D01*
X0155929Y0154578D01*
X0155882Y0154571D01*
X0155835Y0154568D01*
X0155788Y0154569D01*
X0155740Y0154574D01*
X0155694Y0154583D01*
X0155648Y0154596D01*
X0155604Y0154612D01*
X0155561Y0154632D01*
X0155520Y0154656D01*
X0155481Y0154683D01*
X0155445Y0154713D01*
X0155411Y0154746D01*
X0155380Y0154782D01*
X0155352Y0154820D01*
X0155328Y0154861D01*
X0155307Y0154903D01*
X0155289Y0154947D01*
X0155276Y0154992D01*
X0155266Y0155039D01*
X0155260Y0155086D01*
X0155258Y0155133D01*
X0157043Y0156233D02*
X0158543Y0156233D01*
X0157043Y0156233D02*
X0157043Y0171633D01*
X0158543Y0171633D01*
X0178543Y0171633D02*
X0180043Y0171633D01*
X0180043Y0156233D01*
X0178543Y0156233D01*
X0195258Y0155133D02*
X0195260Y0155180D01*
X0195266Y0155227D01*
X0195276Y0155274D01*
X0195289Y0155319D01*
X0195307Y0155363D01*
X0195328Y0155405D01*
X0195352Y0155446D01*
X0195380Y0155484D01*
X0195411Y0155520D01*
X0195445Y0155553D01*
X0195481Y0155583D01*
X0195520Y0155610D01*
X0195561Y0155634D01*
X0195604Y0155654D01*
X0195648Y0155670D01*
X0195694Y0155683D01*
X0195740Y0155692D01*
X0195788Y0155697D01*
X0195835Y0155698D01*
X0195882Y0155695D01*
X0195929Y0155688D01*
X0195975Y0155677D01*
X0196020Y0155663D01*
X0196064Y0155644D01*
X0196105Y0155622D01*
X0196145Y0155597D01*
X0196183Y0155568D01*
X0196218Y0155537D01*
X0196251Y0155502D01*
X0196280Y0155465D01*
X0196306Y0155426D01*
X0196329Y0155384D01*
X0196348Y0155341D01*
X0196364Y0155296D01*
X0196376Y0155250D01*
X0196384Y0155204D01*
X0196388Y0155157D01*
X0196388Y0155109D01*
X0196384Y0155062D01*
X0196376Y0155016D01*
X0196364Y0154970D01*
X0196348Y0154925D01*
X0196329Y0154882D01*
X0196306Y0154840D01*
X0196280Y0154801D01*
X0196251Y0154764D01*
X0196218Y0154729D01*
X0196183Y0154698D01*
X0196145Y0154669D01*
X0196106Y0154644D01*
X0196064Y0154622D01*
X0196020Y0154603D01*
X0195975Y0154589D01*
X0195929Y0154578D01*
X0195882Y0154571D01*
X0195835Y0154568D01*
X0195788Y0154569D01*
X0195740Y0154574D01*
X0195694Y0154583D01*
X0195648Y0154596D01*
X0195604Y0154612D01*
X0195561Y0154632D01*
X0195520Y0154656D01*
X0195481Y0154683D01*
X0195445Y0154713D01*
X0195411Y0154746D01*
X0195380Y0154782D01*
X0195352Y0154820D01*
X0195328Y0154861D01*
X0195307Y0154903D01*
X0195289Y0154947D01*
X0195276Y0154992D01*
X0195266Y0155039D01*
X0195260Y0155086D01*
X0195258Y0155133D01*
X0197043Y0156233D02*
X0198543Y0156233D01*
X0197043Y0156233D02*
X0197043Y0171633D01*
X0198543Y0171633D01*
X0218543Y0171633D02*
X0220043Y0171633D01*
X0220043Y0156233D01*
X0218543Y0156233D01*
X0162905Y0104232D02*
X0158181Y0104232D01*
X0150701Y0099114D02*
X0150701Y0096752D01*
X0158181Y0091634D02*
X0162905Y0091634D01*
X0170386Y0096752D02*
X0170386Y0099114D01*
X0160698Y0082733D02*
X0160700Y0082780D01*
X0160706Y0082827D01*
X0160716Y0082874D01*
X0160729Y0082919D01*
X0160747Y0082963D01*
X0160768Y0083005D01*
X0160792Y0083046D01*
X0160820Y0083084D01*
X0160851Y0083120D01*
X0160885Y0083153D01*
X0160921Y0083183D01*
X0160960Y0083210D01*
X0161001Y0083234D01*
X0161044Y0083254D01*
X0161088Y0083270D01*
X0161134Y0083283D01*
X0161180Y0083292D01*
X0161228Y0083297D01*
X0161275Y0083298D01*
X0161322Y0083295D01*
X0161369Y0083288D01*
X0161415Y0083277D01*
X0161460Y0083263D01*
X0161504Y0083244D01*
X0161545Y0083222D01*
X0161585Y0083197D01*
X0161623Y0083168D01*
X0161658Y0083137D01*
X0161691Y0083102D01*
X0161720Y0083065D01*
X0161746Y0083026D01*
X0161769Y0082984D01*
X0161788Y0082941D01*
X0161804Y0082896D01*
X0161816Y0082850D01*
X0161824Y0082804D01*
X0161828Y0082757D01*
X0161828Y0082709D01*
X0161824Y0082662D01*
X0161816Y0082616D01*
X0161804Y0082570D01*
X0161788Y0082525D01*
X0161769Y0082482D01*
X0161746Y0082440D01*
X0161720Y0082401D01*
X0161691Y0082364D01*
X0161658Y0082329D01*
X0161623Y0082298D01*
X0161585Y0082269D01*
X0161546Y0082244D01*
X0161504Y0082222D01*
X0161460Y0082203D01*
X0161415Y0082189D01*
X0161369Y0082178D01*
X0161322Y0082171D01*
X0161275Y0082168D01*
X0161228Y0082169D01*
X0161180Y0082174D01*
X0161134Y0082183D01*
X0161088Y0082196D01*
X0161044Y0082212D01*
X0161001Y0082232D01*
X0160960Y0082256D01*
X0160921Y0082283D01*
X0160885Y0082313D01*
X0160851Y0082346D01*
X0160820Y0082382D01*
X0160792Y0082420D01*
X0160768Y0082461D01*
X0160747Y0082503D01*
X0160729Y0082547D01*
X0160716Y0082592D01*
X0160706Y0082639D01*
X0160700Y0082686D01*
X0160698Y0082733D01*
X0160043Y0081633D02*
X0158543Y0081633D01*
X0160043Y0081633D02*
X0160043Y0066233D01*
X0158543Y0066233D01*
X0177043Y0066233D02*
X0177043Y0081633D01*
X0178543Y0081633D01*
X0178543Y0066233D02*
X0177043Y0066233D01*
X0198543Y0066233D02*
X0200043Y0066233D01*
X0200043Y0081633D01*
X0198543Y0081633D01*
X0200698Y0082733D02*
X0200700Y0082780D01*
X0200706Y0082827D01*
X0200716Y0082874D01*
X0200729Y0082919D01*
X0200747Y0082963D01*
X0200768Y0083005D01*
X0200792Y0083046D01*
X0200820Y0083084D01*
X0200851Y0083120D01*
X0200885Y0083153D01*
X0200921Y0083183D01*
X0200960Y0083210D01*
X0201001Y0083234D01*
X0201044Y0083254D01*
X0201088Y0083270D01*
X0201134Y0083283D01*
X0201180Y0083292D01*
X0201228Y0083297D01*
X0201275Y0083298D01*
X0201322Y0083295D01*
X0201369Y0083288D01*
X0201415Y0083277D01*
X0201460Y0083263D01*
X0201504Y0083244D01*
X0201545Y0083222D01*
X0201585Y0083197D01*
X0201623Y0083168D01*
X0201658Y0083137D01*
X0201691Y0083102D01*
X0201720Y0083065D01*
X0201746Y0083026D01*
X0201769Y0082984D01*
X0201788Y0082941D01*
X0201804Y0082896D01*
X0201816Y0082850D01*
X0201824Y0082804D01*
X0201828Y0082757D01*
X0201828Y0082709D01*
X0201824Y0082662D01*
X0201816Y0082616D01*
X0201804Y0082570D01*
X0201788Y0082525D01*
X0201769Y0082482D01*
X0201746Y0082440D01*
X0201720Y0082401D01*
X0201691Y0082364D01*
X0201658Y0082329D01*
X0201623Y0082298D01*
X0201585Y0082269D01*
X0201546Y0082244D01*
X0201504Y0082222D01*
X0201460Y0082203D01*
X0201415Y0082189D01*
X0201369Y0082178D01*
X0201322Y0082171D01*
X0201275Y0082168D01*
X0201228Y0082169D01*
X0201180Y0082174D01*
X0201134Y0082183D01*
X0201088Y0082196D01*
X0201044Y0082212D01*
X0201001Y0082232D01*
X0200960Y0082256D01*
X0200921Y0082283D01*
X0200885Y0082313D01*
X0200851Y0082346D01*
X0200820Y0082382D01*
X0200792Y0082420D01*
X0200768Y0082461D01*
X0200747Y0082503D01*
X0200729Y0082547D01*
X0200716Y0082592D01*
X0200706Y0082639D01*
X0200700Y0082686D01*
X0200698Y0082733D01*
X0138543Y0081633D02*
X0137043Y0081633D01*
X0137043Y0066233D01*
X0138543Y0066233D01*
X0120748Y0071669D02*
X0119960Y0071669D01*
X0120748Y0071669D02*
X0120748Y0051984D01*
X0119960Y0051984D01*
X0097519Y0051984D02*
X0096732Y0051984D01*
X0096732Y0059465D01*
X0096732Y0059464D02*
X0096819Y0059466D01*
X0096906Y0059472D01*
X0096993Y0059481D01*
X0097079Y0059495D01*
X0097164Y0059512D01*
X0097249Y0059533D01*
X0097332Y0059558D01*
X0097415Y0059586D01*
X0097496Y0059618D01*
X0097575Y0059654D01*
X0097653Y0059693D01*
X0097729Y0059735D01*
X0097803Y0059781D01*
X0097875Y0059830D01*
X0097945Y0059882D01*
X0098012Y0059937D01*
X0098077Y0059995D01*
X0098140Y0060056D01*
X0098199Y0060120D01*
X0098256Y0060186D01*
X0098309Y0060255D01*
X0098360Y0060326D01*
X0098407Y0060399D01*
X0098452Y0060474D01*
X0098492Y0060551D01*
X0098530Y0060629D01*
X0098563Y0060710D01*
X0098594Y0060791D01*
X0098620Y0060874D01*
X0098643Y0060959D01*
X0098662Y0061044D01*
X0098677Y0061129D01*
X0098689Y0061216D01*
X0098697Y0061302D01*
X0098701Y0061389D01*
X0098701Y0061477D01*
X0098697Y0061564D01*
X0098689Y0061650D01*
X0098677Y0061737D01*
X0098662Y0061822D01*
X0098643Y0061907D01*
X0098620Y0061992D01*
X0098594Y0062075D01*
X0098563Y0062156D01*
X0098530Y0062237D01*
X0098492Y0062315D01*
X0098452Y0062392D01*
X0098407Y0062467D01*
X0098360Y0062540D01*
X0098309Y0062611D01*
X0098256Y0062680D01*
X0098199Y0062746D01*
X0098140Y0062810D01*
X0098077Y0062871D01*
X0098012Y0062929D01*
X0097945Y0062984D01*
X0097875Y0063036D01*
X0097803Y0063085D01*
X0097729Y0063131D01*
X0097653Y0063173D01*
X0097575Y0063212D01*
X0097496Y0063248D01*
X0097415Y0063280D01*
X0097332Y0063308D01*
X0097249Y0063333D01*
X0097164Y0063354D01*
X0097079Y0063371D01*
X0096993Y0063385D01*
X0096906Y0063394D01*
X0096819Y0063400D01*
X0096732Y0063402D01*
X0096732Y0071669D01*
X0097519Y0071669D01*
X0075043Y0066233D02*
X0073543Y0066233D01*
X0075043Y0066233D02*
X0075043Y0081633D01*
X0073543Y0081633D01*
X0075698Y0082733D02*
X0075700Y0082780D01*
X0075706Y0082827D01*
X0075716Y0082874D01*
X0075729Y0082919D01*
X0075747Y0082963D01*
X0075768Y0083005D01*
X0075792Y0083046D01*
X0075820Y0083084D01*
X0075851Y0083120D01*
X0075885Y0083153D01*
X0075921Y0083183D01*
X0075960Y0083210D01*
X0076001Y0083234D01*
X0076044Y0083254D01*
X0076088Y0083270D01*
X0076134Y0083283D01*
X0076180Y0083292D01*
X0076228Y0083297D01*
X0076275Y0083298D01*
X0076322Y0083295D01*
X0076369Y0083288D01*
X0076415Y0083277D01*
X0076460Y0083263D01*
X0076504Y0083244D01*
X0076545Y0083222D01*
X0076585Y0083197D01*
X0076623Y0083168D01*
X0076658Y0083137D01*
X0076691Y0083102D01*
X0076720Y0083065D01*
X0076746Y0083026D01*
X0076769Y0082984D01*
X0076788Y0082941D01*
X0076804Y0082896D01*
X0076816Y0082850D01*
X0076824Y0082804D01*
X0076828Y0082757D01*
X0076828Y0082709D01*
X0076824Y0082662D01*
X0076816Y0082616D01*
X0076804Y0082570D01*
X0076788Y0082525D01*
X0076769Y0082482D01*
X0076746Y0082440D01*
X0076720Y0082401D01*
X0076691Y0082364D01*
X0076658Y0082329D01*
X0076623Y0082298D01*
X0076585Y0082269D01*
X0076546Y0082244D01*
X0076504Y0082222D01*
X0076460Y0082203D01*
X0076415Y0082189D01*
X0076369Y0082178D01*
X0076322Y0082171D01*
X0076275Y0082168D01*
X0076228Y0082169D01*
X0076180Y0082174D01*
X0076134Y0082183D01*
X0076088Y0082196D01*
X0076044Y0082212D01*
X0076001Y0082232D01*
X0075960Y0082256D01*
X0075921Y0082283D01*
X0075885Y0082313D01*
X0075851Y0082346D01*
X0075820Y0082382D01*
X0075792Y0082420D01*
X0075768Y0082461D01*
X0075747Y0082503D01*
X0075729Y0082547D01*
X0075716Y0082592D01*
X0075706Y0082639D01*
X0075700Y0082686D01*
X0075698Y0082733D01*
X0053543Y0081633D02*
X0052043Y0081633D01*
X0052043Y0066233D01*
X0053543Y0066233D01*
X0035043Y0066233D02*
X0035043Y0081633D01*
X0033543Y0081633D01*
X0035698Y0082733D02*
X0035700Y0082780D01*
X0035706Y0082827D01*
X0035716Y0082874D01*
X0035729Y0082919D01*
X0035747Y0082963D01*
X0035768Y0083005D01*
X0035792Y0083046D01*
X0035820Y0083084D01*
X0035851Y0083120D01*
X0035885Y0083153D01*
X0035921Y0083183D01*
X0035960Y0083210D01*
X0036001Y0083234D01*
X0036044Y0083254D01*
X0036088Y0083270D01*
X0036134Y0083283D01*
X0036180Y0083292D01*
X0036228Y0083297D01*
X0036275Y0083298D01*
X0036322Y0083295D01*
X0036369Y0083288D01*
X0036415Y0083277D01*
X0036460Y0083263D01*
X0036504Y0083244D01*
X0036545Y0083222D01*
X0036585Y0083197D01*
X0036623Y0083168D01*
X0036658Y0083137D01*
X0036691Y0083102D01*
X0036720Y0083065D01*
X0036746Y0083026D01*
X0036769Y0082984D01*
X0036788Y0082941D01*
X0036804Y0082896D01*
X0036816Y0082850D01*
X0036824Y0082804D01*
X0036828Y0082757D01*
X0036828Y0082709D01*
X0036824Y0082662D01*
X0036816Y0082616D01*
X0036804Y0082570D01*
X0036788Y0082525D01*
X0036769Y0082482D01*
X0036746Y0082440D01*
X0036720Y0082401D01*
X0036691Y0082364D01*
X0036658Y0082329D01*
X0036623Y0082298D01*
X0036585Y0082269D01*
X0036546Y0082244D01*
X0036504Y0082222D01*
X0036460Y0082203D01*
X0036415Y0082189D01*
X0036369Y0082178D01*
X0036322Y0082171D01*
X0036275Y0082168D01*
X0036228Y0082169D01*
X0036180Y0082174D01*
X0036134Y0082183D01*
X0036088Y0082196D01*
X0036044Y0082212D01*
X0036001Y0082232D01*
X0035960Y0082256D01*
X0035921Y0082283D01*
X0035885Y0082313D01*
X0035851Y0082346D01*
X0035820Y0082382D01*
X0035792Y0082420D01*
X0035768Y0082461D01*
X0035747Y0082503D01*
X0035729Y0082547D01*
X0035716Y0082592D01*
X0035706Y0082639D01*
X0035700Y0082686D01*
X0035698Y0082733D01*
X0035043Y0066233D02*
X0033543Y0066233D01*
X0013543Y0066233D02*
X0012043Y0066233D01*
X0012043Y0081633D01*
X0013543Y0081633D01*
X0023425Y0098972D02*
X0031693Y0098972D01*
X0041535Y0101728D02*
X0041535Y0105272D01*
X0041535Y0122594D02*
X0041535Y0126138D01*
X0031693Y0128894D02*
X0023425Y0128894D01*
X0025043Y0136933D02*
X0022543Y0139433D01*
X0020043Y0136933D01*
X0015043Y0136933D01*
X0012543Y0139433D01*
X0012543Y0144433D01*
X0015043Y0146933D01*
X0020043Y0146933D01*
X0022543Y0144433D01*
X0025043Y0146933D01*
X0030043Y0146933D01*
X0032543Y0144433D01*
X0035043Y0146933D01*
X0040043Y0146933D01*
X0042543Y0144433D01*
X0045043Y0146933D01*
X0050043Y0146933D01*
X0052543Y0144433D01*
X0055043Y0146933D01*
X0060043Y0146933D01*
X0062543Y0144433D01*
X0065043Y0146933D01*
X0070043Y0146933D01*
X0072543Y0144433D01*
X0075043Y0146933D01*
X0080043Y0146933D01*
X0082543Y0144433D01*
X0085043Y0146933D01*
X0090043Y0146933D01*
X0092543Y0144433D01*
X0095043Y0146933D01*
X0100043Y0146933D01*
X0102543Y0144433D01*
X0102543Y0139433D01*
X0100043Y0136933D01*
X0095043Y0136933D01*
X0092543Y0139433D01*
X0090043Y0136933D01*
X0085043Y0136933D01*
X0082543Y0139433D01*
X0080043Y0136933D01*
X0075043Y0136933D01*
X0072543Y0139433D01*
X0070043Y0136933D01*
X0065043Y0136933D01*
X0062543Y0139433D01*
X0060043Y0136933D01*
X0055043Y0136933D01*
X0052543Y0139433D01*
X0050043Y0136933D01*
X0045043Y0136933D01*
X0042543Y0139433D01*
X0040043Y0136933D01*
X0035043Y0136933D01*
X0032543Y0139433D01*
X0030043Y0136933D01*
X0025043Y0136933D01*
X0030258Y0155133D02*
X0030260Y0155180D01*
X0030266Y0155227D01*
X0030276Y0155274D01*
X0030289Y0155319D01*
X0030307Y0155363D01*
X0030328Y0155405D01*
X0030352Y0155446D01*
X0030380Y0155484D01*
X0030411Y0155520D01*
X0030445Y0155553D01*
X0030481Y0155583D01*
X0030520Y0155610D01*
X0030561Y0155634D01*
X0030604Y0155654D01*
X0030648Y0155670D01*
X0030694Y0155683D01*
X0030740Y0155692D01*
X0030788Y0155697D01*
X0030835Y0155698D01*
X0030882Y0155695D01*
X0030929Y0155688D01*
X0030975Y0155677D01*
X0031020Y0155663D01*
X0031064Y0155644D01*
X0031105Y0155622D01*
X0031145Y0155597D01*
X0031183Y0155568D01*
X0031218Y0155537D01*
X0031251Y0155502D01*
X0031280Y0155465D01*
X0031306Y0155426D01*
X0031329Y0155384D01*
X0031348Y0155341D01*
X0031364Y0155296D01*
X0031376Y0155250D01*
X0031384Y0155204D01*
X0031388Y0155157D01*
X0031388Y0155109D01*
X0031384Y0155062D01*
X0031376Y0155016D01*
X0031364Y0154970D01*
X0031348Y0154925D01*
X0031329Y0154882D01*
X0031306Y0154840D01*
X0031280Y0154801D01*
X0031251Y0154764D01*
X0031218Y0154729D01*
X0031183Y0154698D01*
X0031145Y0154669D01*
X0031106Y0154644D01*
X0031064Y0154622D01*
X0031020Y0154603D01*
X0030975Y0154589D01*
X0030929Y0154578D01*
X0030882Y0154571D01*
X0030835Y0154568D01*
X0030788Y0154569D01*
X0030740Y0154574D01*
X0030694Y0154583D01*
X0030648Y0154596D01*
X0030604Y0154612D01*
X0030561Y0154632D01*
X0030520Y0154656D01*
X0030481Y0154683D01*
X0030445Y0154713D01*
X0030411Y0154746D01*
X0030380Y0154782D01*
X0030352Y0154820D01*
X0030328Y0154861D01*
X0030307Y0154903D01*
X0030289Y0154947D01*
X0030276Y0154992D01*
X0030266Y0155039D01*
X0030260Y0155086D01*
X0030258Y0155133D01*
X0032043Y0156233D02*
X0033543Y0156233D01*
X0032043Y0156233D02*
X0032043Y0171633D01*
X0033543Y0171633D01*
X0053543Y0171633D02*
X0055043Y0171633D01*
X0055043Y0156233D01*
X0053543Y0156233D01*
X0070258Y0155133D02*
X0070260Y0155180D01*
X0070266Y0155227D01*
X0070276Y0155274D01*
X0070289Y0155319D01*
X0070307Y0155363D01*
X0070328Y0155405D01*
X0070352Y0155446D01*
X0070380Y0155484D01*
X0070411Y0155520D01*
X0070445Y0155553D01*
X0070481Y0155583D01*
X0070520Y0155610D01*
X0070561Y0155634D01*
X0070604Y0155654D01*
X0070648Y0155670D01*
X0070694Y0155683D01*
X0070740Y0155692D01*
X0070788Y0155697D01*
X0070835Y0155698D01*
X0070882Y0155695D01*
X0070929Y0155688D01*
X0070975Y0155677D01*
X0071020Y0155663D01*
X0071064Y0155644D01*
X0071105Y0155622D01*
X0071145Y0155597D01*
X0071183Y0155568D01*
X0071218Y0155537D01*
X0071251Y0155502D01*
X0071280Y0155465D01*
X0071306Y0155426D01*
X0071329Y0155384D01*
X0071348Y0155341D01*
X0071364Y0155296D01*
X0071376Y0155250D01*
X0071384Y0155204D01*
X0071388Y0155157D01*
X0071388Y0155109D01*
X0071384Y0155062D01*
X0071376Y0155016D01*
X0071364Y0154970D01*
X0071348Y0154925D01*
X0071329Y0154882D01*
X0071306Y0154840D01*
X0071280Y0154801D01*
X0071251Y0154764D01*
X0071218Y0154729D01*
X0071183Y0154698D01*
X0071145Y0154669D01*
X0071106Y0154644D01*
X0071064Y0154622D01*
X0071020Y0154603D01*
X0070975Y0154589D01*
X0070929Y0154578D01*
X0070882Y0154571D01*
X0070835Y0154568D01*
X0070788Y0154569D01*
X0070740Y0154574D01*
X0070694Y0154583D01*
X0070648Y0154596D01*
X0070604Y0154612D01*
X0070561Y0154632D01*
X0070520Y0154656D01*
X0070481Y0154683D01*
X0070445Y0154713D01*
X0070411Y0154746D01*
X0070380Y0154782D01*
X0070352Y0154820D01*
X0070328Y0154861D01*
X0070307Y0154903D01*
X0070289Y0154947D01*
X0070276Y0154992D01*
X0070266Y0155039D01*
X0070260Y0155086D01*
X0070258Y0155133D01*
X0072043Y0156233D02*
X0073543Y0156233D01*
X0072043Y0156233D02*
X0072043Y0171633D01*
X0073543Y0171633D01*
X0093543Y0171633D02*
X0095043Y0171633D01*
X0095043Y0156233D01*
X0093543Y0156233D01*
X0112338Y0166197D02*
X0113126Y0166197D01*
X0112338Y0166197D02*
X0112338Y0185882D01*
X0113126Y0185882D01*
X0135567Y0185882D02*
X0136354Y0185882D01*
X0136354Y0178402D01*
X0136267Y0178400D01*
X0136180Y0178394D01*
X0136093Y0178385D01*
X0136007Y0178371D01*
X0135922Y0178354D01*
X0135837Y0178333D01*
X0135754Y0178308D01*
X0135671Y0178280D01*
X0135590Y0178248D01*
X0135511Y0178212D01*
X0135433Y0178173D01*
X0135357Y0178131D01*
X0135283Y0178085D01*
X0135211Y0178036D01*
X0135141Y0177984D01*
X0135074Y0177929D01*
X0135009Y0177871D01*
X0134946Y0177810D01*
X0134887Y0177746D01*
X0134830Y0177680D01*
X0134777Y0177611D01*
X0134726Y0177540D01*
X0134679Y0177467D01*
X0134634Y0177392D01*
X0134594Y0177315D01*
X0134556Y0177237D01*
X0134523Y0177156D01*
X0134492Y0177075D01*
X0134466Y0176992D01*
X0134443Y0176907D01*
X0134424Y0176822D01*
X0134409Y0176737D01*
X0134397Y0176650D01*
X0134389Y0176564D01*
X0134385Y0176477D01*
X0134385Y0176389D01*
X0134389Y0176302D01*
X0134397Y0176216D01*
X0134409Y0176129D01*
X0134424Y0176044D01*
X0134443Y0175959D01*
X0134466Y0175874D01*
X0134492Y0175791D01*
X0134523Y0175710D01*
X0134556Y0175629D01*
X0134594Y0175551D01*
X0134634Y0175474D01*
X0134679Y0175399D01*
X0134726Y0175326D01*
X0134777Y0175255D01*
X0134830Y0175186D01*
X0134887Y0175120D01*
X0134946Y0175056D01*
X0135009Y0174995D01*
X0135074Y0174937D01*
X0135141Y0174882D01*
X0135211Y0174830D01*
X0135283Y0174781D01*
X0135357Y0174735D01*
X0135433Y0174693D01*
X0135511Y0174654D01*
X0135590Y0174618D01*
X0135671Y0174586D01*
X0135754Y0174558D01*
X0135837Y0174533D01*
X0135922Y0174512D01*
X0136007Y0174495D01*
X0136093Y0174481D01*
X0136180Y0174472D01*
X0136267Y0174466D01*
X0136354Y0174464D01*
X0136354Y0174465D02*
X0136354Y0166197D01*
X0135567Y0166197D01*
X0118443Y0104533D02*
X0118445Y0104582D01*
X0118451Y0104630D01*
X0118461Y0104678D01*
X0118475Y0104725D01*
X0118492Y0104771D01*
X0118513Y0104815D01*
X0118538Y0104857D01*
X0118566Y0104897D01*
X0118598Y0104935D01*
X0118632Y0104970D01*
X0118669Y0105002D01*
X0118708Y0105031D01*
X0118750Y0105057D01*
X0118794Y0105079D01*
X0118839Y0105097D01*
X0118886Y0105112D01*
X0118933Y0105123D01*
X0118982Y0105130D01*
X0119031Y0105133D01*
X0119080Y0105132D01*
X0119128Y0105127D01*
X0119177Y0105118D01*
X0119224Y0105105D01*
X0119270Y0105088D01*
X0119314Y0105068D01*
X0119357Y0105044D01*
X0119398Y0105017D01*
X0119436Y0104986D01*
X0119472Y0104953D01*
X0119504Y0104917D01*
X0119534Y0104878D01*
X0119561Y0104837D01*
X0119584Y0104793D01*
X0119603Y0104748D01*
X0119619Y0104702D01*
X0119631Y0104655D01*
X0119639Y0104606D01*
X0119643Y0104557D01*
X0119643Y0104509D01*
X0119639Y0104460D01*
X0119631Y0104411D01*
X0119619Y0104364D01*
X0119603Y0104318D01*
X0119584Y0104273D01*
X0119561Y0104229D01*
X0119534Y0104188D01*
X0119504Y0104149D01*
X0119472Y0104113D01*
X0119436Y0104080D01*
X0119398Y0104049D01*
X0119357Y0104022D01*
X0119314Y0103998D01*
X0119270Y0103978D01*
X0119224Y0103961D01*
X0119177Y0103948D01*
X0119128Y0103939D01*
X0119080Y0103934D01*
X0119031Y0103933D01*
X0118982Y0103936D01*
X0118933Y0103943D01*
X0118886Y0103954D01*
X0118839Y0103969D01*
X0118794Y0103987D01*
X0118750Y0104009D01*
X0118708Y0104035D01*
X0118669Y0104064D01*
X0118632Y0104096D01*
X0118598Y0104131D01*
X0118566Y0104169D01*
X0118538Y0104209D01*
X0118513Y0104251D01*
X0118492Y0104295D01*
X0118475Y0104341D01*
X0118461Y0104388D01*
X0118451Y0104436D01*
X0118445Y0104484D01*
X0118443Y0104533D01*
D14*
X0094016Y0104417D02*
X0091653Y0104417D01*
X0094016Y0104417D02*
X0094016Y0127449D01*
X0091653Y0127449D01*
X0055433Y0127449D02*
X0053071Y0127449D01*
X0053071Y0104417D01*
X0055433Y0104417D01*
X0056043Y0058933D02*
X0061043Y0058933D01*
X0063543Y0056433D01*
X0063543Y0041433D01*
X0066043Y0038933D01*
X0071043Y0038933D01*
X0073543Y0041433D01*
X0073543Y0056433D01*
X0076043Y0058933D01*
X0081043Y0058933D01*
X0083543Y0056433D01*
X0086043Y0058933D01*
X0091043Y0058933D01*
X0093543Y0056433D01*
X0093543Y0041433D01*
X0091043Y0038933D01*
X0086043Y0038933D01*
X0083543Y0041433D01*
X0083543Y0056433D01*
X0073543Y0056433D02*
X0071043Y0058933D01*
X0066043Y0058933D01*
X0063543Y0056433D01*
X0056043Y0058933D02*
X0053543Y0056433D01*
X0053543Y0041433D01*
X0056043Y0038933D01*
X0061043Y0038933D01*
X0063543Y0041433D01*
X0053543Y0041433D02*
X0051043Y0038933D01*
X0046043Y0038933D01*
X0043543Y0041433D01*
X0043543Y0056433D01*
X0046043Y0058933D01*
X0051043Y0058933D01*
X0053543Y0056433D01*
X0043543Y0056433D02*
X0041043Y0058933D01*
X0036043Y0058933D01*
X0033543Y0056433D01*
X0033543Y0041433D01*
X0036043Y0038933D01*
X0041043Y0038933D01*
X0043543Y0041433D01*
X0033543Y0041433D02*
X0031043Y0038933D01*
X0026043Y0038933D01*
X0023543Y0041433D01*
X0023543Y0056433D01*
X0026043Y0058933D01*
X0031043Y0058933D01*
X0033543Y0056433D01*
X0023543Y0056433D02*
X0021043Y0058933D01*
X0016043Y0058933D01*
X0013543Y0056433D01*
X0013543Y0041433D01*
X0016043Y0038933D01*
X0021043Y0038933D01*
X0023543Y0041433D01*
X0073543Y0041433D02*
X0076043Y0038933D01*
X0081043Y0038933D01*
X0083543Y0041433D01*
X0138543Y0041433D02*
X0138543Y0056433D01*
X0141043Y0058933D01*
X0146043Y0058933D01*
X0148543Y0056433D01*
X0148543Y0041433D01*
X0151043Y0038933D01*
X0156043Y0038933D01*
X0158543Y0041433D01*
X0158543Y0056433D01*
X0161043Y0058933D01*
X0166043Y0058933D01*
X0168543Y0056433D01*
X0168543Y0041433D01*
X0171043Y0038933D01*
X0176043Y0038933D01*
X0178543Y0041433D01*
X0178543Y0056433D01*
X0181043Y0058933D01*
X0186043Y0058933D01*
X0188543Y0056433D01*
X0188543Y0041433D01*
X0191043Y0038933D01*
X0196043Y0038933D01*
X0198543Y0041433D01*
X0198543Y0056433D01*
X0201043Y0058933D01*
X0206043Y0058933D01*
X0208543Y0056433D01*
X0211043Y0058933D01*
X0216043Y0058933D01*
X0218543Y0056433D01*
X0218543Y0041433D01*
X0216043Y0038933D01*
X0211043Y0038933D01*
X0208543Y0041433D01*
X0208543Y0056433D01*
X0198543Y0056433D02*
X0196043Y0058933D01*
X0191043Y0058933D01*
X0188543Y0056433D01*
X0178543Y0056433D02*
X0176043Y0058933D01*
X0171043Y0058933D01*
X0168543Y0056433D01*
X0158543Y0056433D02*
X0156043Y0058933D01*
X0151043Y0058933D01*
X0148543Y0056433D01*
X0148543Y0041433D02*
X0146043Y0038933D01*
X0141043Y0038933D01*
X0138543Y0041433D01*
X0158543Y0041433D02*
X0161043Y0038933D01*
X0166043Y0038933D01*
X0168543Y0041433D01*
X0178543Y0041433D02*
X0181043Y0038933D01*
X0186043Y0038933D01*
X0188543Y0041433D01*
X0198543Y0041433D02*
X0201043Y0038933D01*
X0206043Y0038933D01*
X0208543Y0041433D01*
X0191043Y0103933D02*
X0176043Y0103933D01*
X0173543Y0106433D01*
X0173543Y0111433D01*
X0176043Y0113933D01*
X0191043Y0113933D01*
X0193543Y0116433D01*
X0193543Y0121433D01*
X0191043Y0123933D01*
X0193543Y0126433D01*
X0193543Y0131433D01*
X0191043Y0133933D01*
X0176043Y0133933D01*
X0173543Y0131433D01*
X0173543Y0126433D01*
X0176043Y0123933D01*
X0191043Y0123933D01*
X0191043Y0113933D02*
X0193543Y0111433D01*
X0193543Y0106433D01*
X0191043Y0103933D01*
X0176043Y0113933D02*
X0173543Y0116433D01*
X0173543Y0121433D01*
X0176043Y0123933D01*
X0176043Y0178933D02*
X0171043Y0178933D01*
X0168543Y0181433D01*
X0168543Y0196433D01*
X0166043Y0198933D01*
X0161043Y0198933D01*
X0158543Y0196433D01*
X0158543Y0181433D01*
X0156043Y0178933D01*
X0151043Y0178933D01*
X0148543Y0181433D01*
X0146043Y0178933D01*
X0141043Y0178933D01*
X0138543Y0181433D01*
X0138543Y0196433D01*
X0141043Y0198933D01*
X0146043Y0198933D01*
X0148543Y0196433D01*
X0148543Y0181433D01*
X0158543Y0181433D02*
X0161043Y0178933D01*
X0166043Y0178933D01*
X0168543Y0181433D01*
X0176043Y0178933D02*
X0178543Y0181433D01*
X0178543Y0196433D01*
X0176043Y0198933D01*
X0171043Y0198933D01*
X0168543Y0196433D01*
X0178543Y0196433D02*
X0181043Y0198933D01*
X0186043Y0198933D01*
X0188543Y0196433D01*
X0188543Y0181433D01*
X0186043Y0178933D01*
X0181043Y0178933D01*
X0178543Y0181433D01*
X0188543Y0181433D02*
X0191043Y0178933D01*
X0196043Y0178933D01*
X0198543Y0181433D01*
X0198543Y0196433D01*
X0196043Y0198933D01*
X0191043Y0198933D01*
X0188543Y0196433D01*
X0198543Y0196433D02*
X0201043Y0198933D01*
X0206043Y0198933D01*
X0208543Y0196433D01*
X0208543Y0181433D01*
X0206043Y0178933D01*
X0201043Y0178933D01*
X0198543Y0181433D01*
X0208543Y0181433D02*
X0211043Y0178933D01*
X0216043Y0178933D01*
X0218543Y0181433D01*
X0218543Y0196433D01*
X0216043Y0198933D01*
X0211043Y0198933D01*
X0208543Y0196433D01*
X0158543Y0196433D02*
X0156043Y0198933D01*
X0151043Y0198933D01*
X0148543Y0196433D01*
X0093543Y0196433D02*
X0093543Y0181433D01*
X0091043Y0178933D01*
X0086043Y0178933D01*
X0083543Y0181433D01*
X0083543Y0196433D01*
X0081043Y0198933D01*
X0076043Y0198933D01*
X0073543Y0196433D01*
X0073543Y0181433D01*
X0071043Y0178933D01*
X0066043Y0178933D01*
X0063543Y0181433D01*
X0063543Y0196433D01*
X0061043Y0198933D01*
X0056043Y0198933D01*
X0053543Y0196433D01*
X0053543Y0181433D01*
X0051043Y0178933D01*
X0046043Y0178933D01*
X0043543Y0181433D01*
X0043543Y0196433D01*
X0041043Y0198933D01*
X0036043Y0198933D01*
X0033543Y0196433D01*
X0033543Y0181433D01*
X0031043Y0178933D01*
X0026043Y0178933D01*
X0023543Y0181433D01*
X0021043Y0178933D01*
X0016043Y0178933D01*
X0013543Y0181433D01*
X0013543Y0196433D01*
X0016043Y0198933D01*
X0021043Y0198933D01*
X0023543Y0196433D01*
X0023543Y0181433D01*
X0033543Y0181433D02*
X0036043Y0178933D01*
X0041043Y0178933D01*
X0043543Y0181433D01*
X0053543Y0181433D02*
X0056043Y0178933D01*
X0061043Y0178933D01*
X0063543Y0181433D01*
X0073543Y0181433D02*
X0076043Y0178933D01*
X0081043Y0178933D01*
X0083543Y0181433D01*
X0083543Y0196433D02*
X0086043Y0198933D01*
X0091043Y0198933D01*
X0093543Y0196433D01*
X0073543Y0196433D02*
X0071043Y0198933D01*
X0066043Y0198933D01*
X0063543Y0196433D01*
X0053543Y0196433D02*
X0051043Y0198933D01*
X0046043Y0198933D01*
X0043543Y0196433D01*
X0033543Y0196433D02*
X0031043Y0198933D01*
X0026043Y0198933D01*
X0023543Y0196433D01*
D15*
X0093228Y0130106D03*
D16*
X0084543Y0094524D02*
X0085134Y0093933D01*
X0084445Y0093244D01*
X0083854Y0093835D01*
X0084543Y0094524D01*
X0069232Y0094031D02*
X0068641Y0094622D01*
X0067953Y0093933D01*
X0068543Y0093343D01*
X0069232Y0094031D01*
X0207953Y0093933D02*
X0208641Y0094622D01*
X0209232Y0094031D01*
X0208543Y0093343D01*
X0207953Y0093933D01*
D17*
X0209626Y0092358D03*
X0083460Y0095508D03*
X0069626Y0092358D03*
D18*
X0196732Y0107122D02*
X0220354Y0107122D01*
X0220354Y0130744D01*
X0196732Y0130744D01*
X0196732Y0107122D01*
X0201653Y0118933D02*
X0201655Y0119102D01*
X0201661Y0119271D01*
X0201672Y0119440D01*
X0201686Y0119608D01*
X0201705Y0119776D01*
X0201728Y0119944D01*
X0201754Y0120111D01*
X0201785Y0120277D01*
X0201820Y0120443D01*
X0201859Y0120607D01*
X0201903Y0120771D01*
X0201950Y0120933D01*
X0202001Y0121094D01*
X0202056Y0121254D01*
X0202115Y0121413D01*
X0202177Y0121570D01*
X0202244Y0121725D01*
X0202315Y0121879D01*
X0202389Y0122031D01*
X0202467Y0122181D01*
X0202548Y0122329D01*
X0202633Y0122475D01*
X0202722Y0122619D01*
X0202814Y0122761D01*
X0202910Y0122900D01*
X0203009Y0123037D01*
X0203111Y0123172D01*
X0203217Y0123304D01*
X0203326Y0123433D01*
X0203438Y0123560D01*
X0203553Y0123684D01*
X0203671Y0123805D01*
X0203792Y0123923D01*
X0203916Y0124038D01*
X0204043Y0124150D01*
X0204172Y0124259D01*
X0204304Y0124365D01*
X0204439Y0124467D01*
X0204576Y0124566D01*
X0204715Y0124662D01*
X0204857Y0124754D01*
X0205001Y0124843D01*
X0205147Y0124928D01*
X0205295Y0125009D01*
X0205445Y0125087D01*
X0205597Y0125161D01*
X0205751Y0125232D01*
X0205906Y0125299D01*
X0206063Y0125361D01*
X0206222Y0125420D01*
X0206382Y0125475D01*
X0206543Y0125526D01*
X0206705Y0125573D01*
X0206869Y0125617D01*
X0207033Y0125656D01*
X0207199Y0125691D01*
X0207365Y0125722D01*
X0207532Y0125748D01*
X0207700Y0125771D01*
X0207868Y0125790D01*
X0208036Y0125804D01*
X0208205Y0125815D01*
X0208374Y0125821D01*
X0208543Y0125823D01*
X0208712Y0125821D01*
X0208881Y0125815D01*
X0209050Y0125804D01*
X0209218Y0125790D01*
X0209386Y0125771D01*
X0209554Y0125748D01*
X0209721Y0125722D01*
X0209887Y0125691D01*
X0210053Y0125656D01*
X0210217Y0125617D01*
X0210381Y0125573D01*
X0210543Y0125526D01*
X0210704Y0125475D01*
X0210864Y0125420D01*
X0211023Y0125361D01*
X0211180Y0125299D01*
X0211335Y0125232D01*
X0211489Y0125161D01*
X0211641Y0125087D01*
X0211791Y0125009D01*
X0211939Y0124928D01*
X0212085Y0124843D01*
X0212229Y0124754D01*
X0212371Y0124662D01*
X0212510Y0124566D01*
X0212647Y0124467D01*
X0212782Y0124365D01*
X0212914Y0124259D01*
X0213043Y0124150D01*
X0213170Y0124038D01*
X0213294Y0123923D01*
X0213415Y0123805D01*
X0213533Y0123684D01*
X0213648Y0123560D01*
X0213760Y0123433D01*
X0213869Y0123304D01*
X0213975Y0123172D01*
X0214077Y0123037D01*
X0214176Y0122900D01*
X0214272Y0122761D01*
X0214364Y0122619D01*
X0214453Y0122475D01*
X0214538Y0122329D01*
X0214619Y0122181D01*
X0214697Y0122031D01*
X0214771Y0121879D01*
X0214842Y0121725D01*
X0214909Y0121570D01*
X0214971Y0121413D01*
X0215030Y0121254D01*
X0215085Y0121094D01*
X0215136Y0120933D01*
X0215183Y0120771D01*
X0215227Y0120607D01*
X0215266Y0120443D01*
X0215301Y0120277D01*
X0215332Y0120111D01*
X0215358Y0119944D01*
X0215381Y0119776D01*
X0215400Y0119608D01*
X0215414Y0119440D01*
X0215425Y0119271D01*
X0215431Y0119102D01*
X0215433Y0118933D01*
X0215431Y0118764D01*
X0215425Y0118595D01*
X0215414Y0118426D01*
X0215400Y0118258D01*
X0215381Y0118090D01*
X0215358Y0117922D01*
X0215332Y0117755D01*
X0215301Y0117589D01*
X0215266Y0117423D01*
X0215227Y0117259D01*
X0215183Y0117095D01*
X0215136Y0116933D01*
X0215085Y0116772D01*
X0215030Y0116612D01*
X0214971Y0116453D01*
X0214909Y0116296D01*
X0214842Y0116141D01*
X0214771Y0115987D01*
X0214697Y0115835D01*
X0214619Y0115685D01*
X0214538Y0115537D01*
X0214453Y0115391D01*
X0214364Y0115247D01*
X0214272Y0115105D01*
X0214176Y0114966D01*
X0214077Y0114829D01*
X0213975Y0114694D01*
X0213869Y0114562D01*
X0213760Y0114433D01*
X0213648Y0114306D01*
X0213533Y0114182D01*
X0213415Y0114061D01*
X0213294Y0113943D01*
X0213170Y0113828D01*
X0213043Y0113716D01*
X0212914Y0113607D01*
X0212782Y0113501D01*
X0212647Y0113399D01*
X0212510Y0113300D01*
X0212371Y0113204D01*
X0212229Y0113112D01*
X0212085Y0113023D01*
X0211939Y0112938D01*
X0211791Y0112857D01*
X0211641Y0112779D01*
X0211489Y0112705D01*
X0211335Y0112634D01*
X0211180Y0112567D01*
X0211023Y0112505D01*
X0210864Y0112446D01*
X0210704Y0112391D01*
X0210543Y0112340D01*
X0210381Y0112293D01*
X0210217Y0112249D01*
X0210053Y0112210D01*
X0209887Y0112175D01*
X0209721Y0112144D01*
X0209554Y0112118D01*
X0209386Y0112095D01*
X0209218Y0112076D01*
X0209050Y0112062D01*
X0208881Y0112051D01*
X0208712Y0112045D01*
X0208543Y0112043D01*
X0208374Y0112045D01*
X0208205Y0112051D01*
X0208036Y0112062D01*
X0207868Y0112076D01*
X0207700Y0112095D01*
X0207532Y0112118D01*
X0207365Y0112144D01*
X0207199Y0112175D01*
X0207033Y0112210D01*
X0206869Y0112249D01*
X0206705Y0112293D01*
X0206543Y0112340D01*
X0206382Y0112391D01*
X0206222Y0112446D01*
X0206063Y0112505D01*
X0205906Y0112567D01*
X0205751Y0112634D01*
X0205597Y0112705D01*
X0205445Y0112779D01*
X0205295Y0112857D01*
X0205147Y0112938D01*
X0205001Y0113023D01*
X0204857Y0113112D01*
X0204715Y0113204D01*
X0204576Y0113300D01*
X0204439Y0113399D01*
X0204304Y0113501D01*
X0204172Y0113607D01*
X0204043Y0113716D01*
X0203916Y0113828D01*
X0203792Y0113943D01*
X0203671Y0114061D01*
X0203553Y0114182D01*
X0203438Y0114306D01*
X0203326Y0114433D01*
X0203217Y0114562D01*
X0203111Y0114694D01*
X0203009Y0114829D01*
X0202910Y0114966D01*
X0202814Y0115105D01*
X0202722Y0115247D01*
X0202633Y0115391D01*
X0202548Y0115537D01*
X0202467Y0115685D01*
X0202389Y0115835D01*
X0202315Y0115987D01*
X0202244Y0116141D01*
X0202177Y0116296D01*
X0202115Y0116453D01*
X0202056Y0116612D01*
X0202001Y0116772D01*
X0201950Y0116933D01*
X0201903Y0117095D01*
X0201859Y0117259D01*
X0201820Y0117423D01*
X0201785Y0117589D01*
X0201754Y0117755D01*
X0201728Y0117922D01*
X0201705Y0118090D01*
X0201686Y0118258D01*
X0201672Y0118426D01*
X0201661Y0118595D01*
X0201655Y0118764D01*
X0201653Y0118933D01*
D19*
X0024230Y0148560D03*
D20*
X0024230Y0148872D03*
D21*
X0024386Y0149185D03*
D22*
X0024542Y0149497D03*
D23*
X0024699Y0149810D03*
D24*
X0024855Y0150122D03*
X0024855Y0167308D03*
D25*
X0020480Y0166995D03*
X0019543Y0172932D03*
X0017043Y0159496D03*
X0017356Y0158871D03*
X0023293Y0150435D03*
X0027042Y0150435D03*
X0027667Y0154497D03*
D26*
X0027979Y0151997D03*
X0027667Y0151372D03*
X0027355Y0150747D03*
X0019543Y0168557D03*
X0019543Y0169807D03*
X0019543Y0170432D03*
X0018606Y0173869D03*
D27*
X0020324Y0165745D03*
X0019387Y0165120D03*
X0018762Y0164495D03*
X0017825Y0163246D03*
X0017512Y0162621D03*
X0016887Y0160121D03*
X0027511Y0151060D03*
D28*
X0027823Y0151684D03*
D29*
X0027979Y0152309D03*
X0027979Y0152934D03*
X0027979Y0153247D03*
X0017044Y0160746D03*
X0018293Y0163870D03*
X0019543Y0168245D03*
X0019543Y0168870D03*
X0019543Y0169495D03*
X0019543Y0170120D03*
X0020168Y0171370D03*
X0020481Y0171994D03*
X0018918Y0173557D03*
X0018606Y0174182D03*
X0018918Y0174807D03*
D30*
X0019543Y0169182D03*
X0017668Y0162933D03*
X0027979Y0153559D03*
X0027979Y0152622D03*
D31*
X0027823Y0153872D03*
X0017200Y0161371D03*
X0017200Y0161996D03*
X0020012Y0167620D03*
D32*
X0020012Y0165433D03*
X0019074Y0164808D03*
X0018137Y0163558D03*
X0017200Y0161683D03*
X0017200Y0161058D03*
X0017200Y0159184D03*
X0027823Y0154184D03*
X0020012Y0175744D03*
D33*
X0024542Y0154809D03*
D34*
X0023761Y0155122D03*
D35*
X0023449Y0155434D03*
D36*
X0023293Y0155746D03*
X0022668Y0156371D03*
X0022043Y0156996D03*
D37*
X0022980Y0156059D03*
D38*
X0022355Y0156684D03*
D39*
X0019231Y0157309D03*
D40*
X0024386Y0157309D03*
D41*
X0018293Y0157621D03*
D42*
X0017981Y0157934D03*
D43*
X0017512Y0158246D03*
X0019699Y0175432D03*
D44*
X0019231Y0175119D03*
X0025167Y0175119D03*
X0017356Y0158559D03*
D45*
X0017043Y0159808D03*
X0020793Y0166058D03*
D46*
X0020324Y0167308D03*
X0018449Y0164183D03*
X0017512Y0162308D03*
X0016887Y0160433D03*
X0018762Y0174494D03*
D47*
X0023136Y0173244D03*
X0023761Y0166058D03*
D48*
X0023449Y0166370D03*
D49*
X0023605Y0166683D03*
D50*
X0024386Y0166995D03*
D51*
X0025167Y0167620D03*
D52*
X0019856Y0167932D03*
X0019856Y0171057D03*
D53*
X0024542Y0174494D03*
X0025480Y0167932D03*
D54*
X0019856Y0170745D03*
D55*
X0020324Y0171682D03*
D56*
X0021418Y0172307D03*
D57*
X0021418Y0172619D03*
D58*
X0022668Y0172932D03*
X0024230Y0174182D03*
D59*
X0019074Y0173244D03*
D60*
X0023449Y0173557D03*
D61*
X0023918Y0173869D03*
D62*
X0024855Y0174807D03*
M02*
