G75*
%MOIN*%
%OFA0B0*%
%FSLAX25Y25*%
%IPPOS*%
%LPD*%
%AMOC8*
5,1,8,0,0,1.08239X$1,22.5*
%
%ADD10R,0.01575X0.06299*%
%ADD11R,0.03600X0.04500*%
%ADD12R,0.05118X0.05906*%
%ADD13R,0.10630X0.10039*%
%ADD14R,0.05906X0.05118*%
%ADD15R,0.03543X0.03740*%
D10*
X0115390Y0050213D03*
X0117949Y0050213D03*
X0120508Y0050213D03*
X0123067Y0050213D03*
X0125626Y0050213D03*
X0128185Y0050213D03*
X0130744Y0050213D03*
X0133303Y0050213D03*
X0133303Y0073441D03*
X0130744Y0073441D03*
X0128185Y0073441D03*
X0125626Y0073441D03*
X0123067Y0073441D03*
X0120508Y0073441D03*
X0117949Y0073441D03*
X0115390Y0073441D03*
X0115138Y0164425D03*
X0117697Y0164425D03*
X0112579Y0164425D03*
X0110019Y0164425D03*
X0107460Y0164425D03*
X0104901Y0164425D03*
X0102342Y0164425D03*
X0099783Y0164425D03*
X0099783Y0187654D03*
X0102342Y0187654D03*
X0104901Y0187654D03*
X0107460Y0187654D03*
X0110019Y0187654D03*
X0112579Y0187654D03*
X0115138Y0187654D03*
X0117697Y0187654D03*
D11*
X0036043Y0063183D03*
X0041043Y0063183D03*
X0046043Y0063183D03*
X0051043Y0063183D03*
X0076043Y0063183D03*
X0081043Y0063183D03*
X0086043Y0063183D03*
X0091043Y0063183D03*
X0091043Y0084683D03*
X0086043Y0084683D03*
X0081043Y0084683D03*
X0076043Y0084683D03*
X0051043Y0084683D03*
X0046043Y0084683D03*
X0041043Y0084683D03*
X0036043Y0084683D03*
X0031043Y0153183D03*
X0026043Y0153183D03*
X0021043Y0153183D03*
X0016043Y0153183D03*
X0016043Y0174683D03*
X0021043Y0174683D03*
X0026043Y0174683D03*
X0031043Y0174683D03*
X0056043Y0174683D03*
X0061043Y0174683D03*
X0066043Y0174683D03*
X0071043Y0174683D03*
X0071043Y0153183D03*
X0066043Y0153183D03*
X0061043Y0153183D03*
X0056043Y0153183D03*
X0141043Y0153183D03*
X0146043Y0153183D03*
X0151043Y0153183D03*
X0156043Y0153183D03*
X0181043Y0153183D03*
X0186043Y0153183D03*
X0191043Y0153183D03*
X0196043Y0153183D03*
X0196043Y0174683D03*
X0191043Y0174683D03*
X0186043Y0174683D03*
X0181043Y0174683D03*
X0156043Y0174683D03*
X0151043Y0174683D03*
X0146043Y0174683D03*
X0141043Y0174683D03*
X0161043Y0084683D03*
X0166043Y0084683D03*
X0171043Y0084683D03*
X0176043Y0084683D03*
X0176043Y0063183D03*
X0171043Y0063183D03*
X0166043Y0063183D03*
X0161043Y0063183D03*
X0201043Y0063183D03*
X0206043Y0063183D03*
X0211043Y0063183D03*
X0216043Y0063183D03*
X0216043Y0084683D03*
X0211043Y0084683D03*
X0206043Y0084683D03*
X0201043Y0084683D03*
D12*
X0192283Y0083933D03*
X0184803Y0083933D03*
X0184803Y0074933D03*
X0192283Y0074933D03*
X0152283Y0074933D03*
X0144803Y0074933D03*
X0144803Y0083933D03*
X0152283Y0083933D03*
X0137283Y0106933D03*
X0129803Y0106933D03*
X0133803Y0124933D03*
X0141283Y0124933D03*
X0154803Y0143933D03*
X0162283Y0143933D03*
X0164803Y0153933D03*
X0172283Y0153933D03*
X0172283Y0162933D03*
X0164803Y0162933D03*
X0132283Y0162933D03*
X0124803Y0162933D03*
X0124803Y0153933D03*
X0132283Y0153933D03*
X0087283Y0153933D03*
X0079803Y0153933D03*
X0079803Y0162933D03*
X0087283Y0162933D03*
X0047283Y0162933D03*
X0039803Y0162933D03*
X0039803Y0153933D03*
X0047283Y0153933D03*
X0064803Y0123933D03*
X0072283Y0123933D03*
X0070803Y0113933D03*
X0078283Y0113933D03*
X0067283Y0083933D03*
X0059803Y0083933D03*
X0059803Y0074933D03*
X0067283Y0074933D03*
X0098803Y0083933D03*
X0106283Y0083933D03*
X0107283Y0074933D03*
X0099803Y0074933D03*
D13*
X0019543Y0101453D03*
X0019543Y0126413D03*
X0209543Y0131413D03*
X0209543Y0106453D03*
D14*
X0055543Y0109193D03*
X0055543Y0116673D03*
D15*
X0039744Y0113933D03*
X0027342Y0113933D03*
X0032342Y0131933D03*
X0044744Y0131933D03*
M02*
