G75*
%MOIN*%
%OFA0B0*%
%FSLAX25Y25*%
%IPPOS*%
%LPD*%
%AMOC8*
5,1,8,0,0,1.08239X$1,22.5*
%
%ADD10C,0.00800*%
D10*
X0032043Y0066233D02*
X0033543Y0066233D01*
X0032043Y0066233D02*
X0032043Y0081633D01*
X0033543Y0081633D01*
X0030258Y0082733D02*
X0030260Y0082780D01*
X0030266Y0082827D01*
X0030276Y0082874D01*
X0030289Y0082919D01*
X0030307Y0082963D01*
X0030328Y0083005D01*
X0030352Y0083046D01*
X0030380Y0083084D01*
X0030411Y0083120D01*
X0030445Y0083153D01*
X0030481Y0083183D01*
X0030520Y0083210D01*
X0030561Y0083234D01*
X0030604Y0083254D01*
X0030648Y0083270D01*
X0030694Y0083283D01*
X0030740Y0083292D01*
X0030788Y0083297D01*
X0030835Y0083298D01*
X0030882Y0083295D01*
X0030929Y0083288D01*
X0030975Y0083277D01*
X0031020Y0083263D01*
X0031064Y0083244D01*
X0031105Y0083222D01*
X0031145Y0083197D01*
X0031183Y0083168D01*
X0031218Y0083137D01*
X0031251Y0083102D01*
X0031280Y0083065D01*
X0031306Y0083026D01*
X0031329Y0082984D01*
X0031348Y0082941D01*
X0031364Y0082896D01*
X0031376Y0082850D01*
X0031384Y0082804D01*
X0031388Y0082757D01*
X0031388Y0082709D01*
X0031384Y0082662D01*
X0031376Y0082616D01*
X0031364Y0082570D01*
X0031348Y0082525D01*
X0031329Y0082482D01*
X0031306Y0082440D01*
X0031280Y0082401D01*
X0031251Y0082364D01*
X0031218Y0082329D01*
X0031183Y0082298D01*
X0031145Y0082269D01*
X0031106Y0082244D01*
X0031064Y0082222D01*
X0031020Y0082203D01*
X0030975Y0082189D01*
X0030929Y0082178D01*
X0030882Y0082171D01*
X0030835Y0082168D01*
X0030788Y0082169D01*
X0030740Y0082174D01*
X0030694Y0082183D01*
X0030648Y0082196D01*
X0030604Y0082212D01*
X0030561Y0082232D01*
X0030520Y0082256D01*
X0030481Y0082283D01*
X0030445Y0082313D01*
X0030411Y0082346D01*
X0030380Y0082382D01*
X0030352Y0082420D01*
X0030328Y0082461D01*
X0030307Y0082503D01*
X0030289Y0082547D01*
X0030276Y0082592D01*
X0030266Y0082639D01*
X0030260Y0082686D01*
X0030258Y0082733D01*
X0025449Y0094248D02*
X0013638Y0094248D01*
X0009701Y0098185D01*
X0009701Y0106059D01*
X0025449Y0094248D02*
X0029386Y0098185D01*
X0029386Y0106059D01*
X0028425Y0110882D02*
X0031575Y0110882D01*
X0031575Y0116984D01*
X0038661Y0116984D01*
X0038661Y0110882D02*
X0031575Y0110882D01*
X0031575Y0116984D02*
X0028425Y0116984D01*
X0029386Y0121807D02*
X0029386Y0133618D01*
X0009701Y0133618D01*
X0009701Y0121807D01*
X0033425Y0128882D02*
X0040512Y0128882D01*
X0040512Y0134984D01*
X0033425Y0134984D01*
X0040512Y0134984D02*
X0043661Y0134984D01*
X0043661Y0128882D02*
X0040512Y0128882D01*
X0035698Y0155133D02*
X0035700Y0155180D01*
X0035706Y0155227D01*
X0035716Y0155274D01*
X0035729Y0155319D01*
X0035747Y0155363D01*
X0035768Y0155405D01*
X0035792Y0155446D01*
X0035820Y0155484D01*
X0035851Y0155520D01*
X0035885Y0155553D01*
X0035921Y0155583D01*
X0035960Y0155610D01*
X0036001Y0155634D01*
X0036044Y0155654D01*
X0036088Y0155670D01*
X0036134Y0155683D01*
X0036180Y0155692D01*
X0036228Y0155697D01*
X0036275Y0155698D01*
X0036322Y0155695D01*
X0036369Y0155688D01*
X0036415Y0155677D01*
X0036460Y0155663D01*
X0036504Y0155644D01*
X0036545Y0155622D01*
X0036585Y0155597D01*
X0036623Y0155568D01*
X0036658Y0155537D01*
X0036691Y0155502D01*
X0036720Y0155465D01*
X0036746Y0155426D01*
X0036769Y0155384D01*
X0036788Y0155341D01*
X0036804Y0155296D01*
X0036816Y0155250D01*
X0036824Y0155204D01*
X0036828Y0155157D01*
X0036828Y0155109D01*
X0036824Y0155062D01*
X0036816Y0155016D01*
X0036804Y0154970D01*
X0036788Y0154925D01*
X0036769Y0154882D01*
X0036746Y0154840D01*
X0036720Y0154801D01*
X0036691Y0154764D01*
X0036658Y0154729D01*
X0036623Y0154698D01*
X0036585Y0154669D01*
X0036546Y0154644D01*
X0036504Y0154622D01*
X0036460Y0154603D01*
X0036415Y0154589D01*
X0036369Y0154578D01*
X0036322Y0154571D01*
X0036275Y0154568D01*
X0036228Y0154569D01*
X0036180Y0154574D01*
X0036134Y0154583D01*
X0036088Y0154596D01*
X0036044Y0154612D01*
X0036001Y0154632D01*
X0035960Y0154656D01*
X0035921Y0154683D01*
X0035885Y0154713D01*
X0035851Y0154746D01*
X0035820Y0154782D01*
X0035792Y0154820D01*
X0035768Y0154861D01*
X0035747Y0154903D01*
X0035729Y0154947D01*
X0035716Y0154992D01*
X0035706Y0155039D01*
X0035700Y0155086D01*
X0035698Y0155133D01*
X0035043Y0156233D02*
X0033543Y0156233D01*
X0035043Y0156233D02*
X0035043Y0171633D01*
X0033543Y0171633D01*
X0052043Y0171633D02*
X0052043Y0156233D01*
X0053543Y0156233D01*
X0053543Y0171633D02*
X0052043Y0171633D01*
X0073543Y0171633D02*
X0075043Y0171633D01*
X0075043Y0156233D01*
X0073543Y0156233D01*
X0075698Y0155133D02*
X0075700Y0155180D01*
X0075706Y0155227D01*
X0075716Y0155274D01*
X0075729Y0155319D01*
X0075747Y0155363D01*
X0075768Y0155405D01*
X0075792Y0155446D01*
X0075820Y0155484D01*
X0075851Y0155520D01*
X0075885Y0155553D01*
X0075921Y0155583D01*
X0075960Y0155610D01*
X0076001Y0155634D01*
X0076044Y0155654D01*
X0076088Y0155670D01*
X0076134Y0155683D01*
X0076180Y0155692D01*
X0076228Y0155697D01*
X0076275Y0155698D01*
X0076322Y0155695D01*
X0076369Y0155688D01*
X0076415Y0155677D01*
X0076460Y0155663D01*
X0076504Y0155644D01*
X0076545Y0155622D01*
X0076585Y0155597D01*
X0076623Y0155568D01*
X0076658Y0155537D01*
X0076691Y0155502D01*
X0076720Y0155465D01*
X0076746Y0155426D01*
X0076769Y0155384D01*
X0076788Y0155341D01*
X0076804Y0155296D01*
X0076816Y0155250D01*
X0076824Y0155204D01*
X0076828Y0155157D01*
X0076828Y0155109D01*
X0076824Y0155062D01*
X0076816Y0155016D01*
X0076804Y0154970D01*
X0076788Y0154925D01*
X0076769Y0154882D01*
X0076746Y0154840D01*
X0076720Y0154801D01*
X0076691Y0154764D01*
X0076658Y0154729D01*
X0076623Y0154698D01*
X0076585Y0154669D01*
X0076546Y0154644D01*
X0076504Y0154622D01*
X0076460Y0154603D01*
X0076415Y0154589D01*
X0076369Y0154578D01*
X0076322Y0154571D01*
X0076275Y0154568D01*
X0076228Y0154569D01*
X0076180Y0154574D01*
X0076134Y0154583D01*
X0076088Y0154596D01*
X0076044Y0154612D01*
X0076001Y0154632D01*
X0075960Y0154656D01*
X0075921Y0154683D01*
X0075885Y0154713D01*
X0075851Y0154746D01*
X0075820Y0154782D01*
X0075792Y0154820D01*
X0075768Y0154861D01*
X0075747Y0154903D01*
X0075729Y0154947D01*
X0075716Y0154992D01*
X0075706Y0155039D01*
X0075700Y0155086D01*
X0075698Y0155133D01*
X0096732Y0166197D02*
X0096732Y0174465D01*
X0096732Y0174464D02*
X0096819Y0174466D01*
X0096906Y0174472D01*
X0096993Y0174481D01*
X0097079Y0174495D01*
X0097164Y0174512D01*
X0097249Y0174533D01*
X0097332Y0174558D01*
X0097415Y0174586D01*
X0097496Y0174618D01*
X0097575Y0174654D01*
X0097653Y0174693D01*
X0097729Y0174735D01*
X0097803Y0174781D01*
X0097875Y0174830D01*
X0097945Y0174882D01*
X0098012Y0174937D01*
X0098077Y0174995D01*
X0098140Y0175056D01*
X0098199Y0175120D01*
X0098256Y0175186D01*
X0098309Y0175255D01*
X0098360Y0175326D01*
X0098407Y0175399D01*
X0098452Y0175474D01*
X0098492Y0175551D01*
X0098530Y0175629D01*
X0098563Y0175710D01*
X0098594Y0175791D01*
X0098620Y0175874D01*
X0098643Y0175959D01*
X0098662Y0176044D01*
X0098677Y0176129D01*
X0098689Y0176216D01*
X0098697Y0176302D01*
X0098701Y0176389D01*
X0098701Y0176477D01*
X0098697Y0176564D01*
X0098689Y0176650D01*
X0098677Y0176737D01*
X0098662Y0176822D01*
X0098643Y0176907D01*
X0098620Y0176992D01*
X0098594Y0177075D01*
X0098563Y0177156D01*
X0098530Y0177237D01*
X0098492Y0177315D01*
X0098452Y0177392D01*
X0098407Y0177467D01*
X0098360Y0177540D01*
X0098309Y0177611D01*
X0098256Y0177680D01*
X0098199Y0177746D01*
X0098140Y0177810D01*
X0098077Y0177871D01*
X0098012Y0177929D01*
X0097945Y0177984D01*
X0097875Y0178036D01*
X0097803Y0178085D01*
X0097729Y0178131D01*
X0097653Y0178173D01*
X0097575Y0178212D01*
X0097496Y0178248D01*
X0097415Y0178280D01*
X0097332Y0178308D01*
X0097249Y0178333D01*
X0097164Y0178354D01*
X0097079Y0178371D01*
X0096993Y0178385D01*
X0096906Y0178394D01*
X0096819Y0178400D01*
X0096732Y0178402D01*
X0096732Y0185882D01*
X0097519Y0185882D01*
X0119960Y0185882D02*
X0120748Y0185882D01*
X0120748Y0166197D01*
X0119960Y0166197D01*
X0137043Y0171633D02*
X0137043Y0156233D01*
X0138543Y0156233D01*
X0138543Y0171633D02*
X0137043Y0171633D01*
X0158543Y0171633D02*
X0160043Y0171633D01*
X0160043Y0156233D01*
X0158543Y0156233D01*
X0160698Y0155133D02*
X0160700Y0155180D01*
X0160706Y0155227D01*
X0160716Y0155274D01*
X0160729Y0155319D01*
X0160747Y0155363D01*
X0160768Y0155405D01*
X0160792Y0155446D01*
X0160820Y0155484D01*
X0160851Y0155520D01*
X0160885Y0155553D01*
X0160921Y0155583D01*
X0160960Y0155610D01*
X0161001Y0155634D01*
X0161044Y0155654D01*
X0161088Y0155670D01*
X0161134Y0155683D01*
X0161180Y0155692D01*
X0161228Y0155697D01*
X0161275Y0155698D01*
X0161322Y0155695D01*
X0161369Y0155688D01*
X0161415Y0155677D01*
X0161460Y0155663D01*
X0161504Y0155644D01*
X0161545Y0155622D01*
X0161585Y0155597D01*
X0161623Y0155568D01*
X0161658Y0155537D01*
X0161691Y0155502D01*
X0161720Y0155465D01*
X0161746Y0155426D01*
X0161769Y0155384D01*
X0161788Y0155341D01*
X0161804Y0155296D01*
X0161816Y0155250D01*
X0161824Y0155204D01*
X0161828Y0155157D01*
X0161828Y0155109D01*
X0161824Y0155062D01*
X0161816Y0155016D01*
X0161804Y0154970D01*
X0161788Y0154925D01*
X0161769Y0154882D01*
X0161746Y0154840D01*
X0161720Y0154801D01*
X0161691Y0154764D01*
X0161658Y0154729D01*
X0161623Y0154698D01*
X0161585Y0154669D01*
X0161546Y0154644D01*
X0161504Y0154622D01*
X0161460Y0154603D01*
X0161415Y0154589D01*
X0161369Y0154578D01*
X0161322Y0154571D01*
X0161275Y0154568D01*
X0161228Y0154569D01*
X0161180Y0154574D01*
X0161134Y0154583D01*
X0161088Y0154596D01*
X0161044Y0154612D01*
X0161001Y0154632D01*
X0160960Y0154656D01*
X0160921Y0154683D01*
X0160885Y0154713D01*
X0160851Y0154746D01*
X0160820Y0154782D01*
X0160792Y0154820D01*
X0160768Y0154861D01*
X0160747Y0154903D01*
X0160729Y0154947D01*
X0160716Y0154992D01*
X0160706Y0155039D01*
X0160700Y0155086D01*
X0160698Y0155133D01*
X0177043Y0156233D02*
X0178543Y0156233D01*
X0177043Y0156233D02*
X0177043Y0171633D01*
X0178543Y0171633D01*
X0198543Y0171633D02*
X0200043Y0171633D01*
X0200043Y0156233D01*
X0198543Y0156233D01*
X0200698Y0155133D02*
X0200700Y0155180D01*
X0200706Y0155227D01*
X0200716Y0155274D01*
X0200729Y0155319D01*
X0200747Y0155363D01*
X0200768Y0155405D01*
X0200792Y0155446D01*
X0200820Y0155484D01*
X0200851Y0155520D01*
X0200885Y0155553D01*
X0200921Y0155583D01*
X0200960Y0155610D01*
X0201001Y0155634D01*
X0201044Y0155654D01*
X0201088Y0155670D01*
X0201134Y0155683D01*
X0201180Y0155692D01*
X0201228Y0155697D01*
X0201275Y0155698D01*
X0201322Y0155695D01*
X0201369Y0155688D01*
X0201415Y0155677D01*
X0201460Y0155663D01*
X0201504Y0155644D01*
X0201545Y0155622D01*
X0201585Y0155597D01*
X0201623Y0155568D01*
X0201658Y0155537D01*
X0201691Y0155502D01*
X0201720Y0155465D01*
X0201746Y0155426D01*
X0201769Y0155384D01*
X0201788Y0155341D01*
X0201804Y0155296D01*
X0201816Y0155250D01*
X0201824Y0155204D01*
X0201828Y0155157D01*
X0201828Y0155109D01*
X0201824Y0155062D01*
X0201816Y0155016D01*
X0201804Y0154970D01*
X0201788Y0154925D01*
X0201769Y0154882D01*
X0201746Y0154840D01*
X0201720Y0154801D01*
X0201691Y0154764D01*
X0201658Y0154729D01*
X0201623Y0154698D01*
X0201585Y0154669D01*
X0201546Y0154644D01*
X0201504Y0154622D01*
X0201460Y0154603D01*
X0201415Y0154589D01*
X0201369Y0154578D01*
X0201322Y0154571D01*
X0201275Y0154568D01*
X0201228Y0154569D01*
X0201180Y0154574D01*
X0201134Y0154583D01*
X0201088Y0154596D01*
X0201044Y0154612D01*
X0201001Y0154632D01*
X0200960Y0154656D01*
X0200921Y0154683D01*
X0200885Y0154713D01*
X0200851Y0154746D01*
X0200820Y0154782D01*
X0200792Y0154820D01*
X0200768Y0154861D01*
X0200747Y0154903D01*
X0200729Y0154947D01*
X0200716Y0154992D01*
X0200706Y0155039D01*
X0200700Y0155086D01*
X0200698Y0155133D01*
X0199701Y0138618D02*
X0219386Y0138618D01*
X0219386Y0126807D01*
X0219386Y0111059D02*
X0219386Y0103185D01*
X0215449Y0099248D01*
X0203638Y0099248D01*
X0199701Y0103185D01*
X0199701Y0111059D01*
X0199701Y0126807D02*
X0199701Y0138618D01*
X0195258Y0082733D02*
X0195260Y0082780D01*
X0195266Y0082827D01*
X0195276Y0082874D01*
X0195289Y0082919D01*
X0195307Y0082963D01*
X0195328Y0083005D01*
X0195352Y0083046D01*
X0195380Y0083084D01*
X0195411Y0083120D01*
X0195445Y0083153D01*
X0195481Y0083183D01*
X0195520Y0083210D01*
X0195561Y0083234D01*
X0195604Y0083254D01*
X0195648Y0083270D01*
X0195694Y0083283D01*
X0195740Y0083292D01*
X0195788Y0083297D01*
X0195835Y0083298D01*
X0195882Y0083295D01*
X0195929Y0083288D01*
X0195975Y0083277D01*
X0196020Y0083263D01*
X0196064Y0083244D01*
X0196105Y0083222D01*
X0196145Y0083197D01*
X0196183Y0083168D01*
X0196218Y0083137D01*
X0196251Y0083102D01*
X0196280Y0083065D01*
X0196306Y0083026D01*
X0196329Y0082984D01*
X0196348Y0082941D01*
X0196364Y0082896D01*
X0196376Y0082850D01*
X0196384Y0082804D01*
X0196388Y0082757D01*
X0196388Y0082709D01*
X0196384Y0082662D01*
X0196376Y0082616D01*
X0196364Y0082570D01*
X0196348Y0082525D01*
X0196329Y0082482D01*
X0196306Y0082440D01*
X0196280Y0082401D01*
X0196251Y0082364D01*
X0196218Y0082329D01*
X0196183Y0082298D01*
X0196145Y0082269D01*
X0196106Y0082244D01*
X0196064Y0082222D01*
X0196020Y0082203D01*
X0195975Y0082189D01*
X0195929Y0082178D01*
X0195882Y0082171D01*
X0195835Y0082168D01*
X0195788Y0082169D01*
X0195740Y0082174D01*
X0195694Y0082183D01*
X0195648Y0082196D01*
X0195604Y0082212D01*
X0195561Y0082232D01*
X0195520Y0082256D01*
X0195481Y0082283D01*
X0195445Y0082313D01*
X0195411Y0082346D01*
X0195380Y0082382D01*
X0195352Y0082420D01*
X0195328Y0082461D01*
X0195307Y0082503D01*
X0195289Y0082547D01*
X0195276Y0082592D01*
X0195266Y0082639D01*
X0195260Y0082686D01*
X0195258Y0082733D01*
X0197043Y0081633D02*
X0198543Y0081633D01*
X0197043Y0081633D02*
X0197043Y0066233D01*
X0198543Y0066233D01*
X0180043Y0066233D02*
X0180043Y0081633D01*
X0178543Y0081633D01*
X0178543Y0066233D02*
X0180043Y0066233D01*
X0158543Y0066233D02*
X0157043Y0066233D01*
X0157043Y0081633D01*
X0158543Y0081633D01*
X0155258Y0082733D02*
X0155260Y0082780D01*
X0155266Y0082827D01*
X0155276Y0082874D01*
X0155289Y0082919D01*
X0155307Y0082963D01*
X0155328Y0083005D01*
X0155352Y0083046D01*
X0155380Y0083084D01*
X0155411Y0083120D01*
X0155445Y0083153D01*
X0155481Y0083183D01*
X0155520Y0083210D01*
X0155561Y0083234D01*
X0155604Y0083254D01*
X0155648Y0083270D01*
X0155694Y0083283D01*
X0155740Y0083292D01*
X0155788Y0083297D01*
X0155835Y0083298D01*
X0155882Y0083295D01*
X0155929Y0083288D01*
X0155975Y0083277D01*
X0156020Y0083263D01*
X0156064Y0083244D01*
X0156105Y0083222D01*
X0156145Y0083197D01*
X0156183Y0083168D01*
X0156218Y0083137D01*
X0156251Y0083102D01*
X0156280Y0083065D01*
X0156306Y0083026D01*
X0156329Y0082984D01*
X0156348Y0082941D01*
X0156364Y0082896D01*
X0156376Y0082850D01*
X0156384Y0082804D01*
X0156388Y0082757D01*
X0156388Y0082709D01*
X0156384Y0082662D01*
X0156376Y0082616D01*
X0156364Y0082570D01*
X0156348Y0082525D01*
X0156329Y0082482D01*
X0156306Y0082440D01*
X0156280Y0082401D01*
X0156251Y0082364D01*
X0156218Y0082329D01*
X0156183Y0082298D01*
X0156145Y0082269D01*
X0156106Y0082244D01*
X0156064Y0082222D01*
X0156020Y0082203D01*
X0155975Y0082189D01*
X0155929Y0082178D01*
X0155882Y0082171D01*
X0155835Y0082168D01*
X0155788Y0082169D01*
X0155740Y0082174D01*
X0155694Y0082183D01*
X0155648Y0082196D01*
X0155604Y0082212D01*
X0155561Y0082232D01*
X0155520Y0082256D01*
X0155481Y0082283D01*
X0155445Y0082313D01*
X0155411Y0082346D01*
X0155380Y0082382D01*
X0155352Y0082420D01*
X0155328Y0082461D01*
X0155307Y0082503D01*
X0155289Y0082547D01*
X0155276Y0082592D01*
X0155266Y0082639D01*
X0155260Y0082686D01*
X0155258Y0082733D01*
X0136354Y0071669D02*
X0136354Y0063402D01*
X0136267Y0063400D01*
X0136180Y0063394D01*
X0136093Y0063385D01*
X0136007Y0063371D01*
X0135922Y0063354D01*
X0135837Y0063333D01*
X0135754Y0063308D01*
X0135671Y0063280D01*
X0135590Y0063248D01*
X0135511Y0063212D01*
X0135433Y0063173D01*
X0135357Y0063131D01*
X0135283Y0063085D01*
X0135211Y0063036D01*
X0135141Y0062984D01*
X0135074Y0062929D01*
X0135009Y0062871D01*
X0134946Y0062810D01*
X0134887Y0062746D01*
X0134830Y0062680D01*
X0134777Y0062611D01*
X0134726Y0062540D01*
X0134679Y0062467D01*
X0134634Y0062392D01*
X0134594Y0062315D01*
X0134556Y0062237D01*
X0134523Y0062156D01*
X0134492Y0062075D01*
X0134466Y0061992D01*
X0134443Y0061907D01*
X0134424Y0061822D01*
X0134409Y0061737D01*
X0134397Y0061650D01*
X0134389Y0061564D01*
X0134385Y0061477D01*
X0134385Y0061389D01*
X0134389Y0061302D01*
X0134397Y0061216D01*
X0134409Y0061129D01*
X0134424Y0061044D01*
X0134443Y0060959D01*
X0134466Y0060874D01*
X0134492Y0060791D01*
X0134523Y0060710D01*
X0134556Y0060629D01*
X0134594Y0060551D01*
X0134634Y0060474D01*
X0134679Y0060399D01*
X0134726Y0060326D01*
X0134777Y0060255D01*
X0134830Y0060186D01*
X0134887Y0060120D01*
X0134946Y0060056D01*
X0135009Y0059995D01*
X0135074Y0059937D01*
X0135141Y0059882D01*
X0135211Y0059830D01*
X0135283Y0059781D01*
X0135357Y0059735D01*
X0135433Y0059693D01*
X0135511Y0059654D01*
X0135590Y0059618D01*
X0135671Y0059586D01*
X0135754Y0059558D01*
X0135837Y0059533D01*
X0135922Y0059512D01*
X0136007Y0059495D01*
X0136093Y0059481D01*
X0136180Y0059472D01*
X0136267Y0059466D01*
X0136354Y0059464D01*
X0136354Y0059465D02*
X0136354Y0051984D01*
X0135567Y0051984D01*
X0113126Y0051984D02*
X0112338Y0051984D01*
X0112338Y0071669D01*
X0113126Y0071669D01*
X0095043Y0066233D02*
X0093543Y0066233D01*
X0095043Y0066233D02*
X0095043Y0081633D01*
X0093543Y0081633D01*
X0073543Y0081633D02*
X0072043Y0081633D01*
X0072043Y0066233D01*
X0073543Y0066233D01*
X0055043Y0066233D02*
X0055043Y0081633D01*
X0053543Y0081633D01*
X0070258Y0082733D02*
X0070260Y0082780D01*
X0070266Y0082827D01*
X0070276Y0082874D01*
X0070289Y0082919D01*
X0070307Y0082963D01*
X0070328Y0083005D01*
X0070352Y0083046D01*
X0070380Y0083084D01*
X0070411Y0083120D01*
X0070445Y0083153D01*
X0070481Y0083183D01*
X0070520Y0083210D01*
X0070561Y0083234D01*
X0070604Y0083254D01*
X0070648Y0083270D01*
X0070694Y0083283D01*
X0070740Y0083292D01*
X0070788Y0083297D01*
X0070835Y0083298D01*
X0070882Y0083295D01*
X0070929Y0083288D01*
X0070975Y0083277D01*
X0071020Y0083263D01*
X0071064Y0083244D01*
X0071105Y0083222D01*
X0071145Y0083197D01*
X0071183Y0083168D01*
X0071218Y0083137D01*
X0071251Y0083102D01*
X0071280Y0083065D01*
X0071306Y0083026D01*
X0071329Y0082984D01*
X0071348Y0082941D01*
X0071364Y0082896D01*
X0071376Y0082850D01*
X0071384Y0082804D01*
X0071388Y0082757D01*
X0071388Y0082709D01*
X0071384Y0082662D01*
X0071376Y0082616D01*
X0071364Y0082570D01*
X0071348Y0082525D01*
X0071329Y0082482D01*
X0071306Y0082440D01*
X0071280Y0082401D01*
X0071251Y0082364D01*
X0071218Y0082329D01*
X0071183Y0082298D01*
X0071145Y0082269D01*
X0071106Y0082244D01*
X0071064Y0082222D01*
X0071020Y0082203D01*
X0070975Y0082189D01*
X0070929Y0082178D01*
X0070882Y0082171D01*
X0070835Y0082168D01*
X0070788Y0082169D01*
X0070740Y0082174D01*
X0070694Y0082183D01*
X0070648Y0082196D01*
X0070604Y0082212D01*
X0070561Y0082232D01*
X0070520Y0082256D01*
X0070481Y0082283D01*
X0070445Y0082313D01*
X0070411Y0082346D01*
X0070380Y0082382D01*
X0070352Y0082420D01*
X0070328Y0082461D01*
X0070307Y0082503D01*
X0070289Y0082547D01*
X0070276Y0082592D01*
X0070266Y0082639D01*
X0070260Y0082686D01*
X0070258Y0082733D01*
X0055043Y0066233D02*
X0053543Y0066233D01*
X0135567Y0071669D02*
X0136354Y0071669D01*
X0218543Y0066233D02*
X0220043Y0066233D01*
X0220043Y0081633D01*
X0218543Y0081633D01*
X0097519Y0166197D02*
X0096732Y0166197D01*
X0013543Y0171633D02*
X0012043Y0171633D01*
X0012043Y0156233D01*
X0013543Y0156233D01*
M02*
