G75*
%MOIN*%
%OFA0B0*%
%FSLAX25Y25*%
%IPPOS*%
%LPD*%
%AMOC8*
5,1,8,0,0,1.08239X$1,22.5*
%
%ADD10C,0.00000*%
D10*
X0008543Y0033933D02*
X0008543Y0204134D01*
X0223464Y0204134D01*
X0223464Y0033933D01*
X0008543Y0033933D01*
X0095984Y0040933D02*
X0095986Y0041034D01*
X0095992Y0041135D01*
X0096002Y0041236D01*
X0096016Y0041336D01*
X0096034Y0041435D01*
X0096056Y0041534D01*
X0096081Y0041632D01*
X0096111Y0041729D01*
X0096144Y0041824D01*
X0096181Y0041918D01*
X0096222Y0042011D01*
X0096266Y0042102D01*
X0096314Y0042191D01*
X0096366Y0042278D01*
X0096421Y0042363D01*
X0096479Y0042445D01*
X0096540Y0042526D01*
X0096605Y0042604D01*
X0096672Y0042679D01*
X0096742Y0042751D01*
X0096816Y0042821D01*
X0096892Y0042888D01*
X0096970Y0042952D01*
X0097051Y0043012D01*
X0097134Y0043069D01*
X0097220Y0043123D01*
X0097308Y0043174D01*
X0097397Y0043221D01*
X0097488Y0043265D01*
X0097581Y0043304D01*
X0097676Y0043341D01*
X0097771Y0043373D01*
X0097868Y0043402D01*
X0097967Y0043426D01*
X0098065Y0043447D01*
X0098165Y0043464D01*
X0098265Y0043477D01*
X0098366Y0043486D01*
X0098467Y0043491D01*
X0098568Y0043492D01*
X0098669Y0043489D01*
X0098770Y0043482D01*
X0098871Y0043471D01*
X0098971Y0043456D01*
X0099070Y0043437D01*
X0099169Y0043414D01*
X0099266Y0043388D01*
X0099363Y0043357D01*
X0099458Y0043323D01*
X0099551Y0043285D01*
X0099644Y0043243D01*
X0099734Y0043198D01*
X0099823Y0043149D01*
X0099909Y0043097D01*
X0099993Y0043041D01*
X0100076Y0042982D01*
X0100155Y0042920D01*
X0100233Y0042855D01*
X0100307Y0042787D01*
X0100379Y0042715D01*
X0100448Y0042642D01*
X0100514Y0042565D01*
X0100577Y0042486D01*
X0100637Y0042404D01*
X0100693Y0042320D01*
X0100746Y0042234D01*
X0100796Y0042146D01*
X0100842Y0042056D01*
X0100885Y0041965D01*
X0100924Y0041871D01*
X0100959Y0041776D01*
X0100990Y0041680D01*
X0101018Y0041583D01*
X0101042Y0041485D01*
X0101062Y0041386D01*
X0101078Y0041286D01*
X0101090Y0041185D01*
X0101098Y0041085D01*
X0101102Y0040984D01*
X0101102Y0040882D01*
X0101098Y0040781D01*
X0101090Y0040681D01*
X0101078Y0040580D01*
X0101062Y0040480D01*
X0101042Y0040381D01*
X0101018Y0040283D01*
X0100990Y0040186D01*
X0100959Y0040090D01*
X0100924Y0039995D01*
X0100885Y0039901D01*
X0100842Y0039810D01*
X0100796Y0039720D01*
X0100746Y0039632D01*
X0100693Y0039546D01*
X0100637Y0039462D01*
X0100577Y0039380D01*
X0100514Y0039301D01*
X0100448Y0039224D01*
X0100379Y0039151D01*
X0100307Y0039079D01*
X0100233Y0039011D01*
X0100155Y0038946D01*
X0100076Y0038884D01*
X0099993Y0038825D01*
X0099909Y0038769D01*
X0099822Y0038717D01*
X0099734Y0038668D01*
X0099644Y0038623D01*
X0099551Y0038581D01*
X0099458Y0038543D01*
X0099363Y0038509D01*
X0099266Y0038478D01*
X0099169Y0038452D01*
X0099070Y0038429D01*
X0098971Y0038410D01*
X0098871Y0038395D01*
X0098770Y0038384D01*
X0098669Y0038377D01*
X0098568Y0038374D01*
X0098467Y0038375D01*
X0098366Y0038380D01*
X0098265Y0038389D01*
X0098165Y0038402D01*
X0098065Y0038419D01*
X0097967Y0038440D01*
X0097868Y0038464D01*
X0097771Y0038493D01*
X0097676Y0038525D01*
X0097581Y0038562D01*
X0097488Y0038601D01*
X0097397Y0038645D01*
X0097308Y0038692D01*
X0097220Y0038743D01*
X0097134Y0038797D01*
X0097051Y0038854D01*
X0096970Y0038914D01*
X0096892Y0038978D01*
X0096816Y0039045D01*
X0096742Y0039115D01*
X0096672Y0039187D01*
X0096605Y0039262D01*
X0096540Y0039340D01*
X0096479Y0039421D01*
X0096421Y0039503D01*
X0096366Y0039588D01*
X0096314Y0039675D01*
X0096266Y0039764D01*
X0096222Y0039855D01*
X0096181Y0039948D01*
X0096144Y0040042D01*
X0096111Y0040137D01*
X0096081Y0040234D01*
X0096056Y0040332D01*
X0096034Y0040431D01*
X0096016Y0040530D01*
X0096002Y0040630D01*
X0095992Y0040731D01*
X0095986Y0040832D01*
X0095984Y0040933D01*
X0130984Y0040933D02*
X0130986Y0041034D01*
X0130992Y0041135D01*
X0131002Y0041236D01*
X0131016Y0041336D01*
X0131034Y0041435D01*
X0131056Y0041534D01*
X0131081Y0041632D01*
X0131111Y0041729D01*
X0131144Y0041824D01*
X0131181Y0041918D01*
X0131222Y0042011D01*
X0131266Y0042102D01*
X0131314Y0042191D01*
X0131366Y0042278D01*
X0131421Y0042363D01*
X0131479Y0042445D01*
X0131540Y0042526D01*
X0131605Y0042604D01*
X0131672Y0042679D01*
X0131742Y0042751D01*
X0131816Y0042821D01*
X0131892Y0042888D01*
X0131970Y0042952D01*
X0132051Y0043012D01*
X0132134Y0043069D01*
X0132220Y0043123D01*
X0132308Y0043174D01*
X0132397Y0043221D01*
X0132488Y0043265D01*
X0132581Y0043304D01*
X0132676Y0043341D01*
X0132771Y0043373D01*
X0132868Y0043402D01*
X0132967Y0043426D01*
X0133065Y0043447D01*
X0133165Y0043464D01*
X0133265Y0043477D01*
X0133366Y0043486D01*
X0133467Y0043491D01*
X0133568Y0043492D01*
X0133669Y0043489D01*
X0133770Y0043482D01*
X0133871Y0043471D01*
X0133971Y0043456D01*
X0134070Y0043437D01*
X0134169Y0043414D01*
X0134266Y0043388D01*
X0134363Y0043357D01*
X0134458Y0043323D01*
X0134551Y0043285D01*
X0134644Y0043243D01*
X0134734Y0043198D01*
X0134823Y0043149D01*
X0134909Y0043097D01*
X0134993Y0043041D01*
X0135076Y0042982D01*
X0135155Y0042920D01*
X0135233Y0042855D01*
X0135307Y0042787D01*
X0135379Y0042715D01*
X0135448Y0042642D01*
X0135514Y0042565D01*
X0135577Y0042486D01*
X0135637Y0042404D01*
X0135693Y0042320D01*
X0135746Y0042234D01*
X0135796Y0042146D01*
X0135842Y0042056D01*
X0135885Y0041965D01*
X0135924Y0041871D01*
X0135959Y0041776D01*
X0135990Y0041680D01*
X0136018Y0041583D01*
X0136042Y0041485D01*
X0136062Y0041386D01*
X0136078Y0041286D01*
X0136090Y0041185D01*
X0136098Y0041085D01*
X0136102Y0040984D01*
X0136102Y0040882D01*
X0136098Y0040781D01*
X0136090Y0040681D01*
X0136078Y0040580D01*
X0136062Y0040480D01*
X0136042Y0040381D01*
X0136018Y0040283D01*
X0135990Y0040186D01*
X0135959Y0040090D01*
X0135924Y0039995D01*
X0135885Y0039901D01*
X0135842Y0039810D01*
X0135796Y0039720D01*
X0135746Y0039632D01*
X0135693Y0039546D01*
X0135637Y0039462D01*
X0135577Y0039380D01*
X0135514Y0039301D01*
X0135448Y0039224D01*
X0135379Y0039151D01*
X0135307Y0039079D01*
X0135233Y0039011D01*
X0135155Y0038946D01*
X0135076Y0038884D01*
X0134993Y0038825D01*
X0134909Y0038769D01*
X0134822Y0038717D01*
X0134734Y0038668D01*
X0134644Y0038623D01*
X0134551Y0038581D01*
X0134458Y0038543D01*
X0134363Y0038509D01*
X0134266Y0038478D01*
X0134169Y0038452D01*
X0134070Y0038429D01*
X0133971Y0038410D01*
X0133871Y0038395D01*
X0133770Y0038384D01*
X0133669Y0038377D01*
X0133568Y0038374D01*
X0133467Y0038375D01*
X0133366Y0038380D01*
X0133265Y0038389D01*
X0133165Y0038402D01*
X0133065Y0038419D01*
X0132967Y0038440D01*
X0132868Y0038464D01*
X0132771Y0038493D01*
X0132676Y0038525D01*
X0132581Y0038562D01*
X0132488Y0038601D01*
X0132397Y0038645D01*
X0132308Y0038692D01*
X0132220Y0038743D01*
X0132134Y0038797D01*
X0132051Y0038854D01*
X0131970Y0038914D01*
X0131892Y0038978D01*
X0131816Y0039045D01*
X0131742Y0039115D01*
X0131672Y0039187D01*
X0131605Y0039262D01*
X0131540Y0039340D01*
X0131479Y0039421D01*
X0131421Y0039503D01*
X0131366Y0039588D01*
X0131314Y0039675D01*
X0131266Y0039764D01*
X0131222Y0039855D01*
X0131181Y0039948D01*
X0131144Y0040042D01*
X0131111Y0040137D01*
X0131081Y0040234D01*
X0131056Y0040332D01*
X0131034Y0040431D01*
X0131016Y0040530D01*
X0131002Y0040630D01*
X0130992Y0040731D01*
X0130986Y0040832D01*
X0130984Y0040933D01*
X0026771Y0105272D02*
X0026773Y0105356D01*
X0026779Y0105439D01*
X0026789Y0105522D01*
X0026803Y0105605D01*
X0026820Y0105687D01*
X0026842Y0105768D01*
X0026867Y0105847D01*
X0026896Y0105926D01*
X0026929Y0106003D01*
X0026965Y0106078D01*
X0027005Y0106152D01*
X0027048Y0106224D01*
X0027095Y0106293D01*
X0027145Y0106360D01*
X0027198Y0106425D01*
X0027254Y0106487D01*
X0027312Y0106547D01*
X0027374Y0106604D01*
X0027438Y0106657D01*
X0027505Y0106708D01*
X0027574Y0106755D01*
X0027645Y0106800D01*
X0027718Y0106840D01*
X0027793Y0106877D01*
X0027870Y0106911D01*
X0027948Y0106941D01*
X0028027Y0106967D01*
X0028108Y0106990D01*
X0028190Y0107008D01*
X0028272Y0107023D01*
X0028355Y0107034D01*
X0028438Y0107041D01*
X0028522Y0107044D01*
X0028606Y0107043D01*
X0028689Y0107038D01*
X0028773Y0107029D01*
X0028855Y0107016D01*
X0028937Y0107000D01*
X0029018Y0106979D01*
X0029099Y0106955D01*
X0029177Y0106927D01*
X0029255Y0106895D01*
X0029331Y0106859D01*
X0029405Y0106820D01*
X0029477Y0106778D01*
X0029547Y0106732D01*
X0029615Y0106683D01*
X0029680Y0106631D01*
X0029743Y0106576D01*
X0029803Y0106518D01*
X0029861Y0106457D01*
X0029915Y0106393D01*
X0029967Y0106327D01*
X0030015Y0106259D01*
X0030060Y0106188D01*
X0030101Y0106115D01*
X0030140Y0106041D01*
X0030174Y0105965D01*
X0030205Y0105887D01*
X0030232Y0105808D01*
X0030256Y0105727D01*
X0030275Y0105646D01*
X0030291Y0105564D01*
X0030303Y0105481D01*
X0030311Y0105397D01*
X0030315Y0105314D01*
X0030315Y0105230D01*
X0030311Y0105147D01*
X0030303Y0105063D01*
X0030291Y0104980D01*
X0030275Y0104898D01*
X0030256Y0104817D01*
X0030232Y0104736D01*
X0030205Y0104657D01*
X0030174Y0104579D01*
X0030140Y0104503D01*
X0030101Y0104429D01*
X0030060Y0104356D01*
X0030015Y0104285D01*
X0029967Y0104217D01*
X0029915Y0104151D01*
X0029861Y0104087D01*
X0029803Y0104026D01*
X0029743Y0103968D01*
X0029680Y0103913D01*
X0029615Y0103861D01*
X0029547Y0103812D01*
X0029477Y0103766D01*
X0029405Y0103724D01*
X0029331Y0103685D01*
X0029255Y0103649D01*
X0029177Y0103617D01*
X0029099Y0103589D01*
X0029018Y0103565D01*
X0028937Y0103544D01*
X0028855Y0103528D01*
X0028773Y0103515D01*
X0028689Y0103506D01*
X0028606Y0103501D01*
X0028522Y0103500D01*
X0028438Y0103503D01*
X0028355Y0103510D01*
X0028272Y0103521D01*
X0028190Y0103536D01*
X0028108Y0103554D01*
X0028027Y0103577D01*
X0027948Y0103603D01*
X0027870Y0103633D01*
X0027793Y0103667D01*
X0027718Y0103704D01*
X0027645Y0103744D01*
X0027574Y0103789D01*
X0027505Y0103836D01*
X0027438Y0103887D01*
X0027374Y0103940D01*
X0027312Y0103997D01*
X0027254Y0104057D01*
X0027198Y0104119D01*
X0027145Y0104184D01*
X0027095Y0104251D01*
X0027048Y0104320D01*
X0027005Y0104392D01*
X0026965Y0104466D01*
X0026929Y0104541D01*
X0026896Y0104618D01*
X0026867Y0104697D01*
X0026842Y0104776D01*
X0026820Y0104857D01*
X0026803Y0104939D01*
X0026789Y0105022D01*
X0026779Y0105105D01*
X0026773Y0105188D01*
X0026771Y0105272D01*
X0026771Y0122594D02*
X0026773Y0122678D01*
X0026779Y0122761D01*
X0026789Y0122844D01*
X0026803Y0122927D01*
X0026820Y0123009D01*
X0026842Y0123090D01*
X0026867Y0123169D01*
X0026896Y0123248D01*
X0026929Y0123325D01*
X0026965Y0123400D01*
X0027005Y0123474D01*
X0027048Y0123546D01*
X0027095Y0123615D01*
X0027145Y0123682D01*
X0027198Y0123747D01*
X0027254Y0123809D01*
X0027312Y0123869D01*
X0027374Y0123926D01*
X0027438Y0123979D01*
X0027505Y0124030D01*
X0027574Y0124077D01*
X0027645Y0124122D01*
X0027718Y0124162D01*
X0027793Y0124199D01*
X0027870Y0124233D01*
X0027948Y0124263D01*
X0028027Y0124289D01*
X0028108Y0124312D01*
X0028190Y0124330D01*
X0028272Y0124345D01*
X0028355Y0124356D01*
X0028438Y0124363D01*
X0028522Y0124366D01*
X0028606Y0124365D01*
X0028689Y0124360D01*
X0028773Y0124351D01*
X0028855Y0124338D01*
X0028937Y0124322D01*
X0029018Y0124301D01*
X0029099Y0124277D01*
X0029177Y0124249D01*
X0029255Y0124217D01*
X0029331Y0124181D01*
X0029405Y0124142D01*
X0029477Y0124100D01*
X0029547Y0124054D01*
X0029615Y0124005D01*
X0029680Y0123953D01*
X0029743Y0123898D01*
X0029803Y0123840D01*
X0029861Y0123779D01*
X0029915Y0123715D01*
X0029967Y0123649D01*
X0030015Y0123581D01*
X0030060Y0123510D01*
X0030101Y0123437D01*
X0030140Y0123363D01*
X0030174Y0123287D01*
X0030205Y0123209D01*
X0030232Y0123130D01*
X0030256Y0123049D01*
X0030275Y0122968D01*
X0030291Y0122886D01*
X0030303Y0122803D01*
X0030311Y0122719D01*
X0030315Y0122636D01*
X0030315Y0122552D01*
X0030311Y0122469D01*
X0030303Y0122385D01*
X0030291Y0122302D01*
X0030275Y0122220D01*
X0030256Y0122139D01*
X0030232Y0122058D01*
X0030205Y0121979D01*
X0030174Y0121901D01*
X0030140Y0121825D01*
X0030101Y0121751D01*
X0030060Y0121678D01*
X0030015Y0121607D01*
X0029967Y0121539D01*
X0029915Y0121473D01*
X0029861Y0121409D01*
X0029803Y0121348D01*
X0029743Y0121290D01*
X0029680Y0121235D01*
X0029615Y0121183D01*
X0029547Y0121134D01*
X0029477Y0121088D01*
X0029405Y0121046D01*
X0029331Y0121007D01*
X0029255Y0120971D01*
X0029177Y0120939D01*
X0029099Y0120911D01*
X0029018Y0120887D01*
X0028937Y0120866D01*
X0028855Y0120850D01*
X0028773Y0120837D01*
X0028689Y0120828D01*
X0028606Y0120823D01*
X0028522Y0120822D01*
X0028438Y0120825D01*
X0028355Y0120832D01*
X0028272Y0120843D01*
X0028190Y0120858D01*
X0028108Y0120876D01*
X0028027Y0120899D01*
X0027948Y0120925D01*
X0027870Y0120955D01*
X0027793Y0120989D01*
X0027718Y0121026D01*
X0027645Y0121066D01*
X0027574Y0121111D01*
X0027505Y0121158D01*
X0027438Y0121209D01*
X0027374Y0121262D01*
X0027312Y0121319D01*
X0027254Y0121379D01*
X0027198Y0121441D01*
X0027145Y0121506D01*
X0027095Y0121573D01*
X0027048Y0121642D01*
X0027005Y0121714D01*
X0026965Y0121788D01*
X0026929Y0121863D01*
X0026896Y0121940D01*
X0026867Y0122019D01*
X0026842Y0122098D01*
X0026820Y0122179D01*
X0026803Y0122261D01*
X0026789Y0122344D01*
X0026779Y0122427D01*
X0026773Y0122510D01*
X0026771Y0122594D01*
X0095984Y0196933D02*
X0095986Y0197034D01*
X0095992Y0197135D01*
X0096002Y0197236D01*
X0096016Y0197336D01*
X0096034Y0197435D01*
X0096056Y0197534D01*
X0096081Y0197632D01*
X0096111Y0197729D01*
X0096144Y0197824D01*
X0096181Y0197918D01*
X0096222Y0198011D01*
X0096266Y0198102D01*
X0096314Y0198191D01*
X0096366Y0198278D01*
X0096421Y0198363D01*
X0096479Y0198445D01*
X0096540Y0198526D01*
X0096605Y0198604D01*
X0096672Y0198679D01*
X0096742Y0198751D01*
X0096816Y0198821D01*
X0096892Y0198888D01*
X0096970Y0198952D01*
X0097051Y0199012D01*
X0097134Y0199069D01*
X0097220Y0199123D01*
X0097308Y0199174D01*
X0097397Y0199221D01*
X0097488Y0199265D01*
X0097581Y0199304D01*
X0097676Y0199341D01*
X0097771Y0199373D01*
X0097868Y0199402D01*
X0097967Y0199426D01*
X0098065Y0199447D01*
X0098165Y0199464D01*
X0098265Y0199477D01*
X0098366Y0199486D01*
X0098467Y0199491D01*
X0098568Y0199492D01*
X0098669Y0199489D01*
X0098770Y0199482D01*
X0098871Y0199471D01*
X0098971Y0199456D01*
X0099070Y0199437D01*
X0099169Y0199414D01*
X0099266Y0199388D01*
X0099363Y0199357D01*
X0099458Y0199323D01*
X0099551Y0199285D01*
X0099644Y0199243D01*
X0099734Y0199198D01*
X0099823Y0199149D01*
X0099909Y0199097D01*
X0099993Y0199041D01*
X0100076Y0198982D01*
X0100155Y0198920D01*
X0100233Y0198855D01*
X0100307Y0198787D01*
X0100379Y0198715D01*
X0100448Y0198642D01*
X0100514Y0198565D01*
X0100577Y0198486D01*
X0100637Y0198404D01*
X0100693Y0198320D01*
X0100746Y0198234D01*
X0100796Y0198146D01*
X0100842Y0198056D01*
X0100885Y0197965D01*
X0100924Y0197871D01*
X0100959Y0197776D01*
X0100990Y0197680D01*
X0101018Y0197583D01*
X0101042Y0197485D01*
X0101062Y0197386D01*
X0101078Y0197286D01*
X0101090Y0197185D01*
X0101098Y0197085D01*
X0101102Y0196984D01*
X0101102Y0196882D01*
X0101098Y0196781D01*
X0101090Y0196681D01*
X0101078Y0196580D01*
X0101062Y0196480D01*
X0101042Y0196381D01*
X0101018Y0196283D01*
X0100990Y0196186D01*
X0100959Y0196090D01*
X0100924Y0195995D01*
X0100885Y0195901D01*
X0100842Y0195810D01*
X0100796Y0195720D01*
X0100746Y0195632D01*
X0100693Y0195546D01*
X0100637Y0195462D01*
X0100577Y0195380D01*
X0100514Y0195301D01*
X0100448Y0195224D01*
X0100379Y0195151D01*
X0100307Y0195079D01*
X0100233Y0195011D01*
X0100155Y0194946D01*
X0100076Y0194884D01*
X0099993Y0194825D01*
X0099909Y0194769D01*
X0099822Y0194717D01*
X0099734Y0194668D01*
X0099644Y0194623D01*
X0099551Y0194581D01*
X0099458Y0194543D01*
X0099363Y0194509D01*
X0099266Y0194478D01*
X0099169Y0194452D01*
X0099070Y0194429D01*
X0098971Y0194410D01*
X0098871Y0194395D01*
X0098770Y0194384D01*
X0098669Y0194377D01*
X0098568Y0194374D01*
X0098467Y0194375D01*
X0098366Y0194380D01*
X0098265Y0194389D01*
X0098165Y0194402D01*
X0098065Y0194419D01*
X0097967Y0194440D01*
X0097868Y0194464D01*
X0097771Y0194493D01*
X0097676Y0194525D01*
X0097581Y0194562D01*
X0097488Y0194601D01*
X0097397Y0194645D01*
X0097308Y0194692D01*
X0097220Y0194743D01*
X0097134Y0194797D01*
X0097051Y0194854D01*
X0096970Y0194914D01*
X0096892Y0194978D01*
X0096816Y0195045D01*
X0096742Y0195115D01*
X0096672Y0195187D01*
X0096605Y0195262D01*
X0096540Y0195340D01*
X0096479Y0195421D01*
X0096421Y0195503D01*
X0096366Y0195588D01*
X0096314Y0195675D01*
X0096266Y0195764D01*
X0096222Y0195855D01*
X0096181Y0195948D01*
X0096144Y0196042D01*
X0096111Y0196137D01*
X0096081Y0196234D01*
X0096056Y0196332D01*
X0096034Y0196431D01*
X0096016Y0196530D01*
X0096002Y0196630D01*
X0095992Y0196731D01*
X0095986Y0196832D01*
X0095984Y0196933D01*
X0130984Y0196933D02*
X0130986Y0197034D01*
X0130992Y0197135D01*
X0131002Y0197236D01*
X0131016Y0197336D01*
X0131034Y0197435D01*
X0131056Y0197534D01*
X0131081Y0197632D01*
X0131111Y0197729D01*
X0131144Y0197824D01*
X0131181Y0197918D01*
X0131222Y0198011D01*
X0131266Y0198102D01*
X0131314Y0198191D01*
X0131366Y0198278D01*
X0131421Y0198363D01*
X0131479Y0198445D01*
X0131540Y0198526D01*
X0131605Y0198604D01*
X0131672Y0198679D01*
X0131742Y0198751D01*
X0131816Y0198821D01*
X0131892Y0198888D01*
X0131970Y0198952D01*
X0132051Y0199012D01*
X0132134Y0199069D01*
X0132220Y0199123D01*
X0132308Y0199174D01*
X0132397Y0199221D01*
X0132488Y0199265D01*
X0132581Y0199304D01*
X0132676Y0199341D01*
X0132771Y0199373D01*
X0132868Y0199402D01*
X0132967Y0199426D01*
X0133065Y0199447D01*
X0133165Y0199464D01*
X0133265Y0199477D01*
X0133366Y0199486D01*
X0133467Y0199491D01*
X0133568Y0199492D01*
X0133669Y0199489D01*
X0133770Y0199482D01*
X0133871Y0199471D01*
X0133971Y0199456D01*
X0134070Y0199437D01*
X0134169Y0199414D01*
X0134266Y0199388D01*
X0134363Y0199357D01*
X0134458Y0199323D01*
X0134551Y0199285D01*
X0134644Y0199243D01*
X0134734Y0199198D01*
X0134823Y0199149D01*
X0134909Y0199097D01*
X0134993Y0199041D01*
X0135076Y0198982D01*
X0135155Y0198920D01*
X0135233Y0198855D01*
X0135307Y0198787D01*
X0135379Y0198715D01*
X0135448Y0198642D01*
X0135514Y0198565D01*
X0135577Y0198486D01*
X0135637Y0198404D01*
X0135693Y0198320D01*
X0135746Y0198234D01*
X0135796Y0198146D01*
X0135842Y0198056D01*
X0135885Y0197965D01*
X0135924Y0197871D01*
X0135959Y0197776D01*
X0135990Y0197680D01*
X0136018Y0197583D01*
X0136042Y0197485D01*
X0136062Y0197386D01*
X0136078Y0197286D01*
X0136090Y0197185D01*
X0136098Y0197085D01*
X0136102Y0196984D01*
X0136102Y0196882D01*
X0136098Y0196781D01*
X0136090Y0196681D01*
X0136078Y0196580D01*
X0136062Y0196480D01*
X0136042Y0196381D01*
X0136018Y0196283D01*
X0135990Y0196186D01*
X0135959Y0196090D01*
X0135924Y0195995D01*
X0135885Y0195901D01*
X0135842Y0195810D01*
X0135796Y0195720D01*
X0135746Y0195632D01*
X0135693Y0195546D01*
X0135637Y0195462D01*
X0135577Y0195380D01*
X0135514Y0195301D01*
X0135448Y0195224D01*
X0135379Y0195151D01*
X0135307Y0195079D01*
X0135233Y0195011D01*
X0135155Y0194946D01*
X0135076Y0194884D01*
X0134993Y0194825D01*
X0134909Y0194769D01*
X0134822Y0194717D01*
X0134734Y0194668D01*
X0134644Y0194623D01*
X0134551Y0194581D01*
X0134458Y0194543D01*
X0134363Y0194509D01*
X0134266Y0194478D01*
X0134169Y0194452D01*
X0134070Y0194429D01*
X0133971Y0194410D01*
X0133871Y0194395D01*
X0133770Y0194384D01*
X0133669Y0194377D01*
X0133568Y0194374D01*
X0133467Y0194375D01*
X0133366Y0194380D01*
X0133265Y0194389D01*
X0133165Y0194402D01*
X0133065Y0194419D01*
X0132967Y0194440D01*
X0132868Y0194464D01*
X0132771Y0194493D01*
X0132676Y0194525D01*
X0132581Y0194562D01*
X0132488Y0194601D01*
X0132397Y0194645D01*
X0132308Y0194692D01*
X0132220Y0194743D01*
X0132134Y0194797D01*
X0132051Y0194854D01*
X0131970Y0194914D01*
X0131892Y0194978D01*
X0131816Y0195045D01*
X0131742Y0195115D01*
X0131672Y0195187D01*
X0131605Y0195262D01*
X0131540Y0195340D01*
X0131479Y0195421D01*
X0131421Y0195503D01*
X0131366Y0195588D01*
X0131314Y0195675D01*
X0131266Y0195764D01*
X0131222Y0195855D01*
X0131181Y0195948D01*
X0131144Y0196042D01*
X0131111Y0196137D01*
X0131081Y0196234D01*
X0131056Y0196332D01*
X0131034Y0196431D01*
X0131016Y0196530D01*
X0131002Y0196630D01*
X0130992Y0196731D01*
X0130986Y0196832D01*
X0130984Y0196933D01*
M02*
