%
M48
M72
T01C0.0150
T02C0.0200
T03C0.0236
T04C0.0300
T05C0.0354
T06C0.0400
T07C0.0512
%
T01
X10354Y5893
X10354Y6293
X11154Y6693
X11654Y6693
X12054Y6593
X12854Y6193
X12854Y5793
X11754Y4393
X11754Y7893
X11754Y8293
X11154Y8993
X12054Y9193
X12554Y9493
X12954Y9693
X13254Y9193
X12854Y8993
X11154Y10293
X12454Y10793
X12954Y11293
X12654Y11793
X13754Y11393
X12354Y12893
X12854Y12993
X13454Y12993
X12354Y14093
X11954Y14393
X12354Y14693
X12954Y14793
X11954Y15393
X11654Y15793
X10354Y14793
X9554Y14893
X10454Y13793
X10154Y12293
X8454Y10993
X7854Y12093
X6554Y11693
X5554Y12393
X9554Y8993
X15854Y10793
X16054Y12193
X16054Y12893
X16854Y14093
X18754Y14693
X18954Y14093
X14854Y14393
X14154Y14393
X11754Y17093
X11954Y17493
X11354Y17493
X10254Y17593
X10254Y17993
X11554Y19393
X12954Y17993
X12954Y17593
X21754Y9393
X18354Y9093
X16054Y8993
T02
X3854Y12393
T03
X2054Y11393
T04
X2954Y9193
X4854Y10393
X20954Y11793
T05
X2854Y12259
X2854Y10527
T06
X1854Y4393
X2854Y4393
X3854Y4393
X4854Y4393
X5854Y4393
X6854Y4393
X7854Y4393
X8854Y4393
X8854Y5393
X7854Y5393
X6854Y5393
X5854Y5393
X4854Y5393
X3854Y5393
X2854Y5393
X1854Y5393
X1754Y14193
X2754Y14193
X3754Y14193
X4754Y14193
X5754Y14193
X6754Y14193
X7754Y14193
X8754Y14193
X9754Y14193
X8854Y18393
X7854Y18393
X6854Y18393
X5854Y18393
X4854Y18393
X3854Y18393
X2854Y18393
X1854Y18393
X1854Y19393
X2854Y19393
X3854Y19393
X4854Y19393
X5854Y19393
X6854Y19393
X7854Y19393
X8854Y19393
X14354Y19393
X15354Y19393
X16354Y19393
X17354Y19393
X18354Y19393
X19354Y19393
X20354Y19393
X21354Y19393
X21354Y18393
X20354Y18393
X19354Y18393
X18354Y18393
X17354Y18393
X16354Y18393
X15354Y18393
X14354Y18393
X17854Y12893
X18854Y12893
X18854Y11893
X18854Y10893
X17854Y10893
X17854Y11893
X17354Y5393
X16354Y5393
X15354Y5393
X14354Y5393
X14354Y4393
X15354Y4393
X16354Y4393
X17354Y4393
X18354Y4393
X19354Y4393
X20354Y4393
X21354Y4393
X21354Y5393
X20354Y5393
X19354Y5393
X18354Y5393
T07
X13354Y4093
X9854Y4093
X9854Y19693
X13354Y19693
M30
