G75*
%MOIN*%
%OFA0B0*%
%FSLAX25Y25*%
%IPPOS*%
%LPD*%
%AMOC8*
5,1,8,0,0,1.08239X$1,22.5*
%
%ADD10R,0.01575X0.06299*%
%ADD11R,0.02200X0.05000*%
%ADD12R,0.05000X0.02200*%
%ADD13R,0.01370X0.05500*%
%ADD14R,0.03600X0.04500*%
%ADD15OC8,0.06000*%
%ADD16R,0.09843X0.01969*%
%ADD17R,0.09843X0.07874*%
%ADD18R,0.05118X0.05906*%
%ADD19R,0.04724X0.04724*%
%ADD20R,0.07480X0.04331*%
%ADD21R,0.05118X0.06102*%
%ADD22R,0.05906X0.05118*%
%ADD23C,0.07400*%
%ADD24C,0.01000*%
%ADD25C,0.02900*%
%ADD26C,0.01600*%
%ADD27C,0.04500*%
%ADD28R,0.04500X0.04500*%
%ADD29C,0.03200*%
%ADD30C,0.03762*%
%ADD31C,0.03400*%
D10*
X0099783Y0050213D03*
X0102342Y0050213D03*
X0104901Y0050213D03*
X0107460Y0050213D03*
X0110019Y0050213D03*
X0112579Y0050213D03*
X0115138Y0050213D03*
X0117697Y0050213D03*
X0117697Y0073441D03*
X0115138Y0073441D03*
X0112579Y0073441D03*
X0110019Y0073441D03*
X0107460Y0073441D03*
X0104901Y0073441D03*
X0102342Y0073441D03*
X0099783Y0073441D03*
X0115390Y0164425D03*
X0117949Y0164425D03*
X0120508Y0164425D03*
X0123067Y0164425D03*
X0125626Y0164425D03*
X0128185Y0164425D03*
X0130744Y0164425D03*
X0133303Y0164425D03*
X0133303Y0187654D03*
X0130744Y0187654D03*
X0128185Y0187654D03*
X0125626Y0187654D03*
X0123067Y0187654D03*
X0120508Y0187654D03*
X0117949Y0187654D03*
X0115390Y0187654D03*
D11*
X0122519Y0135833D03*
X0125669Y0135833D03*
X0128819Y0135833D03*
X0131968Y0135833D03*
X0135118Y0135833D03*
X0138267Y0135833D03*
X0141417Y0135833D03*
X0144567Y0135833D03*
X0144567Y0102033D03*
X0141417Y0102033D03*
X0138267Y0102033D03*
X0135118Y0102033D03*
X0131968Y0102033D03*
X0128819Y0102033D03*
X0125669Y0102033D03*
X0122519Y0102033D03*
D12*
X0116643Y0107909D03*
X0116643Y0111059D03*
X0116643Y0114209D03*
X0116643Y0117358D03*
X0116643Y0120508D03*
X0116643Y0123657D03*
X0116643Y0126807D03*
X0116643Y0129957D03*
X0150443Y0129957D03*
X0150443Y0126807D03*
X0150443Y0123657D03*
X0150443Y0120508D03*
X0150443Y0117358D03*
X0150443Y0114209D03*
X0150443Y0111059D03*
X0150443Y0107909D03*
D13*
X0090177Y0101539D03*
X0087618Y0101539D03*
X0085059Y0101539D03*
X0082500Y0101539D03*
X0079941Y0101539D03*
X0077382Y0101539D03*
X0074823Y0101539D03*
X0072264Y0101539D03*
X0069704Y0101539D03*
X0067145Y0101539D03*
X0064586Y0101539D03*
X0062027Y0101539D03*
X0059468Y0101539D03*
X0056909Y0101539D03*
X0056909Y0130327D03*
X0059468Y0130327D03*
X0062027Y0130327D03*
X0064586Y0130327D03*
X0067145Y0130327D03*
X0069704Y0130327D03*
X0072264Y0130327D03*
X0074823Y0130327D03*
X0077382Y0130327D03*
X0079941Y0130327D03*
X0082500Y0130327D03*
X0085059Y0130327D03*
X0087618Y0130327D03*
X0090177Y0130327D03*
D14*
X0091043Y0153183D03*
X0086043Y0153183D03*
X0081043Y0153183D03*
X0076043Y0153183D03*
X0051043Y0153183D03*
X0046043Y0153183D03*
X0041043Y0153183D03*
X0036043Y0153183D03*
X0036043Y0174683D03*
X0041043Y0174683D03*
X0046043Y0174683D03*
X0051043Y0174683D03*
X0076043Y0174683D03*
X0081043Y0174683D03*
X0086043Y0174683D03*
X0091043Y0174683D03*
X0161043Y0174683D03*
X0166043Y0174683D03*
X0171043Y0174683D03*
X0176043Y0174683D03*
X0176043Y0153183D03*
X0171043Y0153183D03*
X0166043Y0153183D03*
X0161043Y0153183D03*
X0201043Y0153183D03*
X0206043Y0153183D03*
X0211043Y0153183D03*
X0216043Y0153183D03*
X0216043Y0174683D03*
X0211043Y0174683D03*
X0206043Y0174683D03*
X0201043Y0174683D03*
X0196043Y0084683D03*
X0191043Y0084683D03*
X0186043Y0084683D03*
X0181043Y0084683D03*
X0156043Y0084683D03*
X0151043Y0084683D03*
X0146043Y0084683D03*
X0141043Y0084683D03*
X0141043Y0063183D03*
X0146043Y0063183D03*
X0151043Y0063183D03*
X0156043Y0063183D03*
X0181043Y0063183D03*
X0186043Y0063183D03*
X0191043Y0063183D03*
X0196043Y0063183D03*
X0071043Y0063183D03*
X0066043Y0063183D03*
X0061043Y0063183D03*
X0056043Y0063183D03*
X0031043Y0063183D03*
X0026043Y0063183D03*
X0021043Y0063183D03*
X0016043Y0063183D03*
X0016043Y0084683D03*
X0021043Y0084683D03*
X0026043Y0084683D03*
X0031043Y0084683D03*
X0056043Y0084683D03*
X0061043Y0084683D03*
X0066043Y0084683D03*
X0071043Y0084683D03*
D15*
X0068543Y0053933D03*
X0058543Y0053933D03*
X0048543Y0053933D03*
X0038543Y0053933D03*
X0028543Y0053933D03*
X0018543Y0053933D03*
X0018543Y0043933D03*
X0028543Y0043933D03*
X0038543Y0043933D03*
X0048543Y0043933D03*
X0058543Y0043933D03*
X0068543Y0043933D03*
X0078543Y0043933D03*
X0088543Y0043933D03*
X0088543Y0053933D03*
X0078543Y0053933D03*
X0143543Y0053933D03*
X0153543Y0053933D03*
X0163543Y0053933D03*
X0173543Y0053933D03*
X0183543Y0053933D03*
X0193543Y0053933D03*
X0203543Y0053933D03*
X0213543Y0053933D03*
X0213543Y0043933D03*
X0203543Y0043933D03*
X0193543Y0043933D03*
X0183543Y0043933D03*
X0173543Y0043933D03*
X0163543Y0043933D03*
X0153543Y0043933D03*
X0143543Y0043933D03*
X0178543Y0108933D03*
X0178543Y0118933D03*
X0188543Y0118933D03*
X0188543Y0108933D03*
X0188543Y0128933D03*
X0178543Y0128933D03*
X0173543Y0183933D03*
X0163543Y0183933D03*
X0153543Y0183933D03*
X0143543Y0183933D03*
X0143543Y0193933D03*
X0153543Y0193933D03*
X0163543Y0193933D03*
X0173543Y0193933D03*
X0183543Y0193933D03*
X0193543Y0193933D03*
X0203543Y0193933D03*
X0213543Y0193933D03*
X0213543Y0183933D03*
X0203543Y0183933D03*
X0193543Y0183933D03*
X0183543Y0183933D03*
X0088543Y0183933D03*
X0078543Y0183933D03*
X0068543Y0183933D03*
X0058543Y0183933D03*
X0048543Y0183933D03*
X0038543Y0183933D03*
X0028543Y0183933D03*
X0018543Y0183933D03*
X0018543Y0193933D03*
X0028543Y0193933D03*
X0038543Y0193933D03*
X0048543Y0193933D03*
X0058543Y0193933D03*
X0068543Y0193933D03*
X0078543Y0193933D03*
X0088543Y0193933D03*
D16*
X0038386Y0120232D03*
X0038386Y0117083D03*
X0038386Y0113933D03*
X0038386Y0110783D03*
X0038386Y0107634D03*
D17*
X0038386Y0096217D03*
X0016732Y0096217D03*
X0016732Y0131650D03*
X0038386Y0131650D03*
D18*
X0059803Y0153933D03*
X0067283Y0153933D03*
X0067283Y0162933D03*
X0059803Y0162933D03*
X0099803Y0162933D03*
X0107283Y0162933D03*
X0107283Y0153933D03*
X0099803Y0153933D03*
X0144803Y0153933D03*
X0152283Y0153933D03*
X0152283Y0162933D03*
X0144803Y0162933D03*
X0155803Y0143933D03*
X0163283Y0143933D03*
X0175803Y0140933D03*
X0183283Y0140933D03*
X0184803Y0153933D03*
X0192283Y0153933D03*
X0192283Y0162933D03*
X0184803Y0162933D03*
X0199803Y0142933D03*
X0207283Y0142933D03*
X0185283Y0096933D03*
X0177803Y0096933D03*
X0172283Y0083933D03*
X0164803Y0083933D03*
X0164803Y0074933D03*
X0172283Y0074933D03*
X0145283Y0093933D03*
X0137803Y0093933D03*
X0132283Y0083933D03*
X0124803Y0083933D03*
X0124803Y0074933D03*
X0132283Y0074933D03*
X0104283Y0098933D03*
X0096803Y0098933D03*
X0099803Y0107933D03*
X0107283Y0107933D03*
X0107283Y0116933D03*
X0099803Y0116933D03*
X0087283Y0083933D03*
X0079803Y0083933D03*
X0079803Y0074933D03*
X0087283Y0074933D03*
X0057283Y0093933D03*
X0049803Y0093933D03*
X0047283Y0083933D03*
X0039803Y0083933D03*
X0039803Y0074933D03*
X0047283Y0074933D03*
D19*
X0064409Y0093933D03*
X0072677Y0093933D03*
X0080409Y0093933D03*
X0088677Y0093933D03*
X0204409Y0093933D03*
X0212677Y0093933D03*
D20*
X0167827Y0093406D03*
X0167827Y0102461D03*
X0153260Y0102461D03*
X0153260Y0093406D03*
D21*
X0199685Y0103283D03*
X0217401Y0103283D03*
X0217401Y0134583D03*
X0199685Y0134583D03*
D22*
X0168543Y0117673D03*
X0168543Y0110193D03*
X0110543Y0137193D03*
X0110543Y0144673D03*
X0048543Y0132673D03*
X0048543Y0125193D03*
D23*
X0047543Y0141933D03*
X0037543Y0141933D03*
X0027543Y0141933D03*
X0017543Y0141933D03*
X0057543Y0141933D03*
X0067543Y0141933D03*
X0077543Y0141933D03*
X0087543Y0141933D03*
X0097543Y0141933D03*
D24*
X0010543Y0202134D02*
X0010543Y0035933D01*
X0221464Y0035933D01*
X0221464Y0202134D01*
X0010543Y0202134D01*
X0010543Y0201683D02*
X0221464Y0201683D01*
X0221464Y0200684D02*
X0136239Y0200684D01*
X0136126Y0200798D02*
X0134450Y0201492D01*
X0132636Y0201492D01*
X0130961Y0200798D01*
X0129678Y0199516D01*
X0128984Y0197840D01*
X0128984Y0196026D01*
X0129678Y0194351D01*
X0130961Y0193068D01*
X0132636Y0192374D01*
X0134450Y0192374D01*
X0136126Y0193068D01*
X0137408Y0194351D01*
X0138102Y0196026D01*
X0138102Y0197840D01*
X0137408Y0199516D01*
X0136126Y0200798D01*
X0137238Y0199686D02*
X0221464Y0199686D01*
X0221464Y0198687D02*
X0137751Y0198687D01*
X0138102Y0197689D02*
X0141501Y0197689D01*
X0141845Y0198033D02*
X0139443Y0195631D01*
X0139443Y0192235D01*
X0141845Y0189833D01*
X0145241Y0189833D01*
X0147643Y0192235D01*
X0147643Y0195631D01*
X0145241Y0198033D01*
X0141845Y0198033D01*
X0140502Y0196690D02*
X0138102Y0196690D01*
X0137964Y0195692D02*
X0139504Y0195692D01*
X0139443Y0194693D02*
X0137550Y0194693D01*
X0136752Y0193695D02*
X0139443Y0193695D01*
X0139443Y0192696D02*
X0135228Y0192696D01*
X0134546Y0191903D02*
X0132060Y0191903D01*
X0132023Y0191867D01*
X0131987Y0191903D01*
X0129501Y0191903D01*
X0129464Y0191867D01*
X0129428Y0191903D01*
X0126942Y0191903D01*
X0126905Y0191867D01*
X0126869Y0191903D01*
X0124383Y0191903D01*
X0124346Y0191867D01*
X0124310Y0191903D01*
X0121824Y0191903D01*
X0121787Y0191867D01*
X0121751Y0191903D01*
X0119265Y0191903D01*
X0119228Y0191867D01*
X0119192Y0191903D01*
X0117119Y0191903D01*
X0117705Y0192489D01*
X0118093Y0193426D01*
X0118093Y0194440D01*
X0117705Y0195378D01*
X0116988Y0196095D01*
X0116050Y0196483D01*
X0115036Y0196483D01*
X0114099Y0196095D01*
X0113381Y0195378D01*
X0112993Y0194440D01*
X0112993Y0193426D01*
X0113381Y0192489D01*
X0113790Y0192080D01*
X0113790Y0191546D01*
X0113502Y0191259D01*
X0113502Y0184048D01*
X0114146Y0183404D01*
X0116349Y0183404D01*
X0116349Y0175865D01*
X0116993Y0175220D01*
X0116993Y0174426D01*
X0117381Y0173489D01*
X0117387Y0173483D01*
X0117036Y0173483D01*
X0116099Y0173095D01*
X0115381Y0172378D01*
X0114993Y0171440D01*
X0114993Y0170426D01*
X0115381Y0169489D01*
X0116099Y0168771D01*
X0116332Y0168675D01*
X0114146Y0168675D01*
X0113502Y0168030D01*
X0113502Y0160820D01*
X0114146Y0160176D01*
X0115294Y0160176D01*
X0115099Y0160095D01*
X0114381Y0159378D01*
X0113993Y0158440D01*
X0113993Y0157426D01*
X0114381Y0156489D01*
X0114943Y0155927D01*
X0114943Y0146273D01*
X0114596Y0146273D01*
X0114596Y0147688D01*
X0113951Y0148332D01*
X0107135Y0148332D01*
X0106490Y0147688D01*
X0106490Y0141659D01*
X0107135Y0141014D01*
X0113951Y0141014D01*
X0114596Y0141659D01*
X0114596Y0143073D01*
X0114943Y0143073D01*
X0114943Y0135270D01*
X0115880Y0134333D01*
X0118057Y0132157D01*
X0113687Y0132157D01*
X0113087Y0131557D01*
X0108182Y0131557D01*
X0104356Y0135383D01*
X0105050Y0135383D01*
X0105557Y0135593D01*
X0106490Y0135593D01*
X0106490Y0134178D01*
X0107135Y0133534D01*
X0113951Y0133534D01*
X0114596Y0134178D01*
X0114596Y0140208D01*
X0113951Y0140852D01*
X0107135Y0140852D01*
X0106490Y0140208D01*
X0106490Y0139592D01*
X0105988Y0140095D01*
X0105050Y0140483D01*
X0104036Y0140483D01*
X0103099Y0140095D01*
X0102381Y0139378D01*
X0101993Y0138440D01*
X0101993Y0137746D01*
X0101069Y0138670D01*
X0101612Y0139214D01*
X0102343Y0140978D01*
X0102343Y0142888D01*
X0101612Y0144652D01*
X0100262Y0146002D01*
X0098498Y0146733D01*
X0096588Y0146733D01*
X0094824Y0146002D01*
X0093474Y0144652D01*
X0092743Y0142888D01*
X0092743Y0140978D01*
X0093342Y0139533D01*
X0092206Y0139533D01*
X0091880Y0139859D01*
X0092343Y0140978D01*
X0092343Y0142888D01*
X0091612Y0144652D01*
X0090262Y0146002D01*
X0088498Y0146733D01*
X0086588Y0146733D01*
X0084824Y0146002D01*
X0083474Y0144652D01*
X0082743Y0142888D01*
X0082743Y0140978D01*
X0083474Y0139214D01*
X0084824Y0137864D01*
X0085623Y0137533D01*
X0084206Y0137533D01*
X0081880Y0139859D01*
X0082343Y0140978D01*
X0082343Y0142888D01*
X0081612Y0144652D01*
X0080262Y0146002D01*
X0078498Y0146733D01*
X0076588Y0146733D01*
X0074824Y0146002D01*
X0073474Y0144652D01*
X0072743Y0142888D01*
X0072743Y0140978D01*
X0073207Y0139859D01*
X0069880Y0136533D01*
X0064406Y0136533D01*
X0065469Y0137597D01*
X0066588Y0137133D01*
X0068498Y0137133D01*
X0070262Y0137864D01*
X0071612Y0139214D01*
X0072343Y0140978D01*
X0072343Y0142888D01*
X0071612Y0144652D01*
X0070262Y0146002D01*
X0068498Y0146733D01*
X0066588Y0146733D01*
X0064824Y0146002D01*
X0063474Y0144652D01*
X0062743Y0142888D01*
X0062743Y0140978D01*
X0063207Y0139859D01*
X0061880Y0138533D01*
X0060931Y0138533D01*
X0061612Y0139214D01*
X0062343Y0140978D01*
X0062343Y0142888D01*
X0061612Y0144652D01*
X0060262Y0146002D01*
X0058498Y0146733D01*
X0056588Y0146733D01*
X0054824Y0146002D01*
X0053474Y0144652D01*
X0052743Y0142888D01*
X0052743Y0140978D01*
X0053474Y0139214D01*
X0054155Y0138533D01*
X0053880Y0138533D01*
X0052943Y0137596D01*
X0052880Y0137533D01*
X0051140Y0137533D01*
X0049939Y0136332D01*
X0045135Y0136332D01*
X0044490Y0135688D01*
X0044490Y0129659D01*
X0045004Y0129145D01*
X0044669Y0128952D01*
X0044407Y0128690D01*
X0044407Y0136042D01*
X0043762Y0136687D01*
X0033009Y0136687D01*
X0032364Y0136042D01*
X0032364Y0127257D01*
X0033009Y0126613D01*
X0037695Y0126613D01*
X0036957Y0126307D01*
X0036169Y0125519D01*
X0035743Y0124490D01*
X0035743Y0123376D01*
X0036169Y0122347D01*
X0036200Y0122317D01*
X0033009Y0122317D01*
X0032364Y0121672D01*
X0032364Y0118792D01*
X0032499Y0118657D01*
X0032364Y0118523D01*
X0032364Y0115643D01*
X0032499Y0115508D01*
X0032364Y0115373D01*
X0032364Y0112493D01*
X0032499Y0112358D01*
X0032364Y0112223D01*
X0032364Y0109344D01*
X0032499Y0109209D01*
X0032364Y0109074D01*
X0032364Y0106194D01*
X0033009Y0105550D01*
X0043762Y0105550D01*
X0043947Y0105734D01*
X0044055Y0105734D01*
X0045193Y0104596D01*
X0045193Y0103267D01*
X0045703Y0102035D01*
X0046645Y0101093D01*
X0047877Y0100583D01*
X0049209Y0100583D01*
X0050441Y0101093D01*
X0051383Y0102035D01*
X0051893Y0103267D01*
X0051893Y0104599D01*
X0051383Y0105831D01*
X0050441Y0106773D01*
X0049209Y0107283D01*
X0047880Y0107283D01*
X0045629Y0109534D01*
X0044407Y0109534D01*
X0044407Y0112223D01*
X0044297Y0112333D01*
X0047880Y0112333D01*
X0055296Y0104917D01*
X0055124Y0104745D01*
X0055124Y0098334D01*
X0055472Y0097986D01*
X0054269Y0097986D01*
X0053755Y0097473D01*
X0053562Y0097807D01*
X0053283Y0098086D01*
X0052941Y0098284D01*
X0052559Y0098386D01*
X0050303Y0098386D01*
X0050303Y0094433D01*
X0049303Y0094433D01*
X0049303Y0098386D01*
X0047046Y0098386D01*
X0046665Y0098284D01*
X0046323Y0098086D01*
X0046044Y0097807D01*
X0045846Y0097465D01*
X0045744Y0097083D01*
X0045744Y0094433D01*
X0049303Y0094433D01*
X0049303Y0093433D01*
X0050303Y0093433D01*
X0050303Y0089480D01*
X0052559Y0089480D01*
X0052941Y0089583D01*
X0053283Y0089780D01*
X0053562Y0090059D01*
X0053755Y0090394D01*
X0054269Y0089880D01*
X0060298Y0089880D01*
X0060942Y0090525D01*
X0060942Y0092333D01*
X0060947Y0092333D01*
X0060947Y0091115D01*
X0061591Y0090471D01*
X0067227Y0090471D01*
X0067871Y0091115D01*
X0067871Y0096751D01*
X0067227Y0097395D01*
X0061591Y0097395D01*
X0060947Y0096751D01*
X0060947Y0095533D01*
X0060942Y0095533D01*
X0060942Y0097341D01*
X0060594Y0097689D01*
X0060609Y0097689D01*
X0060748Y0097828D01*
X0060887Y0097689D01*
X0063168Y0097689D01*
X0063307Y0097828D01*
X0063446Y0097689D01*
X0065727Y0097689D01*
X0065866Y0097828D01*
X0066005Y0097689D01*
X0067998Y0097689D01*
X0068098Y0097589D01*
X0068440Y0097392D01*
X0068822Y0097289D01*
X0069704Y0097289D01*
X0069704Y0101539D01*
X0069705Y0101539D01*
X0069705Y0097289D01*
X0069753Y0097289D01*
X0069215Y0096751D01*
X0069215Y0091115D01*
X0069859Y0090471D01*
X0075495Y0090471D01*
X0076139Y0091115D01*
X0076139Y0095133D01*
X0076423Y0095416D01*
X0076423Y0095657D01*
X0076719Y0095361D01*
X0076947Y0095133D01*
X0076947Y0091115D01*
X0077591Y0090471D01*
X0083227Y0090471D01*
X0083871Y0091115D01*
X0083871Y0096751D01*
X0083227Y0097395D01*
X0079210Y0097395D01*
X0078982Y0097623D01*
X0078982Y0097689D01*
X0081081Y0097689D01*
X0081220Y0097828D01*
X0081359Y0097689D01*
X0083640Y0097689D01*
X0083779Y0097828D01*
X0083918Y0097689D01*
X0086199Y0097689D01*
X0086338Y0097828D01*
X0086477Y0097689D01*
X0088759Y0097689D01*
X0088897Y0097828D01*
X0089036Y0097689D01*
X0091318Y0097689D01*
X0091962Y0098334D01*
X0091962Y0104745D01*
X0091318Y0105389D01*
X0089036Y0105389D01*
X0088897Y0105251D01*
X0088759Y0105389D01*
X0086477Y0105389D01*
X0086338Y0105251D01*
X0086199Y0105389D01*
X0084100Y0105389D01*
X0084100Y0107227D01*
X0084256Y0107383D01*
X0085050Y0107383D01*
X0085988Y0107771D01*
X0086705Y0108489D01*
X0087093Y0109426D01*
X0087093Y0110440D01*
X0086705Y0111378D01*
X0085988Y0112095D01*
X0085050Y0112483D01*
X0084036Y0112483D01*
X0083099Y0112095D01*
X0082381Y0111378D01*
X0081993Y0110440D01*
X0081993Y0109646D01*
X0081837Y0109490D01*
X0069249Y0109490D01*
X0069206Y0109533D01*
X0063924Y0109533D01*
X0062986Y0108596D01*
X0062986Y0105389D01*
X0061143Y0105389D01*
X0061143Y0106596D01*
X0060206Y0107533D01*
X0049056Y0118683D01*
X0044297Y0118683D01*
X0044407Y0118792D01*
X0044407Y0121672D01*
X0043762Y0122317D01*
X0040886Y0122317D01*
X0040917Y0122347D01*
X0041343Y0123376D01*
X0041343Y0124490D01*
X0040917Y0125519D01*
X0040129Y0126307D01*
X0039391Y0126613D01*
X0043762Y0126613D01*
X0044090Y0126940D01*
X0044090Y0125693D01*
X0048043Y0125693D01*
X0048043Y0124693D01*
X0044090Y0124693D01*
X0044090Y0122436D01*
X0044193Y0122055D01*
X0044390Y0121713D01*
X0044669Y0121434D01*
X0045011Y0121236D01*
X0045393Y0121134D01*
X0048043Y0121134D01*
X0048043Y0124693D01*
X0049043Y0124693D01*
X0049043Y0125693D01*
X0052521Y0125693D01*
X0053222Y0124992D01*
X0052996Y0124447D01*
X0052996Y0124693D01*
X0049043Y0124693D01*
X0049043Y0121134D01*
X0051693Y0121134D01*
X0052075Y0121236D01*
X0052417Y0121434D01*
X0052696Y0121713D01*
X0052894Y0122055D01*
X0052996Y0122436D01*
X0052996Y0123419D01*
X0053381Y0122489D01*
X0054099Y0121771D01*
X0055036Y0121383D01*
X0056050Y0121383D01*
X0056988Y0121771D01*
X0057705Y0122489D01*
X0058093Y0123426D01*
X0058093Y0124440D01*
X0057705Y0125378D01*
X0056988Y0126095D01*
X0056401Y0126338D01*
X0056262Y0126477D01*
X0058050Y0126477D01*
X0058189Y0126616D01*
X0058328Y0126477D01*
X0060609Y0126477D01*
X0060748Y0126616D01*
X0060887Y0126477D01*
X0063168Y0126477D01*
X0063307Y0126616D01*
X0063446Y0126477D01*
X0065727Y0126477D01*
X0065866Y0126616D01*
X0066005Y0126477D01*
X0068286Y0126477D01*
X0068425Y0126616D01*
X0068564Y0126477D01*
X0070845Y0126477D01*
X0070984Y0126616D01*
X0071123Y0126477D01*
X0073223Y0126477D01*
X0073223Y0123991D01*
X0075993Y0121220D01*
X0075993Y0120426D01*
X0076381Y0119489D01*
X0077099Y0118771D01*
X0078036Y0118383D01*
X0079050Y0118383D01*
X0079988Y0118771D01*
X0080705Y0119489D01*
X0081093Y0120426D01*
X0081093Y0121120D01*
X0095880Y0106333D01*
X0096144Y0106333D01*
X0096144Y0104525D01*
X0096788Y0103880D01*
X0102818Y0103880D01*
X0103462Y0104525D01*
X0103462Y0111341D01*
X0102818Y0111986D01*
X0096788Y0111986D01*
X0096144Y0111341D01*
X0096144Y0110595D01*
X0081541Y0125198D01*
X0081541Y0126097D01*
X0081617Y0126077D01*
X0082500Y0126077D01*
X0083382Y0126077D01*
X0083764Y0126179D01*
X0084106Y0126376D01*
X0084206Y0126477D01*
X0086199Y0126477D01*
X0086338Y0126616D01*
X0086477Y0126477D01*
X0088577Y0126477D01*
X0088577Y0125896D01*
X0089514Y0124959D01*
X0096144Y0118329D01*
X0096144Y0113525D01*
X0096788Y0112880D01*
X0102818Y0112880D01*
X0103462Y0113525D01*
X0103462Y0120333D01*
X0103624Y0120333D01*
X0103624Y0113525D01*
X0104269Y0112880D01*
X0109073Y0112880D01*
X0109295Y0112659D01*
X0108689Y0112659D01*
X0108328Y0112789D01*
X0108052Y0112659D01*
X0107746Y0112659D01*
X0107475Y0112388D01*
X0107128Y0112225D01*
X0107042Y0111986D01*
X0104269Y0111986D01*
X0103624Y0111341D01*
X0103624Y0104525D01*
X0104269Y0103880D01*
X0109175Y0103880D01*
X0108993Y0103440D01*
X0108993Y0102426D01*
X0109381Y0101489D01*
X0110099Y0100771D01*
X0111036Y0100383D01*
X0112050Y0100383D01*
X0112988Y0100771D01*
X0113705Y0101489D01*
X0114093Y0102426D01*
X0114093Y0103220D01*
X0114143Y0103270D01*
X0114143Y0105709D01*
X0119599Y0105709D01*
X0120243Y0106354D01*
X0120243Y0109465D01*
X0120224Y0109484D01*
X0120243Y0109503D01*
X0120243Y0112615D01*
X0120224Y0112634D01*
X0120243Y0112653D01*
X0120243Y0115758D01*
X0125130Y0115758D01*
X0126036Y0115383D01*
X0127050Y0115383D01*
X0127988Y0115771D01*
X0128705Y0116489D01*
X0129093Y0117426D01*
X0129093Y0118440D01*
X0128705Y0119378D01*
X0127988Y0120095D01*
X0127050Y0120483D01*
X0126036Y0120483D01*
X0125099Y0120095D01*
X0124381Y0119378D01*
X0124208Y0118958D01*
X0120243Y0118958D01*
X0120243Y0122064D01*
X0120224Y0122083D01*
X0120243Y0122102D01*
X0120243Y0125213D01*
X0120224Y0125232D01*
X0120243Y0125251D01*
X0120243Y0128363D01*
X0120224Y0128382D01*
X0120243Y0128401D01*
X0120243Y0129970D01*
X0120993Y0129220D01*
X0120993Y0128426D01*
X0121381Y0127489D01*
X0122099Y0126771D01*
X0123036Y0126383D01*
X0124050Y0126383D01*
X0124988Y0126771D01*
X0125705Y0127489D01*
X0126093Y0128426D01*
X0126093Y0129184D01*
X0126381Y0128489D01*
X0127099Y0127771D01*
X0128036Y0127383D01*
X0129050Y0127383D01*
X0129988Y0127771D01*
X0130549Y0128333D01*
X0131206Y0128333D01*
X0132083Y0129210D01*
X0132381Y0128489D01*
X0133099Y0127771D01*
X0134036Y0127383D01*
X0135050Y0127383D01*
X0135988Y0127771D01*
X0136705Y0128489D01*
X0137093Y0129426D01*
X0137093Y0130440D01*
X0136705Y0131378D01*
X0136143Y0131939D01*
X0136143Y0132233D01*
X0136674Y0132233D01*
X0136693Y0132252D01*
X0136712Y0132233D01*
X0139296Y0132233D01*
X0139396Y0132133D01*
X0139738Y0131935D01*
X0140120Y0131833D01*
X0141367Y0131833D01*
X0141367Y0135783D01*
X0141467Y0135783D01*
X0141467Y0131833D01*
X0142715Y0131833D01*
X0143096Y0131935D01*
X0143438Y0132133D01*
X0143538Y0132233D01*
X0146122Y0132233D01*
X0146767Y0132877D01*
X0146767Y0134233D01*
X0152457Y0134233D01*
X0150380Y0132157D01*
X0147487Y0132157D01*
X0146843Y0131512D01*
X0146843Y0128401D01*
X0146862Y0128382D01*
X0146843Y0128363D01*
X0146843Y0125251D01*
X0146862Y0125232D01*
X0146843Y0125213D01*
X0146843Y0122102D01*
X0146862Y0122083D01*
X0146843Y0122064D01*
X0146843Y0118952D01*
X0146862Y0118933D01*
X0146843Y0118914D01*
X0146843Y0115803D01*
X0146862Y0115783D01*
X0146843Y0115764D01*
X0146843Y0112653D01*
X0146862Y0112634D01*
X0146843Y0112615D01*
X0146843Y0109503D01*
X0146862Y0109484D01*
X0146843Y0109465D01*
X0146843Y0106354D01*
X0147487Y0105709D01*
X0149047Y0105709D01*
X0148419Y0105082D01*
X0148419Y0100443D01*
X0146767Y0102096D01*
X0146767Y0104989D01*
X0146122Y0105633D01*
X0143011Y0105633D01*
X0142992Y0105614D01*
X0142973Y0105633D01*
X0140389Y0105633D01*
X0140288Y0105733D01*
X0139946Y0105931D01*
X0139565Y0106033D01*
X0138317Y0106033D01*
X0138317Y0102083D01*
X0138217Y0102083D01*
X0138217Y0106033D01*
X0136970Y0106033D01*
X0136718Y0105965D01*
X0136718Y0110845D01*
X0137256Y0111383D01*
X0138050Y0111383D01*
X0138988Y0111771D01*
X0139705Y0112489D01*
X0140093Y0113426D01*
X0140093Y0114440D01*
X0139705Y0115378D01*
X0138988Y0116095D01*
X0138050Y0116483D01*
X0137036Y0116483D01*
X0136099Y0116095D01*
X0135381Y0115378D01*
X0134993Y0114440D01*
X0134993Y0113646D01*
X0133518Y0112171D01*
X0133518Y0105965D01*
X0133266Y0106033D01*
X0132018Y0106033D01*
X0132018Y0102083D01*
X0131918Y0102083D01*
X0131918Y0106033D01*
X0130671Y0106033D01*
X0130419Y0105965D01*
X0130419Y0110536D01*
X0130988Y0110771D01*
X0131705Y0111489D01*
X0132093Y0112426D01*
X0132093Y0113440D01*
X0131705Y0114378D01*
X0130988Y0115095D01*
X0130050Y0115483D01*
X0129036Y0115483D01*
X0128099Y0115095D01*
X0127381Y0114378D01*
X0126993Y0113440D01*
X0126993Y0112426D01*
X0127219Y0111881D01*
X0127219Y0105633D01*
X0124113Y0105633D01*
X0124094Y0105614D01*
X0124075Y0105633D01*
X0120964Y0105633D01*
X0120319Y0104989D01*
X0120319Y0099533D01*
X0113880Y0099533D01*
X0112943Y0098596D01*
X0102943Y0088596D01*
X0102943Y0079796D01*
X0101143Y0081596D01*
X0101143Y0086400D01*
X0101221Y0086503D01*
X0101143Y0087047D01*
X0101143Y0087596D01*
X0101052Y0087687D01*
X0101033Y0087815D01*
X0100594Y0088145D01*
X0100206Y0088533D01*
X0100076Y0088533D01*
X0098093Y0090021D01*
X0098093Y0090440D01*
X0097705Y0091378D01*
X0096988Y0092095D01*
X0096050Y0092483D01*
X0095036Y0092483D01*
X0094099Y0092095D01*
X0093381Y0091378D01*
X0092993Y0090440D01*
X0092993Y0089426D01*
X0093381Y0088489D01*
X0094099Y0087771D01*
X0095036Y0087383D01*
X0096050Y0087383D01*
X0096196Y0087443D01*
X0097943Y0086133D01*
X0097943Y0080270D01*
X0098880Y0079333D01*
X0100123Y0078091D01*
X0099783Y0078091D01*
X0098798Y0078091D01*
X0098417Y0077988D01*
X0098075Y0077791D01*
X0097796Y0077512D01*
X0097598Y0077170D01*
X0097496Y0076788D01*
X0097496Y0075983D01*
X0096946Y0076533D01*
X0090942Y0082537D01*
X0090942Y0087341D01*
X0090298Y0087986D01*
X0084269Y0087986D01*
X0083624Y0087341D01*
X0083624Y0080525D01*
X0084269Y0079880D01*
X0089073Y0079880D01*
X0089968Y0078986D01*
X0084269Y0078986D01*
X0083624Y0078341D01*
X0083624Y0071533D01*
X0083462Y0071533D01*
X0083462Y0078341D01*
X0082818Y0078986D01*
X0077118Y0078986D01*
X0077403Y0079270D01*
X0077403Y0079270D01*
X0078013Y0079880D01*
X0082818Y0079880D01*
X0083462Y0080525D01*
X0083462Y0087341D01*
X0082818Y0087986D01*
X0076788Y0087986D01*
X0076144Y0087341D01*
X0076144Y0082537D01*
X0075140Y0081533D01*
X0074055Y0081533D01*
X0074241Y0081854D01*
X0074343Y0082236D01*
X0074343Y0084283D01*
X0071443Y0084283D01*
X0071443Y0085083D01*
X0070643Y0085083D01*
X0070643Y0088433D01*
X0069046Y0088433D01*
X0068664Y0088331D01*
X0068322Y0088133D01*
X0068222Y0088033D01*
X0063864Y0088033D01*
X0063764Y0088133D01*
X0063422Y0088331D01*
X0063041Y0088433D01*
X0061443Y0088433D01*
X0061443Y0085083D01*
X0060643Y0085083D01*
X0060643Y0088433D01*
X0059046Y0088433D01*
X0058664Y0088331D01*
X0058322Y0088133D01*
X0058222Y0088033D01*
X0053787Y0088033D01*
X0053143Y0087389D01*
X0053143Y0081977D01*
X0053787Y0081333D01*
X0054443Y0081333D01*
X0054443Y0080770D01*
X0060943Y0074270D01*
X0061880Y0073333D01*
X0076144Y0073333D01*
X0076144Y0071533D01*
X0056206Y0071533D01*
X0055143Y0072596D01*
X0055143Y0079596D01*
X0054206Y0080533D01*
X0050942Y0083797D01*
X0050942Y0087341D01*
X0050298Y0087986D01*
X0044269Y0087986D01*
X0043624Y0087341D01*
X0043624Y0080525D01*
X0044269Y0079880D01*
X0050298Y0079880D01*
X0050316Y0079898D01*
X0051943Y0078270D01*
X0051943Y0072536D01*
X0050942Y0073537D01*
X0050942Y0078341D01*
X0050298Y0078986D01*
X0044269Y0078986D01*
X0043624Y0078341D01*
X0043624Y0071525D01*
X0044269Y0070880D01*
X0049073Y0070880D01*
X0052683Y0067270D01*
X0053604Y0066350D01*
X0053143Y0065889D01*
X0053143Y0060477D01*
X0053787Y0059833D01*
X0054443Y0059833D01*
X0054443Y0055770D01*
X0054513Y0055701D01*
X0054443Y0055631D01*
X0054443Y0052235D01*
X0056845Y0049833D01*
X0060241Y0049833D01*
X0061943Y0051535D01*
X0061943Y0049596D01*
X0060311Y0047964D01*
X0060241Y0048033D01*
X0056845Y0048033D01*
X0054443Y0045631D01*
X0054443Y0042235D01*
X0056845Y0039833D01*
X0060241Y0039833D01*
X0062643Y0042235D01*
X0062643Y0045631D01*
X0062574Y0045701D01*
X0065143Y0048270D01*
X0065143Y0051535D01*
X0066845Y0049833D01*
X0070241Y0049833D01*
X0071943Y0051535D01*
X0071943Y0049596D01*
X0070311Y0047964D01*
X0070241Y0048033D01*
X0066845Y0048033D01*
X0064443Y0045631D01*
X0064443Y0042235D01*
X0066845Y0039833D01*
X0070241Y0039833D01*
X0072643Y0042235D01*
X0072643Y0045631D01*
X0072574Y0045701D01*
X0075143Y0048270D01*
X0075143Y0051535D01*
X0076845Y0049833D01*
X0080241Y0049833D01*
X0082643Y0052235D01*
X0082643Y0055631D01*
X0080241Y0058033D01*
X0076845Y0058033D01*
X0075143Y0056331D01*
X0075143Y0056596D01*
X0074206Y0057533D01*
X0072643Y0059096D01*
X0072643Y0059833D01*
X0073299Y0059833D01*
X0073943Y0060477D01*
X0073943Y0065889D01*
X0073499Y0066333D01*
X0085880Y0066333D01*
X0098146Y0054068D01*
X0097896Y0053818D01*
X0097896Y0046607D01*
X0098540Y0045963D01*
X0101026Y0045963D01*
X0101063Y0045999D01*
X0101099Y0045963D01*
X0103585Y0045963D01*
X0103622Y0045999D01*
X0103658Y0045963D01*
X0106144Y0045963D01*
X0106181Y0045999D01*
X0106217Y0045963D01*
X0108703Y0045963D01*
X0108740Y0045999D01*
X0108776Y0045963D01*
X0111262Y0045963D01*
X0111299Y0045999D01*
X0111335Y0045963D01*
X0113822Y0045963D01*
X0113858Y0045999D01*
X0113895Y0045963D01*
X0115967Y0045963D01*
X0115381Y0045378D01*
X0114993Y0044440D01*
X0114993Y0043426D01*
X0115381Y0042489D01*
X0116099Y0041771D01*
X0117036Y0041383D01*
X0118050Y0041383D01*
X0118988Y0041771D01*
X0119705Y0042489D01*
X0120093Y0043426D01*
X0120093Y0044440D01*
X0119705Y0045378D01*
X0119297Y0045786D01*
X0119297Y0046320D01*
X0119584Y0046607D01*
X0119584Y0053818D01*
X0118940Y0054462D01*
X0116738Y0054462D01*
X0116738Y0064001D01*
X0116356Y0064383D01*
X0117050Y0064383D01*
X0117988Y0064771D01*
X0118183Y0064967D01*
X0118381Y0064489D01*
X0119099Y0063771D01*
X0120036Y0063383D01*
X0121050Y0063383D01*
X0121988Y0063771D01*
X0122705Y0064489D01*
X0123093Y0065426D01*
X0123093Y0066220D01*
X0125466Y0068593D01*
X0126403Y0069530D01*
X0126403Y0070880D01*
X0127818Y0070880D01*
X0128462Y0071525D01*
X0128462Y0078341D01*
X0127818Y0078986D01*
X0121788Y0078986D01*
X0121144Y0078341D01*
X0121144Y0071525D01*
X0121788Y0070880D01*
X0123203Y0070880D01*
X0123203Y0070856D01*
X0120830Y0068483D01*
X0120036Y0068483D01*
X0119297Y0068177D01*
X0119297Y0069548D01*
X0119584Y0069836D01*
X0119584Y0077046D01*
X0119423Y0077207D01*
X0119705Y0077489D01*
X0120093Y0078426D01*
X0120093Y0079220D01*
X0121271Y0080398D01*
X0121788Y0079880D01*
X0127818Y0079880D01*
X0128462Y0080525D01*
X0128462Y0087341D01*
X0128420Y0087383D01*
X0128666Y0087383D01*
X0128624Y0087341D01*
X0128624Y0080525D01*
X0129269Y0079880D01*
X0135298Y0079880D01*
X0135942Y0080525D01*
X0135942Y0082333D01*
X0138143Y0082333D01*
X0138143Y0081977D01*
X0138787Y0081333D01*
X0143222Y0081333D01*
X0143322Y0081233D01*
X0143664Y0081035D01*
X0144046Y0080933D01*
X0145643Y0080933D01*
X0145643Y0084283D01*
X0146443Y0084283D01*
X0146443Y0080933D01*
X0148041Y0080933D01*
X0148368Y0081021D01*
X0143880Y0076533D01*
X0135942Y0076533D01*
X0135942Y0078341D01*
X0135298Y0078986D01*
X0129269Y0078986D01*
X0128624Y0078341D01*
X0128624Y0071525D01*
X0129269Y0070880D01*
X0135228Y0070880D01*
X0128830Y0064483D01*
X0128036Y0064483D01*
X0127099Y0064095D01*
X0126381Y0063378D01*
X0125993Y0062440D01*
X0125993Y0061426D01*
X0126381Y0060489D01*
X0126937Y0059933D01*
X0126381Y0059378D01*
X0125993Y0058440D01*
X0125993Y0057426D01*
X0126381Y0056489D01*
X0127099Y0055771D01*
X0128036Y0055383D01*
X0129050Y0055383D01*
X0129988Y0055771D01*
X0130705Y0056489D01*
X0131093Y0057426D01*
X0131093Y0058220D01*
X0138143Y0065270D01*
X0138143Y0060477D01*
X0138787Y0059833D01*
X0139443Y0059833D01*
X0139443Y0055770D01*
X0139513Y0055701D01*
X0139443Y0055631D01*
X0139443Y0052235D01*
X0141845Y0049833D01*
X0145241Y0049833D01*
X0146943Y0051535D01*
X0146943Y0049596D01*
X0145311Y0047964D01*
X0145241Y0048033D01*
X0141845Y0048033D01*
X0139443Y0045631D01*
X0139443Y0042235D01*
X0141845Y0039833D01*
X0145241Y0039833D01*
X0147643Y0042235D01*
X0147643Y0045631D01*
X0147574Y0045701D01*
X0150143Y0048270D01*
X0150143Y0051535D01*
X0151845Y0049833D01*
X0155241Y0049833D01*
X0156943Y0051535D01*
X0156943Y0049596D01*
X0155311Y0047964D01*
X0155241Y0048033D01*
X0151845Y0048033D01*
X0149443Y0045631D01*
X0149443Y0042235D01*
X0151845Y0039833D01*
X0155241Y0039833D01*
X0157643Y0042235D01*
X0157643Y0045631D01*
X0157574Y0045701D01*
X0160143Y0048270D01*
X0160143Y0051535D01*
X0161845Y0049833D01*
X0165241Y0049833D01*
X0167643Y0052235D01*
X0167643Y0055631D01*
X0165241Y0058033D01*
X0161845Y0058033D01*
X0160143Y0056331D01*
X0160143Y0056596D01*
X0159206Y0057533D01*
X0157643Y0059096D01*
X0157643Y0059833D01*
X0158299Y0059833D01*
X0158943Y0060477D01*
X0158943Y0065889D01*
X0158482Y0066350D01*
X0163013Y0070880D01*
X0167818Y0070880D01*
X0168462Y0071525D01*
X0168462Y0078341D01*
X0167818Y0078986D01*
X0162118Y0078986D01*
X0163013Y0079880D01*
X0167818Y0079880D01*
X0168462Y0080525D01*
X0168462Y0087341D01*
X0167818Y0087986D01*
X0161788Y0087986D01*
X0161144Y0087341D01*
X0161144Y0082537D01*
X0150140Y0071533D01*
X0135942Y0071533D01*
X0135942Y0073333D01*
X0145206Y0073333D01*
X0146143Y0074270D01*
X0152643Y0080770D01*
X0152643Y0081333D01*
X0153222Y0081333D01*
X0153322Y0081233D01*
X0153664Y0081035D01*
X0154046Y0080933D01*
X0155643Y0080933D01*
X0155643Y0084283D01*
X0156443Y0084283D01*
X0156443Y0080933D01*
X0158041Y0080933D01*
X0158422Y0081035D01*
X0158764Y0081233D01*
X0159043Y0081512D01*
X0159241Y0081854D01*
X0159343Y0082236D01*
X0159343Y0084283D01*
X0156443Y0084283D01*
X0156443Y0085083D01*
X0155643Y0085083D01*
X0155643Y0088433D01*
X0154046Y0088433D01*
X0153664Y0088331D01*
X0153322Y0088133D01*
X0153222Y0088033D01*
X0148864Y0088033D01*
X0148764Y0088133D01*
X0148422Y0088331D01*
X0148041Y0088433D01*
X0146443Y0088433D01*
X0146443Y0085083D01*
X0145643Y0085083D01*
X0145643Y0088433D01*
X0144046Y0088433D01*
X0143664Y0088331D01*
X0143322Y0088133D01*
X0143222Y0088033D01*
X0138787Y0088033D01*
X0138143Y0087389D01*
X0138143Y0085533D01*
X0135942Y0085533D01*
X0135942Y0087341D01*
X0135298Y0087986D01*
X0130202Y0087986D01*
X0130705Y0088489D01*
X0131093Y0089426D01*
X0131093Y0090440D01*
X0130705Y0091378D01*
X0129988Y0092095D01*
X0129050Y0092483D01*
X0128036Y0092483D01*
X0127143Y0092113D01*
X0127143Y0092927D01*
X0127705Y0093489D01*
X0128093Y0094426D01*
X0128093Y0094777D01*
X0128099Y0094771D01*
X0129036Y0094383D01*
X0130050Y0094383D01*
X0130988Y0094771D01*
X0131705Y0095489D01*
X0132093Y0096426D01*
X0132093Y0097440D01*
X0131848Y0098033D01*
X0131918Y0098033D01*
X0131918Y0101983D01*
X0132018Y0101983D01*
X0132018Y0098033D01*
X0133266Y0098033D01*
X0133518Y0098101D01*
X0133518Y0095955D01*
X0134144Y0095329D01*
X0134144Y0090525D01*
X0134788Y0089880D01*
X0140818Y0089880D01*
X0141462Y0090525D01*
X0141462Y0095492D01*
X0141624Y0095329D01*
X0141624Y0090525D01*
X0142269Y0089880D01*
X0148298Y0089880D01*
X0148811Y0090393D01*
X0149064Y0090140D01*
X0157455Y0090140D01*
X0158100Y0090785D01*
X0158100Y0096027D01*
X0157793Y0096333D01*
X0163293Y0096333D01*
X0162986Y0096027D01*
X0162986Y0090785D01*
X0163631Y0090140D01*
X0168829Y0090140D01*
X0169636Y0089333D01*
X0181537Y0089333D01*
X0182099Y0088771D01*
X0183036Y0088383D01*
X0183859Y0088383D01*
X0183664Y0088331D01*
X0183322Y0088133D01*
X0183222Y0088033D01*
X0178787Y0088033D01*
X0178143Y0087389D01*
X0178143Y0085533D01*
X0175942Y0085533D01*
X0175942Y0087341D01*
X0175298Y0087986D01*
X0169269Y0087986D01*
X0168624Y0087341D01*
X0168624Y0080525D01*
X0169269Y0079880D01*
X0175298Y0079880D01*
X0175942Y0080525D01*
X0175942Y0082333D01*
X0178143Y0082333D01*
X0178143Y0081977D01*
X0178787Y0081333D01*
X0183222Y0081333D01*
X0183322Y0081233D01*
X0183664Y0081035D01*
X0184046Y0080933D01*
X0185643Y0080933D01*
X0185643Y0084283D01*
X0186443Y0084283D01*
X0186443Y0080933D01*
X0188041Y0080933D01*
X0188368Y0081021D01*
X0183880Y0076533D01*
X0175942Y0076533D01*
X0175942Y0078341D01*
X0175298Y0078986D01*
X0169269Y0078986D01*
X0168624Y0078341D01*
X0168624Y0071525D01*
X0169269Y0070880D01*
X0175298Y0070880D01*
X0175942Y0071525D01*
X0175942Y0073333D01*
X0185206Y0073333D01*
X0186143Y0074270D01*
X0192643Y0080770D01*
X0192643Y0081333D01*
X0193222Y0081333D01*
X0193322Y0081233D01*
X0193664Y0081035D01*
X0194046Y0080933D01*
X0195643Y0080933D01*
X0195643Y0084283D01*
X0196443Y0084283D01*
X0196443Y0080933D01*
X0198041Y0080933D01*
X0198422Y0081035D01*
X0198764Y0081233D01*
X0199043Y0081512D01*
X0199241Y0081854D01*
X0199343Y0082236D01*
X0199343Y0084283D01*
X0196443Y0084283D01*
X0196443Y0085083D01*
X0195643Y0085083D01*
X0195643Y0088433D01*
X0194046Y0088433D01*
X0193664Y0088331D01*
X0193322Y0088133D01*
X0193222Y0088033D01*
X0188864Y0088033D01*
X0188764Y0088133D01*
X0188422Y0088331D01*
X0188041Y0088433D01*
X0186443Y0088433D01*
X0186443Y0085083D01*
X0185643Y0085083D01*
X0185643Y0088433D01*
X0184171Y0088433D01*
X0184988Y0088771D01*
X0185705Y0089489D01*
X0186093Y0090426D01*
X0186093Y0091220D01*
X0186883Y0092010D01*
X0186883Y0092880D01*
X0188298Y0092880D01*
X0188942Y0093525D01*
X0188942Y0100341D01*
X0188298Y0100986D01*
X0182269Y0100986D01*
X0181624Y0100341D01*
X0181624Y0093525D01*
X0182076Y0093073D01*
X0181537Y0092533D01*
X0172667Y0092533D01*
X0172667Y0096027D01*
X0172022Y0096671D01*
X0164299Y0096671D01*
X0166824Y0099195D01*
X0172022Y0099195D01*
X0172150Y0099323D01*
X0174144Y0097329D01*
X0174144Y0093525D01*
X0174788Y0092880D01*
X0180818Y0092880D01*
X0181462Y0093525D01*
X0181462Y0100341D01*
X0180818Y0100986D01*
X0175013Y0100986D01*
X0172667Y0103332D01*
X0172667Y0103807D01*
X0174203Y0102270D01*
X0175140Y0101333D01*
X0188880Y0101333D01*
X0196943Y0093270D01*
X0197880Y0092333D01*
X0200947Y0092333D01*
X0200947Y0091115D01*
X0201591Y0090471D01*
X0207227Y0090471D01*
X0207871Y0091115D01*
X0207871Y0096751D01*
X0207227Y0097395D01*
X0201591Y0097395D01*
X0200947Y0096751D01*
X0200947Y0095533D01*
X0199206Y0095533D01*
X0190206Y0104533D01*
X0180507Y0104533D01*
X0183043Y0107069D01*
X0183043Y0108433D01*
X0179043Y0108433D01*
X0179043Y0109433D01*
X0178043Y0109433D01*
X0178043Y0108433D01*
X0174043Y0108433D01*
X0174043Y0107069D01*
X0176579Y0104533D01*
X0176466Y0104533D01*
X0172596Y0108403D01*
X0172596Y0113208D01*
X0171951Y0113852D01*
X0165135Y0113852D01*
X0164490Y0113208D01*
X0164490Y0107178D01*
X0165135Y0106534D01*
X0169939Y0106534D01*
X0170747Y0105726D01*
X0163631Y0105726D01*
X0162986Y0105082D01*
X0162986Y0099883D01*
X0162636Y0099533D01*
X0157793Y0099533D01*
X0158100Y0099840D01*
X0158100Y0105038D01*
X0158445Y0105383D01*
X0159050Y0105383D01*
X0159988Y0105771D01*
X0160705Y0106489D01*
X0161093Y0107426D01*
X0161093Y0108440D01*
X0160705Y0109378D01*
X0159988Y0110095D01*
X0159050Y0110483D01*
X0158036Y0110483D01*
X0157099Y0110095D01*
X0156381Y0109378D01*
X0155993Y0108440D01*
X0155993Y0107457D01*
X0154262Y0105726D01*
X0153415Y0105726D01*
X0154043Y0106354D01*
X0154043Y0109465D01*
X0154024Y0109484D01*
X0154043Y0109503D01*
X0154043Y0112615D01*
X0154024Y0112634D01*
X0154043Y0112653D01*
X0154043Y0115758D01*
X0164490Y0115758D01*
X0164490Y0114659D01*
X0165135Y0114014D01*
X0171951Y0114014D01*
X0172596Y0114659D01*
X0172596Y0120688D01*
X0171951Y0121332D01*
X0165135Y0121332D01*
X0164490Y0120688D01*
X0164490Y0118958D01*
X0159831Y0118958D01*
X0160256Y0119383D01*
X0161050Y0119383D01*
X0161988Y0119771D01*
X0162705Y0120489D01*
X0163093Y0121426D01*
X0163093Y0122440D01*
X0162705Y0123378D01*
X0161988Y0124095D01*
X0161050Y0124483D01*
X0160036Y0124483D01*
X0159099Y0124095D01*
X0158381Y0123378D01*
X0157993Y0122440D01*
X0157993Y0122108D01*
X0155981Y0122108D01*
X0160256Y0126383D01*
X0161050Y0126383D01*
X0161988Y0126771D01*
X0162705Y0127489D01*
X0163093Y0128426D01*
X0163093Y0129440D01*
X0162723Y0130333D01*
X0164880Y0130333D01*
X0174513Y0120701D01*
X0174443Y0120631D01*
X0174443Y0117235D01*
X0176845Y0114833D01*
X0180241Y0114833D01*
X0181943Y0116535D01*
X0181943Y0113270D01*
X0182880Y0112333D01*
X0184513Y0110701D01*
X0184443Y0110631D01*
X0184443Y0107235D01*
X0186845Y0104833D01*
X0190241Y0104833D01*
X0192643Y0107235D01*
X0192643Y0110631D01*
X0190241Y0113033D01*
X0186845Y0113033D01*
X0186775Y0112964D01*
X0185143Y0114596D01*
X0185143Y0116535D01*
X0186845Y0114833D01*
X0190241Y0114833D01*
X0192643Y0117235D01*
X0192643Y0120631D01*
X0190241Y0123033D01*
X0188706Y0123033D01*
X0186906Y0124833D01*
X0190241Y0124833D01*
X0192643Y0127235D01*
X0192643Y0130631D01*
X0192574Y0130701D01*
X0194855Y0132983D01*
X0196026Y0132983D01*
X0196026Y0131076D01*
X0196670Y0130431D01*
X0202699Y0130431D01*
X0203344Y0131076D01*
X0203344Y0138089D01*
X0202699Y0138734D01*
X0201285Y0138734D01*
X0201285Y0138880D01*
X0202818Y0138880D01*
X0203331Y0139394D01*
X0203524Y0139059D01*
X0203803Y0138780D01*
X0204145Y0138583D01*
X0204527Y0138480D01*
X0206783Y0138480D01*
X0206783Y0142433D01*
X0207783Y0142433D01*
X0207783Y0138480D01*
X0210040Y0138480D01*
X0210421Y0138583D01*
X0210763Y0138780D01*
X0211043Y0139059D01*
X0211240Y0139401D01*
X0211342Y0139783D01*
X0211342Y0142433D01*
X0207783Y0142433D01*
X0207783Y0143433D01*
X0206783Y0143433D01*
X0206783Y0147386D01*
X0204527Y0147386D01*
X0204145Y0147284D01*
X0203803Y0147086D01*
X0203524Y0146807D01*
X0203331Y0146473D01*
X0202818Y0146986D01*
X0196788Y0146986D01*
X0196144Y0146341D01*
X0196144Y0139525D01*
X0196788Y0138880D01*
X0198085Y0138880D01*
X0198085Y0138734D01*
X0196670Y0138734D01*
X0196026Y0138089D01*
X0196026Y0136183D01*
X0193530Y0136183D01*
X0192593Y0135245D01*
X0190311Y0132964D01*
X0190241Y0133033D01*
X0186845Y0133033D01*
X0185143Y0131331D01*
X0185143Y0132596D01*
X0181243Y0136496D01*
X0180859Y0136880D01*
X0186298Y0136880D01*
X0186942Y0137525D01*
X0186942Y0139333D01*
X0187537Y0139333D01*
X0188099Y0138771D01*
X0189036Y0138383D01*
X0190050Y0138383D01*
X0190988Y0138771D01*
X0191705Y0139489D01*
X0192093Y0140426D01*
X0192093Y0141440D01*
X0191705Y0142378D01*
X0190988Y0143095D01*
X0190050Y0143483D01*
X0189036Y0143483D01*
X0188099Y0143095D01*
X0187537Y0142533D01*
X0186942Y0142533D01*
X0186942Y0144341D01*
X0186298Y0144986D01*
X0180269Y0144986D01*
X0179624Y0144341D01*
X0179624Y0137525D01*
X0179716Y0137433D01*
X0179370Y0137433D01*
X0179462Y0137525D01*
X0179462Y0144341D01*
X0178818Y0144986D01*
X0172788Y0144986D01*
X0172144Y0144341D01*
X0172144Y0142533D01*
X0170549Y0142533D01*
X0169988Y0143095D01*
X0169050Y0143483D01*
X0168036Y0143483D01*
X0167099Y0143095D01*
X0166942Y0142938D01*
X0166942Y0147341D01*
X0166298Y0147986D01*
X0160269Y0147986D01*
X0159755Y0147473D01*
X0159562Y0147807D01*
X0159283Y0148086D01*
X0158941Y0148284D01*
X0158559Y0148386D01*
X0156303Y0148386D01*
X0156303Y0144433D01*
X0155303Y0144433D01*
X0155303Y0148386D01*
X0153046Y0148386D01*
X0152665Y0148284D01*
X0152323Y0148086D01*
X0152044Y0147807D01*
X0151846Y0147465D01*
X0151744Y0147083D01*
X0151744Y0144433D01*
X0155303Y0144433D01*
X0155303Y0143433D01*
X0156303Y0143433D01*
X0156303Y0139480D01*
X0158559Y0139480D01*
X0158941Y0139583D01*
X0159283Y0139780D01*
X0159562Y0140059D01*
X0159755Y0140394D01*
X0160269Y0139880D01*
X0165073Y0139880D01*
X0165620Y0139333D01*
X0166537Y0139333D01*
X0167099Y0138771D01*
X0168036Y0138383D01*
X0169050Y0138383D01*
X0169988Y0138771D01*
X0170549Y0139333D01*
X0172144Y0139333D01*
X0172144Y0137525D01*
X0172235Y0137433D01*
X0146767Y0137433D01*
X0146767Y0138789D01*
X0146167Y0139389D01*
X0146167Y0141572D01*
X0144093Y0143646D01*
X0144093Y0144440D01*
X0143705Y0145378D01*
X0142988Y0146095D01*
X0142050Y0146483D01*
X0141036Y0146483D01*
X0140099Y0146095D01*
X0139381Y0145378D01*
X0138993Y0144440D01*
X0138993Y0143426D01*
X0139381Y0142489D01*
X0140099Y0141771D01*
X0141036Y0141383D01*
X0141830Y0141383D01*
X0142967Y0140247D01*
X0142967Y0139765D01*
X0142715Y0139833D01*
X0141467Y0139833D01*
X0141467Y0135883D01*
X0141367Y0135883D01*
X0141367Y0139833D01*
X0140120Y0139833D01*
X0139738Y0139731D01*
X0139396Y0139533D01*
X0139296Y0139433D01*
X0136712Y0139433D01*
X0136693Y0139414D01*
X0136674Y0139433D01*
X0133568Y0139433D01*
X0133568Y0140171D01*
X0132631Y0141108D01*
X0128143Y0145596D01*
X0128143Y0145753D01*
X0129036Y0145383D01*
X0130050Y0145383D01*
X0130988Y0145771D01*
X0131705Y0146489D01*
X0132093Y0147426D01*
X0132093Y0148220D01*
X0132344Y0148471D01*
X0132344Y0159776D01*
X0133303Y0159776D01*
X0134288Y0159776D01*
X0134669Y0159878D01*
X0135011Y0160075D01*
X0135291Y0160355D01*
X0135488Y0160697D01*
X0135590Y0161078D01*
X0135590Y0164425D01*
X0133303Y0164425D01*
X0133303Y0159776D01*
X0133303Y0164425D01*
X0133303Y0164425D01*
X0133303Y0164425D01*
X0135590Y0164425D01*
X0135590Y0167772D01*
X0135488Y0168154D01*
X0135385Y0168333D01*
X0136880Y0168333D01*
X0137943Y0167270D01*
X0137943Y0158530D01*
X0141144Y0155329D01*
X0141144Y0150525D01*
X0141788Y0149880D01*
X0147818Y0149880D01*
X0148462Y0150525D01*
X0148462Y0157341D01*
X0147818Y0157986D01*
X0143013Y0157986D01*
X0142118Y0158880D01*
X0147818Y0158880D01*
X0148462Y0159525D01*
X0148462Y0166333D01*
X0148624Y0166333D01*
X0148624Y0159525D01*
X0149269Y0158880D01*
X0154968Y0158880D01*
X0154073Y0157986D01*
X0149269Y0157986D01*
X0148624Y0157341D01*
X0148624Y0150525D01*
X0149269Y0149880D01*
X0155298Y0149880D01*
X0155942Y0150525D01*
X0155942Y0155329D01*
X0156946Y0156333D01*
X0158031Y0156333D01*
X0157845Y0156012D01*
X0157743Y0155631D01*
X0157743Y0153583D01*
X0160643Y0153583D01*
X0160643Y0152783D01*
X0161443Y0152783D01*
X0161443Y0149433D01*
X0163041Y0149433D01*
X0163422Y0149535D01*
X0163764Y0149733D01*
X0163864Y0149833D01*
X0168222Y0149833D01*
X0168322Y0149733D01*
X0168664Y0149535D01*
X0169046Y0149433D01*
X0170643Y0149433D01*
X0170643Y0152783D01*
X0171443Y0152783D01*
X0171443Y0149433D01*
X0173041Y0149433D01*
X0173422Y0149535D01*
X0173764Y0149733D01*
X0173864Y0149833D01*
X0178299Y0149833D01*
X0178943Y0150477D01*
X0178943Y0155889D01*
X0178299Y0156533D01*
X0177643Y0156533D01*
X0177643Y0157096D01*
X0171143Y0163596D01*
X0170206Y0164533D01*
X0155942Y0164533D01*
X0155942Y0166333D01*
X0170140Y0166333D01*
X0181144Y0155329D01*
X0181144Y0150525D01*
X0181788Y0149880D01*
X0187818Y0149880D01*
X0188462Y0150525D01*
X0188462Y0157341D01*
X0187818Y0157986D01*
X0183013Y0157986D01*
X0182118Y0158880D01*
X0187818Y0158880D01*
X0188462Y0159525D01*
X0188462Y0166341D01*
X0187818Y0166986D01*
X0183013Y0166986D01*
X0179403Y0170596D01*
X0178482Y0171517D01*
X0178943Y0171977D01*
X0178943Y0177389D01*
X0178299Y0178033D01*
X0177643Y0178033D01*
X0177643Y0182096D01*
X0177574Y0182165D01*
X0177643Y0182235D01*
X0177643Y0185631D01*
X0175241Y0188033D01*
X0171845Y0188033D01*
X0170143Y0186331D01*
X0170143Y0188270D01*
X0171775Y0189903D01*
X0171845Y0189833D01*
X0175241Y0189833D01*
X0177643Y0192235D01*
X0177643Y0195631D01*
X0175241Y0198033D01*
X0171845Y0198033D01*
X0169443Y0195631D01*
X0169443Y0192235D01*
X0169513Y0192165D01*
X0167880Y0190533D01*
X0166943Y0189596D01*
X0166943Y0186331D01*
X0165241Y0188033D01*
X0161845Y0188033D01*
X0160143Y0186331D01*
X0160143Y0188270D01*
X0161775Y0189903D01*
X0161845Y0189833D01*
X0165241Y0189833D01*
X0167643Y0192235D01*
X0167643Y0195631D01*
X0165241Y0198033D01*
X0161845Y0198033D01*
X0159443Y0195631D01*
X0159443Y0192235D01*
X0159513Y0192165D01*
X0157880Y0190533D01*
X0156943Y0189596D01*
X0156943Y0186331D01*
X0155241Y0188033D01*
X0151845Y0188033D01*
X0149443Y0185631D01*
X0149443Y0182235D01*
X0151845Y0179833D01*
X0155241Y0179833D01*
X0156943Y0181535D01*
X0156943Y0181270D01*
X0159443Y0178770D01*
X0159443Y0178033D01*
X0158787Y0178033D01*
X0158143Y0177389D01*
X0158143Y0171977D01*
X0158587Y0171533D01*
X0148206Y0171533D01*
X0135190Y0184549D01*
X0135190Y0191259D01*
X0134546Y0191903D01*
X0134751Y0191698D02*
X0139980Y0191698D01*
X0140979Y0190699D02*
X0135190Y0190699D01*
X0135190Y0189701D02*
X0157048Y0189701D01*
X0156943Y0188702D02*
X0135190Y0188702D01*
X0135190Y0187704D02*
X0141516Y0187704D01*
X0141845Y0188033D02*
X0139443Y0185631D01*
X0139443Y0182235D01*
X0141845Y0179833D01*
X0145241Y0179833D01*
X0147643Y0182235D01*
X0147643Y0185631D01*
X0145241Y0188033D01*
X0141845Y0188033D01*
X0140517Y0186705D02*
X0135190Y0186705D01*
X0135190Y0185707D02*
X0139519Y0185707D01*
X0139443Y0184708D02*
X0135190Y0184708D01*
X0136029Y0183710D02*
X0139443Y0183710D01*
X0139443Y0182711D02*
X0137028Y0182711D01*
X0138026Y0181713D02*
X0139965Y0181713D01*
X0139025Y0180714D02*
X0140964Y0180714D01*
X0140023Y0179716D02*
X0158498Y0179716D01*
X0159443Y0178717D02*
X0141022Y0178717D01*
X0142020Y0177719D02*
X0158473Y0177719D01*
X0158143Y0176720D02*
X0143019Y0176720D01*
X0144017Y0175722D02*
X0158143Y0175722D01*
X0158143Y0174723D02*
X0145016Y0174723D01*
X0146014Y0173725D02*
X0158143Y0173725D01*
X0158143Y0172726D02*
X0147013Y0172726D01*
X0148011Y0171728D02*
X0158393Y0171728D01*
X0161043Y0174683D02*
X0161043Y0179433D01*
X0158543Y0181933D01*
X0158543Y0188933D01*
X0163543Y0193933D01*
X0160502Y0196690D02*
X0156584Y0196690D01*
X0157582Y0195692D02*
X0159504Y0195692D01*
X0159443Y0194693D02*
X0157643Y0194693D01*
X0157643Y0195631D02*
X0157643Y0192235D01*
X0155241Y0189833D01*
X0151845Y0189833D01*
X0149443Y0192235D01*
X0149443Y0195631D01*
X0151845Y0198033D01*
X0155241Y0198033D01*
X0157643Y0195631D01*
X0157643Y0193695D02*
X0159443Y0193695D01*
X0159443Y0192696D02*
X0157643Y0192696D01*
X0157106Y0191698D02*
X0159045Y0191698D01*
X0158047Y0190699D02*
X0156108Y0190699D01*
X0155571Y0187704D02*
X0156943Y0187704D01*
X0156943Y0186705D02*
X0156569Y0186705D01*
X0160143Y0186705D02*
X0160517Y0186705D01*
X0160143Y0187704D02*
X0161516Y0187704D01*
X0160575Y0188702D02*
X0166943Y0188702D01*
X0166943Y0187704D02*
X0165571Y0187704D01*
X0166569Y0186705D02*
X0166943Y0186705D01*
X0168543Y0188933D02*
X0168543Y0181933D01*
X0171043Y0179433D01*
X0171043Y0174683D01*
X0166043Y0174683D02*
X0166043Y0181433D01*
X0163543Y0183933D01*
X0170143Y0186705D02*
X0170517Y0186705D01*
X0170143Y0187704D02*
X0171516Y0187704D01*
X0170575Y0188702D02*
X0196943Y0188702D01*
X0196943Y0189596D02*
X0196943Y0186331D01*
X0195241Y0188033D01*
X0191845Y0188033D01*
X0189443Y0185631D01*
X0189443Y0182235D01*
X0191845Y0179833D01*
X0195241Y0179833D01*
X0196943Y0181535D01*
X0196943Y0181270D01*
X0199443Y0178770D01*
X0199443Y0178033D01*
X0198787Y0178033D01*
X0198143Y0177389D01*
X0198143Y0171977D01*
X0198787Y0171333D01*
X0203299Y0171333D01*
X0203543Y0171577D01*
X0203787Y0171333D01*
X0208299Y0171333D01*
X0208543Y0171577D01*
X0208787Y0171333D01*
X0213299Y0171333D01*
X0213543Y0171577D01*
X0213787Y0171333D01*
X0218299Y0171333D01*
X0218943Y0171977D01*
X0218943Y0177389D01*
X0218299Y0178033D01*
X0217643Y0178033D01*
X0217643Y0182096D01*
X0217574Y0182165D01*
X0217643Y0182235D01*
X0217643Y0185631D01*
X0215241Y0188033D01*
X0211845Y0188033D01*
X0210143Y0186331D01*
X0210143Y0188270D01*
X0211775Y0189903D01*
X0211845Y0189833D01*
X0215241Y0189833D01*
X0217643Y0192235D01*
X0217643Y0195631D01*
X0215241Y0198033D01*
X0211845Y0198033D01*
X0209443Y0195631D01*
X0209443Y0192235D01*
X0209513Y0192165D01*
X0207880Y0190533D01*
X0206943Y0189596D01*
X0206943Y0186331D01*
X0205241Y0188033D01*
X0201845Y0188033D01*
X0200143Y0186331D01*
X0200143Y0188270D01*
X0201775Y0189903D01*
X0201845Y0189833D01*
X0205241Y0189833D01*
X0207643Y0192235D01*
X0207643Y0195631D01*
X0205241Y0198033D01*
X0201845Y0198033D01*
X0199443Y0195631D01*
X0199443Y0192235D01*
X0199513Y0192165D01*
X0197880Y0190533D01*
X0196943Y0189596D01*
X0197048Y0189701D02*
X0171574Y0189701D01*
X0168543Y0188933D02*
X0173543Y0193933D01*
X0170502Y0196690D02*
X0166584Y0196690D01*
X0167582Y0195692D02*
X0169504Y0195692D01*
X0169443Y0194693D02*
X0167643Y0194693D01*
X0167643Y0193695D02*
X0169443Y0193695D01*
X0169443Y0192696D02*
X0167643Y0192696D01*
X0167106Y0191698D02*
X0169045Y0191698D01*
X0168047Y0190699D02*
X0166108Y0190699D01*
X0167048Y0189701D02*
X0161574Y0189701D01*
X0161501Y0197689D02*
X0155585Y0197689D01*
X0151501Y0197689D02*
X0145585Y0197689D01*
X0146584Y0196690D02*
X0150502Y0196690D01*
X0149504Y0195692D02*
X0147582Y0195692D01*
X0147643Y0194693D02*
X0149443Y0194693D01*
X0149443Y0193695D02*
X0147643Y0193695D01*
X0147643Y0192696D02*
X0149443Y0192696D01*
X0149980Y0191698D02*
X0147106Y0191698D01*
X0146108Y0190699D02*
X0150979Y0190699D01*
X0151516Y0187704D02*
X0145571Y0187704D01*
X0146569Y0186705D02*
X0150517Y0186705D01*
X0149519Y0185707D02*
X0147568Y0185707D01*
X0147643Y0184708D02*
X0149443Y0184708D01*
X0149443Y0183710D02*
X0147643Y0183710D01*
X0147643Y0182711D02*
X0149443Y0182711D01*
X0149965Y0181713D02*
X0147121Y0181713D01*
X0146123Y0180714D02*
X0150964Y0180714D01*
X0156122Y0180714D02*
X0157499Y0180714D01*
X0147543Y0169933D02*
X0133303Y0184173D01*
X0133303Y0187654D01*
X0130744Y0187654D02*
X0130744Y0183732D01*
X0146543Y0167933D01*
X0170803Y0167933D01*
X0184803Y0153933D01*
X0188462Y0153754D02*
X0188624Y0153754D01*
X0188624Y0152756D02*
X0188462Y0152756D01*
X0188462Y0151757D02*
X0188624Y0151757D01*
X0188624Y0150759D02*
X0188462Y0150759D01*
X0188624Y0150525D02*
X0189269Y0149880D01*
X0195298Y0149880D01*
X0195942Y0150525D01*
X0195942Y0155329D01*
X0196946Y0156333D01*
X0198031Y0156333D01*
X0197845Y0156012D01*
X0197743Y0155631D01*
X0197743Y0153583D01*
X0200643Y0153583D01*
X0200643Y0152783D01*
X0201443Y0152783D01*
X0201443Y0149433D01*
X0203041Y0149433D01*
X0203422Y0149535D01*
X0203764Y0149733D01*
X0203864Y0149833D01*
X0208222Y0149833D01*
X0208322Y0149733D01*
X0208664Y0149535D01*
X0209046Y0149433D01*
X0210643Y0149433D01*
X0210643Y0152783D01*
X0211443Y0152783D01*
X0211443Y0149433D01*
X0213041Y0149433D01*
X0213422Y0149535D01*
X0213764Y0149733D01*
X0213864Y0149833D01*
X0218299Y0149833D01*
X0218943Y0150477D01*
X0218943Y0155889D01*
X0218299Y0156533D01*
X0217643Y0156533D01*
X0217643Y0157096D01*
X0211143Y0163596D01*
X0210206Y0164533D01*
X0195942Y0164533D01*
X0195942Y0166341D01*
X0195298Y0166986D01*
X0189269Y0166986D01*
X0188624Y0166341D01*
X0188624Y0159525D01*
X0189269Y0158880D01*
X0194968Y0158880D01*
X0194073Y0157986D01*
X0189269Y0157986D01*
X0188624Y0157341D01*
X0188624Y0150525D01*
X0188543Y0148933D02*
X0187543Y0147933D01*
X0187543Y0146933D01*
X0186516Y0144768D02*
X0196144Y0144768D01*
X0196144Y0145766D02*
X0166942Y0145766D01*
X0166942Y0144768D02*
X0172570Y0144768D01*
X0172144Y0143769D02*
X0166942Y0143769D01*
X0166283Y0140933D02*
X0168543Y0140933D01*
X0175803Y0140933D01*
X0172144Y0142771D02*
X0170312Y0142771D01*
X0166283Y0140933D02*
X0163283Y0143933D01*
X0165178Y0139775D02*
X0159275Y0139775D01*
X0156303Y0139775D02*
X0155303Y0139775D01*
X0155303Y0139480D02*
X0155303Y0143433D01*
X0151744Y0143433D01*
X0151744Y0140783D01*
X0151846Y0140401D01*
X0152044Y0140059D01*
X0152323Y0139780D01*
X0152665Y0139583D01*
X0153046Y0139480D01*
X0155303Y0139480D01*
X0155303Y0140774D02*
X0156303Y0140774D01*
X0156303Y0141772D02*
X0155303Y0141772D01*
X0155303Y0142771D02*
X0156303Y0142771D01*
X0155303Y0143769D02*
X0144093Y0143769D01*
X0143957Y0144768D02*
X0151744Y0144768D01*
X0151744Y0145766D02*
X0143316Y0145766D01*
X0141543Y0143933D02*
X0144567Y0140909D01*
X0144567Y0135833D01*
X0179643Y0135833D01*
X0183543Y0131933D01*
X0183543Y0125933D01*
X0188543Y0120933D01*
X0188543Y0118933D01*
X0185867Y0115811D02*
X0185143Y0115811D01*
X0185143Y0114812D02*
X0214160Y0114812D01*
X0213161Y0113814D02*
X0185925Y0113814D01*
X0183543Y0113933D02*
X0183543Y0121933D01*
X0181543Y0123933D01*
X0176543Y0123933D01*
X0166543Y0133933D01*
X0154419Y0133933D01*
X0150443Y0129957D01*
X0151009Y0132786D02*
X0146675Y0132786D01*
X0146767Y0133784D02*
X0152008Y0133784D01*
X0147118Y0131787D02*
X0136295Y0131787D01*
X0136949Y0130789D02*
X0146843Y0130789D01*
X0146843Y0129790D02*
X0137093Y0129790D01*
X0136830Y0128792D02*
X0146843Y0128792D01*
X0146843Y0127793D02*
X0136009Y0127793D01*
X0134543Y0129933D02*
X0134543Y0135258D01*
X0135118Y0135833D01*
X0131968Y0135833D02*
X0131968Y0139508D01*
X0126543Y0144933D01*
X0126543Y0147933D01*
X0125626Y0148850D01*
X0125626Y0164425D01*
X0128185Y0164425D02*
X0128185Y0167291D01*
X0128183Y0167369D01*
X0128178Y0167447D01*
X0128168Y0167525D01*
X0128155Y0167602D01*
X0128139Y0167678D01*
X0128118Y0167754D01*
X0128095Y0167828D01*
X0128067Y0167901D01*
X0128037Y0167973D01*
X0128002Y0168043D01*
X0127965Y0168112D01*
X0127924Y0168179D01*
X0127881Y0168243D01*
X0127834Y0168306D01*
X0127784Y0168366D01*
X0127731Y0168424D01*
X0127676Y0168479D01*
X0127618Y0168532D01*
X0127558Y0168582D01*
X0127495Y0168629D01*
X0127431Y0168672D01*
X0127364Y0168713D01*
X0127295Y0168750D01*
X0127225Y0168785D01*
X0127153Y0168815D01*
X0127080Y0168843D01*
X0127006Y0168866D01*
X0126930Y0168887D01*
X0126854Y0168903D01*
X0126777Y0168916D01*
X0126699Y0168926D01*
X0126621Y0168931D01*
X0126543Y0168933D01*
X0119543Y0168933D01*
X0117543Y0170933D01*
X0115730Y0172726D02*
X0114879Y0172726D01*
X0114988Y0172771D02*
X0115705Y0173489D01*
X0116093Y0174426D01*
X0116093Y0175440D01*
X0115705Y0176378D01*
X0114988Y0177095D01*
X0114050Y0177483D01*
X0113036Y0177483D01*
X0112099Y0177095D01*
X0111381Y0176378D01*
X0110993Y0175440D01*
X0110993Y0174646D01*
X0106620Y0170273D01*
X0105683Y0169336D01*
X0105683Y0166986D01*
X0104269Y0166986D01*
X0103624Y0166341D01*
X0103624Y0159525D01*
X0104269Y0158880D01*
X0110298Y0158880D01*
X0110942Y0159525D01*
X0110942Y0166341D01*
X0110298Y0166986D01*
X0108883Y0166986D01*
X0108883Y0168010D01*
X0113256Y0172383D01*
X0114050Y0172383D01*
X0114988Y0172771D01*
X0115112Y0171728D02*
X0112600Y0171728D01*
X0111602Y0170729D02*
X0114993Y0170729D01*
X0115281Y0169731D02*
X0110603Y0169731D01*
X0109605Y0168732D02*
X0116193Y0168732D01*
X0113502Y0167734D02*
X0108883Y0167734D01*
X0107283Y0168673D02*
X0107283Y0162933D01*
X0110942Y0162741D02*
X0113502Y0162741D01*
X0113502Y0161743D02*
X0110942Y0161743D01*
X0110942Y0160744D02*
X0113578Y0160744D01*
X0114749Y0159745D02*
X0110942Y0159745D01*
X0110298Y0157986D02*
X0104269Y0157986D01*
X0103624Y0157341D01*
X0103624Y0150525D01*
X0103666Y0150483D01*
X0103420Y0150483D01*
X0103462Y0150525D01*
X0103462Y0157341D01*
X0102818Y0157986D01*
X0096788Y0157986D01*
X0096144Y0157341D01*
X0096144Y0154783D01*
X0093943Y0154783D01*
X0093943Y0155889D01*
X0093299Y0156533D01*
X0088864Y0156533D01*
X0088764Y0156633D01*
X0088422Y0156831D01*
X0088041Y0156933D01*
X0086443Y0156933D01*
X0086443Y0153583D01*
X0085643Y0153583D01*
X0085643Y0156933D01*
X0084046Y0156933D01*
X0083718Y0156845D01*
X0088206Y0161333D01*
X0096144Y0161333D01*
X0096144Y0159525D01*
X0096788Y0158880D01*
X0102818Y0158880D01*
X0103462Y0159525D01*
X0103462Y0166341D01*
X0102818Y0166986D01*
X0096788Y0166986D01*
X0096144Y0166341D01*
X0096144Y0164533D01*
X0086880Y0164533D01*
X0085943Y0163596D01*
X0079443Y0157096D01*
X0079443Y0156533D01*
X0078864Y0156533D01*
X0078764Y0156633D01*
X0078422Y0156831D01*
X0078041Y0156933D01*
X0076443Y0156933D01*
X0076443Y0153583D01*
X0075643Y0153583D01*
X0075643Y0152783D01*
X0076443Y0152783D01*
X0076443Y0149433D01*
X0078041Y0149433D01*
X0078422Y0149535D01*
X0078764Y0149733D01*
X0078864Y0149833D01*
X0083222Y0149833D01*
X0083322Y0149733D01*
X0083664Y0149535D01*
X0084046Y0149433D01*
X0085643Y0149433D01*
X0085643Y0152783D01*
X0086443Y0152783D01*
X0086443Y0149433D01*
X0088041Y0149433D01*
X0088422Y0149535D01*
X0088764Y0149733D01*
X0088864Y0149833D01*
X0093299Y0149833D01*
X0093943Y0150477D01*
X0093943Y0151583D01*
X0096144Y0151583D01*
X0096144Y0150525D01*
X0096788Y0149880D01*
X0101884Y0149880D01*
X0101381Y0149378D01*
X0100993Y0148440D01*
X0100993Y0147426D01*
X0101381Y0146489D01*
X0102099Y0145771D01*
X0103036Y0145383D01*
X0104050Y0145383D01*
X0104988Y0145771D01*
X0105705Y0146489D01*
X0106093Y0147426D01*
X0106093Y0148220D01*
X0107753Y0149880D01*
X0110298Y0149880D01*
X0110942Y0150525D01*
X0110942Y0157341D01*
X0110298Y0157986D01*
X0110535Y0157748D02*
X0113993Y0157748D01*
X0114120Y0158747D02*
X0085620Y0158747D01*
X0086618Y0159745D02*
X0096144Y0159745D01*
X0096144Y0160744D02*
X0087617Y0160744D01*
X0087543Y0162933D02*
X0099803Y0162933D01*
X0103462Y0162741D02*
X0103624Y0162741D01*
X0103624Y0161743D02*
X0103462Y0161743D01*
X0103462Y0160744D02*
X0103624Y0160744D01*
X0103624Y0159745D02*
X0103462Y0159745D01*
X0103055Y0157748D02*
X0104031Y0157748D01*
X0103624Y0156750D02*
X0103462Y0156750D01*
X0103462Y0155751D02*
X0103624Y0155751D01*
X0103624Y0154753D02*
X0103462Y0154753D01*
X0103462Y0153754D02*
X0103624Y0153754D01*
X0103624Y0152756D02*
X0103462Y0152756D01*
X0103462Y0151757D02*
X0103624Y0151757D01*
X0103624Y0150759D02*
X0103462Y0150759D01*
X0101764Y0149760D02*
X0088792Y0149760D01*
X0086443Y0149760D02*
X0085643Y0149760D01*
X0085643Y0150759D02*
X0086443Y0150759D01*
X0086443Y0151757D02*
X0085643Y0151757D01*
X0085643Y0152756D02*
X0086443Y0152756D01*
X0086443Y0153754D02*
X0085643Y0153754D01*
X0085643Y0154753D02*
X0086443Y0154753D01*
X0086443Y0155751D02*
X0085643Y0155751D01*
X0085643Y0156750D02*
X0086443Y0156750D01*
X0084621Y0157748D02*
X0096551Y0157748D01*
X0096144Y0156750D02*
X0088562Y0156750D01*
X0091043Y0153183D02*
X0099053Y0153183D01*
X0099803Y0153933D01*
X0096144Y0155751D02*
X0093943Y0155751D01*
X0093943Y0150759D02*
X0096144Y0150759D01*
X0095543Y0148933D02*
X0094543Y0148933D01*
X0094588Y0145766D02*
X0090498Y0145766D01*
X0091497Y0144768D02*
X0093590Y0144768D01*
X0093108Y0143769D02*
X0091978Y0143769D01*
X0092343Y0142771D02*
X0092743Y0142771D01*
X0092743Y0141772D02*
X0092343Y0141772D01*
X0092258Y0140774D02*
X0092828Y0140774D01*
X0093241Y0139775D02*
X0091964Y0139775D01*
X0091543Y0137933D02*
X0087543Y0141933D01*
X0083108Y0143769D02*
X0081978Y0143769D01*
X0082343Y0142771D02*
X0082743Y0142771D01*
X0082743Y0141772D02*
X0082343Y0141772D01*
X0082258Y0140774D02*
X0082828Y0140774D01*
X0083241Y0139775D02*
X0081964Y0139775D01*
X0082962Y0138777D02*
X0083911Y0138777D01*
X0083961Y0137778D02*
X0085031Y0137778D01*
X0083543Y0135933D02*
X0077543Y0141933D01*
X0070543Y0134933D01*
X0055543Y0134933D01*
X0053543Y0132933D01*
X0053543Y0126933D01*
X0055543Y0124933D01*
X0055543Y0123933D01*
X0057286Y0125796D02*
X0073223Y0125796D01*
X0073223Y0124798D02*
X0057945Y0124798D01*
X0058093Y0123799D02*
X0073414Y0123799D01*
X0074413Y0122801D02*
X0057834Y0122801D01*
X0057018Y0121802D02*
X0075411Y0121802D01*
X0075993Y0120804D02*
X0044407Y0120804D01*
X0044407Y0119805D02*
X0076250Y0119805D01*
X0077063Y0118807D02*
X0044407Y0118807D01*
X0044338Y0121802D02*
X0044277Y0121802D01*
X0044090Y0122801D02*
X0041105Y0122801D01*
X0041343Y0123799D02*
X0044090Y0123799D01*
X0044090Y0125796D02*
X0040640Y0125796D01*
X0041216Y0124798D02*
X0048043Y0124798D01*
X0048043Y0123799D02*
X0049043Y0123799D01*
X0049043Y0122801D02*
X0048043Y0122801D01*
X0048043Y0121802D02*
X0049043Y0121802D01*
X0049043Y0124798D02*
X0053141Y0124798D01*
X0053252Y0122801D02*
X0052996Y0122801D01*
X0052748Y0121802D02*
X0054068Y0121802D01*
X0049931Y0117808D02*
X0084405Y0117808D01*
X0083407Y0118807D02*
X0080023Y0118807D01*
X0080836Y0119805D02*
X0082408Y0119805D01*
X0081410Y0120804D02*
X0081093Y0120804D01*
X0078543Y0120933D02*
X0074823Y0124654D01*
X0074823Y0130327D01*
X0076102Y0134038D02*
X0075963Y0134177D01*
X0073682Y0134177D01*
X0073543Y0134038D01*
X0073404Y0134177D01*
X0072049Y0134177D01*
X0075469Y0137597D01*
X0076588Y0137133D01*
X0078498Y0137133D01*
X0079617Y0137597D01*
X0082637Y0134577D01*
X0082500Y0134577D01*
X0082500Y0130327D01*
X0082500Y0130327D01*
X0082500Y0134577D01*
X0081617Y0134577D01*
X0081236Y0134475D01*
X0080894Y0134277D01*
X0080793Y0134177D01*
X0078800Y0134177D01*
X0078661Y0134038D01*
X0078522Y0134177D01*
X0076241Y0134177D01*
X0076102Y0134038D01*
X0073654Y0135781D02*
X0081432Y0135781D01*
X0082431Y0134783D02*
X0072655Y0134783D01*
X0074652Y0136780D02*
X0080434Y0136780D01*
X0083543Y0135933D02*
X0092543Y0135933D01*
X0094543Y0133933D01*
X0095543Y0133933D01*
X0105819Y0123657D01*
X0116643Y0123657D01*
X0116643Y0126807D02*
X0105669Y0126807D01*
X0096543Y0135933D01*
X0095543Y0135933D01*
X0093543Y0137933D01*
X0091543Y0137933D01*
X0097543Y0139933D02*
X0097543Y0141933D01*
X0097543Y0139933D02*
X0107519Y0129957D01*
X0116643Y0129957D01*
X0117428Y0132786D02*
X0106953Y0132786D01*
X0106884Y0133784D02*
X0105955Y0133784D01*
X0106490Y0134783D02*
X0104956Y0134783D01*
X0105283Y0137193D02*
X0104543Y0137933D01*
X0105283Y0137193D02*
X0110543Y0137193D01*
X0114596Y0136780D02*
X0114943Y0136780D01*
X0114943Y0137778D02*
X0114596Y0137778D01*
X0114596Y0138777D02*
X0114943Y0138777D01*
X0114943Y0139775D02*
X0114596Y0139775D01*
X0114943Y0140774D02*
X0114030Y0140774D01*
X0114596Y0141772D02*
X0114943Y0141772D01*
X0114943Y0142771D02*
X0114596Y0142771D01*
X0115803Y0144673D02*
X0110543Y0144673D01*
X0114596Y0146765D02*
X0114943Y0146765D01*
X0114943Y0147763D02*
X0114520Y0147763D01*
X0114943Y0148762D02*
X0106635Y0148762D01*
X0106566Y0147763D02*
X0106093Y0147763D01*
X0105819Y0146765D02*
X0106490Y0146765D01*
X0106490Y0145766D02*
X0104976Y0145766D01*
X0106490Y0144768D02*
X0101497Y0144768D01*
X0101978Y0143769D02*
X0106490Y0143769D01*
X0106490Y0142771D02*
X0102343Y0142771D01*
X0102343Y0141772D02*
X0106490Y0141772D01*
X0107056Y0140774D02*
X0102258Y0140774D01*
X0101845Y0139775D02*
X0102779Y0139775D01*
X0102132Y0138777D02*
X0101175Y0138777D01*
X0101961Y0137778D02*
X0101993Y0137778D01*
X0106307Y0139775D02*
X0106490Y0139775D01*
X0102111Y0145766D02*
X0100498Y0145766D01*
X0101267Y0146765D02*
X0049500Y0146765D01*
X0049539Y0146752D02*
X0048761Y0147005D01*
X0048043Y0147119D01*
X0048043Y0142433D01*
X0047043Y0142433D01*
X0047043Y0141433D01*
X0042357Y0141433D01*
X0042471Y0140715D01*
X0042724Y0139937D01*
X0043096Y0139208D01*
X0043577Y0138545D01*
X0044155Y0137967D01*
X0044818Y0137486D01*
X0045547Y0137114D01*
X0046325Y0136861D01*
X0047043Y0136747D01*
X0047043Y0141433D01*
X0048043Y0141433D01*
X0048043Y0136747D01*
X0048761Y0136861D01*
X0049539Y0137114D01*
X0050268Y0137486D01*
X0050931Y0137967D01*
X0051509Y0138545D01*
X0051991Y0139208D01*
X0052362Y0139937D01*
X0052615Y0140715D01*
X0052729Y0141433D01*
X0048043Y0141433D01*
X0048043Y0142433D01*
X0052729Y0142433D01*
X0052615Y0143151D01*
X0052362Y0143929D01*
X0051991Y0144658D01*
X0051509Y0145321D01*
X0050931Y0145899D01*
X0050268Y0146380D01*
X0049539Y0146752D01*
X0048043Y0146765D02*
X0047043Y0146765D01*
X0047043Y0147119D02*
X0046325Y0147005D01*
X0045547Y0146752D01*
X0044818Y0146380D01*
X0044155Y0145899D01*
X0043577Y0145321D01*
X0043096Y0144658D01*
X0042724Y0143929D01*
X0042471Y0143151D01*
X0042357Y0142433D01*
X0047043Y0142433D01*
X0047043Y0147119D01*
X0047043Y0145766D02*
X0048043Y0145766D01*
X0048043Y0144768D02*
X0047043Y0144768D01*
X0047043Y0143769D02*
X0048043Y0143769D01*
X0048043Y0142771D02*
X0047043Y0142771D01*
X0047043Y0141772D02*
X0042343Y0141772D01*
X0042343Y0140978D02*
X0041612Y0139214D01*
X0040262Y0137864D01*
X0038498Y0137133D01*
X0036588Y0137133D01*
X0034824Y0137864D01*
X0033474Y0139214D01*
X0032743Y0140978D01*
X0032743Y0142888D01*
X0033474Y0144652D01*
X0034824Y0146002D01*
X0036588Y0146733D01*
X0038498Y0146733D01*
X0040262Y0146002D01*
X0041612Y0144652D01*
X0042343Y0142888D01*
X0042343Y0140978D01*
X0042258Y0140774D02*
X0042462Y0140774D01*
X0042806Y0139775D02*
X0041845Y0139775D01*
X0041175Y0138777D02*
X0043409Y0138777D01*
X0044415Y0137778D02*
X0040055Y0137778D01*
X0035031Y0137778D02*
X0030055Y0137778D01*
X0030262Y0137864D02*
X0031612Y0139214D01*
X0032343Y0140978D01*
X0032343Y0142888D01*
X0031612Y0144652D01*
X0030262Y0146002D01*
X0028498Y0146733D01*
X0026588Y0146733D01*
X0024824Y0146002D01*
X0023474Y0144652D01*
X0022743Y0142888D01*
X0022743Y0140978D01*
X0023474Y0139214D01*
X0024824Y0137864D01*
X0026588Y0137133D01*
X0028498Y0137133D01*
X0030262Y0137864D01*
X0031175Y0138777D02*
X0033911Y0138777D01*
X0033241Y0139775D02*
X0031845Y0139775D01*
X0032258Y0140774D02*
X0032828Y0140774D01*
X0032743Y0141772D02*
X0032343Y0141772D01*
X0032343Y0142771D02*
X0032743Y0142771D01*
X0033108Y0143769D02*
X0031978Y0143769D01*
X0031497Y0144768D02*
X0033590Y0144768D01*
X0034588Y0145766D02*
X0030498Y0145766D01*
X0033322Y0149733D02*
X0033664Y0149535D01*
X0034046Y0149433D01*
X0035643Y0149433D01*
X0035643Y0152783D01*
X0036443Y0152783D01*
X0036443Y0149433D01*
X0038041Y0149433D01*
X0038422Y0149535D01*
X0038764Y0149733D01*
X0038864Y0149833D01*
X0043222Y0149833D01*
X0043322Y0149733D01*
X0043664Y0149535D01*
X0044046Y0149433D01*
X0045643Y0149433D01*
X0045643Y0152783D01*
X0046443Y0152783D01*
X0046443Y0149433D01*
X0048041Y0149433D01*
X0048422Y0149535D01*
X0048764Y0149733D01*
X0048864Y0149833D01*
X0053299Y0149833D01*
X0053943Y0150477D01*
X0053943Y0151583D01*
X0056144Y0151583D01*
X0056144Y0150525D01*
X0056788Y0149880D01*
X0062818Y0149880D01*
X0063462Y0150525D01*
X0063462Y0157341D01*
X0062818Y0157986D01*
X0056788Y0157986D01*
X0056144Y0157341D01*
X0056144Y0154783D01*
X0053943Y0154783D01*
X0053943Y0155889D01*
X0053299Y0156533D01*
X0048864Y0156533D01*
X0048764Y0156633D01*
X0048422Y0156831D01*
X0048041Y0156933D01*
X0046443Y0156933D01*
X0046443Y0153583D01*
X0045643Y0153583D01*
X0045643Y0156933D01*
X0044046Y0156933D01*
X0043718Y0156845D01*
X0048206Y0161333D01*
X0056144Y0161333D01*
X0056144Y0159525D01*
X0056788Y0158880D01*
X0062818Y0158880D01*
X0063462Y0159525D01*
X0063462Y0166341D01*
X0062818Y0166986D01*
X0056788Y0166986D01*
X0056144Y0166341D01*
X0056144Y0164533D01*
X0046880Y0164533D01*
X0045943Y0163596D01*
X0039443Y0157096D01*
X0039443Y0156533D01*
X0038864Y0156533D01*
X0038764Y0156633D01*
X0038422Y0156831D01*
X0038041Y0156933D01*
X0036443Y0156933D01*
X0036443Y0153583D01*
X0035643Y0153583D01*
X0035643Y0152783D01*
X0032743Y0152783D01*
X0032743Y0150736D01*
X0032845Y0150354D01*
X0033043Y0150012D01*
X0033322Y0149733D01*
X0033294Y0149760D02*
X0010543Y0149760D01*
X0010543Y0148762D02*
X0101126Y0148762D01*
X0100993Y0147763D02*
X0010543Y0147763D01*
X0010543Y0146765D02*
X0045586Y0146765D01*
X0044022Y0145766D02*
X0040498Y0145766D01*
X0041497Y0144768D02*
X0043175Y0144768D01*
X0042672Y0143769D02*
X0041978Y0143769D01*
X0042343Y0142771D02*
X0042411Y0142771D01*
X0047043Y0140774D02*
X0048043Y0140774D01*
X0048043Y0141772D02*
X0052743Y0141772D01*
X0052743Y0142771D02*
X0052675Y0142771D01*
X0052414Y0143769D02*
X0053108Y0143769D01*
X0053590Y0144768D02*
X0051911Y0144768D01*
X0051064Y0145766D02*
X0054588Y0145766D01*
X0053943Y0150759D02*
X0056144Y0150759D01*
X0059053Y0153183D02*
X0051043Y0153183D01*
X0053943Y0155751D02*
X0056144Y0155751D01*
X0056144Y0156750D02*
X0048562Y0156750D01*
X0046443Y0156750D02*
X0045643Y0156750D01*
X0045643Y0155751D02*
X0046443Y0155751D01*
X0046443Y0154753D02*
X0045643Y0154753D01*
X0045643Y0153754D02*
X0046443Y0153754D01*
X0046443Y0152756D02*
X0045643Y0152756D01*
X0045643Y0151757D02*
X0046443Y0151757D01*
X0046443Y0150759D02*
X0045643Y0150759D01*
X0045643Y0149760D02*
X0046443Y0149760D01*
X0048792Y0149760D02*
X0073294Y0149760D01*
X0073322Y0149733D02*
X0073664Y0149535D01*
X0074046Y0149433D01*
X0075643Y0149433D01*
X0075643Y0152783D01*
X0072743Y0152783D01*
X0072743Y0150736D01*
X0072845Y0150354D01*
X0073043Y0150012D01*
X0073322Y0149733D01*
X0072743Y0150759D02*
X0070942Y0150759D01*
X0070942Y0150525D02*
X0070942Y0155329D01*
X0081946Y0166333D01*
X0095206Y0166333D01*
X0096143Y0167270D01*
X0102256Y0173383D01*
X0103050Y0173383D01*
X0103988Y0173771D01*
X0104705Y0174489D01*
X0105093Y0175426D01*
X0105093Y0176440D01*
X0104705Y0177378D01*
X0104149Y0177933D01*
X0104705Y0178489D01*
X0105093Y0179426D01*
X0105093Y0180440D01*
X0104705Y0181378D01*
X0103988Y0182095D01*
X0103050Y0182483D01*
X0102036Y0182483D01*
X0101099Y0182095D01*
X0100381Y0181378D01*
X0099993Y0180440D01*
X0099993Y0179646D01*
X0093943Y0173596D01*
X0093943Y0177389D01*
X0093299Y0178033D01*
X0092643Y0178033D01*
X0092643Y0182096D01*
X0092574Y0182165D01*
X0092643Y0182235D01*
X0092643Y0185631D01*
X0090241Y0188033D01*
X0086845Y0188033D01*
X0085143Y0186331D01*
X0085143Y0188270D01*
X0086775Y0189903D01*
X0086845Y0189833D01*
X0090241Y0189833D01*
X0092643Y0192235D01*
X0092643Y0195631D01*
X0090241Y0198033D01*
X0086845Y0198033D01*
X0084443Y0195631D01*
X0084443Y0192235D01*
X0084513Y0192165D01*
X0082880Y0190533D01*
X0081943Y0189596D01*
X0081943Y0186331D01*
X0080241Y0188033D01*
X0076845Y0188033D01*
X0075143Y0186331D01*
X0075143Y0188270D01*
X0076775Y0189903D01*
X0076845Y0189833D01*
X0080241Y0189833D01*
X0082643Y0192235D01*
X0082643Y0195631D01*
X0080241Y0198033D01*
X0076845Y0198033D01*
X0074443Y0195631D01*
X0074443Y0192235D01*
X0074513Y0192165D01*
X0072880Y0190533D01*
X0071943Y0189596D01*
X0071943Y0186331D01*
X0070241Y0188033D01*
X0066845Y0188033D01*
X0064443Y0185631D01*
X0064443Y0182235D01*
X0066845Y0179833D01*
X0070241Y0179833D01*
X0071943Y0181535D01*
X0071943Y0181270D01*
X0074443Y0178770D01*
X0074443Y0178033D01*
X0073787Y0178033D01*
X0073143Y0177389D01*
X0073143Y0171977D01*
X0073604Y0171517D01*
X0072683Y0170596D01*
X0069073Y0166986D01*
X0064269Y0166986D01*
X0063624Y0166341D01*
X0063624Y0159525D01*
X0064269Y0158880D01*
X0069968Y0158880D01*
X0069073Y0157986D01*
X0064269Y0157986D01*
X0063624Y0157341D01*
X0063624Y0150525D01*
X0064269Y0149880D01*
X0070298Y0149880D01*
X0070942Y0150525D01*
X0070942Y0151757D02*
X0072743Y0151757D01*
X0072743Y0152756D02*
X0070942Y0152756D01*
X0070942Y0153754D02*
X0072743Y0153754D01*
X0072743Y0153583D02*
X0075643Y0153583D01*
X0075643Y0156933D01*
X0074046Y0156933D01*
X0073664Y0156831D01*
X0073322Y0156633D01*
X0073043Y0156354D01*
X0072845Y0156012D01*
X0072743Y0155631D01*
X0072743Y0153583D01*
X0072743Y0154753D02*
X0070942Y0154753D01*
X0071364Y0155751D02*
X0072775Y0155751D01*
X0072363Y0156750D02*
X0073524Y0156750D01*
X0073361Y0157748D02*
X0080096Y0157748D01*
X0079443Y0156750D02*
X0078562Y0156750D01*
X0076443Y0156750D02*
X0075643Y0156750D01*
X0075643Y0155751D02*
X0076443Y0155751D01*
X0076443Y0154753D02*
X0075643Y0154753D01*
X0075643Y0153754D02*
X0076443Y0153754D01*
X0076443Y0152756D02*
X0075643Y0152756D01*
X0075643Y0151757D02*
X0076443Y0151757D01*
X0076443Y0150759D02*
X0075643Y0150759D01*
X0075643Y0149760D02*
X0076443Y0149760D01*
X0078792Y0149760D02*
X0083294Y0149760D01*
X0081043Y0153183D02*
X0081043Y0156433D01*
X0087543Y0162933D01*
X0086087Y0163740D02*
X0079352Y0163740D01*
X0080351Y0164738D02*
X0096144Y0164738D01*
X0096144Y0165737D02*
X0081349Y0165737D01*
X0081283Y0167933D02*
X0094543Y0167933D01*
X0102543Y0175933D01*
X0104364Y0177719D02*
X0116349Y0177719D01*
X0116349Y0178717D02*
X0104800Y0178717D01*
X0105093Y0179716D02*
X0116349Y0179716D01*
X0116349Y0180714D02*
X0104980Y0180714D01*
X0104370Y0181713D02*
X0116349Y0181713D01*
X0116349Y0182711D02*
X0092643Y0182711D01*
X0092643Y0181713D02*
X0100717Y0181713D01*
X0100107Y0180714D02*
X0092643Y0180714D01*
X0092643Y0179716D02*
X0099993Y0179716D01*
X0099064Y0178717D02*
X0092643Y0178717D01*
X0093613Y0177719D02*
X0098066Y0177719D01*
X0097067Y0176720D02*
X0093943Y0176720D01*
X0093943Y0175722D02*
X0096069Y0175722D01*
X0095070Y0174723D02*
X0093943Y0174723D01*
X0093943Y0173725D02*
X0094072Y0173725D01*
X0091043Y0174683D02*
X0091043Y0181433D01*
X0088543Y0183933D01*
X0092643Y0183710D02*
X0113841Y0183710D01*
X0113502Y0184708D02*
X0092643Y0184708D01*
X0092568Y0185707D02*
X0113502Y0185707D01*
X0113502Y0186705D02*
X0091569Y0186705D01*
X0090571Y0187704D02*
X0113502Y0187704D01*
X0113502Y0188702D02*
X0085575Y0188702D01*
X0085143Y0187704D02*
X0086516Y0187704D01*
X0085517Y0186705D02*
X0085143Y0186705D01*
X0083543Y0188933D02*
X0083543Y0181933D01*
X0086043Y0179433D01*
X0086043Y0174683D01*
X0081043Y0174683D02*
X0081043Y0181433D01*
X0078543Y0183933D01*
X0075517Y0186705D02*
X0075143Y0186705D01*
X0075143Y0187704D02*
X0076516Y0187704D01*
X0075575Y0188702D02*
X0081943Y0188702D01*
X0081943Y0187704D02*
X0080571Y0187704D01*
X0081569Y0186705D02*
X0081943Y0186705D01*
X0083543Y0188933D02*
X0088543Y0193933D01*
X0091584Y0196690D02*
X0093984Y0196690D01*
X0093984Y0196026D02*
X0094678Y0194351D01*
X0095961Y0193068D01*
X0097636Y0192374D01*
X0099450Y0192374D01*
X0101126Y0193068D01*
X0102408Y0194351D01*
X0103102Y0196026D01*
X0103102Y0197840D01*
X0102408Y0199516D01*
X0101126Y0200798D01*
X0099450Y0201492D01*
X0097636Y0201492D01*
X0095961Y0200798D01*
X0094678Y0199516D01*
X0093984Y0197840D01*
X0093984Y0196026D01*
X0094122Y0195692D02*
X0092582Y0195692D01*
X0092643Y0194693D02*
X0094536Y0194693D01*
X0095334Y0193695D02*
X0092643Y0193695D01*
X0092643Y0192696D02*
X0096858Y0192696D01*
X0100228Y0192696D02*
X0113295Y0192696D01*
X0112993Y0193695D02*
X0101752Y0193695D01*
X0102550Y0194693D02*
X0113098Y0194693D01*
X0113696Y0195692D02*
X0102964Y0195692D01*
X0103102Y0196690D02*
X0128984Y0196690D01*
X0128984Y0197689D02*
X0103102Y0197689D01*
X0102751Y0198687D02*
X0129335Y0198687D01*
X0129848Y0199686D02*
X0102238Y0199686D01*
X0101239Y0200684D02*
X0130847Y0200684D01*
X0129122Y0195692D02*
X0117390Y0195692D01*
X0117988Y0194693D02*
X0129536Y0194693D01*
X0130334Y0193695D02*
X0118093Y0193695D01*
X0117791Y0192696D02*
X0131858Y0192696D01*
X0128185Y0187654D02*
X0128185Y0181291D01*
X0129543Y0179933D01*
X0125626Y0179850D02*
X0129543Y0175933D01*
X0129543Y0171933D02*
X0138543Y0171933D01*
X0144803Y0165673D01*
X0144803Y0162933D01*
X0148462Y0162741D02*
X0148624Y0162741D01*
X0148624Y0161743D02*
X0148462Y0161743D01*
X0148462Y0160744D02*
X0148624Y0160744D01*
X0148624Y0159745D02*
X0148462Y0159745D01*
X0148055Y0157748D02*
X0149031Y0157748D01*
X0148624Y0156750D02*
X0148462Y0156750D01*
X0148462Y0155751D02*
X0148624Y0155751D01*
X0148624Y0154753D02*
X0148462Y0154753D01*
X0148462Y0153754D02*
X0148624Y0153754D01*
X0148624Y0152756D02*
X0148462Y0152756D01*
X0148462Y0151757D02*
X0148624Y0151757D01*
X0148624Y0150759D02*
X0148462Y0150759D01*
X0152018Y0147763D02*
X0132093Y0147763D01*
X0132344Y0148762D02*
X0221464Y0148762D01*
X0221464Y0149760D02*
X0213792Y0149760D01*
X0211443Y0149760D02*
X0210643Y0149760D01*
X0210643Y0150759D02*
X0211443Y0150759D01*
X0211443Y0151757D02*
X0210643Y0151757D01*
X0210643Y0152756D02*
X0211443Y0152756D01*
X0211443Y0153583D02*
X0210643Y0153583D01*
X0210643Y0156933D01*
X0209046Y0156933D01*
X0208664Y0156831D01*
X0208322Y0156633D01*
X0208222Y0156533D01*
X0207643Y0156533D01*
X0207643Y0157096D01*
X0206143Y0158596D01*
X0205206Y0159533D01*
X0195942Y0159533D01*
X0195942Y0161333D01*
X0208880Y0161333D01*
X0213368Y0156845D01*
X0213041Y0156933D01*
X0211443Y0156933D01*
X0211443Y0153583D01*
X0211443Y0153754D02*
X0210643Y0153754D01*
X0210643Y0154753D02*
X0211443Y0154753D01*
X0211443Y0155751D02*
X0210643Y0155751D01*
X0210643Y0156750D02*
X0211443Y0156750D01*
X0212465Y0157748D02*
X0206990Y0157748D01*
X0207643Y0156750D02*
X0208524Y0156750D01*
X0206043Y0156433D02*
X0204543Y0157933D01*
X0196283Y0157933D01*
X0192283Y0153933D01*
X0188624Y0154753D02*
X0188462Y0154753D01*
X0188462Y0155751D02*
X0188624Y0155751D01*
X0188624Y0156750D02*
X0188462Y0156750D01*
X0188055Y0157748D02*
X0189031Y0157748D01*
X0188624Y0159745D02*
X0188462Y0159745D01*
X0188462Y0160744D02*
X0188624Y0160744D01*
X0188624Y0161743D02*
X0188462Y0161743D01*
X0188462Y0162741D02*
X0188624Y0162741D01*
X0188624Y0163740D02*
X0188462Y0163740D01*
X0188462Y0164738D02*
X0188624Y0164738D01*
X0188624Y0165737D02*
X0188462Y0165737D01*
X0188068Y0166735D02*
X0189018Y0166735D01*
X0192283Y0162933D02*
X0209543Y0162933D01*
X0216043Y0156433D01*
X0216043Y0153183D01*
X0218943Y0152756D02*
X0221464Y0152756D01*
X0221464Y0153754D02*
X0218943Y0153754D01*
X0218943Y0154753D02*
X0221464Y0154753D01*
X0221464Y0155751D02*
X0218943Y0155751D01*
X0217643Y0156750D02*
X0221464Y0156750D01*
X0221464Y0157748D02*
X0216990Y0157748D01*
X0215992Y0158747D02*
X0221464Y0158747D01*
X0221464Y0159745D02*
X0214993Y0159745D01*
X0213995Y0160744D02*
X0221464Y0160744D01*
X0221464Y0161743D02*
X0212996Y0161743D01*
X0211998Y0162741D02*
X0221464Y0162741D01*
X0221464Y0163740D02*
X0210999Y0163740D01*
X0209469Y0160744D02*
X0195942Y0160744D01*
X0195942Y0159745D02*
X0210468Y0159745D01*
X0211466Y0158747D02*
X0205992Y0158747D01*
X0206043Y0156433D02*
X0206043Y0153183D01*
X0203792Y0149760D02*
X0208294Y0149760D01*
X0207783Y0147386D02*
X0207783Y0143433D01*
X0211342Y0143433D01*
X0211342Y0146083D01*
X0211240Y0146465D01*
X0211043Y0146807D01*
X0210763Y0147086D01*
X0210421Y0147284D01*
X0210040Y0147386D01*
X0207783Y0147386D01*
X0207783Y0146765D02*
X0206783Y0146765D01*
X0206783Y0145766D02*
X0207783Y0145766D01*
X0207783Y0144768D02*
X0206783Y0144768D01*
X0206783Y0143769D02*
X0207783Y0143769D01*
X0207783Y0142771D02*
X0221464Y0142771D01*
X0221464Y0143769D02*
X0211342Y0143769D01*
X0211342Y0144768D02*
X0221464Y0144768D01*
X0221464Y0145766D02*
X0211342Y0145766D01*
X0211067Y0146765D02*
X0221464Y0146765D01*
X0221464Y0147763D02*
X0166520Y0147763D01*
X0166942Y0146765D02*
X0196567Y0146765D01*
X0198322Y0149733D02*
X0198664Y0149535D01*
X0199046Y0149433D01*
X0200643Y0149433D01*
X0200643Y0152783D01*
X0197743Y0152783D01*
X0197743Y0150736D01*
X0197845Y0150354D01*
X0198043Y0150012D01*
X0198322Y0149733D01*
X0198294Y0149760D02*
X0173792Y0149760D01*
X0171443Y0149760D02*
X0170643Y0149760D01*
X0170643Y0150759D02*
X0171443Y0150759D01*
X0171443Y0151757D02*
X0170643Y0151757D01*
X0170643Y0152756D02*
X0171443Y0152756D01*
X0171443Y0153583D02*
X0170643Y0153583D01*
X0170643Y0156933D01*
X0169046Y0156933D01*
X0168664Y0156831D01*
X0168322Y0156633D01*
X0168222Y0156533D01*
X0167643Y0156533D01*
X0167643Y0157096D01*
X0166143Y0158596D01*
X0165206Y0159533D01*
X0155942Y0159533D01*
X0155942Y0161333D01*
X0168880Y0161333D01*
X0173368Y0156845D01*
X0173041Y0156933D01*
X0171443Y0156933D01*
X0171443Y0153583D01*
X0171443Y0153754D02*
X0170643Y0153754D01*
X0170643Y0154753D02*
X0171443Y0154753D01*
X0171443Y0155751D02*
X0170643Y0155751D01*
X0170643Y0156750D02*
X0171443Y0156750D01*
X0172465Y0157748D02*
X0166990Y0157748D01*
X0167643Y0156750D02*
X0168524Y0156750D01*
X0166043Y0156433D02*
X0166043Y0153183D01*
X0166043Y0156433D02*
X0164543Y0157933D01*
X0156283Y0157933D01*
X0152283Y0153933D01*
X0155942Y0153754D02*
X0157743Y0153754D01*
X0157743Y0152783D02*
X0157743Y0150736D01*
X0157845Y0150354D01*
X0158043Y0150012D01*
X0158322Y0149733D01*
X0158664Y0149535D01*
X0159046Y0149433D01*
X0160643Y0149433D01*
X0160643Y0152783D01*
X0157743Y0152783D01*
X0157743Y0152756D02*
X0155942Y0152756D01*
X0155942Y0151757D02*
X0157743Y0151757D01*
X0157743Y0150759D02*
X0155942Y0150759D01*
X0158294Y0149760D02*
X0132344Y0149760D01*
X0132344Y0150759D02*
X0141144Y0150759D01*
X0141144Y0151757D02*
X0132344Y0151757D01*
X0132344Y0152756D02*
X0141144Y0152756D01*
X0141144Y0153754D02*
X0132344Y0153754D01*
X0132344Y0154753D02*
X0141144Y0154753D01*
X0140722Y0155751D02*
X0132344Y0155751D01*
X0132344Y0156750D02*
X0139723Y0156750D01*
X0138725Y0157748D02*
X0132344Y0157748D01*
X0132344Y0158747D02*
X0137943Y0158747D01*
X0137943Y0159745D02*
X0132344Y0159745D01*
X0133303Y0160744D02*
X0133303Y0160744D01*
X0133303Y0161743D02*
X0133303Y0161743D01*
X0133303Y0162741D02*
X0133303Y0162741D01*
X0133303Y0163740D02*
X0133303Y0163740D01*
X0135590Y0163740D02*
X0137943Y0163740D01*
X0137943Y0164738D02*
X0135590Y0164738D01*
X0135590Y0165737D02*
X0137943Y0165737D01*
X0137943Y0166735D02*
X0135590Y0166735D01*
X0135590Y0167734D02*
X0137480Y0167734D01*
X0139543Y0167933D02*
X0137543Y0169933D01*
X0128543Y0169933D01*
X0120508Y0177969D01*
X0120508Y0187654D01*
X0123067Y0187654D02*
X0123067Y0178409D01*
X0129543Y0171933D01*
X0125626Y0179850D02*
X0125626Y0187654D01*
X0117949Y0187654D02*
X0117949Y0176528D01*
X0119543Y0174933D01*
X0116993Y0174723D02*
X0116093Y0174723D01*
X0115977Y0175722D02*
X0116492Y0175722D01*
X0116349Y0176720D02*
X0115362Y0176720D01*
X0113543Y0174933D02*
X0107283Y0168673D01*
X0105683Y0168732D02*
X0097605Y0168732D01*
X0098603Y0169731D02*
X0106078Y0169731D01*
X0107076Y0170729D02*
X0099602Y0170729D01*
X0100600Y0171728D02*
X0108075Y0171728D01*
X0109073Y0172726D02*
X0101599Y0172726D01*
X0103875Y0173725D02*
X0110072Y0173725D01*
X0110993Y0174723D02*
X0104802Y0174723D01*
X0105093Y0175722D02*
X0111110Y0175722D01*
X0111724Y0176720D02*
X0104977Y0176720D01*
X0102543Y0179933D02*
X0092543Y0169933D01*
X0074283Y0169933D01*
X0067283Y0162933D01*
X0063624Y0162741D02*
X0063462Y0162741D01*
X0063462Y0161743D02*
X0063624Y0161743D01*
X0063624Y0160744D02*
X0063462Y0160744D01*
X0063462Y0159745D02*
X0063624Y0159745D01*
X0064031Y0157748D02*
X0063055Y0157748D01*
X0063462Y0156750D02*
X0063624Y0156750D01*
X0063624Y0155751D02*
X0063462Y0155751D01*
X0063462Y0154753D02*
X0063624Y0154753D01*
X0063624Y0153754D02*
X0063462Y0153754D01*
X0063462Y0152756D02*
X0063624Y0152756D01*
X0063624Y0151757D02*
X0063462Y0151757D01*
X0063462Y0150759D02*
X0063624Y0150759D01*
X0067283Y0153933D02*
X0081283Y0167933D01*
X0078354Y0162741D02*
X0085088Y0162741D01*
X0084090Y0161743D02*
X0077355Y0161743D01*
X0076357Y0160744D02*
X0083091Y0160744D01*
X0082093Y0159745D02*
X0075358Y0159745D01*
X0074360Y0158747D02*
X0081094Y0158747D01*
X0069834Y0158747D02*
X0045620Y0158747D01*
X0046618Y0159745D02*
X0056144Y0159745D01*
X0056144Y0160744D02*
X0047617Y0160744D01*
X0047543Y0162933D02*
X0059803Y0162933D01*
X0063462Y0163740D02*
X0063624Y0163740D01*
X0063624Y0164738D02*
X0063462Y0164738D01*
X0063462Y0165737D02*
X0063624Y0165737D01*
X0064018Y0166735D02*
X0063068Y0166735D01*
X0056537Y0166735D02*
X0010543Y0166735D01*
X0010543Y0165737D02*
X0056144Y0165737D01*
X0056144Y0164738D02*
X0010543Y0164738D01*
X0010543Y0163740D02*
X0046087Y0163740D01*
X0045088Y0162741D02*
X0010543Y0162741D01*
X0010543Y0161743D02*
X0044090Y0161743D01*
X0043091Y0160744D02*
X0010543Y0160744D01*
X0010543Y0159745D02*
X0042093Y0159745D01*
X0041094Y0158747D02*
X0010543Y0158747D01*
X0010543Y0157748D02*
X0040096Y0157748D01*
X0039443Y0156750D02*
X0038562Y0156750D01*
X0036443Y0156750D02*
X0035643Y0156750D01*
X0035643Y0156933D02*
X0034046Y0156933D01*
X0033664Y0156831D01*
X0033322Y0156633D01*
X0033043Y0156354D01*
X0032845Y0156012D01*
X0032743Y0155631D01*
X0032743Y0153583D01*
X0035643Y0153583D01*
X0035643Y0156933D01*
X0035643Y0155751D02*
X0036443Y0155751D01*
X0036443Y0154753D02*
X0035643Y0154753D01*
X0035643Y0153754D02*
X0036443Y0153754D01*
X0036443Y0152756D02*
X0035643Y0152756D01*
X0035643Y0151757D02*
X0036443Y0151757D01*
X0036443Y0150759D02*
X0035643Y0150759D01*
X0035643Y0149760D02*
X0036443Y0149760D01*
X0038792Y0149760D02*
X0043294Y0149760D01*
X0041043Y0153183D02*
X0041043Y0156433D01*
X0047543Y0162933D01*
X0044621Y0157748D02*
X0056551Y0157748D01*
X0059803Y0153933D02*
X0059053Y0153183D01*
X0060498Y0145766D02*
X0064588Y0145766D01*
X0063590Y0144768D02*
X0061497Y0144768D01*
X0061978Y0143769D02*
X0063108Y0143769D01*
X0062743Y0142771D02*
X0062343Y0142771D01*
X0062343Y0141772D02*
X0062743Y0141772D01*
X0062828Y0140774D02*
X0062258Y0140774D01*
X0061845Y0139775D02*
X0063123Y0139775D01*
X0062124Y0138777D02*
X0061175Y0138777D01*
X0062543Y0136933D02*
X0067543Y0141933D01*
X0071978Y0143769D02*
X0073108Y0143769D01*
X0072743Y0142771D02*
X0072343Y0142771D01*
X0072343Y0141772D02*
X0072743Y0141772D01*
X0072828Y0140774D02*
X0072258Y0140774D01*
X0071845Y0139775D02*
X0073123Y0139775D01*
X0072124Y0138777D02*
X0071175Y0138777D01*
X0071126Y0137778D02*
X0070055Y0137778D01*
X0070127Y0136780D02*
X0064652Y0136780D01*
X0062543Y0136933D02*
X0054543Y0136933D01*
X0053543Y0135933D01*
X0051803Y0135933D01*
X0048543Y0132673D01*
X0044490Y0132786D02*
X0044407Y0132786D01*
X0044407Y0133784D02*
X0044490Y0133784D01*
X0044490Y0134783D02*
X0044407Y0134783D01*
X0044407Y0135781D02*
X0044584Y0135781D01*
X0046839Y0136780D02*
X0010543Y0136780D01*
X0010711Y0136042D02*
X0010711Y0127257D01*
X0011355Y0126613D01*
X0022109Y0126613D01*
X0022753Y0127257D01*
X0022753Y0136042D01*
X0022109Y0136687D01*
X0011355Y0136687D01*
X0010711Y0136042D01*
X0010711Y0135781D02*
X0010543Y0135781D01*
X0010543Y0134783D02*
X0010711Y0134783D01*
X0010711Y0133784D02*
X0010543Y0133784D01*
X0010543Y0132786D02*
X0010711Y0132786D01*
X0010711Y0131787D02*
X0010543Y0131787D01*
X0010543Y0130789D02*
X0010711Y0130789D01*
X0010711Y0129790D02*
X0010543Y0129790D01*
X0010543Y0128792D02*
X0010711Y0128792D01*
X0010711Y0127793D02*
X0010543Y0127793D01*
X0010543Y0126795D02*
X0011173Y0126795D01*
X0010543Y0125796D02*
X0026417Y0125796D01*
X0026407Y0125792D02*
X0025346Y0124731D01*
X0024771Y0123345D01*
X0024771Y0121844D01*
X0025346Y0120458D01*
X0026407Y0119397D01*
X0027793Y0118823D01*
X0029293Y0118823D01*
X0030680Y0119397D01*
X0031741Y0120458D01*
X0032315Y0121844D01*
X0032315Y0123345D01*
X0031741Y0124731D01*
X0030680Y0125792D01*
X0029293Y0126366D01*
X0027793Y0126366D01*
X0026407Y0125792D01*
X0025412Y0124798D02*
X0010543Y0124798D01*
X0010543Y0123799D02*
X0024960Y0123799D01*
X0024771Y0122801D02*
X0010543Y0122801D01*
X0010543Y0121802D02*
X0024789Y0121802D01*
X0025202Y0120804D02*
X0010543Y0120804D01*
X0010543Y0119805D02*
X0025999Y0119805D01*
X0031088Y0119805D02*
X0032364Y0119805D01*
X0032364Y0118807D02*
X0010543Y0118807D01*
X0010543Y0117808D02*
X0032364Y0117808D01*
X0032364Y0116810D02*
X0010543Y0116810D01*
X0010543Y0115811D02*
X0032364Y0115811D01*
X0032364Y0114812D02*
X0010543Y0114812D01*
X0010543Y0113814D02*
X0032364Y0113814D01*
X0032364Y0112815D02*
X0010543Y0112815D01*
X0010543Y0111817D02*
X0032364Y0111817D01*
X0032364Y0110818D02*
X0010543Y0110818D01*
X0010543Y0109820D02*
X0032364Y0109820D01*
X0032364Y0108821D02*
X0029829Y0108821D01*
X0029293Y0109043D02*
X0030680Y0108469D01*
X0031741Y0107408D01*
X0032315Y0106022D01*
X0032315Y0104521D01*
X0031741Y0103135D01*
X0030680Y0102074D01*
X0029293Y0101500D01*
X0027793Y0101500D01*
X0026407Y0102074D01*
X0025346Y0103135D01*
X0024771Y0104521D01*
X0024771Y0106022D01*
X0025346Y0107408D01*
X0026407Y0108469D01*
X0027793Y0109043D01*
X0029293Y0109043D01*
X0027257Y0108821D02*
X0010543Y0108821D01*
X0010543Y0107823D02*
X0025760Y0107823D01*
X0025104Y0106824D02*
X0010543Y0106824D01*
X0010543Y0105826D02*
X0024771Y0105826D01*
X0024771Y0104827D02*
X0010543Y0104827D01*
X0010543Y0103829D02*
X0025058Y0103829D01*
X0025650Y0102830D02*
X0010543Y0102830D01*
X0010543Y0101832D02*
X0026992Y0101832D01*
X0030094Y0101832D02*
X0045907Y0101832D01*
X0045374Y0102830D02*
X0031436Y0102830D01*
X0032028Y0103829D02*
X0045193Y0103829D01*
X0044962Y0104827D02*
X0032315Y0104827D01*
X0032315Y0105826D02*
X0032732Y0105826D01*
X0032364Y0106824D02*
X0031982Y0106824D01*
X0032364Y0107823D02*
X0031326Y0107823D01*
X0033009Y0101254D02*
X0032364Y0100609D01*
X0032364Y0091824D01*
X0033009Y0091180D01*
X0043762Y0091180D01*
X0044407Y0091824D01*
X0044407Y0100609D01*
X0043762Y0101254D01*
X0033009Y0101254D01*
X0032588Y0100833D02*
X0022529Y0100833D01*
X0022753Y0100609D02*
X0022109Y0101254D01*
X0011355Y0101254D01*
X0010711Y0100609D01*
X0010711Y0091824D01*
X0011355Y0091180D01*
X0022109Y0091180D01*
X0022753Y0091824D01*
X0022753Y0100609D01*
X0022753Y0099835D02*
X0032364Y0099835D01*
X0032364Y0098836D02*
X0022753Y0098836D01*
X0022753Y0097838D02*
X0032364Y0097838D01*
X0032364Y0096839D02*
X0022753Y0096839D01*
X0022753Y0095841D02*
X0032364Y0095841D01*
X0032364Y0094842D02*
X0022753Y0094842D01*
X0022753Y0093844D02*
X0032364Y0093844D01*
X0032364Y0092845D02*
X0022753Y0092845D01*
X0022753Y0091847D02*
X0032364Y0091847D01*
X0033041Y0088433D02*
X0031443Y0088433D01*
X0031443Y0085083D01*
X0030643Y0085083D01*
X0030643Y0088433D01*
X0029046Y0088433D01*
X0028664Y0088331D01*
X0028322Y0088133D01*
X0028222Y0088033D01*
X0023864Y0088033D01*
X0023764Y0088133D01*
X0023422Y0088331D01*
X0023041Y0088433D01*
X0021443Y0088433D01*
X0021443Y0085083D01*
X0020643Y0085083D01*
X0020643Y0088433D01*
X0019046Y0088433D01*
X0018664Y0088331D01*
X0018322Y0088133D01*
X0018222Y0088033D01*
X0013787Y0088033D01*
X0013143Y0087389D01*
X0013143Y0081977D01*
X0013787Y0081333D01*
X0014880Y0081333D01*
X0021943Y0074270D01*
X0022880Y0073333D01*
X0036144Y0073333D01*
X0036144Y0071525D01*
X0036788Y0070880D01*
X0042818Y0070880D01*
X0043462Y0071525D01*
X0043462Y0078341D01*
X0042818Y0078986D01*
X0037118Y0078986D01*
X0038013Y0079880D01*
X0042818Y0079880D01*
X0043462Y0080525D01*
X0043462Y0087341D01*
X0042818Y0087986D01*
X0036788Y0087986D01*
X0036144Y0087341D01*
X0036144Y0082537D01*
X0035140Y0081533D01*
X0034055Y0081533D01*
X0034241Y0081854D01*
X0034343Y0082236D01*
X0034343Y0084283D01*
X0031443Y0084283D01*
X0031443Y0085083D01*
X0034343Y0085083D01*
X0034343Y0087131D01*
X0034241Y0087512D01*
X0034043Y0087854D01*
X0033764Y0088133D01*
X0033422Y0088331D01*
X0033041Y0088433D01*
X0034044Y0087853D02*
X0036655Y0087853D01*
X0036144Y0086854D02*
X0034343Y0086854D01*
X0034343Y0085856D02*
X0036144Y0085856D01*
X0036144Y0084857D02*
X0031443Y0084857D01*
X0031443Y0085856D02*
X0030643Y0085856D01*
X0030643Y0086854D02*
X0031443Y0086854D01*
X0031443Y0087853D02*
X0030643Y0087853D01*
X0034343Y0083859D02*
X0036144Y0083859D01*
X0036144Y0082860D02*
X0034343Y0082860D01*
X0034243Y0081862D02*
X0035469Y0081862D01*
X0035803Y0079933D02*
X0039803Y0083933D01*
X0043462Y0083859D02*
X0043624Y0083859D01*
X0043624Y0084857D02*
X0043462Y0084857D01*
X0043462Y0085856D02*
X0043624Y0085856D01*
X0043624Y0086854D02*
X0043462Y0086854D01*
X0042951Y0087853D02*
X0044135Y0087853D01*
X0046253Y0089850D02*
X0010543Y0089850D01*
X0010543Y0090848D02*
X0045744Y0090848D01*
X0045744Y0090783D02*
X0045846Y0090401D01*
X0046044Y0090059D01*
X0046323Y0089780D01*
X0046665Y0089583D01*
X0047046Y0089480D01*
X0049303Y0089480D01*
X0049303Y0093433D01*
X0045744Y0093433D01*
X0045744Y0090783D01*
X0045744Y0091847D02*
X0044407Y0091847D01*
X0044407Y0092845D02*
X0045744Y0092845D01*
X0044407Y0093844D02*
X0049303Y0093844D01*
X0049303Y0094842D02*
X0050303Y0094842D01*
X0050303Y0095841D02*
X0049303Y0095841D01*
X0049303Y0096839D02*
X0050303Y0096839D01*
X0050303Y0097838D02*
X0049303Y0097838D01*
X0046075Y0097838D02*
X0044407Y0097838D01*
X0044407Y0098836D02*
X0055124Y0098836D01*
X0055124Y0099835D02*
X0044407Y0099835D01*
X0044183Y0100833D02*
X0047273Y0100833D01*
X0049814Y0100833D02*
X0055124Y0100833D01*
X0055124Y0101832D02*
X0051179Y0101832D01*
X0051712Y0102830D02*
X0055124Y0102830D01*
X0055124Y0103829D02*
X0051893Y0103829D01*
X0051799Y0104827D02*
X0055207Y0104827D01*
X0054388Y0105826D02*
X0051385Y0105826D01*
X0050317Y0106824D02*
X0053389Y0106824D01*
X0052390Y0107823D02*
X0047340Y0107823D01*
X0046342Y0108821D02*
X0051392Y0108821D01*
X0050393Y0109820D02*
X0044407Y0109820D01*
X0044407Y0110818D02*
X0049395Y0110818D01*
X0048396Y0111817D02*
X0044407Y0111817D01*
X0048543Y0113933D02*
X0038386Y0113933D01*
X0038386Y0117083D02*
X0048393Y0117083D01*
X0059543Y0105933D01*
X0059543Y0101614D01*
X0059468Y0101539D01*
X0056909Y0101539D02*
X0056909Y0105567D01*
X0048543Y0113933D01*
X0050929Y0116810D02*
X0085404Y0116810D01*
X0086402Y0115811D02*
X0051928Y0115811D01*
X0052926Y0114812D02*
X0087401Y0114812D01*
X0088399Y0113814D02*
X0053925Y0113814D01*
X0054923Y0112815D02*
X0089398Y0112815D01*
X0090396Y0111817D02*
X0086265Y0111817D01*
X0086936Y0110818D02*
X0091395Y0110818D01*
X0092393Y0109820D02*
X0087093Y0109820D01*
X0086843Y0108821D02*
X0093392Y0108821D01*
X0094390Y0107823D02*
X0086039Y0107823D01*
X0084100Y0106824D02*
X0095389Y0106824D01*
X0096144Y0105826D02*
X0084100Y0105826D01*
X0082500Y0107890D02*
X0072264Y0107890D01*
X0072264Y0101539D01*
X0074823Y0101539D02*
X0074823Y0096079D01*
X0072677Y0093933D01*
X0076139Y0093844D02*
X0076947Y0093844D01*
X0076947Y0094842D02*
X0076139Y0094842D01*
X0076139Y0092845D02*
X0076947Y0092845D01*
X0076947Y0091847D02*
X0076139Y0091847D01*
X0075872Y0090848D02*
X0077214Y0090848D01*
X0074043Y0087854D02*
X0073764Y0088133D01*
X0073422Y0088331D01*
X0073041Y0088433D01*
X0071443Y0088433D01*
X0071443Y0085083D01*
X0074343Y0085083D01*
X0074343Y0087131D01*
X0074241Y0087512D01*
X0074043Y0087854D01*
X0074044Y0087853D02*
X0076655Y0087853D01*
X0076144Y0086854D02*
X0074343Y0086854D01*
X0074343Y0085856D02*
X0076144Y0085856D01*
X0076144Y0084857D02*
X0071443Y0084857D01*
X0071443Y0085856D02*
X0070643Y0085856D01*
X0070643Y0086854D02*
X0071443Y0086854D01*
X0071443Y0087853D02*
X0070643Y0087853D01*
X0074343Y0083859D02*
X0076144Y0083859D01*
X0076144Y0082860D02*
X0074343Y0082860D01*
X0074243Y0081862D02*
X0075469Y0081862D01*
X0075803Y0079933D02*
X0079803Y0083933D01*
X0083462Y0083859D02*
X0083624Y0083859D01*
X0083624Y0084857D02*
X0083462Y0084857D01*
X0083462Y0085856D02*
X0083624Y0085856D01*
X0083624Y0086854D02*
X0083462Y0086854D01*
X0082951Y0087853D02*
X0084135Y0087853D01*
X0087283Y0083933D02*
X0096283Y0074933D01*
X0096283Y0070193D01*
X0098543Y0067933D01*
X0105543Y0067933D01*
X0112579Y0060898D01*
X0112579Y0050213D01*
X0115138Y0050213D02*
X0115138Y0063339D01*
X0111543Y0066933D01*
X0116543Y0066933D02*
X0117697Y0068087D01*
X0117697Y0073441D01*
X0119584Y0073874D02*
X0121144Y0073874D01*
X0121144Y0074872D02*
X0119584Y0074872D01*
X0119584Y0075871D02*
X0121144Y0075871D01*
X0121144Y0076869D02*
X0119584Y0076869D01*
X0119862Y0077868D02*
X0121144Y0077868D01*
X0121668Y0078866D02*
X0120093Y0078866D01*
X0120737Y0079865D02*
X0147212Y0079865D01*
X0148210Y0080863D02*
X0135942Y0080863D01*
X0135942Y0081862D02*
X0138259Y0081862D01*
X0140293Y0083933D02*
X0132283Y0083933D01*
X0128624Y0083859D02*
X0128462Y0083859D01*
X0128462Y0084857D02*
X0128624Y0084857D01*
X0128624Y0085856D02*
X0128462Y0085856D01*
X0128462Y0086854D02*
X0128624Y0086854D01*
X0130855Y0088851D02*
X0182019Y0088851D01*
X0183543Y0090933D02*
X0170299Y0090933D01*
X0167827Y0093406D01*
X0169120Y0089850D02*
X0131093Y0089850D01*
X0130924Y0090848D02*
X0134144Y0090848D01*
X0134144Y0091847D02*
X0130236Y0091847D01*
X0129543Y0092933D02*
X0128543Y0093933D01*
X0127852Y0093844D02*
X0134144Y0093844D01*
X0134144Y0094842D02*
X0131059Y0094842D01*
X0131851Y0095841D02*
X0133632Y0095841D01*
X0133518Y0096839D02*
X0132093Y0096839D01*
X0131928Y0097838D02*
X0133518Y0097838D01*
X0132018Y0098836D02*
X0131918Y0098836D01*
X0131918Y0099835D02*
X0132018Y0099835D01*
X0132018Y0100833D02*
X0131918Y0100833D01*
X0131918Y0101832D02*
X0132018Y0101832D01*
X0132018Y0102830D02*
X0131918Y0102830D01*
X0131918Y0103829D02*
X0132018Y0103829D01*
X0132018Y0104827D02*
X0131918Y0104827D01*
X0131918Y0105826D02*
X0132018Y0105826D01*
X0133518Y0106824D02*
X0130419Y0106824D01*
X0130419Y0107823D02*
X0133518Y0107823D01*
X0133518Y0108821D02*
X0130419Y0108821D01*
X0130419Y0109820D02*
X0133518Y0109820D01*
X0133518Y0110818D02*
X0131035Y0110818D01*
X0131841Y0111817D02*
X0133518Y0111817D01*
X0134163Y0112815D02*
X0132093Y0112815D01*
X0131938Y0113814D02*
X0134993Y0113814D01*
X0135147Y0114812D02*
X0131270Y0114812D01*
X0129543Y0112933D02*
X0128819Y0112209D01*
X0128819Y0102033D01*
X0128543Y0097933D02*
X0129543Y0096933D01*
X0128543Y0097933D02*
X0114543Y0097933D01*
X0104543Y0087933D01*
X0104543Y0073799D01*
X0104901Y0073441D01*
X0102342Y0073441D02*
X0102342Y0078134D01*
X0099543Y0080933D01*
X0099543Y0086933D01*
X0095543Y0089933D01*
X0093162Y0090848D02*
X0091872Y0090848D01*
X0092139Y0091115D02*
X0092139Y0092333D01*
X0092466Y0092333D01*
X0095013Y0094880D01*
X0099818Y0094880D01*
X0100331Y0095394D01*
X0100524Y0095059D01*
X0100803Y0094780D01*
X0101145Y0094583D01*
X0101527Y0094480D01*
X0103783Y0094480D01*
X0103783Y0098433D01*
X0104783Y0098433D01*
X0104783Y0094480D01*
X0107040Y0094480D01*
X0107421Y0094583D01*
X0107763Y0094780D01*
X0108043Y0095059D01*
X0108240Y0095401D01*
X0108342Y0095783D01*
X0108342Y0098433D01*
X0104783Y0098433D01*
X0104783Y0099433D01*
X0103783Y0099433D01*
X0103783Y0103386D01*
X0101527Y0103386D01*
X0101145Y0103284D01*
X0100803Y0103086D01*
X0100524Y0102807D01*
X0100331Y0102473D01*
X0099818Y0102986D01*
X0093788Y0102986D01*
X0093144Y0102341D01*
X0093144Y0097537D01*
X0092139Y0096532D01*
X0092139Y0096751D01*
X0091495Y0097395D01*
X0085859Y0097395D01*
X0085215Y0096751D01*
X0085215Y0091115D01*
X0085859Y0090471D01*
X0091495Y0090471D01*
X0092139Y0091115D01*
X0092139Y0091847D02*
X0093850Y0091847D01*
X0092978Y0092845D02*
X0107193Y0092845D01*
X0108191Y0093844D02*
X0093976Y0093844D01*
X0094975Y0094842D02*
X0100741Y0094842D01*
X0103783Y0094842D02*
X0104783Y0094842D01*
X0104783Y0095841D02*
X0103783Y0095841D01*
X0103783Y0096839D02*
X0104783Y0096839D01*
X0104783Y0097838D02*
X0103783Y0097838D01*
X0104783Y0098836D02*
X0113184Y0098836D01*
X0112185Y0097838D02*
X0108342Y0097838D01*
X0108342Y0096839D02*
X0111187Y0096839D01*
X0110188Y0095841D02*
X0108342Y0095841D01*
X0107826Y0094842D02*
X0109190Y0094842D01*
X0106194Y0091847D02*
X0097236Y0091847D01*
X0097924Y0090848D02*
X0105195Y0090848D01*
X0104197Y0089850D02*
X0098321Y0089850D01*
X0099652Y0088851D02*
X0103198Y0088851D01*
X0102943Y0087853D02*
X0100984Y0087853D01*
X0101171Y0086854D02*
X0102943Y0086854D01*
X0102943Y0085856D02*
X0101143Y0085856D01*
X0101143Y0084857D02*
X0102943Y0084857D01*
X0102943Y0083859D02*
X0101143Y0083859D01*
X0101143Y0082860D02*
X0102943Y0082860D01*
X0102943Y0081862D02*
X0101143Y0081862D01*
X0101876Y0080863D02*
X0102943Y0080863D01*
X0102943Y0079865D02*
X0102874Y0079865D01*
X0099783Y0078091D02*
X0099783Y0073441D01*
X0099783Y0078091D01*
X0099783Y0077868D02*
X0099783Y0077868D01*
X0099783Y0076869D02*
X0099783Y0076869D01*
X0099783Y0075871D02*
X0099783Y0075871D01*
X0099783Y0074872D02*
X0099783Y0074872D01*
X0099783Y0073874D02*
X0099783Y0073874D01*
X0099783Y0073441D02*
X0099783Y0073441D01*
X0097518Y0076869D02*
X0096610Y0076869D01*
X0095611Y0077868D02*
X0098208Y0077868D01*
X0099347Y0078866D02*
X0094613Y0078866D01*
X0093614Y0079865D02*
X0098349Y0079865D01*
X0097943Y0080863D02*
X0092616Y0080863D01*
X0091617Y0081862D02*
X0097943Y0081862D01*
X0097943Y0082860D02*
X0090942Y0082860D01*
X0090942Y0083859D02*
X0097943Y0083859D01*
X0097943Y0084857D02*
X0090942Y0084857D01*
X0090942Y0085856D02*
X0097943Y0085856D01*
X0096982Y0086854D02*
X0090942Y0086854D01*
X0090431Y0087853D02*
X0094017Y0087853D01*
X0093231Y0088851D02*
X0010543Y0088851D01*
X0010543Y0087853D02*
X0013607Y0087853D01*
X0013143Y0086854D02*
X0010543Y0086854D01*
X0010543Y0085856D02*
X0013143Y0085856D01*
X0013143Y0084857D02*
X0010543Y0084857D01*
X0010543Y0083859D02*
X0013143Y0083859D01*
X0013143Y0082860D02*
X0010543Y0082860D01*
X0010543Y0081862D02*
X0013259Y0081862D01*
X0015350Y0080863D02*
X0010543Y0080863D01*
X0010543Y0079865D02*
X0016349Y0079865D01*
X0017347Y0078866D02*
X0010543Y0078866D01*
X0010543Y0077868D02*
X0018346Y0077868D01*
X0019344Y0076869D02*
X0010543Y0076869D01*
X0010543Y0075871D02*
X0020343Y0075871D01*
X0021341Y0074872D02*
X0010543Y0074872D01*
X0010543Y0073874D02*
X0022340Y0073874D01*
X0023543Y0074933D02*
X0039803Y0074933D01*
X0036144Y0076533D02*
X0036144Y0078333D01*
X0027880Y0078333D01*
X0026943Y0079270D01*
X0024880Y0081333D01*
X0023864Y0081333D01*
X0023764Y0081233D01*
X0023422Y0081035D01*
X0023041Y0080933D01*
X0021443Y0080933D01*
X0021443Y0084283D01*
X0020643Y0084283D01*
X0020643Y0080933D01*
X0019806Y0080933D01*
X0024206Y0076533D01*
X0036144Y0076533D01*
X0036144Y0076869D02*
X0023870Y0076869D01*
X0022871Y0077868D02*
X0036144Y0077868D01*
X0035803Y0079933D02*
X0028543Y0079933D01*
X0026043Y0082433D01*
X0026043Y0084683D01*
X0021443Y0083859D02*
X0020643Y0083859D01*
X0020643Y0082860D02*
X0021443Y0082860D01*
X0021443Y0081862D02*
X0020643Y0081862D01*
X0019876Y0080863D02*
X0025350Y0080863D01*
X0026349Y0079865D02*
X0020874Y0079865D01*
X0021873Y0078866D02*
X0027347Y0078866D01*
X0023543Y0074933D02*
X0016043Y0082433D01*
X0016043Y0084683D01*
X0020643Y0085856D02*
X0021443Y0085856D01*
X0021443Y0086854D02*
X0020643Y0086854D01*
X0020643Y0087853D02*
X0021443Y0087853D01*
X0010711Y0091847D02*
X0010543Y0091847D01*
X0010543Y0092845D02*
X0010711Y0092845D01*
X0010711Y0093844D02*
X0010543Y0093844D01*
X0010543Y0094842D02*
X0010711Y0094842D01*
X0010711Y0095841D02*
X0010543Y0095841D01*
X0010543Y0096839D02*
X0010711Y0096839D01*
X0010711Y0097838D02*
X0010543Y0097838D01*
X0010543Y0098836D02*
X0010711Y0098836D01*
X0010711Y0099835D02*
X0010543Y0099835D01*
X0010543Y0100833D02*
X0010935Y0100833D01*
X0031884Y0120804D02*
X0032364Y0120804D01*
X0032297Y0121802D02*
X0032494Y0121802D01*
X0032315Y0122801D02*
X0035981Y0122801D01*
X0035743Y0123799D02*
X0032127Y0123799D01*
X0031674Y0124798D02*
X0035870Y0124798D01*
X0036446Y0125796D02*
X0030669Y0125796D01*
X0032827Y0126795D02*
X0022291Y0126795D01*
X0022753Y0127793D02*
X0032364Y0127793D01*
X0032364Y0128792D02*
X0022753Y0128792D01*
X0022753Y0129790D02*
X0032364Y0129790D01*
X0032364Y0130789D02*
X0022753Y0130789D01*
X0022753Y0131787D02*
X0032364Y0131787D01*
X0032364Y0132786D02*
X0022753Y0132786D01*
X0022753Y0133784D02*
X0032364Y0133784D01*
X0032364Y0134783D02*
X0022753Y0134783D01*
X0022753Y0135781D02*
X0032364Y0135781D01*
X0025031Y0137778D02*
X0020055Y0137778D01*
X0020262Y0137864D02*
X0021612Y0139214D01*
X0022343Y0140978D01*
X0022343Y0142888D01*
X0021612Y0144652D01*
X0020262Y0146002D01*
X0018498Y0146733D01*
X0016588Y0146733D01*
X0014824Y0146002D01*
X0013474Y0144652D01*
X0012743Y0142888D01*
X0012743Y0140978D01*
X0013474Y0139214D01*
X0014824Y0137864D01*
X0016588Y0137133D01*
X0018498Y0137133D01*
X0020262Y0137864D01*
X0021175Y0138777D02*
X0023911Y0138777D01*
X0023241Y0139775D02*
X0021845Y0139775D01*
X0022258Y0140774D02*
X0022828Y0140774D01*
X0022743Y0141772D02*
X0022343Y0141772D01*
X0022343Y0142771D02*
X0022743Y0142771D01*
X0023108Y0143769D02*
X0021978Y0143769D01*
X0021497Y0144768D02*
X0023590Y0144768D01*
X0024588Y0145766D02*
X0020498Y0145766D01*
X0014588Y0145766D02*
X0010543Y0145766D01*
X0010543Y0144768D02*
X0013590Y0144768D01*
X0013108Y0143769D02*
X0010543Y0143769D01*
X0010543Y0142771D02*
X0012743Y0142771D01*
X0012743Y0141772D02*
X0010543Y0141772D01*
X0010543Y0140774D02*
X0012828Y0140774D01*
X0013241Y0139775D02*
X0010543Y0139775D01*
X0010543Y0138777D02*
X0013911Y0138777D01*
X0015031Y0137778D02*
X0010543Y0137778D01*
X0010543Y0150759D02*
X0032743Y0150759D01*
X0032743Y0151757D02*
X0010543Y0151757D01*
X0010543Y0152756D02*
X0032743Y0152756D01*
X0032743Y0153754D02*
X0010543Y0153754D01*
X0010543Y0154753D02*
X0032743Y0154753D01*
X0032775Y0155751D02*
X0010543Y0155751D01*
X0010543Y0156750D02*
X0033524Y0156750D01*
X0033787Y0171333D02*
X0038299Y0171333D01*
X0038543Y0171577D01*
X0038787Y0171333D01*
X0043299Y0171333D01*
X0043543Y0171577D01*
X0043787Y0171333D01*
X0048299Y0171333D01*
X0048543Y0171577D01*
X0048787Y0171333D01*
X0053299Y0171333D01*
X0053943Y0171977D01*
X0053943Y0177389D01*
X0053299Y0178033D01*
X0052643Y0178033D01*
X0052643Y0182096D01*
X0052574Y0182165D01*
X0052643Y0182235D01*
X0052643Y0185631D01*
X0050241Y0188033D01*
X0046845Y0188033D01*
X0045143Y0186331D01*
X0045143Y0188270D01*
X0046775Y0189903D01*
X0046845Y0189833D01*
X0050241Y0189833D01*
X0052643Y0192235D01*
X0052643Y0195631D01*
X0050241Y0198033D01*
X0046845Y0198033D01*
X0044443Y0195631D01*
X0044443Y0192235D01*
X0044513Y0192165D01*
X0042880Y0190533D01*
X0041943Y0189596D01*
X0041943Y0186331D01*
X0040241Y0188033D01*
X0036845Y0188033D01*
X0035143Y0186331D01*
X0035143Y0188270D01*
X0036775Y0189903D01*
X0036845Y0189833D01*
X0040241Y0189833D01*
X0042643Y0192235D01*
X0042643Y0195631D01*
X0040241Y0198033D01*
X0036845Y0198033D01*
X0034443Y0195631D01*
X0034443Y0192235D01*
X0034513Y0192165D01*
X0032880Y0190533D01*
X0031943Y0189596D01*
X0031943Y0186331D01*
X0030241Y0188033D01*
X0026845Y0188033D01*
X0024443Y0185631D01*
X0024443Y0182235D01*
X0026845Y0179833D01*
X0030241Y0179833D01*
X0031943Y0181535D01*
X0031943Y0181270D01*
X0034443Y0178770D01*
X0034443Y0178033D01*
X0033787Y0178033D01*
X0033143Y0177389D01*
X0033143Y0171977D01*
X0033787Y0171333D01*
X0033393Y0171728D02*
X0010543Y0171728D01*
X0010543Y0172726D02*
X0033143Y0172726D01*
X0033143Y0173725D02*
X0010543Y0173725D01*
X0010543Y0174723D02*
X0033143Y0174723D01*
X0033143Y0175722D02*
X0010543Y0175722D01*
X0010543Y0176720D02*
X0033143Y0176720D01*
X0033473Y0177719D02*
X0010543Y0177719D01*
X0010543Y0178717D02*
X0034443Y0178717D01*
X0033498Y0179716D02*
X0010543Y0179716D01*
X0010543Y0180714D02*
X0015964Y0180714D01*
X0016845Y0179833D02*
X0014443Y0182235D01*
X0014443Y0185631D01*
X0016845Y0188033D01*
X0020241Y0188033D01*
X0022643Y0185631D01*
X0022643Y0182235D01*
X0020241Y0179833D01*
X0016845Y0179833D01*
X0014965Y0181713D02*
X0010543Y0181713D01*
X0010543Y0182711D02*
X0014443Y0182711D01*
X0014443Y0183710D02*
X0010543Y0183710D01*
X0010543Y0184708D02*
X0014443Y0184708D01*
X0014519Y0185707D02*
X0010543Y0185707D01*
X0010543Y0186705D02*
X0015517Y0186705D01*
X0016516Y0187704D02*
X0010543Y0187704D01*
X0010543Y0188702D02*
X0031943Y0188702D01*
X0031943Y0187704D02*
X0030571Y0187704D01*
X0031569Y0186705D02*
X0031943Y0186705D01*
X0033543Y0188933D02*
X0033543Y0181933D01*
X0036043Y0179433D01*
X0036043Y0174683D01*
X0041043Y0174683D02*
X0041043Y0181433D01*
X0038543Y0183933D01*
X0035517Y0186705D02*
X0035143Y0186705D01*
X0035143Y0187704D02*
X0036516Y0187704D01*
X0035575Y0188702D02*
X0041943Y0188702D01*
X0041943Y0187704D02*
X0040571Y0187704D01*
X0041569Y0186705D02*
X0041943Y0186705D01*
X0043543Y0188933D02*
X0043543Y0181933D01*
X0046043Y0179433D01*
X0046043Y0174683D01*
X0051043Y0174683D02*
X0051043Y0181433D01*
X0048543Y0183933D01*
X0052643Y0183710D02*
X0054443Y0183710D01*
X0054443Y0184708D02*
X0052643Y0184708D01*
X0052568Y0185707D02*
X0054519Y0185707D01*
X0054443Y0185631D02*
X0054443Y0182235D01*
X0056845Y0179833D01*
X0060241Y0179833D01*
X0062643Y0182235D01*
X0062643Y0185631D01*
X0060241Y0188033D01*
X0056845Y0188033D01*
X0054443Y0185631D01*
X0055517Y0186705D02*
X0051569Y0186705D01*
X0050571Y0187704D02*
X0056516Y0187704D01*
X0056845Y0189833D02*
X0060241Y0189833D01*
X0062643Y0192235D01*
X0062643Y0195631D01*
X0060241Y0198033D01*
X0056845Y0198033D01*
X0054443Y0195631D01*
X0054443Y0192235D01*
X0056845Y0189833D01*
X0055979Y0190699D02*
X0051108Y0190699D01*
X0052106Y0191698D02*
X0054980Y0191698D01*
X0054443Y0192696D02*
X0052643Y0192696D01*
X0052643Y0193695D02*
X0054443Y0193695D01*
X0054443Y0194693D02*
X0052643Y0194693D01*
X0052582Y0195692D02*
X0054504Y0195692D01*
X0055502Y0196690D02*
X0051584Y0196690D01*
X0050585Y0197689D02*
X0056501Y0197689D01*
X0060585Y0197689D02*
X0066501Y0197689D01*
X0066845Y0198033D02*
X0064443Y0195631D01*
X0064443Y0192235D01*
X0066845Y0189833D01*
X0070241Y0189833D01*
X0072643Y0192235D01*
X0072643Y0195631D01*
X0070241Y0198033D01*
X0066845Y0198033D01*
X0065502Y0196690D02*
X0061584Y0196690D01*
X0062582Y0195692D02*
X0064504Y0195692D01*
X0064443Y0194693D02*
X0062643Y0194693D01*
X0062643Y0193695D02*
X0064443Y0193695D01*
X0064443Y0192696D02*
X0062643Y0192696D01*
X0062106Y0191698D02*
X0064980Y0191698D01*
X0065979Y0190699D02*
X0061108Y0190699D01*
X0060571Y0187704D02*
X0066516Y0187704D01*
X0065517Y0186705D02*
X0061569Y0186705D01*
X0062568Y0185707D02*
X0064519Y0185707D01*
X0064443Y0184708D02*
X0062643Y0184708D01*
X0062643Y0183710D02*
X0064443Y0183710D01*
X0064443Y0182711D02*
X0062643Y0182711D01*
X0062121Y0181713D02*
X0064965Y0181713D01*
X0065964Y0180714D02*
X0061123Y0180714D01*
X0055964Y0180714D02*
X0052643Y0180714D01*
X0052643Y0179716D02*
X0073498Y0179716D01*
X0074443Y0178717D02*
X0052643Y0178717D01*
X0053613Y0177719D02*
X0073473Y0177719D01*
X0073143Y0176720D02*
X0053943Y0176720D01*
X0053943Y0175722D02*
X0073143Y0175722D01*
X0073143Y0174723D02*
X0053943Y0174723D01*
X0053943Y0173725D02*
X0073143Y0173725D01*
X0073143Y0172726D02*
X0053943Y0172726D01*
X0053693Y0171728D02*
X0073393Y0171728D01*
X0072817Y0170729D02*
X0010543Y0170729D01*
X0010543Y0169731D02*
X0071818Y0169731D01*
X0070820Y0168732D02*
X0010543Y0168732D01*
X0010543Y0167734D02*
X0069821Y0167734D01*
X0076043Y0174683D02*
X0076043Y0179433D01*
X0073543Y0181933D01*
X0073543Y0188933D01*
X0078543Y0193933D01*
X0075502Y0196690D02*
X0071584Y0196690D01*
X0072582Y0195692D02*
X0074504Y0195692D01*
X0074443Y0194693D02*
X0072643Y0194693D01*
X0072643Y0193695D02*
X0074443Y0193695D01*
X0074443Y0192696D02*
X0072643Y0192696D01*
X0072106Y0191698D02*
X0074045Y0191698D01*
X0073047Y0190699D02*
X0071108Y0190699D01*
X0072048Y0189701D02*
X0046574Y0189701D01*
X0045575Y0188702D02*
X0071943Y0188702D01*
X0071943Y0187704D02*
X0070571Y0187704D01*
X0071569Y0186705D02*
X0071943Y0186705D01*
X0076574Y0189701D02*
X0082048Y0189701D01*
X0081108Y0190699D02*
X0083047Y0190699D01*
X0082106Y0191698D02*
X0084045Y0191698D01*
X0084443Y0192696D02*
X0082643Y0192696D01*
X0082643Y0193695D02*
X0084443Y0193695D01*
X0084443Y0194693D02*
X0082643Y0194693D01*
X0082582Y0195692D02*
X0084504Y0195692D01*
X0085502Y0196690D02*
X0081584Y0196690D01*
X0080585Y0197689D02*
X0086501Y0197689D01*
X0090585Y0197689D02*
X0093984Y0197689D01*
X0094335Y0198687D02*
X0010543Y0198687D01*
X0010543Y0197689D02*
X0016501Y0197689D01*
X0016845Y0198033D02*
X0014443Y0195631D01*
X0014443Y0192235D01*
X0016845Y0189833D01*
X0020241Y0189833D01*
X0022643Y0192235D01*
X0022643Y0195631D01*
X0020241Y0198033D01*
X0016845Y0198033D01*
X0015502Y0196690D02*
X0010543Y0196690D01*
X0010543Y0195692D02*
X0014504Y0195692D01*
X0014443Y0194693D02*
X0010543Y0194693D01*
X0010543Y0193695D02*
X0014443Y0193695D01*
X0014443Y0192696D02*
X0010543Y0192696D01*
X0010543Y0191698D02*
X0014980Y0191698D01*
X0015979Y0190699D02*
X0010543Y0190699D01*
X0010543Y0189701D02*
X0032048Y0189701D01*
X0031108Y0190699D02*
X0033047Y0190699D01*
X0032106Y0191698D02*
X0034045Y0191698D01*
X0034443Y0192696D02*
X0032643Y0192696D01*
X0032643Y0192235D02*
X0030241Y0189833D01*
X0026845Y0189833D01*
X0024443Y0192235D01*
X0024443Y0195631D01*
X0026845Y0198033D01*
X0030241Y0198033D01*
X0032643Y0195631D01*
X0032643Y0192235D01*
X0032643Y0193695D02*
X0034443Y0193695D01*
X0034443Y0194693D02*
X0032643Y0194693D01*
X0032582Y0195692D02*
X0034504Y0195692D01*
X0035502Y0196690D02*
X0031584Y0196690D01*
X0030585Y0197689D02*
X0036501Y0197689D01*
X0040585Y0197689D02*
X0046501Y0197689D01*
X0045502Y0196690D02*
X0041584Y0196690D01*
X0042582Y0195692D02*
X0044504Y0195692D01*
X0044443Y0194693D02*
X0042643Y0194693D01*
X0042643Y0193695D02*
X0044443Y0193695D01*
X0044443Y0192696D02*
X0042643Y0192696D01*
X0042106Y0191698D02*
X0044045Y0191698D01*
X0043047Y0190699D02*
X0041108Y0190699D01*
X0042048Y0189701D02*
X0036574Y0189701D01*
X0033543Y0188933D02*
X0038543Y0193933D01*
X0042880Y0190533D02*
X0042880Y0190533D01*
X0043543Y0188933D02*
X0048543Y0193933D01*
X0046516Y0187704D02*
X0045143Y0187704D01*
X0045143Y0186705D02*
X0045517Y0186705D01*
X0052643Y0182711D02*
X0054443Y0182711D01*
X0054965Y0181713D02*
X0052643Y0181713D01*
X0071122Y0180714D02*
X0072499Y0180714D01*
X0086574Y0189701D02*
X0113502Y0189701D01*
X0113502Y0190699D02*
X0091108Y0190699D01*
X0092106Y0191698D02*
X0113790Y0191698D01*
X0115390Y0192780D02*
X0115543Y0193933D01*
X0115390Y0192780D02*
X0115390Y0187654D01*
X0115803Y0173725D02*
X0117284Y0173725D01*
X0113502Y0166735D02*
X0110549Y0166735D01*
X0110942Y0165737D02*
X0113502Y0165737D01*
X0113502Y0164738D02*
X0110942Y0164738D01*
X0110942Y0163740D02*
X0113502Y0163740D01*
X0117949Y0164425D02*
X0117949Y0159339D01*
X0116543Y0157933D01*
X0116543Y0143933D01*
X0115803Y0144673D01*
X0116543Y0143933D02*
X0116543Y0135933D01*
X0123543Y0128933D01*
X0120993Y0128792D02*
X0120243Y0128792D01*
X0120243Y0129790D02*
X0120423Y0129790D01*
X0120243Y0127793D02*
X0121255Y0127793D01*
X0122075Y0126795D02*
X0120243Y0126795D01*
X0120243Y0125796D02*
X0146843Y0125796D01*
X0146843Y0124798D02*
X0120243Y0124798D01*
X0120243Y0123799D02*
X0146843Y0123799D01*
X0146843Y0122801D02*
X0120243Y0122801D01*
X0120243Y0121802D02*
X0146843Y0121802D01*
X0146843Y0120804D02*
X0120243Y0120804D01*
X0120243Y0119805D02*
X0124809Y0119805D01*
X0126543Y0117933D02*
X0125968Y0117358D01*
X0116643Y0117358D01*
X0116643Y0120508D02*
X0111968Y0120508D01*
X0110543Y0121933D01*
X0102543Y0121933D01*
X0101543Y0122933D01*
X0103462Y0119805D02*
X0103624Y0119805D01*
X0103624Y0118807D02*
X0103462Y0118807D01*
X0103462Y0117808D02*
X0103624Y0117808D01*
X0103624Y0116810D02*
X0103462Y0116810D01*
X0103462Y0115811D02*
X0103624Y0115811D01*
X0103624Y0114812D02*
X0103462Y0114812D01*
X0103462Y0113814D02*
X0103624Y0113814D01*
X0104100Y0111817D02*
X0102986Y0111817D01*
X0103462Y0110818D02*
X0103624Y0110818D01*
X0103624Y0109820D02*
X0103462Y0109820D01*
X0103462Y0108821D02*
X0103624Y0108821D01*
X0103624Y0107823D02*
X0103462Y0107823D01*
X0103462Y0106824D02*
X0103624Y0106824D01*
X0103624Y0105826D02*
X0103462Y0105826D01*
X0103462Y0104827D02*
X0103624Y0104827D01*
X0104783Y0103386D02*
X0107040Y0103386D01*
X0107421Y0103284D01*
X0107763Y0103086D01*
X0108043Y0102807D01*
X0108240Y0102465D01*
X0108342Y0102083D01*
X0108342Y0099433D01*
X0104783Y0099433D01*
X0104783Y0103386D01*
X0104783Y0102830D02*
X0103783Y0102830D01*
X0103783Y0101832D02*
X0104783Y0101832D01*
X0104783Y0100833D02*
X0103783Y0100833D01*
X0103783Y0099835D02*
X0104783Y0099835D01*
X0108342Y0099835D02*
X0120319Y0099835D01*
X0120319Y0100833D02*
X0113050Y0100833D01*
X0113847Y0101832D02*
X0120319Y0101832D01*
X0120319Y0102830D02*
X0114093Y0102830D01*
X0114143Y0103829D02*
X0120319Y0103829D01*
X0120319Y0104827D02*
X0114143Y0104827D01*
X0112543Y0103933D02*
X0111543Y0102933D01*
X0112543Y0103933D02*
X0112543Y0106933D01*
X0113519Y0107909D01*
X0116643Y0107909D01*
X0120243Y0107823D02*
X0127219Y0107823D01*
X0127219Y0108821D02*
X0120243Y0108821D01*
X0120243Y0109820D02*
X0127219Y0109820D01*
X0127219Y0110818D02*
X0120243Y0110818D01*
X0120243Y0111817D02*
X0127219Y0111817D01*
X0126993Y0112815D02*
X0120243Y0112815D01*
X0120243Y0113814D02*
X0127148Y0113814D01*
X0127816Y0114812D02*
X0120243Y0114812D01*
X0116643Y0114209D02*
X0110008Y0114209D01*
X0107283Y0116933D01*
X0109138Y0112815D02*
X0093923Y0112815D01*
X0094922Y0111817D02*
X0096619Y0111817D01*
X0096144Y0110818D02*
X0095920Y0110818D01*
X0096543Y0107933D02*
X0099803Y0107933D01*
X0096543Y0107933D02*
X0079941Y0124535D01*
X0079941Y0130327D01*
X0082500Y0130327D02*
X0082500Y0130327D01*
X0082500Y0126077D01*
X0082500Y0130327D01*
X0082500Y0130789D02*
X0082500Y0130789D01*
X0082500Y0131787D02*
X0082500Y0131787D01*
X0082500Y0132786D02*
X0082500Y0132786D01*
X0082500Y0133784D02*
X0082500Y0133784D01*
X0082500Y0129790D02*
X0082500Y0129790D01*
X0082500Y0128792D02*
X0082500Y0128792D01*
X0082500Y0127793D02*
X0082500Y0127793D01*
X0082500Y0126795D02*
X0082500Y0126795D01*
X0081541Y0125796D02*
X0088677Y0125796D01*
X0089676Y0124798D02*
X0081941Y0124798D01*
X0082940Y0123799D02*
X0090674Y0123799D01*
X0091673Y0122801D02*
X0083938Y0122801D01*
X0084937Y0121802D02*
X0092671Y0121802D01*
X0093670Y0120804D02*
X0085935Y0120804D01*
X0086934Y0119805D02*
X0094668Y0119805D01*
X0095667Y0118807D02*
X0087932Y0118807D01*
X0088931Y0117808D02*
X0096144Y0117808D01*
X0096144Y0116810D02*
X0089929Y0116810D01*
X0090928Y0115811D02*
X0096144Y0115811D01*
X0096144Y0114812D02*
X0091926Y0114812D01*
X0092925Y0113814D02*
X0096144Y0113814D01*
X0099803Y0116933D02*
X0090177Y0126559D01*
X0090177Y0130327D01*
X0083590Y0144768D02*
X0081497Y0144768D01*
X0080498Y0145766D02*
X0084588Y0145766D01*
X0074588Y0145766D02*
X0070498Y0145766D01*
X0071497Y0144768D02*
X0073590Y0144768D01*
X0053911Y0138777D02*
X0051677Y0138777D01*
X0052280Y0139775D02*
X0053241Y0139775D01*
X0052828Y0140774D02*
X0052624Y0140774D01*
X0053126Y0137778D02*
X0050671Y0137778D01*
X0050387Y0136780D02*
X0048247Y0136780D01*
X0048043Y0136780D02*
X0047043Y0136780D01*
X0047043Y0137778D02*
X0048043Y0137778D01*
X0048043Y0138777D02*
X0047043Y0138777D01*
X0047043Y0139775D02*
X0048043Y0139775D01*
X0044490Y0131787D02*
X0044407Y0131787D01*
X0044407Y0130789D02*
X0044490Y0130789D01*
X0044490Y0129790D02*
X0044407Y0129790D01*
X0044407Y0128792D02*
X0044509Y0128792D01*
X0044090Y0126795D02*
X0043945Y0126795D01*
X0055922Y0111817D02*
X0082821Y0111817D01*
X0082150Y0110818D02*
X0056920Y0110818D01*
X0057919Y0109820D02*
X0081993Y0109820D01*
X0082500Y0107890D02*
X0084543Y0109933D01*
X0082500Y0107890D02*
X0082500Y0101539D01*
X0085059Y0101539D01*
X0085303Y0096839D02*
X0083783Y0096839D01*
X0083871Y0095841D02*
X0085215Y0095841D01*
X0085215Y0094842D02*
X0083871Y0094842D01*
X0083871Y0093844D02*
X0085215Y0093844D01*
X0085215Y0092845D02*
X0083871Y0092845D01*
X0083871Y0091847D02*
X0085215Y0091847D01*
X0085482Y0090848D02*
X0083604Y0090848D01*
X0080409Y0093933D02*
X0077382Y0096961D01*
X0077382Y0101539D01*
X0069705Y0101539D02*
X0069705Y0105789D01*
X0070587Y0105789D01*
X0070664Y0105769D01*
X0070664Y0106290D01*
X0067880Y0106290D01*
X0067837Y0106333D01*
X0066186Y0106333D01*
X0066186Y0105389D01*
X0067998Y0105389D01*
X0068098Y0105490D01*
X0068440Y0105687D01*
X0068822Y0105789D01*
X0069704Y0105789D01*
X0069704Y0101539D01*
X0069705Y0101539D01*
X0069704Y0101832D02*
X0069705Y0101832D01*
X0069704Y0102830D02*
X0069705Y0102830D01*
X0069704Y0103829D02*
X0069705Y0103829D01*
X0069704Y0104827D02*
X0069705Y0104827D01*
X0070664Y0105826D02*
X0066186Y0105826D01*
X0064586Y0107933D02*
X0068543Y0107933D01*
X0068543Y0107890D01*
X0072264Y0107890D01*
X0069704Y0100833D02*
X0069705Y0100833D01*
X0069704Y0099835D02*
X0069705Y0099835D01*
X0069704Y0098836D02*
X0069705Y0098836D01*
X0069704Y0097838D02*
X0069705Y0097838D01*
X0069303Y0096839D02*
X0067783Y0096839D01*
X0067871Y0095841D02*
X0069215Y0095841D01*
X0069215Y0094842D02*
X0067871Y0094842D01*
X0067871Y0093844D02*
X0069215Y0093844D01*
X0069215Y0092845D02*
X0067871Y0092845D01*
X0067871Y0091847D02*
X0069215Y0091847D01*
X0069482Y0090848D02*
X0067604Y0090848D01*
X0064409Y0093933D02*
X0057283Y0093933D01*
X0060942Y0095841D02*
X0060947Y0095841D01*
X0060942Y0096839D02*
X0061035Y0096839D01*
X0064586Y0101539D02*
X0064586Y0107933D01*
X0062986Y0107823D02*
X0059916Y0107823D01*
X0058917Y0108821D02*
X0063212Y0108821D01*
X0062986Y0106824D02*
X0060914Y0106824D01*
X0061143Y0105826D02*
X0062986Y0105826D01*
X0063543Y0113933D02*
X0065543Y0115933D01*
X0065543Y0116933D01*
X0054121Y0097838D02*
X0053531Y0097838D01*
X0050303Y0092845D02*
X0049303Y0092845D01*
X0049303Y0091847D02*
X0050303Y0091847D01*
X0050303Y0090848D02*
X0049303Y0090848D01*
X0049303Y0089850D02*
X0050303Y0089850D01*
X0050431Y0087853D02*
X0053607Y0087853D01*
X0053143Y0086854D02*
X0050942Y0086854D01*
X0050942Y0085856D02*
X0053143Y0085856D01*
X0053143Y0084857D02*
X0050942Y0084857D01*
X0050942Y0083859D02*
X0053143Y0083859D01*
X0053143Y0082860D02*
X0051879Y0082860D01*
X0052877Y0081862D02*
X0053259Y0081862D01*
X0053876Y0080863D02*
X0054443Y0080863D01*
X0054874Y0079865D02*
X0055349Y0079865D01*
X0055143Y0078866D02*
X0056347Y0078866D01*
X0057346Y0077868D02*
X0055143Y0077868D01*
X0055143Y0076869D02*
X0058344Y0076869D01*
X0059343Y0075871D02*
X0055143Y0075871D01*
X0055143Y0074872D02*
X0060341Y0074872D01*
X0061340Y0073874D02*
X0055143Y0073874D01*
X0055143Y0072875D02*
X0076144Y0072875D01*
X0076144Y0071877D02*
X0055862Y0071877D01*
X0055543Y0069933D02*
X0053543Y0071933D01*
X0053543Y0078933D01*
X0048543Y0083933D01*
X0047283Y0083933D01*
X0043624Y0082860D02*
X0043462Y0082860D01*
X0043462Y0081862D02*
X0043624Y0081862D01*
X0043624Y0080863D02*
X0043462Y0080863D01*
X0042937Y0078866D02*
X0044149Y0078866D01*
X0043624Y0077868D02*
X0043462Y0077868D01*
X0043462Y0076869D02*
X0043624Y0076869D01*
X0043624Y0075871D02*
X0043462Y0075871D01*
X0043462Y0074872D02*
X0043624Y0074872D01*
X0043624Y0073874D02*
X0043462Y0073874D01*
X0043462Y0072875D02*
X0043624Y0072875D01*
X0043624Y0071877D02*
X0043462Y0071877D01*
X0047283Y0074933D02*
X0054283Y0067933D01*
X0086543Y0067933D01*
X0099783Y0054693D01*
X0099783Y0050213D01*
X0097896Y0049909D02*
X0090318Y0049909D01*
X0090241Y0049833D02*
X0092643Y0052235D01*
X0092643Y0055631D01*
X0090241Y0058033D01*
X0086845Y0058033D01*
X0084443Y0055631D01*
X0084443Y0052235D01*
X0086845Y0049833D01*
X0090241Y0049833D01*
X0091316Y0050908D02*
X0097896Y0050908D01*
X0097896Y0051906D02*
X0092315Y0051906D01*
X0092643Y0052905D02*
X0097896Y0052905D01*
X0097981Y0053903D02*
X0092643Y0053903D01*
X0092643Y0054902D02*
X0097312Y0054902D01*
X0096313Y0055900D02*
X0092374Y0055900D01*
X0091376Y0056899D02*
X0095315Y0056899D01*
X0094316Y0057897D02*
X0090377Y0057897D01*
X0092319Y0059894D02*
X0073360Y0059894D01*
X0072843Y0058896D02*
X0093318Y0058896D01*
X0091321Y0060893D02*
X0073943Y0060893D01*
X0073943Y0061891D02*
X0090322Y0061891D01*
X0089323Y0062890D02*
X0073943Y0062890D01*
X0073943Y0063888D02*
X0088325Y0063888D01*
X0087326Y0064887D02*
X0073943Y0064887D01*
X0073943Y0065885D02*
X0086328Y0065885D01*
X0087543Y0069933D02*
X0055543Y0069933D01*
X0052071Y0067882D02*
X0010543Y0067882D01*
X0010543Y0066884D02*
X0053070Y0066884D01*
X0053143Y0065885D02*
X0033943Y0065885D01*
X0033943Y0065889D02*
X0033299Y0066533D01*
X0028787Y0066533D01*
X0028543Y0066289D01*
X0028299Y0066533D01*
X0023787Y0066533D01*
X0023543Y0066289D01*
X0023299Y0066533D01*
X0018787Y0066533D01*
X0018543Y0066289D01*
X0018299Y0066533D01*
X0013787Y0066533D01*
X0013143Y0065889D01*
X0013143Y0060477D01*
X0013787Y0059833D01*
X0014443Y0059833D01*
X0014443Y0055770D01*
X0014513Y0055701D01*
X0014443Y0055631D01*
X0014443Y0052235D01*
X0016845Y0049833D01*
X0020241Y0049833D01*
X0021943Y0051535D01*
X0021943Y0049596D01*
X0020311Y0047964D01*
X0020241Y0048033D01*
X0016845Y0048033D01*
X0014443Y0045631D01*
X0014443Y0042235D01*
X0016845Y0039833D01*
X0020241Y0039833D01*
X0022643Y0042235D01*
X0022643Y0045631D01*
X0022574Y0045701D01*
X0025143Y0048270D01*
X0025143Y0051535D01*
X0026845Y0049833D01*
X0030241Y0049833D01*
X0031943Y0051535D01*
X0031943Y0049596D01*
X0030311Y0047964D01*
X0030241Y0048033D01*
X0026845Y0048033D01*
X0024443Y0045631D01*
X0024443Y0042235D01*
X0026845Y0039833D01*
X0030241Y0039833D01*
X0032643Y0042235D01*
X0032643Y0045631D01*
X0032574Y0045701D01*
X0035143Y0048270D01*
X0035143Y0051535D01*
X0036845Y0049833D01*
X0040241Y0049833D01*
X0042643Y0052235D01*
X0042643Y0055631D01*
X0040241Y0058033D01*
X0036845Y0058033D01*
X0035143Y0056331D01*
X0035143Y0057596D01*
X0034206Y0058533D01*
X0032906Y0059833D01*
X0033299Y0059833D01*
X0033943Y0060477D01*
X0033943Y0065889D01*
X0033943Y0064887D02*
X0053143Y0064887D01*
X0053143Y0063888D02*
X0033943Y0063888D01*
X0033943Y0062890D02*
X0053143Y0062890D01*
X0053143Y0061891D02*
X0033943Y0061891D01*
X0033943Y0060893D02*
X0053143Y0060893D01*
X0053726Y0059894D02*
X0033360Y0059894D01*
X0033843Y0058896D02*
X0054443Y0058896D01*
X0054443Y0057897D02*
X0050377Y0057897D01*
X0050241Y0058033D02*
X0046845Y0058033D01*
X0044443Y0055631D01*
X0044443Y0052235D01*
X0046845Y0049833D01*
X0050241Y0049833D01*
X0052643Y0052235D01*
X0052643Y0055631D01*
X0050241Y0058033D01*
X0051376Y0056899D02*
X0054443Y0056899D01*
X0054443Y0055900D02*
X0052374Y0055900D01*
X0052643Y0054902D02*
X0054443Y0054902D01*
X0054443Y0053903D02*
X0052643Y0053903D01*
X0052643Y0052905D02*
X0054443Y0052905D01*
X0054772Y0051906D02*
X0052315Y0051906D01*
X0051316Y0050908D02*
X0055770Y0050908D01*
X0056769Y0049909D02*
X0050318Y0049909D01*
X0050241Y0048033D02*
X0046845Y0048033D01*
X0044443Y0045631D01*
X0044443Y0042235D01*
X0046845Y0039833D01*
X0050241Y0039833D01*
X0052643Y0042235D01*
X0052643Y0045631D01*
X0050241Y0048033D01*
X0050362Y0047912D02*
X0056724Y0047912D01*
X0055725Y0046914D02*
X0051361Y0046914D01*
X0052359Y0045915D02*
X0054727Y0045915D01*
X0054443Y0044917D02*
X0052643Y0044917D01*
X0052643Y0043918D02*
X0054443Y0043918D01*
X0054443Y0042920D02*
X0052643Y0042920D01*
X0052329Y0041921D02*
X0054757Y0041921D01*
X0055755Y0040923D02*
X0051331Y0040923D01*
X0050332Y0039924D02*
X0056754Y0039924D01*
X0060332Y0039924D02*
X0066754Y0039924D01*
X0065755Y0040923D02*
X0061331Y0040923D01*
X0062329Y0041921D02*
X0064757Y0041921D01*
X0064443Y0042920D02*
X0062643Y0042920D01*
X0062643Y0043918D02*
X0064443Y0043918D01*
X0064443Y0044917D02*
X0062643Y0044917D01*
X0062788Y0045915D02*
X0064727Y0045915D01*
X0063786Y0046914D02*
X0065725Y0046914D01*
X0064785Y0047912D02*
X0066724Y0047912D01*
X0065143Y0048911D02*
X0071258Y0048911D01*
X0071943Y0049909D02*
X0070318Y0049909D01*
X0071316Y0050908D02*
X0071943Y0050908D01*
X0073543Y0048933D02*
X0068543Y0043933D01*
X0071331Y0040923D02*
X0075755Y0040923D01*
X0074757Y0041921D02*
X0072329Y0041921D01*
X0072643Y0042920D02*
X0074443Y0042920D01*
X0074443Y0042235D02*
X0076845Y0039833D01*
X0080241Y0039833D01*
X0082643Y0042235D01*
X0082643Y0045631D01*
X0080241Y0048033D01*
X0076845Y0048033D01*
X0074443Y0045631D01*
X0074443Y0042235D01*
X0074443Y0043918D02*
X0072643Y0043918D01*
X0072643Y0044917D02*
X0074443Y0044917D01*
X0074727Y0045915D02*
X0072788Y0045915D01*
X0073786Y0046914D02*
X0075725Y0046914D01*
X0074785Y0047912D02*
X0076724Y0047912D01*
X0075143Y0048911D02*
X0097896Y0048911D01*
X0097896Y0047912D02*
X0090362Y0047912D01*
X0090241Y0048033D02*
X0086845Y0048033D01*
X0084443Y0045631D01*
X0084443Y0042235D01*
X0086845Y0039833D01*
X0090241Y0039833D01*
X0092643Y0042235D01*
X0092643Y0045631D01*
X0090241Y0048033D01*
X0091361Y0046914D02*
X0097896Y0046914D01*
X0097636Y0045492D02*
X0095961Y0044798D01*
X0094678Y0043516D01*
X0093984Y0041840D01*
X0093984Y0040026D01*
X0094678Y0038351D01*
X0095961Y0037068D01*
X0097636Y0036374D01*
X0099450Y0036374D01*
X0101126Y0037068D01*
X0102408Y0038351D01*
X0103102Y0040026D01*
X0103102Y0041840D01*
X0102408Y0043516D01*
X0101126Y0044798D01*
X0099450Y0045492D01*
X0097636Y0045492D01*
X0096247Y0044917D02*
X0092643Y0044917D01*
X0092643Y0043918D02*
X0095081Y0043918D01*
X0094431Y0042920D02*
X0092643Y0042920D01*
X0092329Y0041921D02*
X0094018Y0041921D01*
X0093984Y0040923D02*
X0091331Y0040923D01*
X0090332Y0039924D02*
X0094026Y0039924D01*
X0094440Y0038926D02*
X0010543Y0038926D01*
X0010543Y0039924D02*
X0016754Y0039924D01*
X0015755Y0040923D02*
X0010543Y0040923D01*
X0010543Y0041921D02*
X0014757Y0041921D01*
X0014443Y0042920D02*
X0010543Y0042920D01*
X0010543Y0043918D02*
X0014443Y0043918D01*
X0014443Y0044917D02*
X0010543Y0044917D01*
X0010543Y0045915D02*
X0014727Y0045915D01*
X0015725Y0046914D02*
X0010543Y0046914D01*
X0010543Y0047912D02*
X0016724Y0047912D01*
X0016769Y0049909D02*
X0010543Y0049909D01*
X0010543Y0048911D02*
X0021258Y0048911D01*
X0021943Y0049909D02*
X0020318Y0049909D01*
X0021316Y0050908D02*
X0021943Y0050908D01*
X0023543Y0048933D02*
X0018543Y0043933D01*
X0021331Y0040923D02*
X0025755Y0040923D01*
X0024757Y0041921D02*
X0022329Y0041921D01*
X0022643Y0042920D02*
X0024443Y0042920D01*
X0024443Y0043918D02*
X0022643Y0043918D01*
X0022643Y0044917D02*
X0024443Y0044917D01*
X0024727Y0045915D02*
X0022788Y0045915D01*
X0023786Y0046914D02*
X0025725Y0046914D01*
X0024785Y0047912D02*
X0026724Y0047912D01*
X0025143Y0048911D02*
X0031258Y0048911D01*
X0031943Y0049909D02*
X0030318Y0049909D01*
X0031316Y0050908D02*
X0031943Y0050908D01*
X0033543Y0048933D02*
X0028543Y0043933D01*
X0031331Y0040923D02*
X0035755Y0040923D01*
X0034757Y0041921D02*
X0032329Y0041921D01*
X0032643Y0042920D02*
X0034443Y0042920D01*
X0034443Y0042235D02*
X0036845Y0039833D01*
X0040241Y0039833D01*
X0042643Y0042235D01*
X0042643Y0045631D01*
X0040241Y0048033D01*
X0036845Y0048033D01*
X0034443Y0045631D01*
X0034443Y0042235D01*
X0034443Y0043918D02*
X0032643Y0043918D01*
X0032643Y0044917D02*
X0034443Y0044917D01*
X0034727Y0045915D02*
X0032788Y0045915D01*
X0033786Y0046914D02*
X0035725Y0046914D01*
X0034785Y0047912D02*
X0036724Y0047912D01*
X0035143Y0048911D02*
X0061258Y0048911D01*
X0061943Y0049909D02*
X0060318Y0049909D01*
X0061316Y0050908D02*
X0061943Y0050908D01*
X0063543Y0048933D02*
X0058543Y0043933D01*
X0063543Y0048933D02*
X0063543Y0055933D01*
X0061043Y0058433D01*
X0061043Y0063183D01*
X0056043Y0063183D02*
X0056043Y0056433D01*
X0058543Y0053933D01*
X0065143Y0050908D02*
X0065770Y0050908D01*
X0065143Y0049909D02*
X0066769Y0049909D01*
X0068543Y0053933D02*
X0066043Y0056433D01*
X0066043Y0063183D01*
X0071043Y0063183D02*
X0071043Y0058433D01*
X0073543Y0055933D01*
X0073543Y0048933D01*
X0075143Y0049909D02*
X0076769Y0049909D01*
X0075770Y0050908D02*
X0075143Y0050908D01*
X0080318Y0049909D02*
X0086769Y0049909D01*
X0085770Y0050908D02*
X0081316Y0050908D01*
X0082315Y0051906D02*
X0084772Y0051906D01*
X0084443Y0052905D02*
X0082643Y0052905D01*
X0082643Y0053903D02*
X0084443Y0053903D01*
X0084443Y0054902D02*
X0082643Y0054902D01*
X0082374Y0055900D02*
X0084712Y0055900D01*
X0085711Y0056899D02*
X0081376Y0056899D01*
X0080377Y0057897D02*
X0086709Y0057897D01*
X0076709Y0057897D02*
X0073842Y0057897D01*
X0074840Y0056899D02*
X0075711Y0056899D01*
X0080362Y0047912D02*
X0086724Y0047912D01*
X0085725Y0046914D02*
X0081361Y0046914D01*
X0082359Y0045915D02*
X0084727Y0045915D01*
X0084443Y0044917D02*
X0082643Y0044917D01*
X0082643Y0043918D02*
X0084443Y0043918D01*
X0084443Y0042920D02*
X0082643Y0042920D01*
X0082329Y0041921D02*
X0084757Y0041921D01*
X0085755Y0040923D02*
X0081331Y0040923D01*
X0080332Y0039924D02*
X0086754Y0039924D01*
X0092359Y0045915D02*
X0115919Y0045915D01*
X0115190Y0044917D02*
X0100839Y0044917D01*
X0102005Y0043918D02*
X0114993Y0043918D01*
X0115203Y0042920D02*
X0102655Y0042920D01*
X0103068Y0041921D02*
X0115949Y0041921D01*
X0117543Y0043933D02*
X0117697Y0044087D01*
X0117697Y0050213D01*
X0119584Y0049909D02*
X0141769Y0049909D01*
X0140770Y0050908D02*
X0119584Y0050908D01*
X0119584Y0051906D02*
X0139772Y0051906D01*
X0139443Y0052905D02*
X0119584Y0052905D01*
X0119499Y0053903D02*
X0139443Y0053903D01*
X0139443Y0054902D02*
X0116738Y0054902D01*
X0116738Y0055900D02*
X0126970Y0055900D01*
X0126211Y0056899D02*
X0116738Y0056899D01*
X0116738Y0057897D02*
X0125993Y0057897D01*
X0126182Y0058896D02*
X0116738Y0058896D01*
X0116738Y0059894D02*
X0126898Y0059894D01*
X0126214Y0060893D02*
X0116738Y0060893D01*
X0116738Y0061891D02*
X0125993Y0061891D01*
X0126179Y0062890D02*
X0116738Y0062890D01*
X0116738Y0063888D02*
X0118981Y0063888D01*
X0118216Y0064887D02*
X0118103Y0064887D01*
X0120543Y0065933D02*
X0124803Y0070193D01*
X0124803Y0074933D01*
X0121144Y0072875D02*
X0119584Y0072875D01*
X0119584Y0071877D02*
X0121144Y0071877D01*
X0119584Y0070878D02*
X0123203Y0070878D01*
X0122227Y0069879D02*
X0119584Y0069879D01*
X0119297Y0068881D02*
X0121228Y0068881D01*
X0123757Y0066884D02*
X0131231Y0066884D01*
X0130233Y0065885D02*
X0123093Y0065885D01*
X0122870Y0064887D02*
X0129234Y0064887D01*
X0126892Y0063888D02*
X0122105Y0063888D01*
X0124755Y0067882D02*
X0132230Y0067882D01*
X0133228Y0068881D02*
X0125754Y0068881D01*
X0126403Y0069879D02*
X0134227Y0069879D01*
X0135225Y0070878D02*
X0126403Y0070878D01*
X0128462Y0071877D02*
X0128624Y0071877D01*
X0128624Y0072875D02*
X0128462Y0072875D01*
X0128462Y0073874D02*
X0128624Y0073874D01*
X0128624Y0074872D02*
X0128462Y0074872D01*
X0128462Y0075871D02*
X0128624Y0075871D01*
X0128624Y0076869D02*
X0128462Y0076869D01*
X0128462Y0077868D02*
X0128624Y0077868D01*
X0129149Y0078866D02*
X0127937Y0078866D01*
X0128462Y0080863D02*
X0128624Y0080863D01*
X0128624Y0081862D02*
X0128462Y0081862D01*
X0128462Y0082860D02*
X0128624Y0082860D01*
X0124803Y0083933D02*
X0124803Y0086193D01*
X0128543Y0089933D01*
X0129543Y0092933D02*
X0132543Y0091933D01*
X0134144Y0092845D02*
X0127143Y0092845D01*
X0125543Y0091933D02*
X0122543Y0088933D01*
X0121543Y0088933D01*
X0120543Y0087933D01*
X0120543Y0081933D01*
X0117543Y0078933D01*
X0115138Y0076528D01*
X0115138Y0073441D01*
X0112579Y0073441D02*
X0112579Y0082933D01*
X0117543Y0082933D01*
X0114543Y0085933D02*
X0111543Y0085933D01*
X0110019Y0084409D01*
X0110019Y0073441D01*
X0107460Y0073441D02*
X0107460Y0085850D01*
X0111543Y0089933D01*
X0114543Y0085933D02*
X0120543Y0091933D01*
X0125543Y0091933D02*
X0125543Y0094933D01*
X0135118Y0096618D02*
X0135118Y0102033D01*
X0135118Y0111508D01*
X0137543Y0113933D01*
X0135815Y0115811D02*
X0128027Y0115811D01*
X0128838Y0116810D02*
X0146843Y0116810D01*
X0146843Y0117808D02*
X0129093Y0117808D01*
X0128941Y0118807D02*
X0146843Y0118807D01*
X0146843Y0119805D02*
X0128277Y0119805D01*
X0125011Y0126795D02*
X0146843Y0126795D01*
X0150443Y0126807D02*
X0153417Y0126807D01*
X0158543Y0131933D01*
X0165543Y0131933D01*
X0178543Y0118933D01*
X0174443Y0118807D02*
X0172596Y0118807D01*
X0172596Y0119805D02*
X0174443Y0119805D01*
X0174410Y0120804D02*
X0172480Y0120804D01*
X0173411Y0121802D02*
X0163093Y0121802D01*
X0162944Y0122801D02*
X0172413Y0122801D01*
X0171414Y0123799D02*
X0162283Y0123799D01*
X0160543Y0121933D02*
X0159118Y0120508D01*
X0150443Y0120508D01*
X0150443Y0117358D02*
X0168228Y0117358D01*
X0168543Y0117673D01*
X0172596Y0117808D02*
X0174443Y0117808D01*
X0174868Y0116810D02*
X0172596Y0116810D01*
X0172596Y0115811D02*
X0175867Y0115811D01*
X0176679Y0113433D02*
X0174043Y0110797D01*
X0174043Y0109433D01*
X0178043Y0109433D01*
X0178043Y0113433D01*
X0176679Y0113433D01*
X0176062Y0112815D02*
X0172596Y0112815D01*
X0172596Y0111817D02*
X0175063Y0111817D01*
X0174064Y0110818D02*
X0172596Y0110818D01*
X0172596Y0109820D02*
X0174043Y0109820D01*
X0172596Y0108821D02*
X0178043Y0108821D01*
X0178043Y0109820D02*
X0179043Y0109820D01*
X0179043Y0109433D02*
X0179043Y0113433D01*
X0180407Y0113433D01*
X0183043Y0110797D01*
X0183043Y0109433D01*
X0179043Y0109433D01*
X0179043Y0108821D02*
X0184443Y0108821D01*
X0184443Y0107823D02*
X0183043Y0107823D01*
X0182798Y0106824D02*
X0184853Y0106824D01*
X0185852Y0105826D02*
X0181800Y0105826D01*
X0180801Y0104827D02*
X0196026Y0104827D01*
X0196026Y0103829D02*
X0190910Y0103829D01*
X0191909Y0102830D02*
X0196026Y0102830D01*
X0196026Y0101832D02*
X0192907Y0101832D01*
X0193906Y0100833D02*
X0196026Y0100833D01*
X0196026Y0099835D02*
X0194904Y0099835D01*
X0196026Y0099777D02*
X0196670Y0099132D01*
X0202699Y0099132D01*
X0203344Y0099777D01*
X0203344Y0106790D01*
X0202699Y0107435D01*
X0196670Y0107435D01*
X0196026Y0106790D01*
X0196026Y0099777D01*
X0195903Y0098836D02*
X0210943Y0098836D01*
X0210943Y0097838D02*
X0196901Y0097838D01*
X0197900Y0096839D02*
X0201035Y0096839D01*
X0200947Y0095841D02*
X0198898Y0095841D01*
X0198543Y0093933D02*
X0204409Y0093933D01*
X0207871Y0093844D02*
X0209215Y0093844D01*
X0209215Y0094842D02*
X0207871Y0094842D01*
X0207871Y0095841D02*
X0209215Y0095841D01*
X0209215Y0096751D02*
X0209215Y0091115D01*
X0209859Y0090471D01*
X0215495Y0090471D01*
X0216139Y0091115D01*
X0216139Y0091755D01*
X0217036Y0091383D01*
X0218050Y0091383D01*
X0218988Y0091771D01*
X0219705Y0092489D01*
X0220093Y0093426D01*
X0220093Y0094440D01*
X0219705Y0095378D01*
X0218988Y0096095D01*
X0218050Y0096483D01*
X0217036Y0096483D01*
X0216139Y0096112D01*
X0216139Y0096751D01*
X0215495Y0097395D01*
X0214143Y0097395D01*
X0214143Y0099376D01*
X0214387Y0099132D01*
X0220416Y0099132D01*
X0221060Y0099777D01*
X0221060Y0106790D01*
X0220416Y0107435D01*
X0214387Y0107435D01*
X0214143Y0107191D01*
X0214143Y0110270D01*
X0219001Y0115129D01*
X0219001Y0130431D01*
X0220416Y0130431D01*
X0221060Y0131076D01*
X0221060Y0138089D01*
X0220416Y0138734D01*
X0214387Y0138734D01*
X0213742Y0138089D01*
X0213742Y0131076D01*
X0214387Y0130431D01*
X0215801Y0130431D01*
X0215801Y0116454D01*
X0211880Y0112533D01*
X0210943Y0111596D01*
X0210943Y0097395D01*
X0209859Y0097395D01*
X0209215Y0096751D01*
X0209303Y0096839D02*
X0207783Y0096839D01*
X0210943Y0099835D02*
X0203344Y0099835D01*
X0203344Y0100833D02*
X0210943Y0100833D01*
X0210943Y0101832D02*
X0203344Y0101832D01*
X0203344Y0102830D02*
X0210943Y0102830D01*
X0210943Y0103829D02*
X0203344Y0103829D01*
X0203344Y0104827D02*
X0210943Y0104827D01*
X0210943Y0105826D02*
X0203344Y0105826D01*
X0203310Y0106824D02*
X0210943Y0106824D01*
X0210943Y0107823D02*
X0192643Y0107823D01*
X0192643Y0108821D02*
X0210943Y0108821D01*
X0210943Y0109820D02*
X0192643Y0109820D01*
X0192456Y0110818D02*
X0210943Y0110818D01*
X0211164Y0111817D02*
X0191457Y0111817D01*
X0190459Y0112815D02*
X0212163Y0112815D01*
X0212543Y0110933D02*
X0212543Y0094067D01*
X0212677Y0093933D01*
X0217543Y0093933D01*
X0219927Y0094842D02*
X0221464Y0094842D01*
X0221464Y0093844D02*
X0220093Y0093844D01*
X0219853Y0092845D02*
X0221464Y0092845D01*
X0221464Y0091847D02*
X0219063Y0091847D01*
X0221464Y0090848D02*
X0215872Y0090848D01*
X0221464Y0089850D02*
X0185854Y0089850D01*
X0186093Y0090848D02*
X0201214Y0090848D01*
X0200947Y0091847D02*
X0186719Y0091847D01*
X0186883Y0092845D02*
X0197368Y0092845D01*
X0196370Y0093844D02*
X0188942Y0093844D01*
X0188942Y0094842D02*
X0195371Y0094842D01*
X0194373Y0095841D02*
X0188942Y0095841D01*
X0188942Y0096839D02*
X0193374Y0096839D01*
X0192376Y0097838D02*
X0188942Y0097838D01*
X0188942Y0098836D02*
X0191377Y0098836D01*
X0190379Y0099835D02*
X0188942Y0099835D01*
X0189380Y0100833D02*
X0188450Y0100833D01*
X0189543Y0102933D02*
X0198543Y0093933D01*
X0198041Y0088433D02*
X0196443Y0088433D01*
X0196443Y0085083D01*
X0199343Y0085083D01*
X0199343Y0087131D01*
X0199241Y0087512D01*
X0199043Y0087854D01*
X0198764Y0088133D01*
X0198422Y0088331D01*
X0198041Y0088433D01*
X0199044Y0087853D02*
X0221464Y0087853D01*
X0221464Y0088851D02*
X0185067Y0088851D01*
X0185643Y0087853D02*
X0186443Y0087853D01*
X0186443Y0086854D02*
X0185643Y0086854D01*
X0185643Y0085856D02*
X0186443Y0085856D01*
X0186443Y0083859D02*
X0185643Y0083859D01*
X0185643Y0082860D02*
X0186443Y0082860D01*
X0186443Y0081862D02*
X0185643Y0081862D01*
X0187212Y0079865D02*
X0162997Y0079865D01*
X0160469Y0081862D02*
X0159243Y0081862D01*
X0159343Y0082860D02*
X0161144Y0082860D01*
X0161144Y0083859D02*
X0159343Y0083859D01*
X0159343Y0085083D02*
X0159343Y0087131D01*
X0159241Y0087512D01*
X0159043Y0087854D01*
X0158764Y0088133D01*
X0158422Y0088331D01*
X0158041Y0088433D01*
X0156443Y0088433D01*
X0156443Y0085083D01*
X0159343Y0085083D01*
X0159343Y0085856D02*
X0161144Y0085856D01*
X0161144Y0086854D02*
X0159343Y0086854D01*
X0159044Y0087853D02*
X0161655Y0087853D01*
X0161144Y0084857D02*
X0156443Y0084857D01*
X0156443Y0083859D02*
X0155643Y0083859D01*
X0155643Y0082860D02*
X0156443Y0082860D01*
X0156443Y0081862D02*
X0155643Y0081862D01*
X0152643Y0080863D02*
X0159470Y0080863D01*
X0158472Y0079865D02*
X0151737Y0079865D01*
X0150739Y0078866D02*
X0157473Y0078866D01*
X0156475Y0077868D02*
X0149740Y0077868D01*
X0148742Y0076869D02*
X0155476Y0076869D01*
X0154478Y0075871D02*
X0147743Y0075871D01*
X0146745Y0074872D02*
X0153479Y0074872D01*
X0152481Y0073874D02*
X0145746Y0073874D01*
X0144543Y0074933D02*
X0132283Y0074933D01*
X0135942Y0076869D02*
X0144216Y0076869D01*
X0145215Y0077868D02*
X0135942Y0077868D01*
X0135418Y0078866D02*
X0146213Y0078866D01*
X0146443Y0081862D02*
X0145643Y0081862D01*
X0145643Y0082860D02*
X0146443Y0082860D01*
X0146443Y0083859D02*
X0145643Y0083859D01*
X0145643Y0085856D02*
X0146443Y0085856D01*
X0146443Y0086854D02*
X0145643Y0086854D01*
X0145643Y0087853D02*
X0146443Y0087853D01*
X0151043Y0084683D02*
X0151043Y0081433D01*
X0144543Y0074933D01*
X0150484Y0071877D02*
X0135942Y0071877D01*
X0135942Y0072875D02*
X0151482Y0072875D01*
X0150803Y0069933D02*
X0164803Y0083933D01*
X0168462Y0083859D02*
X0168624Y0083859D01*
X0168624Y0084857D02*
X0168462Y0084857D01*
X0168462Y0085856D02*
X0168624Y0085856D01*
X0168624Y0086854D02*
X0168462Y0086854D01*
X0167951Y0087853D02*
X0169135Y0087853D01*
X0172283Y0083933D02*
X0180293Y0083933D01*
X0181043Y0084683D01*
X0178143Y0085856D02*
X0175942Y0085856D01*
X0175942Y0086854D02*
X0178143Y0086854D01*
X0178607Y0087853D02*
X0175431Y0087853D01*
X0175942Y0081862D02*
X0178259Y0081862D01*
X0175942Y0080863D02*
X0188210Y0080863D01*
X0186213Y0078866D02*
X0175418Y0078866D01*
X0175942Y0077868D02*
X0185215Y0077868D01*
X0184216Y0076869D02*
X0175942Y0076869D01*
X0172283Y0074933D02*
X0184543Y0074933D01*
X0191043Y0081433D01*
X0191043Y0084683D01*
X0192643Y0080863D02*
X0221464Y0080863D01*
X0221464Y0079865D02*
X0191737Y0079865D01*
X0190739Y0078866D02*
X0221464Y0078866D01*
X0221464Y0077868D02*
X0189740Y0077868D01*
X0188742Y0076869D02*
X0221464Y0076869D01*
X0221464Y0075871D02*
X0187743Y0075871D01*
X0186745Y0074872D02*
X0221464Y0074872D01*
X0221464Y0073874D02*
X0185746Y0073874D01*
X0183787Y0066533D02*
X0183543Y0066289D01*
X0183299Y0066533D01*
X0178787Y0066533D01*
X0178143Y0065889D01*
X0178143Y0060477D01*
X0178787Y0059833D01*
X0179443Y0059833D01*
X0179443Y0055770D01*
X0179513Y0055701D01*
X0179443Y0055631D01*
X0179443Y0052235D01*
X0181845Y0049833D01*
X0185241Y0049833D01*
X0186943Y0051535D01*
X0186943Y0049596D01*
X0185311Y0047964D01*
X0185241Y0048033D01*
X0181845Y0048033D01*
X0179443Y0045631D01*
X0179443Y0042235D01*
X0181845Y0039833D01*
X0185241Y0039833D01*
X0187643Y0042235D01*
X0187643Y0045631D01*
X0187574Y0045701D01*
X0190143Y0048270D01*
X0190143Y0051535D01*
X0191845Y0049833D01*
X0195241Y0049833D01*
X0196943Y0051535D01*
X0196943Y0049596D01*
X0195311Y0047964D01*
X0195241Y0048033D01*
X0191845Y0048033D01*
X0189443Y0045631D01*
X0189443Y0042235D01*
X0191845Y0039833D01*
X0195241Y0039833D01*
X0197643Y0042235D01*
X0197643Y0045631D01*
X0197574Y0045701D01*
X0200143Y0048270D01*
X0200143Y0051535D01*
X0201845Y0049833D01*
X0205241Y0049833D01*
X0207643Y0052235D01*
X0207643Y0055631D01*
X0205241Y0058033D01*
X0201845Y0058033D01*
X0200143Y0056331D01*
X0200143Y0056596D01*
X0199206Y0057533D01*
X0197643Y0059096D01*
X0197643Y0059833D01*
X0198299Y0059833D01*
X0198943Y0060477D01*
X0198943Y0065889D01*
X0198299Y0066533D01*
X0193787Y0066533D01*
X0193543Y0066289D01*
X0193299Y0066533D01*
X0188787Y0066533D01*
X0188543Y0066289D01*
X0188299Y0066533D01*
X0183787Y0066533D01*
X0186043Y0063183D02*
X0186043Y0058433D01*
X0188543Y0055933D01*
X0188543Y0048933D01*
X0183543Y0043933D01*
X0179443Y0043918D02*
X0177643Y0043918D01*
X0177643Y0042920D02*
X0179443Y0042920D01*
X0179757Y0041921D02*
X0177329Y0041921D01*
X0177643Y0042235D02*
X0175241Y0039833D01*
X0171845Y0039833D01*
X0169443Y0042235D01*
X0169443Y0045631D01*
X0171845Y0048033D01*
X0175241Y0048033D01*
X0177643Y0045631D01*
X0177643Y0042235D01*
X0176331Y0040923D02*
X0180755Y0040923D01*
X0181754Y0039924D02*
X0175332Y0039924D01*
X0171754Y0039924D02*
X0165332Y0039924D01*
X0165241Y0039833D02*
X0167643Y0042235D01*
X0167643Y0045631D01*
X0165241Y0048033D01*
X0161845Y0048033D01*
X0159443Y0045631D01*
X0159443Y0042235D01*
X0161845Y0039833D01*
X0165241Y0039833D01*
X0166331Y0040923D02*
X0170755Y0040923D01*
X0169757Y0041921D02*
X0167329Y0041921D01*
X0167643Y0042920D02*
X0169443Y0042920D01*
X0169443Y0043918D02*
X0167643Y0043918D01*
X0167643Y0044917D02*
X0169443Y0044917D01*
X0169727Y0045915D02*
X0167359Y0045915D01*
X0166361Y0046914D02*
X0170725Y0046914D01*
X0171724Y0047912D02*
X0165362Y0047912D01*
X0165318Y0049909D02*
X0171769Y0049909D01*
X0171845Y0049833D02*
X0175241Y0049833D01*
X0177643Y0052235D01*
X0177643Y0055631D01*
X0175241Y0058033D01*
X0171845Y0058033D01*
X0169443Y0055631D01*
X0169443Y0052235D01*
X0171845Y0049833D01*
X0170770Y0050908D02*
X0166316Y0050908D01*
X0167315Y0051906D02*
X0169772Y0051906D01*
X0169443Y0052905D02*
X0167643Y0052905D01*
X0167643Y0053903D02*
X0169443Y0053903D01*
X0169443Y0054902D02*
X0167643Y0054902D01*
X0167374Y0055900D02*
X0169712Y0055900D01*
X0170711Y0056899D02*
X0166376Y0056899D01*
X0165377Y0057897D02*
X0171709Y0057897D01*
X0175377Y0057897D02*
X0179443Y0057897D01*
X0179443Y0056899D02*
X0176376Y0056899D01*
X0177374Y0055900D02*
X0179443Y0055900D01*
X0179443Y0054902D02*
X0177643Y0054902D01*
X0177643Y0053903D02*
X0179443Y0053903D01*
X0179443Y0052905D02*
X0177643Y0052905D01*
X0177315Y0051906D02*
X0179772Y0051906D01*
X0180770Y0050908D02*
X0176316Y0050908D01*
X0175318Y0049909D02*
X0181769Y0049909D01*
X0181724Y0047912D02*
X0175362Y0047912D01*
X0176361Y0046914D02*
X0180725Y0046914D01*
X0179727Y0045915D02*
X0177359Y0045915D01*
X0177643Y0044917D02*
X0179443Y0044917D01*
X0185318Y0049909D02*
X0186943Y0049909D01*
X0186943Y0050908D02*
X0186316Y0050908D01*
X0186258Y0048911D02*
X0160143Y0048911D01*
X0160143Y0049909D02*
X0161769Y0049909D01*
X0160770Y0050908D02*
X0160143Y0050908D01*
X0158543Y0048933D02*
X0153543Y0043933D01*
X0157643Y0043918D02*
X0159443Y0043918D01*
X0159443Y0042920D02*
X0157643Y0042920D01*
X0157329Y0041921D02*
X0159757Y0041921D01*
X0160755Y0040923D02*
X0156331Y0040923D01*
X0155332Y0039924D02*
X0161754Y0039924D01*
X0159443Y0044917D02*
X0157643Y0044917D01*
X0157788Y0045915D02*
X0159727Y0045915D01*
X0158786Y0046914D02*
X0160725Y0046914D01*
X0159785Y0047912D02*
X0161724Y0047912D01*
X0158543Y0048933D02*
X0158543Y0055933D01*
X0156043Y0058433D01*
X0156043Y0063183D01*
X0158943Y0062890D02*
X0178143Y0062890D01*
X0178143Y0063888D02*
X0158943Y0063888D01*
X0158943Y0064887D02*
X0178143Y0064887D01*
X0178143Y0065885D02*
X0158943Y0065885D01*
X0159017Y0066884D02*
X0221464Y0066884D01*
X0221464Y0067882D02*
X0160015Y0067882D01*
X0161014Y0068881D02*
X0221464Y0068881D01*
X0221464Y0069879D02*
X0162012Y0069879D01*
X0163011Y0070878D02*
X0221464Y0070878D01*
X0221464Y0071877D02*
X0175942Y0071877D01*
X0175942Y0072875D02*
X0221464Y0072875D01*
X0221464Y0065885D02*
X0198943Y0065885D01*
X0198943Y0064887D02*
X0221464Y0064887D01*
X0221464Y0063888D02*
X0198943Y0063888D01*
X0198943Y0062890D02*
X0221464Y0062890D01*
X0221464Y0061891D02*
X0198943Y0061891D01*
X0198943Y0060893D02*
X0221464Y0060893D01*
X0221464Y0059894D02*
X0198360Y0059894D01*
X0197843Y0058896D02*
X0221464Y0058896D01*
X0221464Y0057897D02*
X0215377Y0057897D01*
X0215241Y0058033D02*
X0211845Y0058033D01*
X0209443Y0055631D01*
X0209443Y0052235D01*
X0211845Y0049833D01*
X0215241Y0049833D01*
X0217643Y0052235D01*
X0217643Y0055631D01*
X0215241Y0058033D01*
X0216376Y0056899D02*
X0221464Y0056899D01*
X0221464Y0055900D02*
X0217374Y0055900D01*
X0217643Y0054902D02*
X0221464Y0054902D01*
X0221464Y0053903D02*
X0217643Y0053903D01*
X0217643Y0052905D02*
X0221464Y0052905D01*
X0221464Y0051906D02*
X0217315Y0051906D01*
X0216316Y0050908D02*
X0221464Y0050908D01*
X0221464Y0049909D02*
X0215318Y0049909D01*
X0215241Y0048033D02*
X0211845Y0048033D01*
X0209443Y0045631D01*
X0209443Y0042235D01*
X0211845Y0039833D01*
X0215241Y0039833D01*
X0217643Y0042235D01*
X0217643Y0045631D01*
X0215241Y0048033D01*
X0215362Y0047912D02*
X0221464Y0047912D01*
X0221464Y0046914D02*
X0216361Y0046914D01*
X0217359Y0045915D02*
X0221464Y0045915D01*
X0221464Y0044917D02*
X0217643Y0044917D01*
X0217643Y0043918D02*
X0221464Y0043918D01*
X0221464Y0042920D02*
X0217643Y0042920D01*
X0217329Y0041921D02*
X0221464Y0041921D01*
X0221464Y0040923D02*
X0216331Y0040923D01*
X0215332Y0039924D02*
X0221464Y0039924D01*
X0221464Y0038926D02*
X0137646Y0038926D01*
X0137408Y0038351D02*
X0138102Y0040026D01*
X0138102Y0041840D01*
X0137408Y0043516D01*
X0136126Y0044798D01*
X0134450Y0045492D01*
X0132636Y0045492D01*
X0130961Y0044798D01*
X0129678Y0043516D01*
X0128984Y0041840D01*
X0128984Y0040026D01*
X0129678Y0038351D01*
X0130961Y0037068D01*
X0132636Y0036374D01*
X0134450Y0036374D01*
X0136126Y0037068D01*
X0137408Y0038351D01*
X0136985Y0037927D02*
X0221464Y0037927D01*
X0221464Y0036929D02*
X0135789Y0036929D01*
X0131297Y0036929D02*
X0100789Y0036929D01*
X0101985Y0037927D02*
X0130102Y0037927D01*
X0129440Y0038926D02*
X0102646Y0038926D01*
X0103060Y0039924D02*
X0129026Y0039924D01*
X0128984Y0040923D02*
X0103102Y0040923D01*
X0096297Y0036929D02*
X0010543Y0036929D01*
X0010543Y0037927D02*
X0095102Y0037927D01*
X0102342Y0050213D02*
X0102342Y0055134D01*
X0087543Y0069933D01*
X0083624Y0071877D02*
X0083462Y0071877D01*
X0083462Y0072875D02*
X0083624Y0072875D01*
X0083624Y0073874D02*
X0083462Y0073874D01*
X0083462Y0074872D02*
X0083624Y0074872D01*
X0083624Y0075871D02*
X0083462Y0075871D01*
X0083462Y0076869D02*
X0083624Y0076869D01*
X0083624Y0077868D02*
X0083462Y0077868D01*
X0082937Y0078866D02*
X0084149Y0078866D01*
X0083624Y0080863D02*
X0083462Y0080863D01*
X0083462Y0081862D02*
X0083624Y0081862D01*
X0083624Y0082860D02*
X0083462Y0082860D01*
X0077997Y0079865D02*
X0089089Y0079865D01*
X0087283Y0074933D02*
X0092543Y0074933D01*
X0094543Y0072933D01*
X0094543Y0068933D01*
X0097543Y0065933D01*
X0104543Y0065933D01*
X0110019Y0060457D01*
X0110019Y0050213D01*
X0107460Y0050213D02*
X0107460Y0059016D01*
X0103543Y0062933D01*
X0103543Y0058933D02*
X0104901Y0057575D01*
X0104901Y0050213D01*
X0119584Y0048911D02*
X0146258Y0048911D01*
X0146943Y0049909D02*
X0145318Y0049909D01*
X0146316Y0050908D02*
X0146943Y0050908D01*
X0148543Y0048933D02*
X0143543Y0043933D01*
X0139443Y0043918D02*
X0137005Y0043918D01*
X0137655Y0042920D02*
X0139443Y0042920D01*
X0139757Y0041921D02*
X0138068Y0041921D01*
X0138102Y0040923D02*
X0140755Y0040923D01*
X0141754Y0039924D02*
X0138060Y0039924D01*
X0139443Y0044917D02*
X0135839Y0044917D01*
X0131247Y0044917D02*
X0119896Y0044917D01*
X0120093Y0043918D02*
X0130081Y0043918D01*
X0129431Y0042920D02*
X0119883Y0042920D01*
X0119137Y0041921D02*
X0129018Y0041921D01*
X0119297Y0045915D02*
X0139727Y0045915D01*
X0140725Y0046914D02*
X0119584Y0046914D01*
X0119584Y0047912D02*
X0141724Y0047912D01*
X0143543Y0053933D02*
X0141043Y0056433D01*
X0141043Y0063183D01*
X0138143Y0062890D02*
X0135763Y0062890D01*
X0136761Y0063888D02*
X0138143Y0063888D01*
X0138143Y0064887D02*
X0137760Y0064887D01*
X0138143Y0061891D02*
X0134764Y0061891D01*
X0133766Y0060893D02*
X0138143Y0060893D01*
X0138726Y0059894D02*
X0132767Y0059894D01*
X0131769Y0058896D02*
X0139443Y0058896D01*
X0139443Y0057897D02*
X0131093Y0057897D01*
X0130875Y0056899D02*
X0139443Y0056899D01*
X0139443Y0055900D02*
X0130117Y0055900D01*
X0128543Y0057933D02*
X0138543Y0067933D01*
X0157803Y0067933D01*
X0164803Y0074933D01*
X0168462Y0074872D02*
X0168624Y0074872D01*
X0168624Y0073874D02*
X0168462Y0073874D01*
X0168462Y0072875D02*
X0168624Y0072875D01*
X0168624Y0071877D02*
X0168462Y0071877D01*
X0168462Y0075871D02*
X0168624Y0075871D01*
X0168624Y0076869D02*
X0168462Y0076869D01*
X0168462Y0077868D02*
X0168624Y0077868D01*
X0169149Y0078866D02*
X0167937Y0078866D01*
X0168462Y0080863D02*
X0168624Y0080863D01*
X0168624Y0081862D02*
X0168462Y0081862D01*
X0168462Y0082860D02*
X0168624Y0082860D01*
X0162986Y0090848D02*
X0158100Y0090848D01*
X0158100Y0091847D02*
X0162986Y0091847D01*
X0162986Y0092845D02*
X0158100Y0092845D01*
X0158100Y0093844D02*
X0162986Y0093844D01*
X0162986Y0094842D02*
X0158100Y0094842D01*
X0158100Y0095841D02*
X0162986Y0095841D01*
X0164468Y0096839D02*
X0174144Y0096839D01*
X0174144Y0095841D02*
X0172667Y0095841D01*
X0172667Y0094842D02*
X0174144Y0094842D01*
X0174144Y0093844D02*
X0172667Y0093844D01*
X0172667Y0092845D02*
X0181849Y0092845D01*
X0181624Y0093844D02*
X0181462Y0093844D01*
X0181462Y0094842D02*
X0181624Y0094842D01*
X0181624Y0095841D02*
X0181462Y0095841D01*
X0181462Y0096839D02*
X0181624Y0096839D01*
X0181624Y0097838D02*
X0181462Y0097838D01*
X0181462Y0098836D02*
X0181624Y0098836D01*
X0181624Y0099835D02*
X0181462Y0099835D01*
X0180970Y0100833D02*
X0182116Y0100833D01*
X0185283Y0096933D02*
X0185283Y0092673D01*
X0183543Y0090933D01*
X0177803Y0096933D02*
X0176803Y0096933D01*
X0171275Y0102461D01*
X0167827Y0102461D01*
X0163299Y0097933D01*
X0148667Y0097933D01*
X0144567Y0102033D01*
X0146767Y0102830D02*
X0148419Y0102830D01*
X0148419Y0101832D02*
X0147031Y0101832D01*
X0148029Y0100833D02*
X0148419Y0100833D01*
X0148419Y0103829D02*
X0146767Y0103829D01*
X0146767Y0104827D02*
X0148419Y0104827D01*
X0147371Y0105826D02*
X0140128Y0105826D01*
X0138317Y0105826D02*
X0138217Y0105826D01*
X0138217Y0104827D02*
X0138317Y0104827D01*
X0138317Y0103829D02*
X0138217Y0103829D01*
X0138217Y0102830D02*
X0138317Y0102830D01*
X0138317Y0101983D02*
X0138317Y0098033D01*
X0139565Y0098033D01*
X0139946Y0098135D01*
X0140030Y0098183D01*
X0140228Y0097986D01*
X0136718Y0097986D01*
X0136718Y0098101D01*
X0136970Y0098033D01*
X0138217Y0098033D01*
X0138217Y0101983D01*
X0138317Y0101983D01*
X0138317Y0101832D02*
X0138217Y0101832D01*
X0138217Y0100833D02*
X0138317Y0100833D01*
X0138317Y0099835D02*
X0138217Y0099835D01*
X0138217Y0098836D02*
X0138317Y0098836D01*
X0141417Y0099059D02*
X0141417Y0102033D01*
X0141417Y0099059D02*
X0142543Y0097933D01*
X0142543Y0096673D01*
X0145283Y0093933D01*
X0152732Y0093933D01*
X0153260Y0093406D01*
X0155643Y0087853D02*
X0156443Y0087853D01*
X0156443Y0086854D02*
X0155643Y0086854D01*
X0155643Y0085856D02*
X0156443Y0085856D01*
X0165466Y0097838D02*
X0173635Y0097838D01*
X0172637Y0098836D02*
X0166465Y0098836D01*
X0162938Y0099835D02*
X0158095Y0099835D01*
X0158100Y0100833D02*
X0162986Y0100833D01*
X0162986Y0101832D02*
X0158100Y0101832D01*
X0158100Y0102830D02*
X0162986Y0102830D01*
X0162986Y0103829D02*
X0158100Y0103829D01*
X0158100Y0104827D02*
X0162986Y0104827D01*
X0164844Y0106824D02*
X0160844Y0106824D01*
X0161093Y0107823D02*
X0164490Y0107823D01*
X0164490Y0108821D02*
X0160935Y0108821D01*
X0160262Y0109820D02*
X0164490Y0109820D01*
X0164490Y0110818D02*
X0154043Y0110818D01*
X0154043Y0109820D02*
X0156824Y0109820D01*
X0156151Y0108821D02*
X0154043Y0108821D01*
X0154043Y0107823D02*
X0155993Y0107823D01*
X0155361Y0106824D02*
X0154043Y0106824D01*
X0154362Y0105826D02*
X0153515Y0105826D01*
X0153260Y0102461D02*
X0158543Y0107744D01*
X0158543Y0107933D01*
X0160042Y0105826D02*
X0170647Y0105826D01*
X0173176Y0107823D02*
X0174043Y0107823D01*
X0174174Y0106824D02*
X0174288Y0106824D01*
X0175173Y0105826D02*
X0175286Y0105826D01*
X0176171Y0104827D02*
X0176285Y0104827D01*
X0175803Y0102933D02*
X0189543Y0102933D01*
X0191234Y0105826D02*
X0196026Y0105826D01*
X0196060Y0106824D02*
X0192233Y0106824D01*
X0188543Y0108933D02*
X0183543Y0113933D01*
X0182398Y0112815D02*
X0181025Y0112815D01*
X0181943Y0113814D02*
X0171989Y0113814D01*
X0172596Y0114812D02*
X0181943Y0114812D01*
X0181943Y0115811D02*
X0181219Y0115811D01*
X0179043Y0112815D02*
X0178043Y0112815D01*
X0178043Y0111817D02*
X0179043Y0111817D01*
X0179043Y0110818D02*
X0178043Y0110818D01*
X0182023Y0111817D02*
X0183396Y0111817D01*
X0183022Y0110818D02*
X0184395Y0110818D01*
X0184443Y0109820D02*
X0183043Y0109820D01*
X0175803Y0102933D02*
X0168543Y0110193D01*
X0164490Y0111817D02*
X0154043Y0111817D01*
X0154043Y0112815D02*
X0164490Y0112815D01*
X0165097Y0113814D02*
X0154043Y0113814D01*
X0154043Y0114812D02*
X0164490Y0114812D01*
X0164490Y0119805D02*
X0162021Y0119805D01*
X0162835Y0120804D02*
X0164606Y0120804D01*
X0158803Y0123799D02*
X0157672Y0123799D01*
X0158142Y0122801D02*
X0156673Y0122801D01*
X0155267Y0123657D02*
X0160543Y0128933D01*
X0162948Y0129790D02*
X0165423Y0129790D01*
X0166422Y0128792D02*
X0163093Y0128792D01*
X0162831Y0127793D02*
X0167420Y0127793D01*
X0168419Y0126795D02*
X0162011Y0126795D01*
X0159669Y0125796D02*
X0169417Y0125796D01*
X0170416Y0124798D02*
X0158670Y0124798D01*
X0155267Y0123657D02*
X0150443Y0123657D01*
X0146843Y0115811D02*
X0139271Y0115811D01*
X0139939Y0114812D02*
X0146843Y0114812D01*
X0146843Y0113814D02*
X0140093Y0113814D01*
X0139840Y0112815D02*
X0146843Y0112815D01*
X0146843Y0111817D02*
X0139033Y0111817D01*
X0136718Y0110818D02*
X0146843Y0110818D01*
X0146843Y0109820D02*
X0136718Y0109820D01*
X0136718Y0108821D02*
X0146843Y0108821D01*
X0146843Y0107823D02*
X0136718Y0107823D01*
X0136718Y0106824D02*
X0146843Y0106824D01*
X0135118Y0096618D02*
X0137803Y0093933D01*
X0138543Y0093193D01*
X0141462Y0092845D02*
X0141624Y0092845D01*
X0141624Y0091847D02*
X0141462Y0091847D01*
X0141462Y0090848D02*
X0141624Y0090848D01*
X0141624Y0093844D02*
X0141462Y0093844D01*
X0141462Y0094842D02*
X0141624Y0094842D01*
X0138607Y0087853D02*
X0135431Y0087853D01*
X0135942Y0086854D02*
X0138143Y0086854D01*
X0138143Y0085856D02*
X0135942Y0085856D01*
X0140293Y0083933D02*
X0141043Y0084683D01*
X0136543Y0069933D02*
X0128543Y0061933D01*
X0136543Y0069933D02*
X0150803Y0069933D01*
X0151043Y0063183D02*
X0151043Y0056433D01*
X0153543Y0053933D01*
X0150770Y0050908D02*
X0150143Y0050908D01*
X0150143Y0049909D02*
X0151769Y0049909D01*
X0150143Y0048911D02*
X0156258Y0048911D01*
X0156943Y0049909D02*
X0155318Y0049909D01*
X0156316Y0050908D02*
X0156943Y0050908D01*
X0151724Y0047912D02*
X0149785Y0047912D01*
X0150725Y0046914D02*
X0148786Y0046914D01*
X0149727Y0045915D02*
X0147788Y0045915D01*
X0147643Y0044917D02*
X0149443Y0044917D01*
X0149443Y0043918D02*
X0147643Y0043918D01*
X0147643Y0042920D02*
X0149443Y0042920D01*
X0149757Y0041921D02*
X0147329Y0041921D01*
X0146331Y0040923D02*
X0150755Y0040923D01*
X0151754Y0039924D02*
X0145332Y0039924D01*
X0148543Y0048933D02*
X0148543Y0055933D01*
X0146043Y0058433D01*
X0146043Y0063183D01*
X0157843Y0058896D02*
X0179443Y0058896D01*
X0178726Y0059894D02*
X0158360Y0059894D01*
X0158943Y0060893D02*
X0178143Y0060893D01*
X0178143Y0061891D02*
X0158943Y0061891D01*
X0158842Y0057897D02*
X0161709Y0057897D01*
X0160711Y0056899D02*
X0159840Y0056899D01*
X0181043Y0056433D02*
X0183543Y0053933D01*
X0181043Y0056433D02*
X0181043Y0063183D01*
X0191043Y0063183D02*
X0191043Y0056433D01*
X0193543Y0053933D01*
X0190770Y0050908D02*
X0190143Y0050908D01*
X0190143Y0049909D02*
X0191769Y0049909D01*
X0190143Y0048911D02*
X0196258Y0048911D01*
X0196943Y0049909D02*
X0195318Y0049909D01*
X0196316Y0050908D02*
X0196943Y0050908D01*
X0198543Y0048933D02*
X0193543Y0043933D01*
X0197643Y0043918D02*
X0199443Y0043918D01*
X0199443Y0042920D02*
X0197643Y0042920D01*
X0197329Y0041921D02*
X0199757Y0041921D01*
X0199443Y0042235D02*
X0201845Y0039833D01*
X0205241Y0039833D01*
X0207643Y0042235D01*
X0207643Y0045631D01*
X0205241Y0048033D01*
X0201845Y0048033D01*
X0199443Y0045631D01*
X0199443Y0042235D01*
X0200755Y0040923D02*
X0196331Y0040923D01*
X0195332Y0039924D02*
X0201754Y0039924D01*
X0205332Y0039924D02*
X0211754Y0039924D01*
X0210755Y0040923D02*
X0206331Y0040923D01*
X0207329Y0041921D02*
X0209757Y0041921D01*
X0209443Y0042920D02*
X0207643Y0042920D01*
X0207643Y0043918D02*
X0209443Y0043918D01*
X0209443Y0044917D02*
X0207643Y0044917D01*
X0207359Y0045915D02*
X0209727Y0045915D01*
X0210725Y0046914D02*
X0206361Y0046914D01*
X0205362Y0047912D02*
X0211724Y0047912D01*
X0211769Y0049909D02*
X0205318Y0049909D01*
X0206316Y0050908D02*
X0210770Y0050908D01*
X0209772Y0051906D02*
X0207315Y0051906D01*
X0207643Y0052905D02*
X0209443Y0052905D01*
X0209443Y0053903D02*
X0207643Y0053903D01*
X0207643Y0054902D02*
X0209443Y0054902D01*
X0209712Y0055900D02*
X0207374Y0055900D01*
X0206376Y0056899D02*
X0210711Y0056899D01*
X0211709Y0057897D02*
X0205377Y0057897D01*
X0201709Y0057897D02*
X0198842Y0057897D01*
X0199840Y0056899D02*
X0200711Y0056899D01*
X0198543Y0055933D02*
X0198543Y0048933D01*
X0200143Y0048911D02*
X0221464Y0048911D01*
X0201769Y0049909D02*
X0200143Y0049909D01*
X0200143Y0050908D02*
X0200770Y0050908D01*
X0201724Y0047912D02*
X0199785Y0047912D01*
X0200725Y0046914D02*
X0198786Y0046914D01*
X0199727Y0045915D02*
X0197788Y0045915D01*
X0197643Y0044917D02*
X0199443Y0044917D01*
X0191724Y0047912D02*
X0189785Y0047912D01*
X0190725Y0046914D02*
X0188786Y0046914D01*
X0189727Y0045915D02*
X0187788Y0045915D01*
X0187643Y0044917D02*
X0189443Y0044917D01*
X0189443Y0043918D02*
X0187643Y0043918D01*
X0187643Y0042920D02*
X0189443Y0042920D01*
X0189757Y0041921D02*
X0187329Y0041921D01*
X0186331Y0040923D02*
X0190755Y0040923D01*
X0191754Y0039924D02*
X0185332Y0039924D01*
X0198543Y0055933D02*
X0196043Y0058433D01*
X0196043Y0063183D01*
X0195643Y0081862D02*
X0196443Y0081862D01*
X0196443Y0082860D02*
X0195643Y0082860D01*
X0195643Y0083859D02*
X0196443Y0083859D01*
X0196443Y0084857D02*
X0221464Y0084857D01*
X0221464Y0083859D02*
X0199343Y0083859D01*
X0199343Y0082860D02*
X0221464Y0082860D01*
X0221464Y0081862D02*
X0199243Y0081862D01*
X0199343Y0085856D02*
X0221464Y0085856D01*
X0221464Y0086854D02*
X0199343Y0086854D01*
X0196443Y0086854D02*
X0195643Y0086854D01*
X0195643Y0085856D02*
X0196443Y0085856D01*
X0196443Y0087853D02*
X0195643Y0087853D01*
X0207604Y0090848D02*
X0209482Y0090848D01*
X0209215Y0091847D02*
X0207871Y0091847D01*
X0207871Y0092845D02*
X0209215Y0092845D01*
X0214143Y0097838D02*
X0221464Y0097838D01*
X0221464Y0098836D02*
X0214143Y0098836D01*
X0216051Y0096839D02*
X0221464Y0096839D01*
X0221464Y0095841D02*
X0219242Y0095841D01*
X0221060Y0099835D02*
X0221464Y0099835D01*
X0221464Y0100833D02*
X0221060Y0100833D01*
X0221060Y0101832D02*
X0221464Y0101832D01*
X0221464Y0102830D02*
X0221060Y0102830D01*
X0221060Y0103829D02*
X0221464Y0103829D01*
X0221464Y0104827D02*
X0221060Y0104827D01*
X0221060Y0105826D02*
X0221464Y0105826D01*
X0221464Y0106824D02*
X0221026Y0106824D01*
X0221464Y0107823D02*
X0214143Y0107823D01*
X0214143Y0108821D02*
X0221464Y0108821D01*
X0221464Y0109820D02*
X0214143Y0109820D01*
X0214691Y0110818D02*
X0221464Y0110818D01*
X0221464Y0111817D02*
X0215690Y0111817D01*
X0216688Y0112815D02*
X0221464Y0112815D01*
X0221464Y0113814D02*
X0217687Y0113814D01*
X0218685Y0114812D02*
X0221464Y0114812D01*
X0221464Y0115811D02*
X0219001Y0115811D01*
X0219001Y0116810D02*
X0221464Y0116810D01*
X0221464Y0117808D02*
X0219001Y0117808D01*
X0219001Y0118807D02*
X0221464Y0118807D01*
X0221464Y0119805D02*
X0219001Y0119805D01*
X0219001Y0120804D02*
X0221464Y0120804D01*
X0221464Y0121802D02*
X0219001Y0121802D01*
X0219001Y0122801D02*
X0221464Y0122801D01*
X0221464Y0123799D02*
X0219001Y0123799D01*
X0219001Y0124798D02*
X0221464Y0124798D01*
X0221464Y0125796D02*
X0219001Y0125796D01*
X0219001Y0126795D02*
X0221464Y0126795D01*
X0221464Y0127793D02*
X0219001Y0127793D01*
X0219001Y0128792D02*
X0221464Y0128792D01*
X0221464Y0129790D02*
X0219001Y0129790D01*
X0220773Y0130789D02*
X0221464Y0130789D01*
X0221464Y0131787D02*
X0221060Y0131787D01*
X0221060Y0132786D02*
X0221464Y0132786D01*
X0221464Y0133784D02*
X0221060Y0133784D01*
X0221060Y0134783D02*
X0221464Y0134783D01*
X0221464Y0135781D02*
X0221060Y0135781D01*
X0221060Y0136780D02*
X0221464Y0136780D01*
X0221464Y0137778D02*
X0221060Y0137778D01*
X0221464Y0138777D02*
X0210758Y0138777D01*
X0211340Y0139775D02*
X0221464Y0139775D01*
X0221464Y0140774D02*
X0211342Y0140774D01*
X0211342Y0141772D02*
X0221464Y0141772D01*
X0217401Y0134583D02*
X0217401Y0115791D01*
X0212543Y0110933D01*
X0215158Y0115811D02*
X0191219Y0115811D01*
X0192218Y0116810D02*
X0215801Y0116810D01*
X0215801Y0117808D02*
X0192643Y0117808D01*
X0192643Y0118807D02*
X0215801Y0118807D01*
X0215801Y0119805D02*
X0192643Y0119805D01*
X0192471Y0120804D02*
X0215801Y0120804D01*
X0215801Y0121802D02*
X0191472Y0121802D01*
X0190474Y0122801D02*
X0215801Y0122801D01*
X0215801Y0123799D02*
X0187940Y0123799D01*
X0186941Y0124798D02*
X0215801Y0124798D01*
X0215801Y0125796D02*
X0191204Y0125796D01*
X0192203Y0126795D02*
X0215801Y0126795D01*
X0215801Y0127793D02*
X0192643Y0127793D01*
X0192643Y0128792D02*
X0215801Y0128792D01*
X0215801Y0129790D02*
X0192643Y0129790D01*
X0192661Y0130789D02*
X0196313Y0130789D01*
X0196026Y0131787D02*
X0193660Y0131787D01*
X0194658Y0132786D02*
X0196026Y0132786D01*
X0194193Y0134583D02*
X0199685Y0134583D01*
X0199685Y0142815D01*
X0199803Y0142933D01*
X0196144Y0142771D02*
X0191312Y0142771D01*
X0191956Y0141772D02*
X0196144Y0141772D01*
X0196144Y0140774D02*
X0192093Y0140774D01*
X0191824Y0139775D02*
X0196144Y0139775D01*
X0196026Y0137778D02*
X0186942Y0137778D01*
X0186942Y0138777D02*
X0188093Y0138777D01*
X0189543Y0140933D02*
X0183283Y0140933D01*
X0179624Y0140774D02*
X0179462Y0140774D01*
X0179462Y0141772D02*
X0179624Y0141772D01*
X0179624Y0142771D02*
X0179462Y0142771D01*
X0179462Y0143769D02*
X0179624Y0143769D01*
X0180051Y0144768D02*
X0179036Y0144768D01*
X0178943Y0150759D02*
X0181144Y0150759D01*
X0181144Y0151757D02*
X0178943Y0151757D01*
X0178943Y0152756D02*
X0181144Y0152756D01*
X0181144Y0153754D02*
X0178943Y0153754D01*
X0178943Y0154753D02*
X0181144Y0154753D01*
X0180722Y0155751D02*
X0178943Y0155751D01*
X0179723Y0156750D02*
X0177643Y0156750D01*
X0176990Y0157748D02*
X0178725Y0157748D01*
X0177726Y0158747D02*
X0175992Y0158747D01*
X0176728Y0159745D02*
X0174993Y0159745D01*
X0175729Y0160744D02*
X0173995Y0160744D01*
X0174731Y0161743D02*
X0172996Y0161743D01*
X0173732Y0162741D02*
X0171998Y0162741D01*
X0172734Y0163740D02*
X0170999Y0163740D01*
X0171735Y0164738D02*
X0155942Y0164738D01*
X0155942Y0165737D02*
X0170737Y0165737D01*
X0169543Y0162933D02*
X0152283Y0162933D01*
X0148624Y0163740D02*
X0148462Y0163740D01*
X0148462Y0164738D02*
X0148624Y0164738D01*
X0148624Y0165737D02*
X0148462Y0165737D01*
X0147543Y0169933D02*
X0177803Y0169933D01*
X0184803Y0162933D01*
X0182252Y0158747D02*
X0194834Y0158747D01*
X0196364Y0155751D02*
X0197775Y0155751D01*
X0197743Y0154753D02*
X0195942Y0154753D01*
X0195942Y0153754D02*
X0197743Y0153754D01*
X0197743Y0152756D02*
X0195942Y0152756D01*
X0195942Y0151757D02*
X0197743Y0151757D01*
X0197743Y0150759D02*
X0195942Y0150759D01*
X0200643Y0150759D02*
X0201443Y0150759D01*
X0201443Y0151757D02*
X0200643Y0151757D01*
X0200643Y0152756D02*
X0201443Y0152756D01*
X0201443Y0149760D02*
X0200643Y0149760D01*
X0203039Y0146765D02*
X0203500Y0146765D01*
X0206783Y0141772D02*
X0207783Y0141772D01*
X0207783Y0140774D02*
X0206783Y0140774D01*
X0206783Y0139775D02*
X0207783Y0139775D01*
X0207783Y0138777D02*
X0206783Y0138777D01*
X0203809Y0138777D02*
X0201285Y0138777D01*
X0203344Y0137778D02*
X0213742Y0137778D01*
X0213742Y0136780D02*
X0203344Y0136780D01*
X0203344Y0135781D02*
X0213742Y0135781D01*
X0213742Y0134783D02*
X0203344Y0134783D01*
X0203344Y0133784D02*
X0213742Y0133784D01*
X0213742Y0132786D02*
X0203344Y0132786D01*
X0203344Y0131787D02*
X0213742Y0131787D01*
X0214029Y0130789D02*
X0203057Y0130789D01*
X0196026Y0136780D02*
X0180959Y0136780D01*
X0181958Y0135781D02*
X0193128Y0135781D01*
X0192130Y0134783D02*
X0182956Y0134783D01*
X0183955Y0133784D02*
X0191131Y0133784D01*
X0194193Y0134583D02*
X0188543Y0128933D01*
X0185599Y0131787D02*
X0185143Y0131787D01*
X0184953Y0132786D02*
X0186597Y0132786D01*
X0179624Y0137778D02*
X0179462Y0137778D01*
X0179462Y0138777D02*
X0179624Y0138777D01*
X0179624Y0139775D02*
X0179462Y0139775D01*
X0186942Y0142771D02*
X0187775Y0142771D01*
X0186942Y0143769D02*
X0196144Y0143769D01*
X0198085Y0138777D02*
X0190993Y0138777D01*
X0172144Y0138777D02*
X0169993Y0138777D01*
X0172144Y0137778D02*
X0146767Y0137778D01*
X0146767Y0138777D02*
X0167093Y0138777D01*
X0160046Y0147763D02*
X0159587Y0147763D01*
X0160643Y0149760D02*
X0161443Y0149760D01*
X0161443Y0150759D02*
X0160643Y0150759D01*
X0160643Y0151757D02*
X0161443Y0151757D01*
X0161443Y0152756D02*
X0160643Y0152756D01*
X0163792Y0149760D02*
X0168294Y0149760D01*
X0176043Y0153183D02*
X0176043Y0156433D01*
X0169543Y0162933D01*
X0169469Y0160744D02*
X0155942Y0160744D01*
X0155942Y0159745D02*
X0170468Y0159745D01*
X0171466Y0158747D02*
X0165992Y0158747D01*
X0157775Y0155751D02*
X0156364Y0155751D01*
X0155942Y0154753D02*
X0157743Y0154753D01*
X0154834Y0158747D02*
X0142252Y0158747D01*
X0139543Y0159193D02*
X0144803Y0153933D01*
X0139543Y0159193D02*
X0139543Y0167933D01*
X0137943Y0162741D02*
X0135590Y0162741D01*
X0135590Y0161743D02*
X0137943Y0161743D01*
X0137943Y0160744D02*
X0135501Y0160744D01*
X0130744Y0164425D02*
X0130744Y0149134D01*
X0129543Y0147933D01*
X0131819Y0146765D02*
X0151744Y0146765D01*
X0155303Y0146765D02*
X0156303Y0146765D01*
X0156303Y0147763D02*
X0155303Y0147763D01*
X0155303Y0145766D02*
X0156303Y0145766D01*
X0156303Y0144768D02*
X0155303Y0144768D01*
X0151744Y0142771D02*
X0144968Y0142771D01*
X0145967Y0141772D02*
X0151744Y0141772D01*
X0151746Y0140774D02*
X0146167Y0140774D01*
X0146167Y0139775D02*
X0152331Y0139775D01*
X0142967Y0139775D02*
X0142930Y0139775D01*
X0142440Y0140774D02*
X0132965Y0140774D01*
X0133568Y0139775D02*
X0139904Y0139775D01*
X0141367Y0139775D02*
X0141467Y0139775D01*
X0141467Y0138777D02*
X0141367Y0138777D01*
X0141367Y0137778D02*
X0141467Y0137778D01*
X0141467Y0136780D02*
X0141367Y0136780D01*
X0141367Y0135781D02*
X0141467Y0135781D01*
X0141467Y0134783D02*
X0141367Y0134783D01*
X0141367Y0133784D02*
X0141467Y0133784D01*
X0141467Y0132786D02*
X0141367Y0132786D01*
X0131968Y0131358D02*
X0130543Y0129933D01*
X0128543Y0129933D01*
X0126256Y0128792D02*
X0126093Y0128792D01*
X0125831Y0127793D02*
X0127077Y0127793D01*
X0130009Y0127793D02*
X0133077Y0127793D01*
X0132256Y0128792D02*
X0131664Y0128792D01*
X0131968Y0131358D02*
X0131968Y0135833D01*
X0131967Y0141772D02*
X0140098Y0141772D01*
X0139264Y0142771D02*
X0130968Y0142771D01*
X0129970Y0143769D02*
X0138993Y0143769D01*
X0139129Y0144768D02*
X0128971Y0144768D01*
X0130976Y0145766D02*
X0139770Y0145766D01*
X0123543Y0146933D02*
X0123543Y0140933D01*
X0119543Y0143933D02*
X0119543Y0153933D01*
X0119543Y0156969D01*
X0120508Y0157933D01*
X0120508Y0164425D01*
X0123067Y0164425D02*
X0123067Y0154933D01*
X0123543Y0154457D01*
X0123543Y0146933D01*
X0114943Y0149760D02*
X0107633Y0149760D01*
X0107283Y0151673D02*
X0107283Y0153933D01*
X0107283Y0151673D02*
X0103543Y0147933D01*
X0110942Y0150759D02*
X0114943Y0150759D01*
X0114943Y0151757D02*
X0110942Y0151757D01*
X0110942Y0152756D02*
X0114943Y0152756D01*
X0114943Y0153754D02*
X0110942Y0153754D01*
X0110942Y0154753D02*
X0114943Y0154753D01*
X0114943Y0155751D02*
X0110942Y0155751D01*
X0110942Y0156750D02*
X0114273Y0156750D01*
X0103624Y0163740D02*
X0103462Y0163740D01*
X0103462Y0164738D02*
X0103624Y0164738D01*
X0103624Y0165737D02*
X0103462Y0165737D01*
X0103068Y0166735D02*
X0104018Y0166735D01*
X0105683Y0167734D02*
X0096606Y0167734D01*
X0096537Y0166735D02*
X0095608Y0166735D01*
X0114596Y0135781D02*
X0114943Y0135781D01*
X0114596Y0134783D02*
X0115431Y0134783D01*
X0116429Y0133784D02*
X0114202Y0133784D01*
X0113318Y0131787D02*
X0107952Y0131787D01*
X0108409Y0111059D02*
X0107283Y0107933D01*
X0108409Y0111059D02*
X0116643Y0111059D01*
X0120243Y0106824D02*
X0127219Y0106824D01*
X0127219Y0105826D02*
X0119715Y0105826D01*
X0123543Y0108933D02*
X0124543Y0107933D01*
X0110037Y0100833D02*
X0108342Y0100833D01*
X0108342Y0101832D02*
X0109239Y0101832D01*
X0108993Y0102830D02*
X0108019Y0102830D01*
X0109154Y0103829D02*
X0091962Y0103829D01*
X0091962Y0102830D02*
X0093633Y0102830D01*
X0093144Y0101832D02*
X0091962Y0101832D01*
X0091962Y0100833D02*
X0093144Y0100833D01*
X0093144Y0099835D02*
X0091962Y0099835D01*
X0091962Y0098836D02*
X0093144Y0098836D01*
X0093144Y0097838D02*
X0091466Y0097838D01*
X0092051Y0096839D02*
X0092446Y0096839D01*
X0091803Y0093933D02*
X0088677Y0093933D01*
X0091803Y0093933D02*
X0096803Y0098933D01*
X0099973Y0102830D02*
X0100547Y0102830D01*
X0096144Y0104827D02*
X0091880Y0104827D01*
X0092993Y0089850D02*
X0053353Y0089850D01*
X0056043Y0084683D02*
X0056043Y0081433D01*
X0062543Y0074933D01*
X0079803Y0074933D01*
X0076144Y0076533D02*
X0063206Y0076533D01*
X0058718Y0081021D01*
X0059046Y0080933D01*
X0060643Y0080933D01*
X0060643Y0084283D01*
X0061443Y0084283D01*
X0061443Y0080933D01*
X0063041Y0080933D01*
X0063422Y0081035D01*
X0063764Y0081233D01*
X0063864Y0081333D01*
X0064880Y0081333D01*
X0066943Y0079270D01*
X0067880Y0078333D01*
X0076144Y0078333D01*
X0076144Y0076533D01*
X0076144Y0076869D02*
X0062870Y0076869D01*
X0061871Y0077868D02*
X0076144Y0077868D01*
X0075803Y0079933D02*
X0068543Y0079933D01*
X0066043Y0082433D01*
X0066043Y0084683D01*
X0065350Y0080863D02*
X0058876Y0080863D01*
X0059874Y0079865D02*
X0066349Y0079865D01*
X0067347Y0078866D02*
X0060873Y0078866D01*
X0060643Y0081862D02*
X0061443Y0081862D01*
X0061443Y0082860D02*
X0060643Y0082860D01*
X0060643Y0083859D02*
X0061443Y0083859D01*
X0061443Y0085856D02*
X0060643Y0085856D01*
X0060643Y0086854D02*
X0061443Y0086854D01*
X0061443Y0087853D02*
X0060643Y0087853D01*
X0060942Y0090848D02*
X0061214Y0090848D01*
X0060947Y0091847D02*
X0060942Y0091847D01*
X0045744Y0094842D02*
X0044407Y0094842D01*
X0044407Y0095841D02*
X0045744Y0095841D01*
X0045744Y0096839D02*
X0044407Y0096839D01*
X0050349Y0079865D02*
X0037997Y0079865D01*
X0036144Y0072875D02*
X0010543Y0072875D01*
X0010543Y0071877D02*
X0036144Y0071877D01*
X0031043Y0063183D02*
X0031043Y0059433D01*
X0033543Y0056933D01*
X0033543Y0048933D01*
X0035143Y0049909D02*
X0036769Y0049909D01*
X0035770Y0050908D02*
X0035143Y0050908D01*
X0040318Y0049909D02*
X0046769Y0049909D01*
X0045770Y0050908D02*
X0041316Y0050908D01*
X0042315Y0051906D02*
X0044772Y0051906D01*
X0044443Y0052905D02*
X0042643Y0052905D01*
X0042643Y0053903D02*
X0044443Y0053903D01*
X0044443Y0054902D02*
X0042643Y0054902D01*
X0042374Y0055900D02*
X0044712Y0055900D01*
X0045711Y0056899D02*
X0041376Y0056899D01*
X0040377Y0057897D02*
X0046709Y0057897D01*
X0036709Y0057897D02*
X0034842Y0057897D01*
X0035143Y0056899D02*
X0035711Y0056899D01*
X0028543Y0053933D02*
X0026043Y0056433D01*
X0026043Y0063183D01*
X0021043Y0063183D02*
X0021043Y0058433D01*
X0023543Y0055933D01*
X0023543Y0048933D01*
X0025143Y0049909D02*
X0026769Y0049909D01*
X0025770Y0050908D02*
X0025143Y0050908D01*
X0018543Y0053933D02*
X0016043Y0056433D01*
X0016043Y0063183D01*
X0013143Y0062890D02*
X0010543Y0062890D01*
X0010543Y0063888D02*
X0013143Y0063888D01*
X0013143Y0064887D02*
X0010543Y0064887D01*
X0010543Y0065885D02*
X0013143Y0065885D01*
X0010543Y0068881D02*
X0051073Y0068881D01*
X0050074Y0069879D02*
X0010543Y0069879D01*
X0010543Y0070878D02*
X0049076Y0070878D01*
X0051604Y0072875D02*
X0051943Y0072875D01*
X0051943Y0073874D02*
X0050942Y0073874D01*
X0050942Y0074872D02*
X0051943Y0074872D01*
X0051943Y0075871D02*
X0050942Y0075871D01*
X0050942Y0076869D02*
X0051943Y0076869D01*
X0051943Y0077868D02*
X0050942Y0077868D01*
X0051347Y0078866D02*
X0050418Y0078866D01*
X0014443Y0058896D02*
X0010543Y0058896D01*
X0010543Y0059894D02*
X0013726Y0059894D01*
X0013143Y0060893D02*
X0010543Y0060893D01*
X0010543Y0061891D02*
X0013143Y0061891D01*
X0014443Y0057897D02*
X0010543Y0057897D01*
X0010543Y0056899D02*
X0014443Y0056899D01*
X0014443Y0055900D02*
X0010543Y0055900D01*
X0010543Y0054902D02*
X0014443Y0054902D01*
X0014443Y0053903D02*
X0010543Y0053903D01*
X0010543Y0052905D02*
X0014443Y0052905D01*
X0014772Y0051906D02*
X0010543Y0051906D01*
X0010543Y0050908D02*
X0015770Y0050908D01*
X0020332Y0039924D02*
X0026754Y0039924D01*
X0030332Y0039924D02*
X0036754Y0039924D01*
X0040332Y0039924D02*
X0046754Y0039924D01*
X0045755Y0040923D02*
X0041331Y0040923D01*
X0042329Y0041921D02*
X0044757Y0041921D01*
X0044443Y0042920D02*
X0042643Y0042920D01*
X0042643Y0043918D02*
X0044443Y0043918D01*
X0044443Y0044917D02*
X0042643Y0044917D01*
X0042359Y0045915D02*
X0044727Y0045915D01*
X0045725Y0046914D02*
X0041361Y0046914D01*
X0040362Y0047912D02*
X0046724Y0047912D01*
X0070332Y0039924D02*
X0076754Y0039924D01*
X0173168Y0102830D02*
X0173643Y0102830D01*
X0174167Y0101832D02*
X0174641Y0101832D01*
X0218943Y0150759D02*
X0221464Y0150759D01*
X0221464Y0151757D02*
X0218943Y0151757D01*
X0221464Y0164738D02*
X0195942Y0164738D01*
X0195942Y0165737D02*
X0221464Y0165737D01*
X0221464Y0166735D02*
X0195549Y0166735D01*
X0198393Y0171728D02*
X0178693Y0171728D01*
X0178943Y0172726D02*
X0198143Y0172726D01*
X0198143Y0173725D02*
X0178943Y0173725D01*
X0178943Y0174723D02*
X0198143Y0174723D01*
X0198143Y0175722D02*
X0178943Y0175722D01*
X0178943Y0176720D02*
X0198143Y0176720D01*
X0198473Y0177719D02*
X0178613Y0177719D01*
X0177643Y0178717D02*
X0199443Y0178717D01*
X0198498Y0179716D02*
X0177643Y0179716D01*
X0177643Y0180714D02*
X0180964Y0180714D01*
X0181845Y0179833D02*
X0185241Y0179833D01*
X0187643Y0182235D01*
X0187643Y0185631D01*
X0185241Y0188033D01*
X0181845Y0188033D01*
X0179443Y0185631D01*
X0179443Y0182235D01*
X0181845Y0179833D01*
X0179965Y0181713D02*
X0177643Y0181713D01*
X0177643Y0182711D02*
X0179443Y0182711D01*
X0179443Y0183710D02*
X0177643Y0183710D01*
X0177643Y0184708D02*
X0179443Y0184708D01*
X0179519Y0185707D02*
X0177568Y0185707D01*
X0176569Y0186705D02*
X0180517Y0186705D01*
X0181516Y0187704D02*
X0175571Y0187704D01*
X0176108Y0190699D02*
X0180979Y0190699D01*
X0181845Y0189833D02*
X0179443Y0192235D01*
X0179443Y0195631D01*
X0181845Y0198033D01*
X0185241Y0198033D01*
X0187643Y0195631D01*
X0187643Y0192235D01*
X0185241Y0189833D01*
X0181845Y0189833D01*
X0179980Y0191698D02*
X0177106Y0191698D01*
X0177643Y0192696D02*
X0179443Y0192696D01*
X0179443Y0193695D02*
X0177643Y0193695D01*
X0177643Y0194693D02*
X0179443Y0194693D01*
X0179504Y0195692D02*
X0177582Y0195692D01*
X0176584Y0196690D02*
X0180502Y0196690D01*
X0181501Y0197689D02*
X0175585Y0197689D01*
X0171501Y0197689D02*
X0165585Y0197689D01*
X0173543Y0183933D02*
X0176043Y0181433D01*
X0176043Y0174683D01*
X0179270Y0170729D02*
X0221464Y0170729D01*
X0221464Y0169731D02*
X0180268Y0169731D01*
X0181267Y0168732D02*
X0221464Y0168732D01*
X0221464Y0167734D02*
X0182265Y0167734D01*
X0186123Y0180714D02*
X0190964Y0180714D01*
X0189965Y0181713D02*
X0187121Y0181713D01*
X0187643Y0182711D02*
X0189443Y0182711D01*
X0189443Y0183710D02*
X0187643Y0183710D01*
X0187643Y0184708D02*
X0189443Y0184708D01*
X0189519Y0185707D02*
X0187568Y0185707D01*
X0186569Y0186705D02*
X0190517Y0186705D01*
X0191516Y0187704D02*
X0185571Y0187704D01*
X0186108Y0190699D02*
X0190979Y0190699D01*
X0191845Y0189833D02*
X0195241Y0189833D01*
X0197643Y0192235D01*
X0197643Y0195631D01*
X0195241Y0198033D01*
X0191845Y0198033D01*
X0189443Y0195631D01*
X0189443Y0192235D01*
X0191845Y0189833D01*
X0189980Y0191698D02*
X0187106Y0191698D01*
X0187643Y0192696D02*
X0189443Y0192696D01*
X0189443Y0193695D02*
X0187643Y0193695D01*
X0187643Y0194693D02*
X0189443Y0194693D01*
X0189504Y0195692D02*
X0187582Y0195692D01*
X0186584Y0196690D02*
X0190502Y0196690D01*
X0191501Y0197689D02*
X0185585Y0197689D01*
X0195585Y0197689D02*
X0201501Y0197689D01*
X0200502Y0196690D02*
X0196584Y0196690D01*
X0197582Y0195692D02*
X0199504Y0195692D01*
X0199443Y0194693D02*
X0197643Y0194693D01*
X0197643Y0193695D02*
X0199443Y0193695D01*
X0199443Y0192696D02*
X0197643Y0192696D01*
X0197106Y0191698D02*
X0199045Y0191698D01*
X0198047Y0190699D02*
X0196108Y0190699D01*
X0198543Y0188933D02*
X0198543Y0181933D01*
X0201043Y0179433D01*
X0201043Y0174683D01*
X0206043Y0174683D02*
X0206043Y0181433D01*
X0203543Y0183933D01*
X0208543Y0181933D02*
X0211043Y0179433D01*
X0211043Y0174683D01*
X0216043Y0174683D02*
X0216043Y0181433D01*
X0213543Y0183933D01*
X0210517Y0186705D02*
X0210143Y0186705D01*
X0210143Y0187704D02*
X0211516Y0187704D01*
X0210575Y0188702D02*
X0221464Y0188702D01*
X0221464Y0187704D02*
X0215571Y0187704D01*
X0216569Y0186705D02*
X0221464Y0186705D01*
X0221464Y0185707D02*
X0217568Y0185707D01*
X0217643Y0184708D02*
X0221464Y0184708D01*
X0221464Y0183710D02*
X0217643Y0183710D01*
X0217643Y0182711D02*
X0221464Y0182711D01*
X0221464Y0181713D02*
X0217643Y0181713D01*
X0217643Y0180714D02*
X0221464Y0180714D01*
X0221464Y0179716D02*
X0217643Y0179716D01*
X0217643Y0178717D02*
X0221464Y0178717D01*
X0221464Y0177719D02*
X0218613Y0177719D01*
X0218943Y0176720D02*
X0221464Y0176720D01*
X0221464Y0175722D02*
X0218943Y0175722D01*
X0218943Y0174723D02*
X0221464Y0174723D01*
X0221464Y0173725D02*
X0218943Y0173725D01*
X0218943Y0172726D02*
X0221464Y0172726D01*
X0221464Y0171728D02*
X0218693Y0171728D01*
X0208543Y0181933D02*
X0208543Y0188933D01*
X0213543Y0193933D01*
X0210502Y0196690D02*
X0206584Y0196690D01*
X0207582Y0195692D02*
X0209504Y0195692D01*
X0209443Y0194693D02*
X0207643Y0194693D01*
X0207643Y0193695D02*
X0209443Y0193695D01*
X0209443Y0192696D02*
X0207643Y0192696D01*
X0207106Y0191698D02*
X0209045Y0191698D01*
X0208047Y0190699D02*
X0206108Y0190699D01*
X0207048Y0189701D02*
X0201574Y0189701D01*
X0200575Y0188702D02*
X0206943Y0188702D01*
X0206943Y0187704D02*
X0205571Y0187704D01*
X0206569Y0186705D02*
X0206943Y0186705D01*
X0207880Y0190533D02*
X0207880Y0190533D01*
X0211574Y0189701D02*
X0221464Y0189701D01*
X0221464Y0190699D02*
X0216108Y0190699D01*
X0217106Y0191698D02*
X0221464Y0191698D01*
X0221464Y0192696D02*
X0217643Y0192696D01*
X0217643Y0193695D02*
X0221464Y0193695D01*
X0221464Y0194693D02*
X0217643Y0194693D01*
X0217582Y0195692D02*
X0221464Y0195692D01*
X0221464Y0196690D02*
X0216584Y0196690D01*
X0215585Y0197689D02*
X0221464Y0197689D01*
X0211501Y0197689D02*
X0205585Y0197689D01*
X0203543Y0193933D02*
X0198543Y0188933D01*
X0196943Y0187704D02*
X0195571Y0187704D01*
X0196569Y0186705D02*
X0196943Y0186705D01*
X0200143Y0186705D02*
X0200517Y0186705D01*
X0200143Y0187704D02*
X0201516Y0187704D01*
X0197499Y0180714D02*
X0196122Y0180714D01*
X0095847Y0200684D02*
X0010543Y0200684D01*
X0010543Y0199686D02*
X0094848Y0199686D01*
X0076501Y0197689D02*
X0070585Y0197689D01*
X0032499Y0180714D02*
X0031122Y0180714D01*
X0025964Y0180714D02*
X0021123Y0180714D01*
X0022121Y0181713D02*
X0024965Y0181713D01*
X0024443Y0182711D02*
X0022643Y0182711D01*
X0022643Y0183710D02*
X0024443Y0183710D01*
X0024443Y0184708D02*
X0022643Y0184708D01*
X0022568Y0185707D02*
X0024519Y0185707D01*
X0025517Y0186705D02*
X0021569Y0186705D01*
X0020571Y0187704D02*
X0026516Y0187704D01*
X0025979Y0190699D02*
X0021108Y0190699D01*
X0022106Y0191698D02*
X0024980Y0191698D01*
X0024443Y0192696D02*
X0022643Y0192696D01*
X0022643Y0193695D02*
X0024443Y0193695D01*
X0024443Y0194693D02*
X0022643Y0194693D01*
X0022582Y0195692D02*
X0024504Y0195692D01*
X0025502Y0196690D02*
X0021584Y0196690D01*
X0020585Y0197689D02*
X0026501Y0197689D01*
D25*
X0095543Y0148933D03*
X0103543Y0147933D03*
X0104543Y0137933D03*
X0119543Y0143933D03*
X0123543Y0140933D03*
X0123543Y0146933D03*
X0129543Y0147933D03*
X0119543Y0153933D03*
X0116543Y0157933D03*
X0117543Y0170933D03*
X0119543Y0174933D03*
X0113543Y0174933D03*
X0102543Y0175933D03*
X0102543Y0179933D03*
X0115543Y0193933D03*
X0129543Y0179933D03*
X0129543Y0175933D03*
X0141543Y0143933D03*
X0148543Y0143933D03*
X0134543Y0129933D03*
X0128543Y0129933D03*
X0123543Y0128933D03*
X0126543Y0117933D03*
X0129543Y0112933D03*
X0124543Y0107933D03*
X0129543Y0096933D03*
X0125543Y0094933D03*
X0120543Y0091933D03*
X0128543Y0089933D03*
X0132543Y0091933D03*
X0117543Y0082933D03*
X0117543Y0078933D03*
X0111543Y0089933D03*
X0095543Y0089933D03*
X0111543Y0102933D03*
X0101543Y0122933D03*
X0084543Y0109933D03*
X0078543Y0120933D03*
X0065543Y0116933D03*
X0055543Y0123933D03*
X0111543Y0066933D03*
X0116543Y0066933D03*
X0120543Y0065933D03*
X0128543Y0061933D03*
X0128543Y0057933D03*
X0117543Y0043933D03*
X0103543Y0058933D03*
X0103543Y0062933D03*
X0158543Y0107933D03*
X0160543Y0121933D03*
X0160543Y0128933D03*
X0168543Y0140933D03*
X0187543Y0146933D03*
X0189543Y0140933D03*
X0137543Y0113933D03*
X0160543Y0089933D03*
X0183543Y0090933D03*
X0217543Y0093933D03*
D26*
X0048543Y0103933D02*
X0044842Y0107634D01*
X0038386Y0107634D01*
X0038386Y0120232D02*
X0038543Y0120232D01*
X0038543Y0123933D01*
X0020543Y0113933D02*
X0018543Y0113933D01*
D27*
X0048543Y0103933D03*
D28*
X0029543Y0091933D03*
X0209543Y0117933D03*
D29*
X0212543Y0117933D01*
X0213543Y0118933D01*
X0029543Y0092933D02*
X0029543Y0091933D01*
X0029543Y0092933D02*
X0028543Y0093933D01*
D30*
X0020543Y0113933D03*
D31*
X0038543Y0123933D03*
M02*
